%FSLAX45Y45*%
G04 Gerber Fmt 4.5, Leading zero omitted, Abs format (unit mm)*
G04 Created by KiCad (PCBNEW (5.1.9-0-10_14)) date 2021-07-02 21:37:09*
%MOMM*%
%LPD*%
G01*
G04 APERTURE LIST*
%TA.AperFunction,Profile*%
%ADD10C,0.050000*%
%TD*%
%ADD11C,0.200000*%
%ADD12C,0.300000*%
G04 APERTURE END LIST*
D10*
X0Y0D02*
X15780000Y0D01*
X15780000Y0D02*
X15780000Y9520000D01*
X15780000Y9520000D02*
X0Y9520000D01*
X0Y9520000D02*
X0Y0D01*
D11*
X9093790Y7165710D02*
X9195390Y7064110D01*
X9195390Y7165710D02*
X9093790Y7064110D01*
X9093790Y3165710D02*
X9195390Y3064110D01*
X9195390Y3165710D02*
X9093790Y3064110D01*
X12541590Y7165710D02*
X12643190Y7064110D01*
X12643190Y7165710D02*
X12541590Y7064110D01*
X12541590Y3165710D02*
X12643190Y3064110D01*
X12643190Y3165710D02*
X12541590Y3064110D01*
X8743490Y7518110D02*
G75*
G03*
X8743490Y7518110I-125000J0D01*
G01*
X8743490Y3118110D02*
G75*
G03*
X8743490Y3118110I-125000J0D01*
G01*
X15643490Y7518110D02*
G75*
G03*
X15643490Y7518110I-125000J0D01*
G01*
X15643490Y3118110D02*
G75*
G03*
X15643490Y3118110I-125000J0D01*
G01*
D12*
X36429Y-715714D02*
X36429Y-415714D01*
X107857Y-415714D01*
X150714Y-430000D01*
X179286Y-458571D01*
X193571Y-487143D01*
X207857Y-544286D01*
X207857Y-587143D01*
X193571Y-644286D01*
X179286Y-672857D01*
X150714Y-701428D01*
X107857Y-715714D01*
X36429Y-715714D01*
X336429Y-715714D02*
X336429Y-515714D01*
X336429Y-572857D02*
X350714Y-544286D01*
X365000Y-530000D01*
X393571Y-515714D01*
X422143Y-515714D01*
X522143Y-715714D02*
X522143Y-515714D01*
X522143Y-415714D02*
X507857Y-430000D01*
X522143Y-444286D01*
X536429Y-430000D01*
X522143Y-415714D01*
X522143Y-444286D01*
X707857Y-715714D02*
X679286Y-701428D01*
X665000Y-672857D01*
X665000Y-415714D01*
X865000Y-715714D02*
X836428Y-701428D01*
X822143Y-672857D01*
X822143Y-415714D01*
X1207857Y-715714D02*
X1207857Y-415714D01*
X1307857Y-630000D01*
X1407857Y-415714D01*
X1407857Y-715714D01*
X1679286Y-715714D02*
X1679286Y-558571D01*
X1665000Y-530000D01*
X1636428Y-515714D01*
X1579286Y-515714D01*
X1550714Y-530000D01*
X1679286Y-701428D02*
X1650714Y-715714D01*
X1579286Y-715714D01*
X1550714Y-701428D01*
X1536428Y-672857D01*
X1536428Y-644286D01*
X1550714Y-615714D01*
X1579286Y-601429D01*
X1650714Y-601429D01*
X1679286Y-587143D01*
X1822143Y-515714D02*
X1822143Y-815714D01*
X1822143Y-530000D02*
X1850714Y-515714D01*
X1907857Y-515714D01*
X1936428Y-530000D01*
X1950714Y-544286D01*
X1965000Y-572857D01*
X1965000Y-658571D01*
X1950714Y-687143D01*
X1936428Y-701428D01*
X1907857Y-715714D01*
X1850714Y-715714D01*
X1822143Y-701428D01*
X2093571Y-687143D02*
X2107857Y-701428D01*
X2093571Y-715714D01*
X2079286Y-701428D01*
X2093571Y-687143D01*
X2093571Y-715714D01*
X2093571Y-530000D02*
X2107857Y-544286D01*
X2093571Y-558571D01*
X2079286Y-544286D01*
X2093571Y-530000D01*
X2093571Y-558571D01*
X-351600Y-1159200D02*
X-250000Y-1260800D01*
X-250000Y-1159200D02*
X-351600Y-1260800D01*
X193571Y-1345714D02*
X22143Y-1345714D01*
X107857Y-1345714D02*
X107857Y-1045714D01*
X79286Y-1088571D01*
X50714Y-1117143D01*
X22143Y-1131429D01*
X322143Y-1317143D02*
X336429Y-1331429D01*
X322143Y-1345714D01*
X307857Y-1331429D01*
X322143Y-1317143D01*
X322143Y-1345714D01*
X522143Y-1045714D02*
X550714Y-1045714D01*
X579286Y-1060000D01*
X593571Y-1074286D01*
X607857Y-1102857D01*
X622143Y-1160000D01*
X622143Y-1231429D01*
X607857Y-1288571D01*
X593571Y-1317143D01*
X579286Y-1331429D01*
X550714Y-1345714D01*
X522143Y-1345714D01*
X493571Y-1331429D01*
X479286Y-1317143D01*
X465000Y-1288571D01*
X450714Y-1231429D01*
X450714Y-1160000D01*
X465000Y-1102857D01*
X479286Y-1074286D01*
X493571Y-1060000D01*
X522143Y-1045714D01*
X736428Y-1074286D02*
X750714Y-1060000D01*
X779286Y-1045714D01*
X850714Y-1045714D01*
X879286Y-1060000D01*
X893571Y-1074286D01*
X907857Y-1102857D01*
X907857Y-1131429D01*
X893571Y-1174286D01*
X722143Y-1345714D01*
X907857Y-1345714D01*
X1036428Y-1345714D02*
X1036428Y-1145714D01*
X1036428Y-1174286D02*
X1050714Y-1160000D01*
X1079286Y-1145714D01*
X1122143Y-1145714D01*
X1150714Y-1160000D01*
X1165000Y-1188571D01*
X1165000Y-1345714D01*
X1165000Y-1188571D02*
X1179286Y-1160000D01*
X1207857Y-1145714D01*
X1250714Y-1145714D01*
X1279286Y-1160000D01*
X1293571Y-1188571D01*
X1293571Y-1345714D01*
X1436428Y-1345714D02*
X1436428Y-1145714D01*
X1436428Y-1174286D02*
X1450714Y-1160000D01*
X1479286Y-1145714D01*
X1522143Y-1145714D01*
X1550714Y-1160000D01*
X1565000Y-1188571D01*
X1565000Y-1345714D01*
X1565000Y-1188571D02*
X1579286Y-1160000D01*
X1607857Y-1145714D01*
X1650714Y-1145714D01*
X1679286Y-1160000D01*
X1693571Y-1188571D01*
X1693571Y-1345714D01*
X2279286Y-1031428D02*
X2022143Y-1417143D01*
X2665000Y-1045714D02*
X2693571Y-1045714D01*
X2722143Y-1060000D01*
X2736429Y-1074286D01*
X2750714Y-1102857D01*
X2765000Y-1160000D01*
X2765000Y-1231429D01*
X2750714Y-1288571D01*
X2736429Y-1317143D01*
X2722143Y-1331429D01*
X2693571Y-1345714D01*
X2665000Y-1345714D01*
X2636429Y-1331429D01*
X2622143Y-1317143D01*
X2607857Y-1288571D01*
X2593571Y-1231429D01*
X2593571Y-1160000D01*
X2607857Y-1102857D01*
X2622143Y-1074286D01*
X2636429Y-1060000D01*
X2665000Y-1045714D01*
X2893571Y-1317143D02*
X2907857Y-1331429D01*
X2893571Y-1345714D01*
X2879286Y-1331429D01*
X2893571Y-1317143D01*
X2893571Y-1345714D01*
X3093571Y-1045714D02*
X3122143Y-1045714D01*
X3150714Y-1060000D01*
X3165000Y-1074286D01*
X3179286Y-1102857D01*
X3193571Y-1160000D01*
X3193571Y-1231429D01*
X3179286Y-1288571D01*
X3165000Y-1317143D01*
X3150714Y-1331429D01*
X3122143Y-1345714D01*
X3093571Y-1345714D01*
X3065000Y-1331429D01*
X3050714Y-1317143D01*
X3036428Y-1288571D01*
X3022143Y-1231429D01*
X3022143Y-1160000D01*
X3036428Y-1102857D01*
X3050714Y-1074286D01*
X3065000Y-1060000D01*
X3093571Y-1045714D01*
X3450714Y-1145714D02*
X3450714Y-1345714D01*
X3379286Y-1031428D02*
X3307857Y-1245714D01*
X3493571Y-1245714D01*
X3665000Y-1045714D02*
X3693571Y-1045714D01*
X3722143Y-1060000D01*
X3736428Y-1074286D01*
X3750714Y-1102857D01*
X3765000Y-1160000D01*
X3765000Y-1231429D01*
X3750714Y-1288571D01*
X3736428Y-1317143D01*
X3722143Y-1331429D01*
X3693571Y-1345714D01*
X3665000Y-1345714D01*
X3636428Y-1331429D01*
X3622143Y-1317143D01*
X3607857Y-1288571D01*
X3593571Y-1231429D01*
X3593571Y-1160000D01*
X3607857Y-1102857D01*
X3622143Y-1074286D01*
X3636428Y-1060000D01*
X3665000Y-1045714D01*
X3879286Y-1045714D02*
X3879286Y-1102857D01*
X3993571Y-1045714D02*
X3993571Y-1102857D01*
X4436429Y-1460000D02*
X4422143Y-1445714D01*
X4393571Y-1402857D01*
X4379286Y-1374286D01*
X4365000Y-1331429D01*
X4350714Y-1260000D01*
X4350714Y-1202857D01*
X4365000Y-1131429D01*
X4379286Y-1088571D01*
X4393571Y-1060000D01*
X4422143Y-1017143D01*
X4436429Y-1002857D01*
X4679286Y-1145714D02*
X4679286Y-1345714D01*
X4607857Y-1031428D02*
X4536429Y-1245714D01*
X4722143Y-1245714D01*
X5065000Y-1345714D02*
X5065000Y-1045714D01*
X5193571Y-1345714D02*
X5193571Y-1188571D01*
X5179286Y-1160000D01*
X5150714Y-1145714D01*
X5107857Y-1145714D01*
X5079286Y-1160000D01*
X5065000Y-1174286D01*
X5379286Y-1345714D02*
X5350714Y-1331429D01*
X5336429Y-1317143D01*
X5322143Y-1288571D01*
X5322143Y-1202857D01*
X5336429Y-1174286D01*
X5350714Y-1160000D01*
X5379286Y-1145714D01*
X5422143Y-1145714D01*
X5450714Y-1160000D01*
X5465000Y-1174286D01*
X5479286Y-1202857D01*
X5479286Y-1288571D01*
X5465000Y-1317143D01*
X5450714Y-1331429D01*
X5422143Y-1345714D01*
X5379286Y-1345714D01*
X5650714Y-1345714D02*
X5622143Y-1331429D01*
X5607857Y-1302857D01*
X5607857Y-1045714D01*
X5879286Y-1331429D02*
X5850714Y-1345714D01*
X5793571Y-1345714D01*
X5765000Y-1331429D01*
X5750714Y-1302857D01*
X5750714Y-1188571D01*
X5765000Y-1160000D01*
X5793571Y-1145714D01*
X5850714Y-1145714D01*
X5879286Y-1160000D01*
X5893571Y-1188571D01*
X5893571Y-1217143D01*
X5750714Y-1245714D01*
X6007857Y-1331429D02*
X6036428Y-1345714D01*
X6093571Y-1345714D01*
X6122143Y-1331429D01*
X6136428Y-1302857D01*
X6136428Y-1288571D01*
X6122143Y-1260000D01*
X6093571Y-1245714D01*
X6050714Y-1245714D01*
X6022143Y-1231429D01*
X6007857Y-1202857D01*
X6007857Y-1188571D01*
X6022143Y-1160000D01*
X6050714Y-1145714D01*
X6093571Y-1145714D01*
X6122143Y-1160000D01*
X6236428Y-1460000D02*
X6250714Y-1445714D01*
X6279286Y-1402857D01*
X6293571Y-1374286D01*
X6307857Y-1331429D01*
X6322143Y-1260000D01*
X6322143Y-1202857D01*
X6307857Y-1131429D01*
X6293571Y-1088571D01*
X6279286Y-1060000D01*
X6250714Y-1017143D01*
X6236428Y-1002857D01*
X6779286Y-1460000D02*
X6765000Y-1445714D01*
X6736428Y-1402857D01*
X6722143Y-1374286D01*
X6707857Y-1331429D01*
X6693571Y-1260000D01*
X6693571Y-1202857D01*
X6707857Y-1131429D01*
X6722143Y-1088571D01*
X6736428Y-1060000D01*
X6765000Y-1017143D01*
X6779286Y-1002857D01*
X6893571Y-1145714D02*
X6893571Y-1345714D01*
X6893571Y-1174286D02*
X6907857Y-1160000D01*
X6936428Y-1145714D01*
X6979286Y-1145714D01*
X7007857Y-1160000D01*
X7022143Y-1188571D01*
X7022143Y-1345714D01*
X7207857Y-1345714D02*
X7179286Y-1331429D01*
X7165000Y-1317143D01*
X7150714Y-1288571D01*
X7150714Y-1202857D01*
X7165000Y-1174286D01*
X7179286Y-1160000D01*
X7207857Y-1145714D01*
X7250714Y-1145714D01*
X7279286Y-1160000D01*
X7293571Y-1174286D01*
X7307857Y-1202857D01*
X7307857Y-1288571D01*
X7293571Y-1317143D01*
X7279286Y-1331429D01*
X7250714Y-1345714D01*
X7207857Y-1345714D01*
X7393571Y-1145714D02*
X7507857Y-1145714D01*
X7436428Y-1045714D02*
X7436428Y-1302857D01*
X7450714Y-1331429D01*
X7479286Y-1345714D01*
X7507857Y-1345714D01*
X7836428Y-1145714D02*
X7836428Y-1445714D01*
X7836428Y-1160000D02*
X7865000Y-1145714D01*
X7922143Y-1145714D01*
X7950714Y-1160000D01*
X7965000Y-1174286D01*
X7979286Y-1202857D01*
X7979286Y-1288571D01*
X7965000Y-1317143D01*
X7950714Y-1331429D01*
X7922143Y-1345714D01*
X7865000Y-1345714D01*
X7836428Y-1331429D01*
X8150714Y-1345714D02*
X8122143Y-1331429D01*
X8107857Y-1302857D01*
X8107857Y-1045714D01*
X8393571Y-1345714D02*
X8393571Y-1188571D01*
X8379286Y-1160000D01*
X8350714Y-1145714D01*
X8293571Y-1145714D01*
X8265000Y-1160000D01*
X8393571Y-1331429D02*
X8365000Y-1345714D01*
X8293571Y-1345714D01*
X8265000Y-1331429D01*
X8250714Y-1302857D01*
X8250714Y-1274286D01*
X8265000Y-1245714D01*
X8293571Y-1231429D01*
X8365000Y-1231429D01*
X8393571Y-1217143D01*
X8493571Y-1145714D02*
X8607857Y-1145714D01*
X8536429Y-1045714D02*
X8536429Y-1302857D01*
X8550714Y-1331429D01*
X8579286Y-1345714D01*
X8607857Y-1345714D01*
X8822143Y-1331429D02*
X8793571Y-1345714D01*
X8736429Y-1345714D01*
X8707857Y-1331429D01*
X8693571Y-1302857D01*
X8693571Y-1188571D01*
X8707857Y-1160000D01*
X8736429Y-1145714D01*
X8793571Y-1145714D01*
X8822143Y-1160000D01*
X8836429Y-1188571D01*
X8836429Y-1217143D01*
X8693571Y-1245714D01*
X9093571Y-1345714D02*
X9093571Y-1045714D01*
X9093571Y-1331429D02*
X9065000Y-1345714D01*
X9007857Y-1345714D01*
X8979286Y-1331429D01*
X8965000Y-1317143D01*
X8950714Y-1288571D01*
X8950714Y-1202857D01*
X8965000Y-1174286D01*
X8979286Y-1160000D01*
X9007857Y-1145714D01*
X9065000Y-1145714D01*
X9093571Y-1160000D01*
X9207857Y-1460000D02*
X9222143Y-1445714D01*
X9250714Y-1402857D01*
X9265000Y-1374286D01*
X9279286Y-1331429D01*
X9293571Y-1260000D01*
X9293571Y-1202857D01*
X9279286Y-1131429D01*
X9265000Y-1088571D01*
X9250714Y-1060000D01*
X9222143Y-1017143D01*
X9207857Y-1002857D01*
X-250000Y-1606000D02*
G75*
G03*
X-250000Y-1606000I-125000J0D01*
G01*
X22143Y-1470286D02*
X36429Y-1456000D01*
X65000Y-1441714D01*
X136429Y-1441714D01*
X165000Y-1456000D01*
X179286Y-1470286D01*
X193571Y-1498857D01*
X193571Y-1527428D01*
X179286Y-1570286D01*
X7857Y-1741714D01*
X193571Y-1741714D01*
X322143Y-1713143D02*
X336429Y-1727428D01*
X322143Y-1741714D01*
X307857Y-1727428D01*
X322143Y-1713143D01*
X322143Y-1741714D01*
X607857Y-1441714D02*
X465000Y-1441714D01*
X450714Y-1584571D01*
X465000Y-1570286D01*
X493571Y-1556000D01*
X565000Y-1556000D01*
X593571Y-1570286D01*
X607857Y-1584571D01*
X622143Y-1613143D01*
X622143Y-1684571D01*
X607857Y-1713143D01*
X593571Y-1727428D01*
X565000Y-1741714D01*
X493571Y-1741714D01*
X465000Y-1727428D01*
X450714Y-1713143D01*
X807857Y-1441714D02*
X836428Y-1441714D01*
X865000Y-1456000D01*
X879286Y-1470286D01*
X893571Y-1498857D01*
X907857Y-1556000D01*
X907857Y-1627428D01*
X893571Y-1684571D01*
X879286Y-1713143D01*
X865000Y-1727428D01*
X836428Y-1741714D01*
X807857Y-1741714D01*
X779286Y-1727428D01*
X765000Y-1713143D01*
X750714Y-1684571D01*
X736428Y-1627428D01*
X736428Y-1556000D01*
X750714Y-1498857D01*
X765000Y-1470286D01*
X779286Y-1456000D01*
X807857Y-1441714D01*
X1036428Y-1741714D02*
X1036428Y-1541714D01*
X1036428Y-1570286D02*
X1050714Y-1556000D01*
X1079286Y-1541714D01*
X1122143Y-1541714D01*
X1150714Y-1556000D01*
X1165000Y-1584571D01*
X1165000Y-1741714D01*
X1165000Y-1584571D02*
X1179286Y-1556000D01*
X1207857Y-1541714D01*
X1250714Y-1541714D01*
X1279286Y-1556000D01*
X1293571Y-1584571D01*
X1293571Y-1741714D01*
X1436428Y-1741714D02*
X1436428Y-1541714D01*
X1436428Y-1570286D02*
X1450714Y-1556000D01*
X1479286Y-1541714D01*
X1522143Y-1541714D01*
X1550714Y-1556000D01*
X1565000Y-1584571D01*
X1565000Y-1741714D01*
X1565000Y-1584571D02*
X1579286Y-1556000D01*
X1607857Y-1541714D01*
X1650714Y-1541714D01*
X1679286Y-1556000D01*
X1693571Y-1584571D01*
X1693571Y-1741714D01*
X2279286Y-1427428D02*
X2022143Y-1813143D01*
X2665000Y-1441714D02*
X2693571Y-1441714D01*
X2722143Y-1456000D01*
X2736429Y-1470286D01*
X2750714Y-1498857D01*
X2765000Y-1556000D01*
X2765000Y-1627428D01*
X2750714Y-1684571D01*
X2736429Y-1713143D01*
X2722143Y-1727428D01*
X2693571Y-1741714D01*
X2665000Y-1741714D01*
X2636429Y-1727428D01*
X2622143Y-1713143D01*
X2607857Y-1684571D01*
X2593571Y-1627428D01*
X2593571Y-1556000D01*
X2607857Y-1498857D01*
X2622143Y-1470286D01*
X2636429Y-1456000D01*
X2665000Y-1441714D01*
X2893571Y-1713143D02*
X2907857Y-1727428D01*
X2893571Y-1741714D01*
X2879286Y-1727428D01*
X2893571Y-1713143D01*
X2893571Y-1741714D01*
X3093571Y-1441714D02*
X3122143Y-1441714D01*
X3150714Y-1456000D01*
X3165000Y-1470286D01*
X3179286Y-1498857D01*
X3193571Y-1556000D01*
X3193571Y-1627428D01*
X3179286Y-1684571D01*
X3165000Y-1713143D01*
X3150714Y-1727428D01*
X3122143Y-1741714D01*
X3093571Y-1741714D01*
X3065000Y-1727428D01*
X3050714Y-1713143D01*
X3036428Y-1684571D01*
X3022143Y-1627428D01*
X3022143Y-1556000D01*
X3036428Y-1498857D01*
X3050714Y-1470286D01*
X3065000Y-1456000D01*
X3093571Y-1441714D01*
X3336428Y-1741714D02*
X3393571Y-1741714D01*
X3422143Y-1727428D01*
X3436428Y-1713143D01*
X3465000Y-1670286D01*
X3479286Y-1613143D01*
X3479286Y-1498857D01*
X3465000Y-1470286D01*
X3450714Y-1456000D01*
X3422143Y-1441714D01*
X3365000Y-1441714D01*
X3336428Y-1456000D01*
X3322143Y-1470286D01*
X3307857Y-1498857D01*
X3307857Y-1570286D01*
X3322143Y-1598857D01*
X3336428Y-1613143D01*
X3365000Y-1627428D01*
X3422143Y-1627428D01*
X3450714Y-1613143D01*
X3465000Y-1598857D01*
X3479286Y-1570286D01*
X3650714Y-1570286D02*
X3622143Y-1556000D01*
X3607857Y-1541714D01*
X3593571Y-1513143D01*
X3593571Y-1498857D01*
X3607857Y-1470286D01*
X3622143Y-1456000D01*
X3650714Y-1441714D01*
X3707857Y-1441714D01*
X3736428Y-1456000D01*
X3750714Y-1470286D01*
X3765000Y-1498857D01*
X3765000Y-1513143D01*
X3750714Y-1541714D01*
X3736428Y-1556000D01*
X3707857Y-1570286D01*
X3650714Y-1570286D01*
X3622143Y-1584571D01*
X3607857Y-1598857D01*
X3593571Y-1627428D01*
X3593571Y-1684571D01*
X3607857Y-1713143D01*
X3622143Y-1727428D01*
X3650714Y-1741714D01*
X3707857Y-1741714D01*
X3736428Y-1727428D01*
X3750714Y-1713143D01*
X3765000Y-1684571D01*
X3765000Y-1627428D01*
X3750714Y-1598857D01*
X3736428Y-1584571D01*
X3707857Y-1570286D01*
X3879286Y-1441714D02*
X3879286Y-1498857D01*
X3993571Y-1441714D02*
X3993571Y-1498857D01*
X4436429Y-1856000D02*
X4422143Y-1841714D01*
X4393571Y-1798857D01*
X4379286Y-1770286D01*
X4365000Y-1727428D01*
X4350714Y-1656000D01*
X4350714Y-1598857D01*
X4365000Y-1527428D01*
X4379286Y-1484571D01*
X4393571Y-1456000D01*
X4422143Y-1413143D01*
X4436429Y-1398857D01*
X4679286Y-1541714D02*
X4679286Y-1741714D01*
X4607857Y-1427428D02*
X4536429Y-1641714D01*
X4722143Y-1641714D01*
X5065000Y-1741714D02*
X5065000Y-1441714D01*
X5193571Y-1741714D02*
X5193571Y-1584571D01*
X5179286Y-1556000D01*
X5150714Y-1541714D01*
X5107857Y-1541714D01*
X5079286Y-1556000D01*
X5065000Y-1570286D01*
X5379286Y-1741714D02*
X5350714Y-1727428D01*
X5336429Y-1713143D01*
X5322143Y-1684571D01*
X5322143Y-1598857D01*
X5336429Y-1570286D01*
X5350714Y-1556000D01*
X5379286Y-1541714D01*
X5422143Y-1541714D01*
X5450714Y-1556000D01*
X5465000Y-1570286D01*
X5479286Y-1598857D01*
X5479286Y-1684571D01*
X5465000Y-1713143D01*
X5450714Y-1727428D01*
X5422143Y-1741714D01*
X5379286Y-1741714D01*
X5650714Y-1741714D02*
X5622143Y-1727428D01*
X5607857Y-1698857D01*
X5607857Y-1441714D01*
X5879286Y-1727428D02*
X5850714Y-1741714D01*
X5793571Y-1741714D01*
X5765000Y-1727428D01*
X5750714Y-1698857D01*
X5750714Y-1584571D01*
X5765000Y-1556000D01*
X5793571Y-1541714D01*
X5850714Y-1541714D01*
X5879286Y-1556000D01*
X5893571Y-1584571D01*
X5893571Y-1613143D01*
X5750714Y-1641714D01*
X6007857Y-1727428D02*
X6036428Y-1741714D01*
X6093571Y-1741714D01*
X6122143Y-1727428D01*
X6136428Y-1698857D01*
X6136428Y-1684571D01*
X6122143Y-1656000D01*
X6093571Y-1641714D01*
X6050714Y-1641714D01*
X6022143Y-1627428D01*
X6007857Y-1598857D01*
X6007857Y-1584571D01*
X6022143Y-1556000D01*
X6050714Y-1541714D01*
X6093571Y-1541714D01*
X6122143Y-1556000D01*
X6236428Y-1856000D02*
X6250714Y-1841714D01*
X6279286Y-1798857D01*
X6293571Y-1770286D01*
X6307857Y-1727428D01*
X6322143Y-1656000D01*
X6322143Y-1598857D01*
X6307857Y-1527428D01*
X6293571Y-1484571D01*
X6279286Y-1456000D01*
X6250714Y-1413143D01*
X6236428Y-1398857D01*
X6779286Y-1856000D02*
X6765000Y-1841714D01*
X6736428Y-1798857D01*
X6722143Y-1770286D01*
X6707857Y-1727428D01*
X6693571Y-1656000D01*
X6693571Y-1598857D01*
X6707857Y-1527428D01*
X6722143Y-1484571D01*
X6736428Y-1456000D01*
X6765000Y-1413143D01*
X6779286Y-1398857D01*
X6893571Y-1541714D02*
X6893571Y-1741714D01*
X6893571Y-1570286D02*
X6907857Y-1556000D01*
X6936428Y-1541714D01*
X6979286Y-1541714D01*
X7007857Y-1556000D01*
X7022143Y-1584571D01*
X7022143Y-1741714D01*
X7207857Y-1741714D02*
X7179286Y-1727428D01*
X7165000Y-1713143D01*
X7150714Y-1684571D01*
X7150714Y-1598857D01*
X7165000Y-1570286D01*
X7179286Y-1556000D01*
X7207857Y-1541714D01*
X7250714Y-1541714D01*
X7279286Y-1556000D01*
X7293571Y-1570286D01*
X7307857Y-1598857D01*
X7307857Y-1684571D01*
X7293571Y-1713143D01*
X7279286Y-1727428D01*
X7250714Y-1741714D01*
X7207857Y-1741714D01*
X7393571Y-1541714D02*
X7507857Y-1541714D01*
X7436428Y-1441714D02*
X7436428Y-1698857D01*
X7450714Y-1727428D01*
X7479286Y-1741714D01*
X7507857Y-1741714D01*
X7836428Y-1541714D02*
X7836428Y-1841714D01*
X7836428Y-1556000D02*
X7865000Y-1541714D01*
X7922143Y-1541714D01*
X7950714Y-1556000D01*
X7965000Y-1570286D01*
X7979286Y-1598857D01*
X7979286Y-1684571D01*
X7965000Y-1713143D01*
X7950714Y-1727428D01*
X7922143Y-1741714D01*
X7865000Y-1741714D01*
X7836428Y-1727428D01*
X8150714Y-1741714D02*
X8122143Y-1727428D01*
X8107857Y-1698857D01*
X8107857Y-1441714D01*
X8393571Y-1741714D02*
X8393571Y-1584571D01*
X8379286Y-1556000D01*
X8350714Y-1541714D01*
X8293571Y-1541714D01*
X8265000Y-1556000D01*
X8393571Y-1727428D02*
X8365000Y-1741714D01*
X8293571Y-1741714D01*
X8265000Y-1727428D01*
X8250714Y-1698857D01*
X8250714Y-1670286D01*
X8265000Y-1641714D01*
X8293571Y-1627428D01*
X8365000Y-1627428D01*
X8393571Y-1613143D01*
X8493571Y-1541714D02*
X8607857Y-1541714D01*
X8536429Y-1441714D02*
X8536429Y-1698857D01*
X8550714Y-1727428D01*
X8579286Y-1741714D01*
X8607857Y-1741714D01*
X8822143Y-1727428D02*
X8793571Y-1741714D01*
X8736429Y-1741714D01*
X8707857Y-1727428D01*
X8693571Y-1698857D01*
X8693571Y-1584571D01*
X8707857Y-1556000D01*
X8736429Y-1541714D01*
X8793571Y-1541714D01*
X8822143Y-1556000D01*
X8836429Y-1584571D01*
X8836429Y-1613143D01*
X8693571Y-1641714D01*
X9093571Y-1741714D02*
X9093571Y-1441714D01*
X9093571Y-1727428D02*
X9065000Y-1741714D01*
X9007857Y-1741714D01*
X8979286Y-1727428D01*
X8965000Y-1713143D01*
X8950714Y-1684571D01*
X8950714Y-1598857D01*
X8965000Y-1570286D01*
X8979286Y-1556000D01*
X9007857Y-1541714D01*
X9065000Y-1541714D01*
X9093571Y-1556000D01*
X9207857Y-1856000D02*
X9222143Y-1841714D01*
X9250714Y-1798857D01*
X9265000Y-1770286D01*
X9279286Y-1727428D01*
X9293571Y-1656000D01*
X9293571Y-1598857D01*
X9279286Y-1527428D01*
X9265000Y-1484571D01*
X9250714Y-1456000D01*
X9222143Y-1413143D01*
X9207857Y-1398857D01*
M02*
