M48
; DRILL file {KiCad (5.1.9-0-10_14)} date Friday, July 02, 2021 at 09:37:07 PM
; FORMAT={-:-/ absolute / metric / decimal}
; #@! TF.CreationDate,2021-07-02T21:37:07-05:00
; #@! TF.GenerationSoftware,Kicad,Pcbnew,(5.1.9-0-10_14)
; #@! TF.FileFunction,Plated,1,6,PTH
FMAT,2
METRIC
T1C0.300
T2C0.381
T3C0.700
T4C0.800
T5C1.000
T6C1.100
T7C1.270
T8C1.300
T9C1.778
T10C3.200
%
G90
G05
T1
X3.758Y53.68
X5.077Y53.68
X6.944Y53.68
X7.544Y60.376
X7.671Y72.695
X8.152Y71.196
X8.293Y61.976
X8.979Y52.73
X9.594Y4.633
X10.271Y53.68
X10.387Y78.864
X10.503Y35.319
X10.516Y40.45
X10.757Y52.73
X11.087Y57.201
X11.151Y34.658
X11.392Y41.326
X11.544Y66.497
X11.595Y63.017
X11.595Y61.811
X11.608Y63.97
X11.778Y69.959
X11.938Y33.896
X12.173Y42.107
X12.421Y60.401
X12.453Y86.301
X12.542Y83.864
X12.827Y39.205
X12.89Y30.645
X13.28Y31.417
X13.703Y16.406
X13.722Y28.461
X13.873Y50.132
X14.032Y37.173
X14.3Y62.001
X14.303Y39.21
X14.351Y47.65
X15.317Y84.819
X15.317Y80.821
X15.545Y66.129
X15.716Y30.352
X16.342Y43.102
X16.364Y35.192
X16.364Y33.105
X16.407Y46.477
X16.621Y22.26
X16.713Y62.049
X16.859Y39.297
X16.87Y26.554
X17.145Y48.362
X17.564Y52.984
X17.589Y16.408
X17.653Y78.181
X17.653Y77.133
X17.691Y55.893
X17.949Y28.769
X17.957Y26.436
X18.047Y1.245
X18.15Y23.072
X18.163Y61.964
X18.215Y18.201
X18.215Y11.428
X18.364Y47.015
X18.669Y24.287
X18.79Y52.229
X19.077Y60.198
X19.092Y62.169
X19.227Y73.198
X19.462Y54.197
X19.564Y66.397
X19.571Y65.634
X19.827Y49.023
X19.862Y35.863
X20.216Y27.719
X20.273Y13.656
X20.371Y54.635
X20.866Y53.466
X21.154Y74.297
X21.171Y49.091
X21.384Y61.475
X21.514Y45.999
X21.67Y26.182
X21.855Y54.64
X22.169Y60.968
X22.256Y70.239
X22.343Y44.849
X22.543Y45.999
X22.543Y13.437
X22.711Y59.813
X22.721Y51.444
X22.871Y26.553
X22.911Y37.475
X22.923Y35.025
X22.939Y41.028
X23.048Y63.104
X23.049Y67.604
X23.566Y82.135
X24.043Y16.307
X24.043Y10.597
X24.502Y86.951
X24.577Y32.228
X25.121Y72.707
X25.121Y71.691
X25.304Y79.691
X25.336Y36.514
X25.346Y57.916
X25.356Y33.937
X25.388Y39.831
X25.559Y62.149
X25.984Y28.297
X26.003Y42.462
X26.021Y78.807
X26.123Y64.58
X26.139Y66.425
X26.232Y27.307
X26.238Y34.797
X26.275Y31.716
X27.026Y44.863
X27.041Y67.173
X27.432Y41.389
X27.68Y30.629
X27.711Y54.216
X27.711Y52.578
X27.711Y50.724
X27.842Y63.998
X28.062Y10.356
X28.137Y33.983
X28.193Y57.773
X28.359Y16.391
X28.372Y27.483
X29.11Y37.305
X29.254Y63.671
X29.77Y73.106
X30.067Y22.829
X30.288Y18.669
X30.288Y12.959
X30.47Y19.616
X30.701Y31.218
X30.891Y63.199
X31.054Y75.447
X31.064Y33.639
X31.099Y10.591
X31.181Y23.365
X31.348Y67.487
X31.601Y73.023
X31.667Y82.378
X31.75Y19.408
X31.788Y13.422
X32.039Y10.587
X32.059Y44.989
X32.092Y30.703
X32.364Y59.145
X32.435Y89.632
X32.573Y56.616
X32.633Y70.857
X32.833Y90.921
X32.969Y69.888
X33.338Y13.421
X33.364Y50.011
X33.365Y53.301
X33.541Y77.495
X33.663Y66.594
X33.817Y22.816
X33.837Y39.565
X33.838Y22.089
X33.871Y46.994
X33.913Y85.803
X34.028Y45.435
X34.09Y43.076
X34.091Y49.914
X34.149Y36.562
X34.236Y91.429
X34.462Y60.371
X34.472Y87.669
X34.501Y68.725
X34.503Y31.25
X34.546Y57.523
X34.575Y62.755
X34.613Y53.43
X34.686Y28.138
X34.987Y46.296
X35.413Y69.175
X35.413Y63.312
X35.437Y40.185
X35.442Y33.639
X35.487Y36.526
X35.488Y12.947
X35.517Y49.997
X35.542Y43.335
X36.017Y77.744
X36.056Y91.268
X36.06Y78.506
X36.123Y16.858
X36.125Y47.263
X36.131Y62.474
X36.189Y18.073
X36.206Y36.034
X36.252Y63.593
X36.353Y53.971
X36.373Y76.647
X36.436Y67.919
X36.449Y73.198
X36.471Y52.149
X36.53Y72.471
X36.554Y33.52
X36.593Y46.701
X36.807Y75.314
X36.867Y82.418
X37.024Y42.862
X37.489Y55.004
X37.524Y85.225
X37.581Y78.782
X37.592Y57.26
X37.7Y80.841
X38.233Y30.06
X38.252Y18.073
X38.891Y40.563
X39.023Y61.443
X39.11Y78.745
X39.234Y91.198
X39.294Y65.583
X39.428Y84.101
X39.473Y85.668
X39.492Y63.952
X39.559Y38.375
X39.572Y37.606
X39.575Y74.731
X39.658Y83.253
X39.692Y89.194
X39.752Y69.198
X39.785Y65.044
X39.792Y60.962
X39.823Y42.7
X39.883Y40.599
X39.894Y33.73
X39.997Y89.938
X40.057Y27.365
X40.246Y50.317
X40.315Y57.32
X40.424Y51.791
X40.681Y47.986
X40.775Y54.886
X40.817Y78.46
X40.884Y76.813
X41.016Y66.09
X41.102Y62.162
X41.204Y67.378
X41.277Y85.027
X41.446Y72.885
X41.522Y18.448
X41.652Y38.18
X41.83Y32.867
X41.954Y47.65
X41.958Y73.402
X42.221Y68.257
X42.235Y76.628
X42.295Y43.841
X42.306Y59.492
X42.325Y54.925
X42.475Y75.001
X42.709Y79.377
X42.717Y87.465
X42.825Y82.578
X43.033Y89.09
X43.041Y91.673
X43.125Y58.954
X43.149Y83.868
X43.161Y32.121
X43.335Y78.275
X43.338Y69.644
X43.543Y30.06
X43.708Y61.028
X43.753Y60.298
X43.806Y33.758
X43.809Y16.166
X44.098Y34.812
X44.106Y67.378
X44.139Y84.236
X44.165Y90.033
X44.25Y9.197
X44.325Y48.294
X44.396Y33.103
X44.4Y6.411
X44.587Y51.455
X44.715Y9.882
X44.742Y75.722
X44.917Y18.725
X44.994Y52.462
X45.013Y90.465
X45.123Y73.688
X45.25Y6.416
X45.526Y33.093
X46.012Y81.267
X46.033Y92.951
X46.128Y17.8
X46.208Y39.402
X46.375Y65.779
X46.479Y49.065
X46.514Y78.09
X46.514Y77.363
X46.553Y63.233
X46.562Y80.342
X46.585Y86.887
X46.644Y37.085
X46.648Y91.228
X46.651Y84.298
X46.654Y50.155
X46.859Y88.28
X46.988Y90.231
X47.114Y62.659
X47.176Y92.951
X47.197Y70.885
X47.201Y10.992
X47.205Y36.451
X47.25Y6.411
X47.287Y57.823
X47.375Y33.824
X47.405Y46.534
X47.473Y20.256
X47.534Y74.756
X47.683Y49.622
X47.75Y9.191
X47.881Y24.391
X48.069Y66.84
X48.083Y82.582
X48.098Y66.022
X48.118Y84.928
X48.129Y92.623
X48.25Y6.427
X48.337Y65.268
X48.343Y57.563
X48.359Y11.482
X48.374Y63.649
X48.381Y33.805
X48.389Y70.959
X48.441Y39.407
X48.445Y52.335
X48.469Y19.35
X48.527Y44.574
X48.586Y16.981
X48.626Y37.051
X48.75Y9.227
X48.755Y40.749
X48.785Y53.83
X49.078Y6.424
X49.107Y46.789
X49.411Y48.413
X49.464Y60.908
X49.486Y9.192
X49.547Y34.778
X49.644Y25.522
X49.838Y77.559
X49.859Y75.377
X49.985Y88.558
X50.04Y42.061
X50.09Y89.761
X50.159Y63.459
X50.194Y48.707
X50.208Y67.346
X50.232Y80.34
X50.294Y84.399
X50.316Y34.068
X50.38Y53.908
X50.509Y17.35
X50.548Y29.861
X50.553Y28.88
X50.648Y22.809
X50.669Y18.618
X50.725Y9.287
X50.811Y91.194
X50.827Y46.672
X50.863Y15.907
X50.899Y38.261
X50.944Y51.298
X50.946Y39.102
X50.965Y65.173
X51.028Y83.749
X51.178Y54.745
X51.243Y88.949
X51.304Y53.963
X51.328Y59.881
X51.328Y50.446
X51.353Y26.871
X51.367Y91.749
X51.471Y42.506
X51.472Y9.215
X51.483Y68.368
X51.509Y69.798
X51.562Y15.528
X51.613Y67.288
X51.734Y6.428
X51.846Y75.715
X51.962Y43.584
X51.975Y57.311
X52.364Y67.165
X52.426Y89.599
X52.461Y35.988
X52.52Y40.859
X52.562Y13.785
X52.659Y29.37
X52.664Y58.167
X52.721Y26.629
X52.75Y6.419
X52.812Y82.136
X52.827Y49.377
X52.924Y36.664
X52.971Y37.392
X53.081Y64.021
X53.155Y33.495
X53.162Y23.317
X53.262Y40.968
X53.324Y26.025
X53.476Y70.205
X53.479Y80.499
X53.505Y22.123
X53.519Y45.121
X53.614Y63.322
X53.729Y49.955
X53.75Y13.789
X54.115Y60.044
X54.25Y21.431
X54.348Y23.139
X54.369Y13.202
X54.436Y32.956
X54.552Y72.634
X55.012Y67.233
X55.185Y54.522
X55.188Y14.795
X55.217Y65.283
X55.225Y66.23
X55.314Y37.995
X55.314Y38.868
X55.323Y53.415
X55.327Y51.221
X55.327Y40.262
X55.334Y51.948
X55.364Y90.91
X55.47Y48.78
X55.514Y36.049
X55.613Y22.492
X55.662Y60.335
X55.932Y86.93
X55.938Y87.803
X55.94Y55.547
X55.964Y81.023
X56.161Y69.308
X56.701Y15.778
X56.708Y9.935
X56.77Y78.956
X57.038Y34.639
X57.172Y83.834
X57.242Y70.672
X57.265Y90.518
X57.345Y16.85
X57.572Y25.664
X57.728Y73.092
X58.003Y45.288
X58.039Y78.145
X58.106Y89.493
X58.106Y2.871
X58.272Y36.459
X58.369Y8.289
X58.465Y53.187
X58.509Y13.114
X58.56Y49.795
X58.581Y59.816
X58.587Y73.621
X58.587Y72.887
X58.623Y57.371
X58.652Y66.598
X58.749Y79.872
X58.898Y17.35
X58.933Y55.207
X59.104Y42.181
X59.252Y88.041
X59.309Y24.32
X59.462Y87.083
X59.473Y57.792
X59.495Y58.524
X59.667Y36.596
X59.69Y62.905
X59.796Y53.033
X59.909Y72.292
X60.172Y83.917
X60.192Y90.416
X60.274Y49.817
X60.275Y37.128
X60.294Y20.076
X60.4Y66.004
X60.438Y15.096
X60.828Y62.662
X60.841Y92.959
X61.077Y49.56
X61.087Y82.004
X61.186Y67.247
X61.233Y37.896
X61.243Y47.179
X61.253Y38.681
X61.254Y52.514
X61.344Y34.184
X61.347Y60.282
X61.354Y13.098
X61.401Y75.192
X61.508Y2.126
X61.63Y41.167
X61.752Y93.277
X61.777Y4.613
X61.955Y78.349
X61.968Y54.533
X62.046Y57.977
X62.051Y90.531
X62.051Y77.62
X62.116Y16.573
X62.189Y87.741
X62.26Y22.729
X62.629Y72.179
X62.926Y33.521
X62.989Y24.817
X63.283Y10.435
X63.351Y90.544
X63.351Y75.192
X63.4Y61.704
X63.884Y41.346
X63.978Y33.247
X64.032Y81.591
X64.062Y88.993
X64.126Y77.623
X64.127Y39.373
X64.16Y16.461
X64.16Y13.138
X64.274Y28.74
X64.277Y93.29
X64.319Y64.18
X64.348Y53.216
X64.35Y64.921
X64.372Y51.568
X64.389Y84.379
X64.613Y69.322
X64.625Y42.66
X64.647Y4.736
X64.651Y75.173
X64.663Y47.236
X64.676Y39.902
X64.742Y54.561
X64.771Y9.442
X64.779Y12.415
X64.828Y67.546
X64.857Y50.991
X64.97Y65.805
X65.013Y60.317
X65.466Y53.292
X65.532Y55.018
X65.623Y35.064
X65.627Y46.273
X65.662Y75.192
X65.85Y6.732
X66.089Y37.161
X66.307Y54.625
X66.342Y52.297
X66.368Y37.962
X66.37Y23.83
X66.593Y90.534
X66.599Y47.821
X66.674Y64.369
X66.911Y84.867
X66.929Y81.468
X66.929Y78.135
X67.082Y55.002
X67.089Y87.435
X67.337Y35.064
X67.707Y75.162
X67.742Y88.963
X67.772Y82.969
X67.775Y69.938
X67.79Y43.7
X67.831Y14.87
X67.843Y48.083
X68.299Y61.226
X68.374Y16.358
X68.55Y72.433
X68.673Y14.037
X68.798Y67.425
X68.895Y16.866
X68.987Y15.116
X69.063Y15.867
X69.152Y59.586
X69.185Y91.687
X69.203Y75.875
X69.208Y41.035
X69.331Y38.546
X69.341Y48.646
X69.349Y36.878
X69.452Y61.747
X69.452Y51.298
X69.463Y35.154
X69.571Y22.964
X69.571Y11.115
X69.578Y65.883
X69.592Y49.764
X69.593Y62.898
X69.618Y37.656
X69.895Y71.254
X70.051Y90.886
X70.061Y14.783
X70.31Y17.296
X70.51Y41.775
X70.722Y13.738
X70.856Y44.304
X71.257Y82.088
X71.261Y84.399
X71.267Y80.499
X71.271Y83.099
X71.275Y85.699
X71.278Y78.991
X71.383Y52.376
X71.698Y49.356
X71.736Y36.345
X71.858Y41.821
X71.907Y62.653
X72.162Y60.613
X72.173Y34.24
X72.184Y54.561
X72.225Y15.659
X72.245Y68.552
X72.281Y47.529
X72.319Y28.74
X72.329Y46.764
X72.41Y19.996
X72.442Y17.92
X72.511Y49.754
X72.512Y36.329
X72.727Y56.99
X72.729Y43.766
X72.795Y38.131
X72.939Y58.488
X73.125Y7.353
X73.199Y40.451
X73.214Y53.575
X73.218Y39.661
X73.22Y65.912
X73.231Y52.709
X73.401Y44.758
X73.673Y54.412
X73.674Y41.353
X73.716Y28.745
X73.85Y16.428
X73.899Y33.171
X74.168Y48.559
X74.169Y37.388
X74.219Y19.469
X74.326Y6.422
X74.342Y63.818
X74.347Y34.475
X74.37Y60.889
X74.44Y15.325
X74.447Y50.722
X74.557Y46.51
X74.886Y69.962
X74.984Y60.441
X75.114Y35.645
X75.25Y6.42
X75.275Y67.896
X75.429Y10.472
X75.431Y24.285
X75.479Y81.635
X75.687Y38.411
X75.711Y51.349
X75.818Y65.483
X75.921Y69.822
X75.948Y81.057
X76.015Y42.305
X76.214Y63.66
X76.32Y43.53
X76.368Y75.964
X76.388Y10.725
X76.473Y77.91
X76.489Y77.182
X76.497Y37.221
X76.538Y67.663
X76.607Y87.719
X76.666Y16.104
X76.728Y57.466
X77.038Y9.226
X77.065Y18.85
X77.089Y62.048
X77.186Y71.099
X77.213Y49.91
X77.244Y24.686
X77.255Y44.859
X77.258Y34.113
X77.298Y6.432
X77.317Y84.849
X77.567Y63.325
X77.736Y82.62
X77.821Y41.162
X77.843Y9.207
X77.914Y61.508
X77.923Y80.307
X77.941Y64.095
X77.971Y67.25
X77.988Y54.003
X78.005Y70.259
X78.114Y44.218
X78.159Y68.416
X78.33Y50.401
X78.331Y84.867
X78.427Y19.35
X78.457Y48.201
X78.493Y59.239
X78.544Y18.42
X78.586Y16.981
X78.75Y6.431
X78.758Y80.289
X79.18Y20.302
X79.223Y84.868
X79.253Y46.946
X79.42Y75.677
X79.431Y24.061
X79.48Y10.472
X79.644Y45.534
X79.731Y74.443
X79.75Y6.413
X79.848Y42.105
X79.921Y22.847
X79.937Y67.659
X79.938Y54.59
X79.938Y40.916
X80.074Y59.414
X80.074Y52.968
X80.079Y38.389
X80.08Y39.161
X80.085Y52.139
X80.087Y65.323
X80.095Y51.411
X80.101Y66.27
X80.283Y16.16
X80.409Y48.797
X80.469Y77.624
X80.613Y9.188
X80.692Y18.618
X80.756Y83.219
X80.824Y15.669
X80.866Y36.121
X80.941Y59.639
X81.007Y84.86
X81.25Y6.411
X81.278Y21.476
X81.418Y14.138
X81.452Y15.23
X81.75Y9.193
X81.883Y4.949
X81.981Y62.819
X82.22Y43.536
X82.23Y67.651
X82.256Y9.877
X82.353Y30.207
X82.473Y77.66
X82.75Y6.418
X82.867Y9.386
X82.97Y84.872
X83.116Y76.364
X83.166Y30.438
X83.283Y77.672
X83.283Y31.397
X83.46Y35.405
X83.541Y44.209
X83.601Y9.346
X83.798Y45.415
X84.131Y74.189
X84.157Y84.867
X84.197Y21.454
X84.248Y48.975
X84.482Y49.863
X84.5Y13.788
X84.648Y24.454
X85.005Y77.846
X85.121Y78.581
X85.252Y23.85
X85.305Y14.795
X85.333Y56.558
X85.357Y22.047
X85.736Y50.313
X85.791Y40.536
X85.858Y78.954
X86.155Y42.425
X86.29Y38.326
X86.436Y22.631
X86.597Y68.019
X86.983Y46.153
X86.993Y43.981
X87.01Y15.778
X87.122Y28.892
X87.274Y21.996
X87.304Y19.096
X87.309Y18.35
X87.35Y16.904
X87.367Y52.386
X87.511Y85.411
X87.56Y56.114
X87.63Y32.982
X87.917Y29.587
X88.001Y66.076
X88.036Y28.753
X88.108Y37.166
X88.145Y71.099
X88.204Y60.026
X88.244Y44.996
X88.281Y23.768
X88.494Y21.272
X88.509Y16.474
X88.509Y13.134
X88.512Y89.842
X88.722Y70.206
X88.74Y57.728
X88.805Y66.907
X88.884Y23.165
X88.939Y17.395
X89.321Y1.446
X89.469Y74.366
X89.592Y29.399
X89.649Y32.906
X89.669Y8.105
X89.683Y37.166
X89.743Y53.471
X89.764Y57.633
X90.013Y48.913
X90.105Y46.994
X90.107Y13.706
X90.112Y22.368
X90.185Y68.856
X90.414Y15.833
X90.425Y84.077
X90.534Y68.219
X90.58Y79.548
X90.872Y66.56
X90.904Y22.212
X91.058Y29.619
X91.354Y13.126
X91.484Y18.403
X91.605Y54.991
X91.608Y21.867
X91.625Y58.947
X91.633Y82.891
X91.647Y78.091
X91.832Y48.064
X91.842Y89.924
X91.863Y19.69
X91.872Y46.151
X91.872Y43.844
X91.884Y43.094
X91.986Y16.427
X91.988Y70.087
X92.398Y70.7
X92.405Y75.209
X92.563Y4.376
X92.579Y6.538
X92.67Y13.706
X92.89Y77.441
X92.915Y51.302
X93.014Y37.42
X93.169Y45.39
X93.17Y46.361
X93.221Y62.134
X93.296Y28.138
X93.363Y54.338
X93.566Y60.616
X93.653Y18.315
X93.713Y80.975
X93.747Y86.175
X93.788Y68.43
X93.865Y82.501
X93.919Y85.309
X93.945Y22.168
X94.16Y16.491
X94.16Y13.111
X94.247Y55.315
X94.489Y48.357
X94.516Y40.536
X94.711Y61.578
X94.77Y68.16
X94.772Y22.123
X95.302Y28.81
X95.308Y55.334
X95.408Y77.809
X95.513Y42.228
X95.646Y61.125
X95.851Y13.113
X95.925Y71.388
X96.26Y75.049
X96.354Y20.267
X96.392Y77.444
X96.522Y48.144
X96.535Y58.442
X96.668Y45.398
X96.799Y71.247
X96.849Y65.095
X97.061Y87.837
X97.233Y51.306
X97.282Y13.617
X97.458Y56.114
X97.61Y42.228
X97.611Y31.731
X97.62Y46.12
X97.813Y61.044
X97.901Y45.081
X97.905Y50.881
X98.133Y54.813
X98.184Y75.108
X98.281Y52.292
X98.388Y77.592
X98.544Y71.253
X98.592Y65.191
X98.667Y65.96
X98.679Y78.482
X98.794Y61.065
X98.812Y82.426
X98.866Y43.804
X98.887Y42.767
X99.05Y87.476
X99.184Y20.973
X99.355Y54.109
X99.485Y77.44
X99.522Y60.863
X99.573Y65.119
X99.624Y73.522
X99.667Y67.672
X99.851Y90.061
X99.884Y86.587
X99.969Y78.196
X100.151Y82.239
X100.444Y77.427
X100.526Y48.408
X100.534Y75.114
X100.537Y61.727
X100.597Y40.48
X100.802Y56.886
X100.846Y52.042
X100.862Y60.754
X100.863Y71.387
X100.863Y63.132
X100.876Y62.37
X100.95Y66.793
X100.99Y58.903
X101.013Y41.122
X101.054Y54.991
X101.201Y51.051
X101.232Y45.486
X101.263Y86.587
X101.752Y89.611
X101.807Y13.113
X101.845Y62.247
X102.07Y91.793
X102.115Y37.423
X102.123Y54.878
X102.212Y65.676
X102.425Y47.981
X102.685Y75.074
X102.706Y73.78
X102.852Y31.757
X103.219Y82.239
X103.276Y58.356
X103.289Y52.578
X103.421Y49.284
X103.429Y59.458
X103.543Y60.896
X103.567Y68.6
X103.615Y66.339
X103.839Y16.297
X104.156Y43.897
X104.216Y59.157
X104.351Y46.118
X104.653Y61.748
X104.75Y6.428
X104.752Y60.901
X104.864Y74.752
X104.992Y71.253
X105.054Y51.968
X105.074Y62.36
X105.105Y82.059
X105.25Y9.198
X105.329Y65.641
X105.372Y68.77
X105.622Y25.187
X105.686Y18.315
X105.74Y5.829
X105.764Y22.385
X105.793Y45.533
X106.154Y55.05
X106.184Y12.504
X106.246Y43.012
X106.307Y9.648
X106.308Y58.27
X106.457Y47.27
X106.507Y17.258
X106.639Y61.625
X106.658Y18.664
X106.962Y23.644
X107.082Y45.231
X107.148Y53.665
X107.205Y19.16
X107.239Y26.962
X107.25Y6.405
X107.42Y55.361
X107.459Y37.433
X107.48Y61.544
X107.519Y50.252
X107.65Y60.656
X107.698Y20.005
X107.75Y9.197
X107.806Y72.831
X108.026Y39.395
X108.065Y77.429
X108.141Y62.268
X108.227Y27.74
X108.25Y6.422
X108.33Y11.207
X108.46Y71.769
X108.516Y48.384
X108.569Y9.2
X108.587Y16.981
X109.058Y37.845
X109.126Y53.736
X109.263Y39.616
X109.29Y46.663
X109.436Y54.758
X109.436Y49.679
X109.455Y10.294
X109.467Y44.212
X109.473Y41.148
X109.537Y88.57
X109.618Y47.936
X109.626Y71.704
X109.736Y74.738
X109.75Y6.397
X109.752Y9.195
X109.912Y37.845
X110.019Y18.618
X110.393Y40.107
X110.665Y19.35
X110.685Y31.293
X110.69Y16.298
X110.696Y17.35
X110.736Y21.388
X110.75Y9.196
X110.752Y75.111
X110.757Y88.582
X110.9Y51.345
X110.995Y74.074
X111.017Y86.176
X111.128Y57.172
X111.25Y6.411
X111.272Y62.782
X111.396Y14.808
X111.409Y15.672
X111.479Y75.115
X111.485Y37.424
X111.677Y51.574
X111.7Y52.76
X111.75Y9.197
X111.84Y79.016
X111.988Y74.595
X112.206Y46.671
X112.478Y68.931
X112.485Y37.419
X112.509Y23.317
X112.517Y83.579
X112.563Y24.793
X112.731Y74.768
X112.734Y60.889
X112.75Y6.407
X112.766Y44.394
X112.906Y80.545
X113.195Y93.359
X113.202Y91.305
X113.563Y82.605
X113.569Y64.615
X113.615Y37.426
X113.703Y42.048
X113.713Y71.249
X114.143Y90.296
X114.164Y39.783
X114.197Y21.403
X114.206Y23.99
X114.335Y67.883
X114.355Y68.921
X114.555Y58.648
X114.584Y37.739
X114.628Y72.864
X114.775Y61.09
X114.783Y89.522
X114.833Y51.476
X114.87Y48.3
X114.891Y50.653
X114.895Y57.57
X115.038Y39.984
X115.295Y44.036
X115.3Y25.118
X115.485Y77.434
X115.5Y14.777
X115.679Y37.438
X115.723Y38.176
X115.808Y54.911
X115.904Y67.132
X116.136Y45.011
X116.256Y4.429
X116.4Y66.508
X116.438Y15.787
X116.502Y63.529
X116.548Y61.849
X116.643Y39.854
X116.747Y68.921
X116.776Y77.838
X116.843Y24.095
X117.001Y57.645
X117.07Y79.935
X117.126Y37.433
X117.143Y38.167
X117.318Y16.904
X117.447Y24.699
X117.453Y19.813
X117.509Y42.51
X117.551Y51.841
X117.569Y15.705
X117.586Y14.318
X117.775Y8.617
X117.809Y18.85
X118.099Y21.511
X118.244Y38.273
X118.294Y33.01
X118.327Y18.336
X118.34Y9.108
X118.487Y37.452
X118.804Y85.798
X119.3Y31.269
X119.485Y37.427
X119.636Y77.431
X119.89Y75.11
X120.013Y15.938
X120.073Y81.428
X120.187Y84.415
X120.447Y1.159
X120.448Y15.335
X120.5Y73.972
X120.516Y72.988
X120.526Y68.921
X120.534Y67.885
X120.558Y86.87
X120.78Y52.073
X120.796Y63.529
X120.858Y83.743
X121.287Y43.062
X121.354Y13.091
X121.506Y79.528
X121.515Y74.098
X121.6Y85.828
X121.885Y31.253
X122.272Y85.157
X122.357Y16.905
X122.433Y75.101
X122.502Y77.587
X122.632Y81.969
X123.025Y71.78
X123.368Y4.407
X123.404Y20.483
X123.455Y14.725
X123.825Y47.295
X123.904Y62.48
X123.977Y49.39
X124.16Y16.466
X124.285Y37.447
X124.552Y46.516
X124.828Y4.496
X124.872Y69.117
X125.376Y56.937
X125.432Y81.999
X125.75Y32.389
X125.997Y60.832
X126.288Y54.153
X126.418Y81.014
X126.637Y53.214
X126.694Y45.764
X126.78Y48.094
X127.051Y60.117
X127.218Y64.615
X127.284Y63.024
X127.349Y86.634
X128.184Y2.153
X128.441Y43.972
X128.963Y64.789
X129.065Y28.307
X129.373Y20.483
X129.378Y94.546
X129.462Y54.428
X129.582Y16.297
X129.714Y51.415
X129.726Y49.727
X130.031Y47.602
X130.05Y56.044
X130.073Y10.758
X130.099Y46.309
X130.335Y62.57
X130.552Y57.296
X130.712Y38.172
X130.804Y64.764
X130.956Y49.721
X130.964Y53.386
X131.404Y56.791
X131.739Y61.443
X131.747Y60.697
X131.858Y58.182
X132.131Y49.949
X132.253Y13.617
X132.646Y93.838
X133.014Y40.543
X133.201Y56.508
X133.325Y49.733
X133.476Y17.486
X133.48Y42.903
X133.566Y29.801
X133.745Y6.606
X133.756Y44.044
X133.846Y16.297
X134.268Y43.387
X134.391Y29.527
X134.436Y15.325
X134.672Y58.638
X134.888Y9.193
X134.899Y86.856
X134.932Y86.129
X134.951Y56.982
X135.255Y4.928
X135.311Y41.593
X135.362Y63.941
X135.7Y49.974
X135.705Y51.944
X135.787Y60.974
X135.854Y53.009
X135.854Y45.975
X135.952Y42.173
X135.957Y37.537
X135.991Y18.85
X136.037Y90.773
X136.045Y21.765
X136.128Y17.797
X136.25Y10.347
X136.335Y42.819
X136.346Y39.0
X136.385Y2.515
X136.428Y19.982
X136.507Y5.52
X136.649Y21.161
X136.78Y45.033
X136.832Y60.138
X137.12Y56.609
X137.25Y6.405
X137.403Y87.938
X137.541Y37.014
X137.739Y9.209
X137.909Y45.301
X138.135Y56.052
X138.152Y54.151
X138.25Y6.427
X138.386Y36.809
X138.444Y19.526
X138.526Y93.223
X138.57Y25.197
X138.587Y16.981
X138.657Y60.241
X138.75Y9.19
X139.053Y50.005
X139.135Y68.376
X139.16Y56.934
X139.167Y25.629
X139.274Y37.883
X139.526Y42.237
X139.56Y78.105
X139.602Y10.458
X139.75Y6.397
X139.972Y47.526
X140.157Y43.739
X140.348Y46.287
X140.352Y53.847
X140.387Y52.755
X140.551Y41.25
X140.678Y19.35
X140.687Y16.555
X140.695Y17.35
X140.696Y18.419
X140.75Y9.189
X140.754Y75.387
X140.863Y50.137
X140.87Y15.605
X141.177Y6.338
X141.432Y51.155
X141.478Y66.508
X141.59Y43.354
X141.599Y15.515
X141.75Y9.2
X141.986Y49.664
X142.005Y64.851
X142.127Y44.007
X142.469Y22.174
X142.511Y61.929
X142.514Y62.963
X142.618Y70.215
X142.637Y68.015
X142.638Y70.982
X142.723Y6.172
X142.864Y29.492
X142.951Y52.601
X143.088Y24.419
X143.414Y47.334
X143.424Y46.457
X143.522Y13.788
X143.737Y22.292
X143.745Y55.636
X143.805Y43.518
X143.828Y8.951
X143.911Y37.943
X144.304Y21.436
X144.474Y31.887
X144.641Y49.765
X144.641Y46.434
X144.653Y53.373
X144.678Y52.172
X144.767Y22.428
X144.827Y92.507
X144.845Y61.352
X145.022Y69.441
X145.117Y66.636
X145.124Y37.57
X145.25Y14.778
X145.426Y64.361
X145.687Y62.998
X145.774Y32.285
X145.793Y26.134
X145.821Y33.528
X145.974Y66.18
X145.986Y70.145
X146.438Y15.784
X146.674Y49.546
X146.686Y56.524
X147.179Y67.132
X147.232Y44.242
X147.304Y19.35
X147.338Y16.904
X147.365Y34.457
X147.426Y51.202
X147.991Y61.296
X148.13Y93.526
X148.255Y19.71
X148.278Y29.737
X148.298Y69.71
X148.305Y46.613
X148.372Y35.704
X148.482Y30.79
X148.509Y13.109
X148.629Y49.993
X148.657Y83.721
X148.97Y16.53
X148.998Y17.302
X149.345Y56.808
X149.799Y25.187
X149.804Y21.473
X149.822Y34.245
X149.898Y53.061
X150.583Y62.939
X150.647Y23.457
X150.732Y69.883
X151.354Y13.12
X151.869Y67.818
X152.327Y16.854
X152.438Y11.9
X153.432Y61.017
X153.815Y9.74
X154.16Y13.119
X155.626Y22.822
T2
X14.195Y60.431
T3
X149.961Y85.928
X149.961Y82.245
X152.669Y85.928
X152.669Y82.245
X155.194Y25.248
X155.391Y85.928
X155.391Y82.245
T4
X11.02Y5.207
X11.02Y3.207
X13.02Y5.207
X13.02Y3.207
X15.02Y5.207
X15.02Y3.207
X17.02Y5.207
X17.02Y3.207
X18.57Y92.679
X18.57Y90.679
X19.02Y5.207
X19.02Y3.207
X20.57Y92.679
X20.57Y90.679
X21.02Y5.207
X21.02Y3.207
X22.57Y92.679
X22.57Y90.679
X23.02Y5.207
X23.02Y3.207
X24.57Y92.679
X24.57Y90.679
X25.02Y5.207
X25.02Y3.207
X26.57Y92.679
X26.57Y90.679
X27.02Y5.207
X27.02Y3.207
X28.57Y92.679
X28.57Y90.679
X29.02Y5.207
X29.02Y3.207
X31.02Y5.207
X31.02Y3.207
X33.02Y5.207
X33.02Y3.207
X77.077Y93.084
X77.077Y91.084
X79.077Y93.084
X79.077Y91.084
X81.077Y93.084
X81.077Y91.084
X83.077Y93.084
X83.077Y91.084
X85.077Y93.084
X85.077Y91.084
X87.077Y93.084
X87.077Y91.084
X89.077Y93.084
X89.077Y91.084
X91.077Y93.084
X91.077Y91.084
X93.077Y93.084
X93.077Y91.084
X95.077Y93.084
X95.077Y91.084
X97.077Y93.084
X97.077Y91.084
X99.077Y93.084
X99.077Y91.084
X118.0Y92.679
X118.0Y90.679
X120.0Y92.679
X120.0Y90.679
X122.0Y92.679
X122.0Y90.679
X124.0Y92.679
X124.0Y90.679
X126.0Y92.679
X126.0Y90.679
X128.0Y92.679
X128.0Y90.679
X130.0Y92.679
X130.0Y90.679
T6
X2.61Y84.277
X2.61Y81.737
X2.61Y79.197
X2.61Y76.657
X2.61Y74.117
X2.61Y71.577
X2.61Y69.037
X2.61Y66.497
X2.61Y63.957
X2.61Y61.417
X2.61Y58.877
X2.61Y56.337
T7
X6.293Y28.016
X6.293Y14.3
T8
X40.65Y1.96
X41.25Y6.86
X55.75Y6.86
X56.35Y1.96
X70.65Y1.96
X71.25Y6.86
X85.75Y6.86
X86.35Y1.96
X100.65Y1.96
X101.25Y6.86
X115.75Y6.86
X116.35Y1.96
X130.65Y1.96
X131.25Y6.86
X145.75Y6.86
X146.35Y1.96
T9
X3.743Y30.566
X3.743Y25.466
X3.743Y16.85
X3.743Y11.75
X8.843Y30.566
X8.843Y25.466
X8.843Y16.85
X8.843Y11.75
T10
X4.0Y91.2
X4.0Y4.0
X153.68Y91.2
X153.68Y4.0
T5
X2.706Y45.558G85X2.706Y47.558
G05
X6.706Y41.858G85X4.706Y41.858
G05
X8.706Y45.308G85X8.706Y47.808
G05
T0
M30
