%FSLAX45Y45*%
G04 Gerber Fmt 4.5, Leading zero omitted, Abs format (unit mm)*
G04 Created by KiCad (PCBNEW (5.1.9-0-10_14)) date 2021-07-02 21:37:09*
%MOMM*%
%LPD*%
G01*
G04 APERTURE LIST*
%TA.AperFunction,Profile*%
%ADD10C,0.050000*%
%TD*%
%ADD11C,0.200000*%
%ADD12C,0.300000*%
G04 APERTURE END LIST*
D10*
X0Y0D02*
X15780000Y0D01*
X15780000Y0D02*
X15780000Y9520000D01*
X15780000Y9520000D02*
X0Y9520000D01*
X0Y9520000D02*
X0Y0D01*
D11*
X360850Y5383000D02*
X390850Y5353000D01*
X390850Y5383000D02*
X360850Y5353000D01*
X492710Y5383000D02*
X522710Y5353000D01*
X522710Y5383000D02*
X492710Y5353000D01*
X679400Y5383000D02*
X709400Y5353000D01*
X709400Y5383000D02*
X679400Y5353000D01*
X739380Y6052580D02*
X769380Y6022580D01*
X769380Y6052580D02*
X739380Y6022580D01*
X752080Y7284480D02*
X782080Y7254480D01*
X782080Y7284480D02*
X752080Y7254480D01*
X800250Y7134620D02*
X830250Y7104620D01*
X830250Y7134620D02*
X800250Y7104620D01*
X814310Y6212600D02*
X844310Y6182600D01*
X844310Y6212600D02*
X814310Y6182600D01*
X882890Y5288040D02*
X912890Y5258040D01*
X912890Y5288040D02*
X882890Y5258040D01*
X944430Y478270D02*
X974430Y448270D01*
X974430Y478270D02*
X944430Y448270D01*
X1012140Y5383000D02*
X1042140Y5353000D01*
X1042140Y5383000D02*
X1012140Y5353000D01*
X1023740Y7901420D02*
X1053740Y7871420D01*
X1053740Y7901420D02*
X1023740Y7871420D01*
X1035290Y3546870D02*
X1065290Y3516870D01*
X1065290Y3546870D02*
X1035290Y3516870D01*
X1036560Y4059950D02*
X1066560Y4029950D01*
X1066560Y4059950D02*
X1036560Y4029950D01*
X1060690Y5288040D02*
X1090690Y5258040D01*
X1090690Y5288040D02*
X1060690Y5258040D01*
X1093710Y5735080D02*
X1123710Y5705080D01*
X1123710Y5735080D02*
X1093710Y5705080D01*
X1100060Y3480830D02*
X1130060Y3450830D01*
X1130060Y3480830D02*
X1100060Y3450830D01*
X1124190Y4147580D02*
X1154190Y4117580D01*
X1154190Y4147580D02*
X1124190Y4117580D01*
X1139430Y6664720D02*
X1169430Y6634720D01*
X1169430Y6664720D02*
X1139430Y6634720D01*
X1144510Y6316740D02*
X1174510Y6286740D01*
X1174510Y6316740D02*
X1144510Y6286740D01*
X1144510Y6196090D02*
X1174510Y6166090D01*
X1174510Y6196090D02*
X1144510Y6166090D01*
X1145780Y6411990D02*
X1175780Y6381990D01*
X1175780Y6411990D02*
X1145780Y6381990D01*
X1162760Y7010880D02*
X1192760Y6980880D01*
X1192760Y7010880D02*
X1162760Y6980880D01*
X1178800Y3404630D02*
X1208800Y3374630D01*
X1208800Y3404630D02*
X1178800Y3374630D01*
X1202300Y4225680D02*
X1232300Y4195680D01*
X1232300Y4225680D02*
X1202300Y4195680D01*
X1227060Y6055120D02*
X1257060Y6025120D01*
X1257060Y6055120D02*
X1227060Y6025120D01*
X1230330Y8645110D02*
X1260330Y8615110D01*
X1260330Y8645110D02*
X1230330Y8615110D01*
X1239220Y8401420D02*
X1269220Y8371420D01*
X1269220Y8401420D02*
X1239220Y8371420D01*
X1267700Y3935490D02*
X1297700Y3905490D01*
X1297700Y3935490D02*
X1267700Y3905490D01*
X1274050Y3079510D02*
X1304050Y3049510D01*
X1304050Y3079510D02*
X1274050Y3049510D01*
X1312980Y3156710D02*
X1342980Y3126710D01*
X1342980Y3156710D02*
X1312980Y3126710D01*
X1355280Y1655600D02*
X1385280Y1625600D01*
X1385280Y1655600D02*
X1355280Y1625600D01*
X1357180Y2861130D02*
X1387180Y2831130D01*
X1387180Y2861130D02*
X1357180Y2831130D01*
X1372300Y5028220D02*
X1402300Y4998220D01*
X1402300Y5028220D02*
X1372300Y4998220D01*
X1388210Y3732340D02*
X1418210Y3702340D01*
X1418210Y3732340D02*
X1388210Y3702340D01*
X1415020Y6215140D02*
X1445020Y6185140D01*
X1445020Y6215140D02*
X1415020Y6185140D01*
X1415300Y3936040D02*
X1445300Y3906040D01*
X1445300Y3936040D02*
X1415300Y3906040D01*
X1420100Y4780040D02*
X1450100Y4750040D01*
X1450100Y4780040D02*
X1420100Y4750040D01*
X1516670Y8496940D02*
X1546670Y8466940D01*
X1546670Y8496940D02*
X1516670Y8466940D01*
X1516670Y8097070D02*
X1546670Y8067070D01*
X1546670Y8097070D02*
X1516670Y8067070D01*
X1539480Y6627890D02*
X1569480Y6597890D01*
X1569480Y6627890D02*
X1539480Y6597890D01*
X1556650Y3050160D02*
X1586650Y3020160D01*
X1586650Y3050160D02*
X1556650Y3020160D01*
X1619250Y4325210D02*
X1649250Y4295210D01*
X1649250Y4325210D02*
X1619250Y4295210D01*
X1621380Y3534200D02*
X1651380Y3504200D01*
X1651380Y3534200D02*
X1621380Y3504200D01*
X1621380Y3325460D02*
X1651380Y3295460D01*
X1651380Y3325460D02*
X1621380Y3295460D01*
X1625690Y4662660D02*
X1655690Y4632660D01*
X1655690Y4662660D02*
X1625690Y4632660D01*
X1647150Y2240980D02*
X1677150Y2210980D01*
X1677150Y2240980D02*
X1647150Y2210980D01*
X1656320Y6219930D02*
X1686320Y6189930D01*
X1686320Y6219930D02*
X1656320Y6189930D01*
X1670920Y3944650D02*
X1700920Y3914650D01*
X1700920Y3944650D02*
X1670920Y3914650D01*
X1672030Y2670400D02*
X1702030Y2640400D01*
X1702030Y2670400D02*
X1672030Y2640400D01*
X1699500Y4851160D02*
X1729500Y4821160D01*
X1729500Y4851160D02*
X1699500Y4821160D01*
X1741410Y5313440D02*
X1771410Y5283440D01*
X1771410Y5313440D02*
X1741410Y5283440D01*
X1743920Y1655810D02*
X1773920Y1625810D01*
X1773920Y1655810D02*
X1743920Y1625810D01*
X1750300Y7833120D02*
X1780300Y7803120D01*
X1780300Y7833120D02*
X1750300Y7803120D01*
X1750300Y7728290D02*
X1780300Y7698290D01*
X1780300Y7728290D02*
X1750300Y7698290D01*
X1754110Y5604270D02*
X1784110Y5574270D01*
X1784110Y5604270D02*
X1754110Y5574270D01*
X1779860Y2891940D02*
X1809860Y2861940D01*
X1809860Y2891940D02*
X1779860Y2861940D01*
X1780660Y2658630D02*
X1810660Y2628630D01*
X1810660Y2658630D02*
X1780660Y2628630D01*
X1789670Y139460D02*
X1819670Y109460D01*
X1819670Y139460D02*
X1789670Y109460D01*
X1799960Y2322200D02*
X1829960Y2292200D01*
X1829960Y2322200D02*
X1799960Y2292200D01*
X1801320Y6211420D02*
X1831320Y6181420D01*
X1831320Y6211420D02*
X1801320Y6181420D01*
X1806480Y1835110D02*
X1836480Y1805110D01*
X1836480Y1835110D02*
X1806480Y1805110D01*
X1806480Y1157760D02*
X1836480Y1127760D01*
X1836480Y1157760D02*
X1806480Y1127760D01*
X1821420Y4716540D02*
X1851420Y4686540D01*
X1851420Y4716540D02*
X1821420Y4686540D01*
X1851910Y2443730D02*
X1881910Y2413730D01*
X1881910Y2443730D02*
X1851910Y2413730D01*
X1863960Y5237940D02*
X1893960Y5207940D01*
X1893960Y5237940D02*
X1863960Y5207940D01*
X1892690Y6034800D02*
X1922690Y6004800D01*
X1922690Y6034800D02*
X1892690Y6004800D01*
X1894160Y6231880D02*
X1924160Y6201880D01*
X1924160Y6231880D02*
X1894160Y6201880D01*
X1907740Y7334810D02*
X1937740Y7304810D01*
X1937740Y7334810D02*
X1907740Y7304810D01*
X1931240Y5434730D02*
X1961240Y5404730D01*
X1961240Y5434730D02*
X1931240Y5404730D01*
X1941430Y6654660D02*
X1971430Y6624660D01*
X1971430Y6654660D02*
X1941430Y6624660D01*
X1942070Y6578360D02*
X1972070Y6548360D01*
X1972070Y6578360D02*
X1942070Y6548360D01*
X1967720Y4917260D02*
X1997720Y4887260D01*
X1997720Y4917260D02*
X1967720Y4887260D01*
X1971190Y3601330D02*
X2001190Y3571330D01*
X2001190Y3601330D02*
X1971190Y3571330D01*
X2006590Y2786880D02*
X2036590Y2756880D01*
X2036590Y2786880D02*
X2006590Y2756880D01*
X2012260Y1380620D02*
X2042260Y1350620D01*
X2042260Y1380620D02*
X2012260Y1350620D01*
X2022070Y5478470D02*
X2052070Y5448470D01*
X2052070Y5478470D02*
X2022070Y5448470D01*
X2071550Y5361590D02*
X2101550Y5331590D01*
X2101550Y5361590D02*
X2071550Y5331590D01*
X2100440Y7444740D02*
X2130440Y7414740D01*
X2130440Y7444740D02*
X2100440Y7414740D01*
X2102090Y4924150D02*
X2132090Y4894150D01*
X2132090Y4924150D02*
X2102090Y4894150D01*
X2123440Y6162540D02*
X2153440Y6132540D01*
X2153440Y6162540D02*
X2123440Y6132540D01*
X2136380Y4614940D02*
X2166380Y4584940D01*
X2166380Y4614940D02*
X2136380Y4584940D01*
X2151970Y2633200D02*
X2181970Y2603200D01*
X2181970Y2633200D02*
X2151970Y2603200D01*
X2170520Y5478990D02*
X2200520Y5448990D01*
X2200520Y5478990D02*
X2170520Y5448990D01*
X2201860Y6111820D02*
X2231860Y6081820D01*
X2231860Y6111820D02*
X2201860Y6081820D01*
X2210640Y7038850D02*
X2240640Y7008850D01*
X2240640Y7038850D02*
X2210640Y7008850D01*
X2219330Y4499850D02*
X2249330Y4469850D01*
X2249330Y4499850D02*
X2219330Y4469850D01*
X2239250Y4614940D02*
X2269250Y4584940D01*
X2269250Y4614940D02*
X2239250Y4584940D01*
X2239280Y1358720D02*
X2269280Y1328720D01*
X2269280Y1358720D02*
X2239280Y1328720D01*
X2256150Y5996260D02*
X2286150Y5966260D01*
X2286150Y5996260D02*
X2256150Y5966260D01*
X2257070Y5159380D02*
X2287070Y5129380D01*
X2287070Y5159380D02*
X2257070Y5129380D01*
X2272090Y2670280D02*
X2302090Y2640280D01*
X2302090Y2670280D02*
X2272090Y2640280D01*
X2276090Y3762520D02*
X2306090Y3732520D01*
X2306090Y3762520D02*
X2276090Y3732520D01*
X2277320Y3517510D02*
X2307320Y3487510D01*
X2307320Y3517510D02*
X2277320Y3487510D01*
X2278930Y4117760D02*
X2308930Y4087760D01*
X2308930Y4117760D02*
X2278930Y4087760D01*
X2289830Y6325420D02*
X2319830Y6295420D01*
X2319830Y6325420D02*
X2289830Y6295420D01*
X2289910Y6775420D02*
X2319910Y6745420D01*
X2319910Y6775420D02*
X2289910Y6745420D01*
X2341590Y8228460D02*
X2371590Y8198460D01*
X2371590Y8228460D02*
X2341590Y8198460D01*
X2389280Y1645720D02*
X2419280Y1615720D01*
X2419280Y1645720D02*
X2389280Y1615720D01*
X2389280Y1074730D02*
X2419280Y1044730D01*
X2419280Y1074730D02*
X2389280Y1044730D01*
X2435150Y8710070D02*
X2465150Y8680070D01*
X2465150Y8710070D02*
X2435150Y8680070D01*
X2442680Y3237790D02*
X2472680Y3207790D01*
X2472680Y3237790D02*
X2442680Y3207790D01*
X2497060Y7285750D02*
X2527060Y7255750D01*
X2527060Y7285750D02*
X2497060Y7255750D01*
X2497060Y7184150D02*
X2527060Y7154150D01*
X2527060Y7184150D02*
X2497060Y7154150D01*
X2515420Y7984070D02*
X2545420Y7954070D01*
X2545420Y7984070D02*
X2515420Y7954070D01*
X2518640Y3666450D02*
X2548640Y3636450D01*
X2548640Y3666450D02*
X2518640Y3636450D01*
X2519650Y5806600D02*
X2549650Y5776600D01*
X2549650Y5806600D02*
X2519650Y5776600D01*
X2520580Y3408700D02*
X2550580Y3378700D01*
X2550580Y3408700D02*
X2520580Y3378700D01*
X2523760Y3998060D02*
X2553760Y3968060D01*
X2553760Y3998060D02*
X2523760Y3968060D01*
X2540900Y6229910D02*
X2570900Y6199910D01*
X2570900Y6229910D02*
X2540900Y6199910D01*
X2583410Y2844660D02*
X2613410Y2814660D01*
X2613410Y2844660D02*
X2583410Y2814660D01*
X2585350Y4261170D02*
X2615350Y4231170D01*
X2615350Y4261170D02*
X2585350Y4231170D01*
X2587090Y7895670D02*
X2617090Y7865670D01*
X2617090Y7895670D02*
X2587090Y7865670D01*
X2597350Y6472990D02*
X2627350Y6442990D01*
X2627350Y6472990D02*
X2597350Y6442990D01*
X2598930Y6657540D02*
X2628930Y6627540D01*
X2628930Y6657540D02*
X2598930Y6627540D01*
X2608220Y2745710D02*
X2638220Y2715710D01*
X2638220Y2745710D02*
X2608220Y2715710D01*
X2608850Y3494750D02*
X2638850Y3464750D01*
X2638850Y3494750D02*
X2608850Y3464750D01*
X2612510Y3186650D02*
X2642510Y3156650D01*
X2642510Y3186650D02*
X2612510Y3156650D01*
X2687560Y4501260D02*
X2717560Y4471260D01*
X2717560Y4501260D02*
X2687560Y4471260D01*
X2689100Y6732310D02*
X2719100Y6702310D01*
X2719100Y6732310D02*
X2689100Y6702310D01*
X2728200Y4153930D02*
X2758200Y4123930D01*
X2758200Y4153930D02*
X2728200Y4123930D01*
X2753010Y3077890D02*
X2783010Y3047890D01*
X2783010Y3077890D02*
X2753010Y3047890D01*
X2756140Y5436630D02*
X2786140Y5406630D01*
X2786140Y5436630D02*
X2756140Y5406630D01*
X2756140Y5272800D02*
X2786140Y5242800D01*
X2786140Y5272800D02*
X2756140Y5242800D01*
X2756140Y5087380D02*
X2786140Y5057380D01*
X2786140Y5087380D02*
X2756140Y5057380D01*
X2769170Y6414800D02*
X2799170Y6384800D01*
X2799170Y6414800D02*
X2769170Y6384800D01*
X2791220Y1050640D02*
X2821220Y1020640D01*
X2821220Y1050640D02*
X2791220Y1020640D01*
X2798680Y3413260D02*
X2828680Y3383260D01*
X2828680Y3413260D02*
X2798680Y3383260D01*
X2804340Y5792260D02*
X2834340Y5762260D01*
X2834340Y5792260D02*
X2804340Y5762260D01*
X2820880Y1654090D02*
X2850880Y1624090D01*
X2850880Y1654090D02*
X2820880Y1624090D01*
X2822180Y2763280D02*
X2852180Y2733280D01*
X2852180Y2763280D02*
X2822180Y2733280D01*
X2896010Y3745530D02*
X2926010Y3715530D01*
X2926010Y3745530D02*
X2896010Y3715530D01*
X2910390Y6382100D02*
X2940390Y6352100D01*
X2940390Y6382100D02*
X2910390Y6352100D01*
X2962030Y7325570D02*
X2992030Y7295570D01*
X2992030Y7325570D02*
X2962030Y7295570D01*
X2991730Y2297870D02*
X3021730Y2267870D01*
X3021730Y2297870D02*
X2991730Y2267870D01*
X3013780Y1881940D02*
X3043780Y1851940D01*
X3043780Y1881940D02*
X3013780Y1851940D01*
X3013780Y1310930D02*
X3043780Y1280930D01*
X3043780Y1310930D02*
X3013780Y1280930D01*
X3031980Y1976630D02*
X3061980Y1946630D01*
X3061980Y1976630D02*
X3031980Y1946630D01*
X3055100Y3136800D02*
X3085100Y3106800D01*
X3085100Y3136800D02*
X3055100Y3106800D01*
X3074150Y6334890D02*
X3104150Y6304890D01*
X3104150Y6334890D02*
X3074150Y6304890D01*
X3090370Y7559750D02*
X3120370Y7529750D01*
X3120370Y7559750D02*
X3090370Y7529750D01*
X3091370Y3378850D02*
X3121370Y3348850D01*
X3121370Y3378850D02*
X3091370Y3348850D01*
X3094910Y1074070D02*
X3124910Y1044070D01*
X3124910Y1074070D02*
X3094910Y1044070D01*
X3103090Y2351510D02*
X3133090Y2321510D01*
X3133090Y2351510D02*
X3103090Y2321510D01*
X3119780Y6763750D02*
X3149780Y6733750D01*
X3149780Y6763750D02*
X3119780Y6733750D01*
X3145060Y7317280D02*
X3175060Y7287280D01*
X3175060Y7317280D02*
X3145060Y7287280D01*
X3151720Y8252790D02*
X3181720Y8222790D01*
X3181720Y8252790D02*
X3151720Y8222790D01*
X3160030Y1955770D02*
X3190030Y1925770D01*
X3190030Y1955770D02*
X3160030Y1925770D01*
X3163780Y1357200D02*
X3193780Y1327200D01*
X3193780Y1357200D02*
X3163780Y1327200D01*
X3188940Y1073700D02*
X3218940Y1043700D01*
X3218940Y1073700D02*
X3188940Y1043700D01*
X3190880Y4513940D02*
X3220880Y4483940D01*
X3220880Y4513940D02*
X3190880Y4483940D01*
X3194180Y3085270D02*
X3224180Y3055270D01*
X3224180Y3085270D02*
X3194180Y3055270D01*
X3221450Y5929530D02*
X3251450Y5899530D01*
X3251450Y5929530D02*
X3221450Y5899530D01*
X3228550Y8978240D02*
X3258550Y8948240D01*
X3258550Y8978240D02*
X3228550Y8948240D01*
X3242330Y5676600D02*
X3272330Y5646600D01*
X3272330Y5676600D02*
X3242330Y5646600D01*
X3248270Y7100720D02*
X3278270Y7070720D01*
X3278270Y7100720D02*
X3248270Y7070720D01*
X3268320Y9107130D02*
X3298320Y9077130D01*
X3298320Y9107130D02*
X3268320Y9077130D01*
X3281920Y7003810D02*
X3311920Y6973810D01*
X3311920Y7003810D02*
X3281920Y6973810D01*
X3318780Y1357080D02*
X3348780Y1327080D01*
X3348780Y1357080D02*
X3318780Y1327080D01*
X3321380Y5016130D02*
X3351380Y4986130D01*
X3351380Y5016130D02*
X3321380Y4986130D01*
X3321490Y5345100D02*
X3351490Y5315100D01*
X3351490Y5345100D02*
X3321490Y5315100D01*
X3339070Y7764540D02*
X3369070Y7734540D01*
X3369070Y7764540D02*
X3339070Y7734540D01*
X3351292Y6674440D02*
X3381292Y6644440D01*
X3381292Y6674440D02*
X3351292Y6644440D01*
X3366730Y2296640D02*
X3396730Y2266640D01*
X3396730Y2296640D02*
X3366730Y2266640D01*
X3368740Y3971520D02*
X3398740Y3941520D01*
X3398740Y3971520D02*
X3368740Y3941520D01*
X3368830Y2223900D02*
X3398830Y2193900D01*
X3398830Y2223900D02*
X3368830Y2193900D01*
X3372080Y4714430D02*
X3402080Y4684430D01*
X3402080Y4714430D02*
X3372080Y4684430D01*
X3376330Y8595310D02*
X3406330Y8565310D01*
X3406330Y8595310D02*
X3376330Y8565310D01*
X3387760Y4558470D02*
X3417760Y4528470D01*
X3417760Y4558470D02*
X3387760Y4528470D01*
X3393960Y4322620D02*
X3423960Y4292620D01*
X3423960Y4322620D02*
X3393960Y4292620D01*
X3394120Y5006390D02*
X3424120Y4976390D01*
X3424120Y5006390D02*
X3394120Y4976390D01*
X3399880Y3671210D02*
X3429880Y3641210D01*
X3429880Y3671210D02*
X3399880Y3641210D01*
X3408640Y9157900D02*
X3438640Y9127900D01*
X3438640Y9157900D02*
X3408640Y9127900D01*
X3431200Y6052140D02*
X3461200Y6022140D01*
X3461200Y6052140D02*
X3431200Y6022140D01*
X3432230Y8781860D02*
X3462230Y8751860D01*
X3462230Y8781860D02*
X3432230Y8751860D01*
X3435110Y6887530D02*
X3465110Y6857530D01*
X3465110Y6887530D02*
X3435110Y6857530D01*
X3435350Y3140020D02*
X3465350Y3110020D01*
X3465350Y3140020D02*
X3435350Y3110020D01*
X3439570Y5767330D02*
X3469570Y5737330D01*
X3469570Y5767330D02*
X3439570Y5737330D01*
X3442520Y6290500D02*
X3472520Y6260500D01*
X3472520Y6290500D02*
X3442520Y6260500D01*
X3446320Y5357970D02*
X3476320Y5327970D01*
X3476320Y5357970D02*
X3446320Y5327970D01*
X3453640Y2828790D02*
X3483640Y2798790D01*
X3483640Y2828790D02*
X3453640Y2798790D01*
X3483680Y4644610D02*
X3513680Y4614610D01*
X3513680Y4644610D02*
X3483680Y4614610D01*
X3526340Y6932460D02*
X3556340Y6902460D01*
X3556340Y6932460D02*
X3526340Y6902460D01*
X3526340Y6346190D02*
X3556340Y6316190D01*
X3556340Y6346190D02*
X3526340Y6316190D01*
X3528740Y4033550D02*
X3558740Y4003550D01*
X3558740Y4033550D02*
X3528740Y4003550D01*
X3529250Y3378850D02*
X3559250Y3348850D01*
X3559250Y3378850D02*
X3529250Y3348850D01*
X3533740Y3667600D02*
X3563740Y3637600D01*
X3563740Y3667600D02*
X3533740Y3637600D01*
X3533780Y1309730D02*
X3563780Y1279730D01*
X3563780Y1309730D02*
X3533780Y1279730D01*
X3536740Y5014680D02*
X3566740Y4984680D01*
X3566740Y5014680D02*
X3536740Y4984680D01*
X3539180Y4348460D02*
X3569180Y4318460D01*
X3569180Y4348460D02*
X3539180Y4318460D01*
X3586660Y7789440D02*
X3616660Y7759440D01*
X3616660Y7789440D02*
X3586660Y7759440D01*
X3590570Y9141850D02*
X3620570Y9111850D01*
X3620570Y9141850D02*
X3590570Y9111850D01*
X3591050Y7865630D02*
X3621050Y7835630D01*
X3621050Y7865630D02*
X3591050Y7835630D01*
X3597300Y1700770D02*
X3627300Y1670770D01*
X3627300Y1700770D02*
X3597300Y1670770D01*
X3597530Y4741280D02*
X3627530Y4711280D01*
X3627530Y4741280D02*
X3597530Y4711280D01*
X3598090Y6262420D02*
X3628090Y6232420D01*
X3628090Y6262420D02*
X3598090Y6232420D01*
X3603860Y1822300D02*
X3633860Y1792300D01*
X3633860Y1822300D02*
X3603860Y1792300D01*
X3605590Y3618440D02*
X3635590Y3588440D01*
X3635590Y3618440D02*
X3605590Y3588440D01*
X3610220Y6374350D02*
X3640220Y6344350D01*
X3640220Y6374350D02*
X3610220Y6344350D01*
X3620310Y5412140D02*
X3650310Y5382140D01*
X3650310Y5412140D02*
X3620310Y5382140D01*
X3622300Y7679650D02*
X3652300Y7649650D01*
X3652300Y7679650D02*
X3622300Y7649650D01*
X3628600Y6806870D02*
X3658600Y6776870D01*
X3658600Y6806870D02*
X3628600Y6776870D01*
X3629920Y7334790D02*
X3659920Y7304790D01*
X3659920Y7334790D02*
X3629920Y7304790D01*
X3632130Y5229870D02*
X3662130Y5199870D01*
X3662130Y5229870D02*
X3632130Y5199870D01*
X3638020Y7262050D02*
X3668020Y7232050D01*
X3668020Y7262050D02*
X3638020Y7232050D01*
X3640400Y3367030D02*
X3670400Y3337030D01*
X3670400Y3367030D02*
X3640400Y3337030D01*
X3644340Y4685110D02*
X3674340Y4655110D01*
X3674340Y4685110D02*
X3644340Y4655110D01*
X3665710Y7546400D02*
X3695710Y7516400D01*
X3695710Y7546400D02*
X3665710Y7516400D01*
X3671730Y8256770D02*
X3701730Y8226770D01*
X3701730Y8256770D02*
X3671730Y8226770D01*
X3687390Y4301170D02*
X3717390Y4271170D01*
X3717390Y4301170D02*
X3687390Y4271170D01*
X3733880Y5515420D02*
X3763880Y5485420D01*
X3763880Y5515420D02*
X3733880Y5485420D01*
X3737450Y8537490D02*
X3767450Y8507490D01*
X3767450Y8537490D02*
X3737450Y8507490D01*
X3743120Y7893240D02*
X3773120Y7863240D01*
X3773120Y7893240D02*
X3743120Y7863240D01*
X3744160Y5741040D02*
X3774160Y5711040D01*
X3774160Y5741040D02*
X3744160Y5711040D01*
X3754990Y8099080D02*
X3784990Y8069080D01*
X3784990Y8099080D02*
X3754990Y8069080D01*
X3808260Y3021030D02*
X3838260Y2991030D01*
X3838260Y3021030D02*
X3808260Y2991030D01*
X3810190Y1822300D02*
X3840190Y1792300D01*
X3840190Y1822300D02*
X3810190Y1792300D01*
X3874130Y4071310D02*
X3904130Y4041310D01*
X3904130Y4071310D02*
X3874130Y4041310D01*
X3887320Y6159280D02*
X3917320Y6129280D01*
X3917320Y6159280D02*
X3887320Y6129280D01*
X3895990Y7889490D02*
X3925990Y7859490D01*
X3925990Y7889490D02*
X3895990Y7859490D01*
X3908400Y9134810D02*
X3938400Y9104810D01*
X3938400Y9134810D02*
X3908400Y9104810D01*
X3914420Y6573290D02*
X3944420Y6543290D01*
X3944420Y6573290D02*
X3914420Y6543290D01*
X3927790Y8425090D02*
X3957790Y8395090D01*
X3957790Y8425090D02*
X3927790Y8395090D01*
X3932280Y8581850D02*
X3962280Y8551850D01*
X3962280Y8581850D02*
X3932280Y8551850D01*
X3934180Y6410180D02*
X3964180Y6380180D01*
X3964180Y6410180D02*
X3934180Y6380180D01*
X3940950Y3852520D02*
X3970950Y3822520D01*
X3970950Y3852520D02*
X3940950Y3822520D01*
X3942210Y3775570D02*
X3972210Y3745570D01*
X3972210Y3775570D02*
X3942210Y3745570D01*
X3942490Y7488120D02*
X3972490Y7458120D01*
X3972490Y7488120D02*
X3942490Y7458120D01*
X3950760Y8340330D02*
X3980760Y8310330D01*
X3980760Y8340330D02*
X3950760Y8310330D01*
X3954160Y8934410D02*
X3984160Y8904410D01*
X3984160Y8934410D02*
X3954160Y8904410D01*
X3960190Y6934780D02*
X3990190Y6904780D01*
X3990190Y6934780D02*
X3960190Y6904780D01*
X3963510Y6519390D02*
X3993510Y6489390D01*
X3993510Y6519390D02*
X3963510Y6489390D01*
X3964190Y6111170D02*
X3994190Y6081170D01*
X3994190Y6111170D02*
X3964190Y6081170D01*
X3967300Y4285040D02*
X3997300Y4255040D01*
X3997300Y4285040D02*
X3967300Y4255040D01*
X3973260Y4074870D02*
X4003260Y4044870D01*
X4003260Y4074870D02*
X3973260Y4044870D01*
X3974360Y3387990D02*
X4004360Y3357990D01*
X4004360Y3387990D02*
X3974360Y3357990D01*
X3984690Y9008800D02*
X4014690Y8978800D01*
X4014690Y9008800D02*
X3984690Y8978800D01*
X3990710Y2751460D02*
X4020710Y2721460D01*
X4020710Y2751460D02*
X3990710Y2721460D01*
X4009630Y5046740D02*
X4039630Y5016740D01*
X4039630Y5046740D02*
X4009630Y5016740D01*
X4016480Y5747010D02*
X4046480Y5717010D01*
X4046480Y5747010D02*
X4016480Y5717010D01*
X4027410Y5194060D02*
X4057410Y5164060D01*
X4057410Y5194060D02*
X4027410Y5164060D01*
X4053120Y4813630D02*
X4083120Y4783630D01*
X4083120Y4813630D02*
X4053120Y4783630D01*
X4062540Y5503640D02*
X4092540Y5473640D01*
X4092540Y5503640D02*
X4062540Y5473640D01*
X4066730Y7861040D02*
X4096730Y7831040D01*
X4096730Y7861040D02*
X4066730Y7831040D01*
X4073450Y7696320D02*
X4103450Y7666320D01*
X4103450Y7696320D02*
X4073450Y7666320D01*
X4086630Y6624020D02*
X4116630Y6594020D01*
X4116630Y6624020D02*
X4086630Y6594020D01*
X4095190Y6231160D02*
X4125190Y6201160D01*
X4125190Y6231160D02*
X4095190Y6201160D01*
X4105410Y6752800D02*
X4135410Y6722800D01*
X4135410Y6752800D02*
X4105410Y6722800D01*
X4112720Y8517720D02*
X4142720Y8487720D01*
X4142720Y8517720D02*
X4112720Y8487720D01*
X4129570Y7303510D02*
X4159570Y7273510D01*
X4159570Y7303510D02*
X4129570Y7273510D01*
X4137210Y1859820D02*
X4167210Y1829820D01*
X4167210Y1859820D02*
X4137210Y1829820D01*
X4150170Y3833000D02*
X4180170Y3803000D01*
X4180170Y3833000D02*
X4150170Y3803000D01*
X4167970Y3301720D02*
X4197970Y3271720D01*
X4197970Y3301720D02*
X4167970Y3271720D01*
X4180440Y4779990D02*
X4210440Y4749990D01*
X4210440Y4779990D02*
X4180440Y4749990D01*
X4180800Y7355160D02*
X4210800Y7325160D01*
X4210800Y7355160D02*
X4180800Y7325160D01*
X4207140Y6840660D02*
X4237140Y6810660D01*
X4237140Y6840660D02*
X4207140Y6810660D01*
X4208470Y7677780D02*
X4238470Y7647780D01*
X4238470Y7677780D02*
X4208470Y7647780D01*
X4214540Y4399120D02*
X4244540Y4369120D01*
X4244540Y4399120D02*
X4214540Y4369120D01*
X4215600Y5964200D02*
X4245600Y5934200D01*
X4245600Y5964200D02*
X4215600Y5934200D01*
X4217540Y5507460D02*
X4247540Y5477460D01*
X4247540Y5507460D02*
X4217540Y5477460D01*
X4232460Y7515110D02*
X4262460Y7485110D01*
X4262460Y7515110D02*
X4232460Y7485110D01*
X4255950Y7952680D02*
X4285950Y7922680D01*
X4285950Y7952680D02*
X4255950Y7922680D01*
X4256740Y8761490D02*
X4286740Y8731490D01*
X4286740Y8761490D02*
X4256740Y8731490D01*
X4267530Y8272830D02*
X4297530Y8242830D01*
X4297530Y8272830D02*
X4267530Y8242830D01*
X4288350Y8924050D02*
X4318350Y8894050D01*
X4318350Y8924050D02*
X4288350Y8894050D01*
X4289060Y9182300D02*
X4319060Y9152300D01*
X4319060Y9182300D02*
X4289060Y9152300D01*
X4297500Y5910390D02*
X4327500Y5880390D01*
X4327500Y5910390D02*
X4297500Y5880390D01*
X4299950Y8401850D02*
X4329950Y8371850D01*
X4329950Y8401850D02*
X4299950Y8371850D01*
X4301120Y3227060D02*
X4331120Y3197060D01*
X4331120Y3227060D02*
X4301120Y3197060D01*
X4318460Y7842470D02*
X4348460Y7812470D01*
X4348460Y7842470D02*
X4318460Y7812470D01*
X4318800Y6979410D02*
X4348800Y6949410D01*
X4348800Y6979410D02*
X4318800Y6949410D01*
X4339290Y3021030D02*
X4369290Y2991030D01*
X4369290Y3021030D02*
X4339290Y2991030D01*
X4355810Y6117830D02*
X4385810Y6087830D01*
X4385810Y6117830D02*
X4355810Y6087830D01*
X4360260Y6044790D02*
X4390260Y6014790D01*
X4390260Y6044790D02*
X4360260Y6014790D01*
X4365640Y3390790D02*
X4395640Y3360790D01*
X4395640Y3390790D02*
X4365640Y3360790D01*
X4365910Y1631650D02*
X4395910Y1601650D01*
X4395910Y1631650D02*
X4365910Y1601650D01*
X4394840Y3496190D02*
X4424840Y3466190D01*
X4424840Y3496190D02*
X4394840Y3466190D01*
X4395580Y6752790D02*
X4425580Y6722790D01*
X4425580Y6752790D02*
X4395580Y6722790D01*
X4398930Y8438630D02*
X4428930Y8408630D01*
X4428930Y8438630D02*
X4398930Y8408630D01*
X4401470Y9018270D02*
X4431470Y8988270D01*
X4431470Y9018270D02*
X4401470Y8988270D01*
X4410000Y934690D02*
X4440000Y904690D01*
X4440000Y934690D02*
X4410000Y904690D01*
X4417510Y4844440D02*
X4447510Y4814440D01*
X4447510Y4844440D02*
X4417510Y4814440D01*
X4424620Y3325350D02*
X4454620Y3295350D01*
X4454620Y3325350D02*
X4424620Y3295350D01*
X4425000Y656130D02*
X4455000Y626130D01*
X4455000Y656130D02*
X4425000Y626130D01*
X4443710Y5160520D02*
X4473710Y5130520D01*
X4473710Y5160520D02*
X4443710Y5130520D01*
X4456550Y1003220D02*
X4486550Y973220D01*
X4486550Y1003220D02*
X4456550Y973220D01*
X4459200Y7587250D02*
X4489200Y7557250D01*
X4489200Y7587250D02*
X4459200Y7557250D01*
X4476740Y1887520D02*
X4506740Y1857520D01*
X4506740Y1887520D02*
X4476740Y1857520D01*
X4484440Y5261160D02*
X4514440Y5231160D01*
X4514440Y5261160D02*
X4484440Y5231160D01*
X4486340Y9061550D02*
X4516340Y9031550D01*
X4516340Y9061550D02*
X4486340Y9031550D01*
X4497340Y7383770D02*
X4527340Y7353770D01*
X4527340Y7383770D02*
X4497340Y7353770D01*
X4510000Y656580D02*
X4540000Y626580D01*
X4540000Y656580D02*
X4510000Y626580D01*
X4537650Y3324300D02*
X4567650Y3294300D01*
X4567650Y3324300D02*
X4537650Y3294300D01*
X4586160Y8141740D02*
X4616160Y8111740D01*
X4616160Y8141740D02*
X4586160Y8111740D01*
X4588310Y9310100D02*
X4618310Y9280100D01*
X4618310Y9310100D02*
X4588310Y9280100D01*
X4597820Y1795050D02*
X4627820Y1765050D01*
X4627820Y1795050D02*
X4597820Y1765050D01*
X4605820Y3955240D02*
X4635820Y3925240D01*
X4635820Y3955240D02*
X4605820Y3925240D01*
X4622520Y6592930D02*
X4652520Y6562930D01*
X4652520Y6592930D02*
X4622520Y6562930D01*
X4632900Y4921510D02*
X4662900Y4891510D01*
X4662900Y4921510D02*
X4632900Y4891510D01*
X4636370Y7824030D02*
X4666370Y7794030D01*
X4666370Y7824030D02*
X4636370Y7794030D01*
X4636370Y7751290D02*
X4666370Y7721290D01*
X4666370Y7751290D02*
X4636370Y7721290D01*
X4640320Y6338310D02*
X4670320Y6308310D01*
X4670320Y6338310D02*
X4640320Y6308310D01*
X4641190Y8049230D02*
X4671190Y8019230D01*
X4671190Y8049230D02*
X4641190Y8019230D01*
X4643500Y8703700D02*
X4673500Y8673700D01*
X4673500Y8703700D02*
X4643500Y8673700D01*
X4649360Y3723520D02*
X4679360Y3693520D01*
X4679360Y3723520D02*
X4649360Y3693520D01*
X4649780Y9137780D02*
X4679780Y9107780D01*
X4679780Y9137780D02*
X4649780Y9107780D01*
X4650140Y8444770D02*
X4680140Y8414770D01*
X4680140Y8444770D02*
X4650140Y8414770D01*
X4650350Y5030510D02*
X4680350Y5000510D01*
X4680350Y5030510D02*
X4650350Y5000510D01*
X4670880Y8843010D02*
X4700880Y8813010D01*
X4700880Y8843010D02*
X4670880Y8813010D01*
X4683810Y9038100D02*
X4713810Y9008100D01*
X4713810Y9038100D02*
X4683810Y9008100D01*
X4696420Y6280900D02*
X4726420Y6250900D01*
X4726420Y6280900D02*
X4696420Y6250900D01*
X4702620Y9310100D02*
X4732620Y9280100D01*
X4732620Y9310100D02*
X4702620Y9280100D01*
X4704730Y7103460D02*
X4734730Y7073460D01*
X4734730Y7103460D02*
X4704730Y7073460D01*
X4705090Y1114150D02*
X4735090Y1084150D01*
X4735090Y1114150D02*
X4705090Y1084150D01*
X4705520Y3660120D02*
X4735520Y3630120D01*
X4735520Y3660120D02*
X4705520Y3630120D01*
X4710000Y656110D02*
X4740000Y626110D01*
X4740000Y656110D02*
X4710000Y626110D01*
X4713690Y5797340D02*
X4743690Y5767340D01*
X4743690Y5797340D02*
X4713690Y5767340D01*
X4722490Y3397390D02*
X4752490Y3367390D01*
X4752490Y3397390D02*
X4722490Y3367390D01*
X4725510Y4668430D02*
X4755510Y4638430D01*
X4755510Y4668430D02*
X4725510Y4638430D01*
X4732260Y2040650D02*
X4762260Y2010650D01*
X4762260Y2040650D02*
X4732260Y2010650D01*
X4738370Y7490640D02*
X4768370Y7460640D01*
X4768370Y7490640D02*
X4738370Y7460640D01*
X4753350Y4977180D02*
X4783350Y4947180D01*
X4783350Y4977180D02*
X4753350Y4947180D01*
X4760000Y934150D02*
X4790000Y904150D01*
X4790000Y934150D02*
X4760000Y904150D01*
X4773120Y2454090D02*
X4803120Y2424090D01*
X4803120Y2454090D02*
X4773120Y2424090D01*
X4791910Y6698980D02*
X4821910Y6668980D01*
X4821910Y6698980D02*
X4791910Y6668980D01*
X4793260Y8273180D02*
X4823260Y8243180D01*
X4823260Y8273180D02*
X4793260Y8243180D01*
X4794810Y6617220D02*
X4824810Y6587220D01*
X4824810Y6617220D02*
X4794810Y6587220D01*
X4796850Y8507780D02*
X4826850Y8477780D01*
X4826850Y8507780D02*
X4796850Y8477780D01*
X4797920Y9277320D02*
X4827920Y9247320D01*
X4827920Y9277320D02*
X4797920Y9247320D01*
X4810000Y657710D02*
X4840000Y627710D01*
X4840000Y657710D02*
X4810000Y627710D01*
X4818720Y6541770D02*
X4848720Y6511770D01*
X4848720Y6541770D02*
X4818720Y6511770D01*
X4819340Y5771350D02*
X4849340Y5741350D01*
X4849340Y5771350D02*
X4819340Y5741350D01*
X4820900Y1163230D02*
X4850900Y1133230D01*
X4850900Y1163230D02*
X4820900Y1133230D01*
X4822410Y6379900D02*
X4852410Y6349900D01*
X4852410Y6379900D02*
X4822410Y6349900D01*
X4823080Y3395530D02*
X4853080Y3365530D01*
X4853080Y3395530D02*
X4823080Y3365530D01*
X4823910Y7110890D02*
X4853910Y7080890D01*
X4853910Y7110890D02*
X4823910Y7080890D01*
X4829130Y3955720D02*
X4859130Y3925720D01*
X4859130Y3955720D02*
X4829130Y3925720D01*
X4829490Y5248500D02*
X4859490Y5218500D01*
X4859490Y5248500D02*
X4829490Y5218500D01*
X4831890Y1950000D02*
X4861890Y1920000D01*
X4861890Y1950000D02*
X4831890Y1920000D01*
X4837750Y4472360D02*
X4867750Y4442360D01*
X4867750Y4472360D02*
X4837750Y4442360D01*
X4843630Y1713060D02*
X4873630Y1683060D01*
X4873630Y1713060D02*
X4843630Y1683060D01*
X4847590Y3720130D02*
X4877590Y3690130D01*
X4877590Y3720130D02*
X4847590Y3690130D01*
X4860000Y937720D02*
X4890000Y907720D01*
X4890000Y937720D02*
X4860000Y907720D01*
X4860510Y4089920D02*
X4890510Y4059920D01*
X4890510Y4089920D02*
X4860510Y4059920D01*
X4863510Y5397980D02*
X4893510Y5367980D01*
X4893510Y5397980D02*
X4863510Y5367980D01*
X4892790Y657400D02*
X4922790Y627400D01*
X4922790Y657400D02*
X4892790Y627400D01*
X4895710Y4693910D02*
X4925710Y4663910D01*
X4925710Y4693910D02*
X4895710Y4663910D01*
X4926140Y4856330D02*
X4956140Y4826330D01*
X4956140Y4856330D02*
X4926140Y4826330D01*
X4931370Y6105760D02*
X4961370Y6075760D01*
X4961370Y6105760D02*
X4931370Y6075760D01*
X4933590Y934250D02*
X4963590Y904250D01*
X4963590Y934250D02*
X4933590Y904250D01*
X4939730Y3492800D02*
X4969730Y3462800D01*
X4969730Y3492800D02*
X4939730Y3462800D01*
X4949430Y2567220D02*
X4979430Y2537220D01*
X4979430Y2567220D02*
X4949430Y2537220D01*
X4968820Y7770890D02*
X4998820Y7740890D01*
X4998820Y7770890D02*
X4968820Y7740890D01*
X4970870Y7552670D02*
X5000870Y7522670D01*
X5000870Y7552670D02*
X4970870Y7522670D01*
X4983540Y8870770D02*
X5013540Y8840770D01*
X5013540Y8870770D02*
X4983540Y8840770D01*
X4988990Y4221100D02*
X5018990Y4191100D01*
X5018990Y4221100D02*
X4988990Y4191100D01*
X4994040Y8991130D02*
X5024040Y8961130D01*
X5024040Y8991130D02*
X4994040Y8961130D01*
X5000870Y6360950D02*
X5030870Y6330950D01*
X5030870Y6360950D02*
X5000870Y6330950D01*
X5004360Y4885720D02*
X5034360Y4855720D01*
X5034360Y4885720D02*
X5004360Y4855720D01*
X5005820Y6749550D02*
X5035820Y6719550D01*
X5035820Y6749550D02*
X5005820Y6719550D01*
X5008230Y8049020D02*
X5038230Y8019020D01*
X5038230Y8049020D02*
X5008230Y8019020D01*
X5014450Y8454900D02*
X5044450Y8424900D01*
X5044450Y8454900D02*
X5014450Y8424900D01*
X5016580Y3421780D02*
X5046580Y3391780D01*
X5046580Y3421780D02*
X5016580Y3391780D01*
X5022950Y5405780D02*
X5052950Y5375780D01*
X5052950Y5405780D02*
X5022950Y5375780D01*
X5035940Y1750000D02*
X5065940Y1720000D01*
X5065940Y1750000D02*
X5035940Y1720000D01*
X5039800Y3001120D02*
X5069800Y2971120D01*
X5069800Y3001120D02*
X5039800Y2971120D01*
X5040310Y2902960D02*
X5070310Y2872960D01*
X5070310Y2902960D02*
X5040310Y2872960D01*
X5049760Y2295920D02*
X5079760Y2265920D01*
X5079760Y2295920D02*
X5049760Y2265920D01*
X5051950Y1876820D02*
X5081950Y1846820D01*
X5081950Y1876820D02*
X5051950Y1846820D01*
X5057520Y943680D02*
X5087520Y913680D01*
X5087520Y943680D02*
X5057520Y913680D01*
X5066120Y9134350D02*
X5096120Y9104350D01*
X5096120Y9134350D02*
X5066120Y9104350D01*
X5067680Y4682210D02*
X5097680Y4652210D01*
X5097680Y4682210D02*
X5067680Y4652210D01*
X5071290Y1605750D02*
X5101290Y1575750D01*
X5101290Y1605750D02*
X5071290Y1575750D01*
X5074920Y3841140D02*
X5104920Y3811140D01*
X5104920Y3841140D02*
X5074920Y3811140D01*
X5079420Y5144820D02*
X5109420Y5114820D01*
X5109420Y5144820D02*
X5079420Y5114820D01*
X5079570Y3925240D02*
X5109570Y3895240D01*
X5109570Y3925240D02*
X5079570Y3895240D01*
X5081490Y6532270D02*
X5111490Y6502270D01*
X5111490Y6532270D02*
X5081490Y6502270D01*
X5087770Y8389900D02*
X5117770Y8359900D01*
X5117770Y8389900D02*
X5087770Y8359900D01*
X5102790Y5489500D02*
X5132790Y5459500D01*
X5132790Y5489500D02*
X5102790Y5459500D01*
X5109260Y8909900D02*
X5139260Y8879900D01*
X5139260Y8909900D02*
X5109260Y8879900D01*
X5115430Y5411270D02*
X5145430Y5381270D01*
X5145430Y5411270D02*
X5115430Y5381270D01*
X5117790Y6003100D02*
X5147790Y5973100D01*
X5147790Y6003100D02*
X5117790Y5973100D01*
X5117790Y5059580D02*
X5147790Y5029580D01*
X5147790Y5059580D02*
X5117790Y5029580D01*
X5120270Y2702080D02*
X5150270Y2672080D01*
X5150270Y2702080D02*
X5120270Y2672080D01*
X5121690Y9189900D02*
X5151690Y9159900D01*
X5151690Y9189900D02*
X5121690Y9159900D01*
X5132110Y4265600D02*
X5162110Y4235600D01*
X5162110Y4265600D02*
X5132110Y4235600D01*
X5132180Y936470D02*
X5162180Y906470D01*
X5162180Y936470D02*
X5132180Y906470D01*
X5133330Y6851820D02*
X5163330Y6821820D01*
X5163330Y6851820D02*
X5133330Y6821820D01*
X5135910Y6994810D02*
X5165910Y6964810D01*
X5165910Y6994810D02*
X5135910Y6964810D01*
X5141250Y1567800D02*
X5171250Y1537800D01*
X5171250Y1567800D02*
X5141250Y1537800D01*
X5146290Y6743820D02*
X5176290Y6713820D01*
X5176290Y6743820D02*
X5146290Y6713820D01*
X5158380Y657830D02*
X5188380Y627830D01*
X5188380Y657830D02*
X5158380Y627830D01*
X5169610Y7586450D02*
X5199610Y7556450D01*
X5199610Y7586450D02*
X5169610Y7556450D01*
X5181200Y4373420D02*
X5211200Y4343420D01*
X5211200Y4373420D02*
X5181200Y4343420D01*
X5182480Y5746090D02*
X5212480Y5716090D01*
X5212480Y5746090D02*
X5182480Y5716090D01*
X5221400Y6731550D02*
X5251400Y6701550D01*
X5251400Y6731550D02*
X5221400Y6701550D01*
X5227560Y8974900D02*
X5257560Y8944900D01*
X5257560Y8974900D02*
X5227560Y8944900D01*
X5231130Y3613760D02*
X5261130Y3583760D01*
X5261130Y3613760D02*
X5231130Y3583760D01*
X5236970Y4100940D02*
X5266970Y4070940D01*
X5266970Y4100940D02*
X5236970Y4070940D01*
X5241200Y1393550D02*
X5271200Y1363550D01*
X5271200Y1393550D02*
X5241200Y1363550D01*
X5250880Y2952040D02*
X5280880Y2922040D01*
X5280880Y2952040D02*
X5250880Y2922040D01*
X5251410Y5831680D02*
X5281410Y5801680D01*
X5281410Y5831680D02*
X5251410Y5801680D01*
X5257060Y2677900D02*
X5287060Y2647900D01*
X5287060Y2677900D02*
X5257060Y2647900D01*
X5260000Y656900D02*
X5290000Y626900D01*
X5290000Y656900D02*
X5260000Y626900D01*
X5266200Y8228630D02*
X5296200Y8198630D01*
X5296200Y8228630D02*
X5266200Y8198630D01*
X5267710Y4952660D02*
X5297710Y4922660D01*
X5297710Y4952660D02*
X5267710Y4922660D01*
X5277390Y3681410D02*
X5307390Y3651410D01*
X5307390Y3681410D02*
X5277390Y3651410D01*
X5282120Y3754180D02*
X5312120Y3724180D01*
X5312120Y3754180D02*
X5282120Y3724180D01*
X5293110Y6417110D02*
X5323110Y6387110D01*
X5323110Y6417110D02*
X5293110Y6387110D01*
X5300500Y3364530D02*
X5330500Y3334530D01*
X5330500Y3364530D02*
X5300500Y3334530D01*
X5301220Y2346720D02*
X5331220Y2316720D01*
X5331220Y2346720D02*
X5301220Y2316720D01*
X5311210Y4111770D02*
X5341210Y4081770D01*
X5341210Y4111770D02*
X5311210Y4081770D01*
X5317440Y2617520D02*
X5347440Y2587520D01*
X5347440Y2617520D02*
X5317440Y2587520D01*
X5332630Y7035470D02*
X5362630Y7005470D01*
X5362630Y7035470D02*
X5332630Y7005470D01*
X5332910Y8064900D02*
X5362910Y8034900D01*
X5362910Y8064900D02*
X5332910Y8034900D01*
X5335510Y2227340D02*
X5365510Y2197340D01*
X5365510Y2227340D02*
X5335510Y2197340D01*
X5336890Y4527090D02*
X5366890Y4497090D01*
X5366890Y4527090D02*
X5336890Y4497090D01*
X5346370Y6347220D02*
X5376370Y6317220D01*
X5376370Y6347220D02*
X5346370Y6317220D01*
X5357920Y5010500D02*
X5387920Y4980500D01*
X5387920Y5010500D02*
X5357920Y4980500D01*
X5360000Y1393940D02*
X5390000Y1363940D01*
X5390000Y1393940D02*
X5360000Y1363940D01*
X5396520Y6019360D02*
X5426520Y5989360D01*
X5426520Y6019360D02*
X5396520Y5989360D01*
X5410000Y2158070D02*
X5440000Y2128070D01*
X5440000Y2158070D02*
X5410000Y2128070D01*
X5419810Y2328940D02*
X5449810Y2298940D01*
X5449810Y2328940D02*
X5419810Y2298940D01*
X5421930Y1335210D02*
X5451930Y1305210D01*
X5451930Y1335210D02*
X5421930Y1305210D01*
X5428620Y3310590D02*
X5458620Y3280590D01*
X5458620Y3310590D02*
X5428620Y3280590D01*
X5440230Y7278420D02*
X5470230Y7248420D01*
X5470230Y7278420D02*
X5440230Y7248420D01*
X5486190Y6738330D02*
X5516190Y6708330D01*
X5516190Y6738330D02*
X5486190Y6708330D01*
X5503510Y5467190D02*
X5533510Y5437190D01*
X5533510Y5467190D02*
X5503510Y5437190D01*
X5503840Y1494490D02*
X5533840Y1464490D01*
X5533840Y1494490D02*
X5503840Y1464490D01*
X5506720Y6543320D02*
X5536720Y6513320D01*
X5536720Y6543320D02*
X5506720Y6513320D01*
X5507490Y6638020D02*
X5537490Y6608020D01*
X5537490Y6638020D02*
X5507490Y6608020D01*
X5516380Y3814500D02*
X5546380Y3784500D01*
X5546380Y3814500D02*
X5516380Y3784500D01*
X5516440Y3901820D02*
X5546440Y3871820D01*
X5546440Y3901820D02*
X5516440Y3871820D01*
X5517320Y5356500D02*
X5547320Y5326500D01*
X5547320Y5356500D02*
X5517320Y5326500D01*
X5517670Y5137060D02*
X5547670Y5107060D01*
X5547670Y5137060D02*
X5517670Y5107060D01*
X5517720Y4041230D02*
X5547720Y4011230D01*
X5547720Y4041230D02*
X5517720Y4011230D01*
X5518380Y5209820D02*
X5548380Y5179820D01*
X5548380Y5209820D02*
X5518380Y5179820D01*
X5521400Y9106000D02*
X5551400Y9076000D01*
X5551400Y9106000D02*
X5521400Y9076000D01*
X5532010Y4892960D02*
X5562010Y4862960D01*
X5562010Y4892960D02*
X5532010Y4862960D01*
X5536450Y3619880D02*
X5566450Y3589880D01*
X5566450Y3619880D02*
X5536450Y3589880D01*
X5546330Y2264170D02*
X5576330Y2234170D01*
X5576330Y2264170D02*
X5546330Y2234170D01*
X5551230Y6048520D02*
X5581230Y6018520D01*
X5581230Y6048520D02*
X5551230Y6018520D01*
X5578210Y8708050D02*
X5608210Y8678050D01*
X5608210Y8708050D02*
X5578210Y8678050D01*
X5578750Y8795330D02*
X5608750Y8765330D01*
X5608750Y8795330D02*
X5578750Y8765330D01*
X5579000Y5569700D02*
X5609000Y5539700D01*
X5609000Y5569700D02*
X5579000Y5539700D01*
X5581380Y8117340D02*
X5611380Y8087340D01*
X5611380Y8117340D02*
X5581380Y8087340D01*
X5601130Y6945770D02*
X5631130Y6915770D01*
X5631130Y6945770D02*
X5601130Y6915770D01*
X5655090Y1592790D02*
X5685090Y1562790D01*
X5685090Y1592790D02*
X5655090Y1562790D01*
X5655830Y1008460D02*
X5685830Y978460D01*
X5685830Y1008460D02*
X5655830Y978460D01*
X5662030Y7910650D02*
X5692030Y7880650D01*
X5692030Y7910650D02*
X5662030Y7880650D01*
X5688790Y3478890D02*
X5718790Y3448890D01*
X5718790Y3478890D02*
X5688790Y3448890D01*
X5702180Y8398430D02*
X5732180Y8368430D01*
X5732180Y8398430D02*
X5702180Y8368430D01*
X5709160Y7082220D02*
X5739160Y7052220D01*
X5739160Y7082220D02*
X5709160Y7052220D01*
X5711460Y9066780D02*
X5741460Y9036780D01*
X5741460Y9066780D02*
X5711460Y9036780D01*
X5719480Y1700000D02*
X5749480Y1670000D01*
X5749480Y1700000D02*
X5719480Y1670000D01*
X5742200Y2581380D02*
X5772200Y2551380D01*
X5772200Y2581380D02*
X5742200Y2551380D01*
X5757850Y7324160D02*
X5787850Y7294160D01*
X5787850Y7324160D02*
X5757850Y7294160D01*
X5785270Y4543820D02*
X5815270Y4513820D01*
X5815270Y4543820D02*
X5785270Y4513820D01*
X5788900Y7829480D02*
X5818900Y7799480D01*
X5818900Y7829480D02*
X5788900Y7799480D01*
X5795580Y8964300D02*
X5825580Y8934300D01*
X5825580Y8964300D02*
X5795580Y8934300D01*
X5795580Y302130D02*
X5825580Y272130D01*
X5825580Y302130D02*
X5795580Y272130D01*
X5812170Y3660890D02*
X5842170Y3630890D01*
X5842170Y3660890D02*
X5812170Y3630890D01*
X5821940Y843880D02*
X5851940Y813880D01*
X5851940Y843880D02*
X5821940Y813880D01*
X5831520Y5333670D02*
X5861520Y5303670D01*
X5861520Y5333670D02*
X5831520Y5303670D01*
X5835890Y1326350D02*
X5865890Y1296350D01*
X5865890Y1326350D02*
X5835890Y1296350D01*
X5841040Y4994500D02*
X5871040Y4964500D01*
X5871040Y4994500D02*
X5841040Y4964500D01*
X5843100Y5996590D02*
X5873100Y5966590D01*
X5873100Y5996590D02*
X5843100Y5966590D01*
X5843730Y7377100D02*
X5873730Y7347100D01*
X5873730Y7377100D02*
X5843730Y7347100D01*
X5843730Y7303660D02*
X5873730Y7273660D01*
X5873730Y7303660D02*
X5843730Y7273660D01*
X5847320Y5752140D02*
X5877320Y5722140D01*
X5877320Y5752140D02*
X5847320Y5722140D01*
X5850190Y6674770D02*
X5880190Y6644770D01*
X5880190Y6674770D02*
X5850190Y6644770D01*
X5859870Y8002210D02*
X5889870Y7972210D01*
X5889870Y8002210D02*
X5859870Y7972210D01*
X5874780Y1750000D02*
X5904780Y1720000D01*
X5904780Y1750000D02*
X5874780Y1720000D01*
X5878320Y5535730D02*
X5908320Y5505730D01*
X5908320Y5535730D02*
X5878320Y5505730D01*
X5895440Y4233080D02*
X5925440Y4203080D01*
X5925440Y4233080D02*
X5895440Y4203080D01*
X5910160Y8819150D02*
X5940160Y8789150D01*
X5940160Y8819150D02*
X5910160Y8789150D01*
X5915900Y2447050D02*
X5945900Y2417050D01*
X5945900Y2447050D02*
X5915900Y2417050D01*
X5931190Y8723290D02*
X5961190Y8693290D01*
X5961190Y8723290D02*
X5931190Y8693290D01*
X5932310Y5794190D02*
X5962310Y5764190D01*
X5962310Y5794190D02*
X5932310Y5764190D01*
X5934470Y5867390D02*
X5964470Y5837390D01*
X5964470Y5867390D02*
X5934470Y5837390D01*
X5951740Y3674620D02*
X5981740Y3644620D01*
X5981740Y3674620D02*
X5951740Y3644620D01*
X5954010Y6305490D02*
X5984010Y6275490D01*
X5984010Y6305490D02*
X5954010Y6275490D01*
X5964560Y5318330D02*
X5994560Y5288330D01*
X5994560Y5318330D02*
X5964560Y5288330D01*
X5975940Y7244180D02*
X6005940Y7214180D01*
X6005940Y7244180D02*
X5975940Y7214180D01*
X6002180Y8406730D02*
X6032180Y8376730D01*
X6032180Y8406730D02*
X6002180Y8376730D01*
X6004160Y9056590D02*
X6034160Y9026590D01*
X6034160Y9056590D02*
X6004160Y9026590D01*
X6012440Y4996710D02*
X6042440Y4966710D01*
X6042440Y4996710D02*
X6012440Y4966710D01*
X6012540Y3727800D02*
X6042540Y3697800D01*
X6042540Y3727800D02*
X6012540Y3697800D01*
X6014370Y2022580D02*
X6044370Y1992580D01*
X6044370Y2022580D02*
X6014370Y1992580D01*
X6025030Y6615450D02*
X6055030Y6585450D01*
X6055030Y6615450D02*
X6025030Y6585450D01*
X6028830Y1524590D02*
X6058830Y1494590D01*
X6058830Y1524590D02*
X6028830Y1494590D01*
X6067770Y6281200D02*
X6097770Y6251200D01*
X6097770Y6281200D02*
X6067770Y6251200D01*
X6069110Y9310930D02*
X6099110Y9280930D01*
X6099110Y9310930D02*
X6069110Y9280930D01*
X6092670Y4970990D02*
X6122670Y4940990D01*
X6122670Y4970990D02*
X6092670Y4940990D01*
X6093700Y8215410D02*
X6123700Y8185410D01*
X6123700Y8215410D02*
X6093700Y8185410D01*
X6103580Y6739670D02*
X6133580Y6709670D01*
X6133580Y6739670D02*
X6103580Y6709670D01*
X6108270Y3804620D02*
X6138270Y3774620D01*
X6138270Y3804620D02*
X6108270Y3774620D01*
X6109330Y4732920D02*
X6139330Y4702920D01*
X6139330Y4732920D02*
X6109330Y4702920D01*
X6110350Y3883110D02*
X6140350Y3853110D01*
X6140350Y3883110D02*
X6110350Y3853110D01*
X6110440Y5266430D02*
X6140440Y5236430D01*
X6140440Y5266430D02*
X6110440Y5236430D01*
X6119400Y3433450D02*
X6149400Y3403450D01*
X6149400Y3433450D02*
X6119400Y3403450D01*
X6119670Y6043210D02*
X6149670Y6013210D01*
X6149670Y6043210D02*
X6119670Y6013210D01*
X6120370Y1324800D02*
X6150370Y1294800D01*
X6150370Y1324800D02*
X6120370Y1294800D01*
X6125100Y7534180D02*
X6155100Y7504180D01*
X6155100Y7534180D02*
X6125100Y7504180D01*
X6135810Y227560D02*
X6165810Y197560D01*
X6165810Y227560D02*
X6135810Y197560D01*
X6147980Y4131740D02*
X6177980Y4101740D01*
X6177980Y4131740D02*
X6147980Y4101740D01*
X6160240Y9342690D02*
X6190240Y9312690D01*
X6190240Y9342690D02*
X6160240Y9312690D01*
X6162670Y476270D02*
X6192670Y446270D01*
X6192670Y476270D02*
X6162670Y446270D01*
X6180530Y7849910D02*
X6210530Y7819910D01*
X6210530Y7849910D02*
X6180530Y7819910D01*
X6181800Y5468280D02*
X6211800Y5438280D01*
X6211800Y5468280D02*
X6181800Y5438280D01*
X6189650Y5812700D02*
X6219650Y5782700D01*
X6219650Y5812700D02*
X6189650Y5782700D01*
X6190100Y9068070D02*
X6220100Y9038070D01*
X6220100Y9068070D02*
X6190100Y9038070D01*
X6190100Y7776980D02*
X6220100Y7746980D01*
X6220100Y7776980D02*
X6190100Y7746980D01*
X6196640Y1672280D02*
X6226640Y1642280D01*
X6226640Y1672280D02*
X6196640Y1642280D01*
X6203910Y8789110D02*
X6233910Y8759110D01*
X6233910Y8789110D02*
X6203910Y8759110D01*
X6210970Y2287850D02*
X6240970Y2257850D01*
X6240970Y2287850D02*
X6210970Y2257850D01*
X6247930Y7232888D02*
X6277930Y7202888D01*
X6277930Y7232888D02*
X6247930Y7202888D01*
X6277600Y3367110D02*
X6307600Y3337110D01*
X6307600Y3367110D02*
X6277600Y3337110D01*
X6283880Y2496720D02*
X6313880Y2466720D01*
X6313880Y2496720D02*
X6283880Y2466720D01*
X6313270Y1058520D02*
X6343270Y1028520D01*
X6343270Y1058520D02*
X6313270Y1028520D01*
X6320100Y9069420D02*
X6350100Y9039420D01*
X6350100Y9069420D02*
X6320100Y9039420D01*
X6320100Y7534160D02*
X6350100Y7504160D01*
X6350100Y7534160D02*
X6320100Y7504160D01*
X6325030Y6185380D02*
X6355030Y6155380D01*
X6355030Y6185380D02*
X6325030Y6155380D01*
X6373410Y4149610D02*
X6403410Y4119610D01*
X6403410Y4149610D02*
X6373410Y4119610D01*
X6382810Y3339740D02*
X6412810Y3309740D01*
X6412810Y3339740D02*
X6382810Y3309740D01*
X6388180Y8174150D02*
X6418180Y8144150D01*
X6418180Y8174150D02*
X6388180Y8144150D01*
X6391200Y8914280D02*
X6421200Y8884280D01*
X6421200Y8914280D02*
X6391200Y8884280D01*
X6397550Y7777280D02*
X6427550Y7747280D01*
X6427550Y7777280D02*
X6397550Y7747280D01*
X6397740Y3952270D02*
X6427740Y3922270D01*
X6427740Y3952270D02*
X6397740Y3922270D01*
X6401040Y1661130D02*
X6431040Y1631130D01*
X6431040Y1661130D02*
X6401040Y1631130D01*
X6401040Y1328800D02*
X6431040Y1298800D01*
X6431040Y1328800D02*
X6401040Y1298800D01*
X6412380Y2889020D02*
X6442380Y2859020D01*
X6442380Y2889020D02*
X6412380Y2859020D01*
X6412690Y9343990D02*
X6442690Y9313990D01*
X6442690Y9343990D02*
X6412690Y9313990D01*
X6416860Y6433020D02*
X6446860Y6403020D01*
X6446860Y6433020D02*
X6416860Y6403020D01*
X6419820Y5336620D02*
X6449820Y5306620D01*
X6449820Y5336620D02*
X6419820Y5306620D01*
X6420040Y6507070D02*
X6450040Y6477070D01*
X6450040Y6507070D02*
X6420040Y6477070D01*
X6422160Y5171820D02*
X6452160Y5141820D01*
X6452160Y5171820D02*
X6422160Y5141820D01*
X6423900Y8452880D02*
X6453900Y8422880D01*
X6453900Y8452880D02*
X6423900Y8422880D01*
X6446300Y6947250D02*
X6476300Y6917250D01*
X6476300Y6947250D02*
X6446300Y6917250D01*
X6447540Y4281000D02*
X6477540Y4251000D01*
X6477540Y4281000D02*
X6447540Y4251000D01*
X6449720Y488580D02*
X6479720Y458580D01*
X6479720Y488580D02*
X6449720Y458580D01*
X6450100Y7532280D02*
X6480100Y7502280D01*
X6480100Y7532280D02*
X6450100Y7502280D01*
X6451290Y4738650D02*
X6481290Y4708650D01*
X6481290Y4738650D02*
X6451290Y4708650D01*
X6452630Y4005160D02*
X6482630Y3975160D01*
X6482630Y4005160D02*
X6452630Y3975160D01*
X6459150Y5471150D02*
X6489150Y5441150D01*
X6489150Y5471150D02*
X6459150Y5441150D01*
X6462100Y959250D02*
X6492100Y929250D01*
X6492100Y959250D02*
X6462100Y929250D01*
X6462860Y1256470D02*
X6492860Y1226470D01*
X6492860Y1256470D02*
X6462860Y1226470D01*
X6467760Y6769620D02*
X6497760Y6739620D01*
X6497760Y6769620D02*
X6467760Y6739620D01*
X6470710Y5114140D02*
X6500710Y5084140D01*
X6500710Y5114140D02*
X6470710Y5084140D01*
X6481990Y6595520D02*
X6511990Y6565520D01*
X6511990Y6595520D02*
X6481990Y6565520D01*
X6486270Y6046700D02*
X6516270Y6016700D01*
X6516270Y6046700D02*
X6486270Y6016700D01*
X6531570Y5344250D02*
X6561570Y5314250D01*
X6561570Y5344250D02*
X6531570Y5314250D01*
X6538240Y5516810D02*
X6568240Y5486810D01*
X6568240Y5516810D02*
X6538240Y5486810D01*
X6547270Y3521430D02*
X6577270Y3491430D01*
X6577270Y3521430D02*
X6547270Y3491430D01*
X6547690Y4642250D02*
X6577690Y4612250D01*
X6577690Y4642250D02*
X6547690Y4612250D01*
X6551220Y7534230D02*
X6581220Y7504230D01*
X6581220Y7534230D02*
X6551220Y7504230D01*
X6570000Y688220D02*
X6600000Y658220D01*
X6600000Y688220D02*
X6570000Y658220D01*
X6593910Y3731100D02*
X6623910Y3701100D01*
X6623910Y3731100D02*
X6593910Y3701100D01*
X6615740Y5477490D02*
X6645740Y5447490D01*
X6645740Y5477490D02*
X6615740Y5447490D01*
X6619180Y5244710D02*
X6649180Y5214710D01*
X6649180Y5244710D02*
X6619180Y5214710D01*
X6621790Y3811230D02*
X6651790Y3781230D01*
X6651790Y3811230D02*
X6621790Y3781230D01*
X6621970Y2397960D02*
X6651970Y2367960D01*
X6651970Y2397960D02*
X6621970Y2367960D01*
X6644350Y9068430D02*
X6674350Y9038430D01*
X6674350Y9068430D02*
X6644350Y9038430D01*
X6644920Y4797100D02*
X6674920Y4767100D01*
X6674920Y4797100D02*
X6644920Y4767100D01*
X6652430Y6451930D02*
X6682430Y6421930D01*
X6682430Y6451930D02*
X6652430Y6421930D01*
X6676120Y8501710D02*
X6706120Y8471710D01*
X6706120Y8501710D02*
X6676120Y8471710D01*
X6677900Y8161760D02*
X6707900Y8131760D01*
X6707900Y8161760D02*
X6677900Y8131760D01*
X6677900Y7828490D02*
X6707900Y7798490D01*
X6707900Y7828490D02*
X6677900Y7798490D01*
X6693240Y5515230D02*
X6723240Y5485230D01*
X6723240Y5515230D02*
X6693240Y5485230D01*
X6693870Y8758530D02*
X6723870Y8728530D01*
X6723870Y8758530D02*
X6693870Y8728530D01*
X6718700Y3521410D02*
X6748700Y3491410D01*
X6748700Y3521410D02*
X6718700Y3491410D01*
X6755750Y7531230D02*
X6785750Y7501230D01*
X6785750Y7531230D02*
X6755750Y7501230D01*
X6759180Y8911350D02*
X6789180Y8881350D01*
X6789180Y8911350D02*
X6759180Y8881350D01*
X6762180Y8311940D02*
X6792180Y8281940D01*
X6792180Y8311940D02*
X6762180Y8281940D01*
X6762520Y7008800D02*
X6792520Y6978800D01*
X6792520Y7008800D02*
X6762520Y6978800D01*
X6764000Y4385030D02*
X6794000Y4355030D01*
X6794000Y4385030D02*
X6764000Y4355030D01*
X6768150Y1502040D02*
X6798150Y1472040D01*
X6798150Y1502040D02*
X6768150Y1472040D01*
X6769270Y4823260D02*
X6799270Y4793260D01*
X6799270Y4823260D02*
X6769270Y4793260D01*
X6814950Y6137560D02*
X6844950Y6107560D01*
X6844950Y6137560D02*
X6814950Y6107560D01*
X6822370Y1650820D02*
X6852370Y1620820D01*
X6852370Y1650820D02*
X6822370Y1620820D01*
X6840013Y7258288D02*
X6870013Y7228288D01*
X6870013Y7258288D02*
X6840013Y7228288D01*
X6852340Y1418740D02*
X6882340Y1388740D01*
X6882340Y1418740D02*
X6852340Y1388740D01*
X6864760Y6757490D02*
X6894760Y6727490D01*
X6894760Y6757490D02*
X6864760Y6727490D01*
X6874500Y1701630D02*
X6904500Y1671630D01*
X6904500Y1701630D02*
X6874500Y1671630D01*
X6883750Y1526560D02*
X6913750Y1496560D01*
X6913750Y1526560D02*
X6883750Y1496560D01*
X6891310Y1601730D02*
X6921310Y1571730D01*
X6921310Y1601730D02*
X6891310Y1571730D01*
X6900170Y5973570D02*
X6930170Y5943570D01*
X6930170Y5973570D02*
X6900170Y5943570D01*
X6903510Y9183710D02*
X6933510Y9153710D01*
X6933510Y9183710D02*
X6903510Y9153710D01*
X6905300Y7602520D02*
X6935300Y7572520D01*
X6935300Y7602520D02*
X6905300Y7572520D01*
X6905830Y4118540D02*
X6935830Y4088540D01*
X6935830Y4118540D02*
X6905830Y4088540D01*
X6918100Y3869620D02*
X6948100Y3839620D01*
X6948100Y3869620D02*
X6918100Y3839620D01*
X6919090Y4879570D02*
X6949090Y4849570D01*
X6949090Y4879570D02*
X6919090Y4849570D01*
X6919890Y3702850D02*
X6949890Y3672850D01*
X6949890Y3702850D02*
X6919890Y3672850D01*
X6930190Y6189710D02*
X6960190Y6159710D01*
X6960190Y6189710D02*
X6930190Y6159710D01*
X6930200Y5144840D02*
X6960200Y5114840D01*
X6960200Y5144840D02*
X6930200Y5114840D01*
X6931340Y3530430D02*
X6961340Y3500430D01*
X6961340Y3530430D02*
X6931340Y3500430D01*
X6942080Y2311440D02*
X6972080Y2281440D01*
X6972080Y2311440D02*
X6942080Y2281440D01*
X6942080Y1126540D02*
X6972080Y1096540D01*
X6972080Y1126540D02*
X6942080Y1096540D01*
X6942850Y6603310D02*
X6972850Y6573310D01*
X6972850Y6603310D02*
X6942850Y6573310D01*
X6944180Y4991390D02*
X6974180Y4961390D01*
X6974180Y4991390D02*
X6944180Y4961390D01*
X6944330Y6304840D02*
X6974330Y6274840D01*
X6974330Y6304840D02*
X6944330Y6274840D01*
X6946760Y3780640D02*
X6976760Y3750640D01*
X6976760Y3780640D02*
X6946760Y3750640D01*
X6974503Y7140357D02*
X7004503Y7110357D01*
X7004503Y7140357D02*
X6974503Y7110357D01*
X6990100Y9103580D02*
X7020100Y9073580D01*
X7020100Y9103580D02*
X6990100Y9073580D01*
X6991130Y1493280D02*
X7021130Y1463280D01*
X7021130Y1493280D02*
X6991130Y1463280D01*
X7015970Y1744610D02*
X7045970Y1714610D01*
X7045970Y1744610D02*
X7015970Y1714610D01*
X7036000Y4192530D02*
X7066000Y4162530D01*
X7066000Y4192530D02*
X7036000Y4162530D01*
X7057160Y1388790D02*
X7087160Y1358790D01*
X7087160Y1388790D02*
X7057160Y1358790D01*
X7070560Y4445380D02*
X7100560Y4415380D01*
X7100560Y4445380D02*
X7070560Y4415380D01*
X7110680Y8223770D02*
X7140680Y8193770D01*
X7140680Y8223770D02*
X7110680Y8193770D01*
X7111120Y8454900D02*
X7141120Y8424900D01*
X7141120Y8454900D02*
X7111120Y8424900D01*
X7111680Y8064900D02*
X7141680Y8034900D01*
X7141680Y8064900D02*
X7111680Y8034900D01*
X7112070Y8324900D02*
X7142070Y8294900D01*
X7142070Y8324900D02*
X7112070Y8294900D01*
X7112470Y8584900D02*
X7142470Y8554900D01*
X7142470Y8584900D02*
X7112470Y8554900D01*
X7112790Y7914140D02*
X7142790Y7884140D01*
X7142790Y7914140D02*
X7112790Y7884140D01*
X7123270Y5252640D02*
X7153270Y5222640D01*
X7153270Y5252640D02*
X7123270Y5222640D01*
X7154780Y4950580D02*
X7184780Y4920580D01*
X7184780Y4950580D02*
X7154780Y4920580D01*
X7158590Y3649500D02*
X7188590Y3619500D01*
X7188590Y3649500D02*
X7158590Y3619500D01*
X7170770Y4197110D02*
X7200770Y4167110D01*
X7200770Y4197110D02*
X7170770Y4167110D01*
X7175740Y6280290D02*
X7205740Y6250290D01*
X7205740Y6280290D02*
X7175740Y6250290D01*
X7201180Y6076300D02*
X7231180Y6046300D01*
X7231180Y6076300D02*
X7201180Y6046300D01*
X7202350Y3439000D02*
X7232350Y3409000D01*
X7232350Y3439000D02*
X7202350Y3409000D01*
X7203410Y5471100D02*
X7233410Y5441100D01*
X7233410Y5471100D02*
X7203410Y5441100D01*
X7207490Y1580870D02*
X7237490Y1550870D01*
X7237490Y1580870D02*
X7207490Y1550870D01*
X7209480Y6870160D02*
X7239480Y6840160D01*
X7239480Y6870160D02*
X7209480Y6840160D01*
X7213070Y4767880D02*
X7243070Y4737880D01*
X7243070Y4767880D02*
X7213070Y4737880D01*
X7216950Y2889020D02*
X7246950Y2859020D01*
X7246950Y2889020D02*
X7216950Y2859020D01*
X7217950Y4691410D02*
X7247950Y4661410D01*
X7247950Y4691410D02*
X7217950Y4661410D01*
X7226010Y2014610D02*
X7256010Y1984610D01*
X7256010Y2014610D02*
X7226010Y1984610D01*
X7229220Y1806970D02*
X7259220Y1776970D01*
X7259220Y1806970D02*
X7229220Y1776970D01*
X7236080Y4990360D02*
X7266080Y4960360D01*
X7266080Y4990360D02*
X7236080Y4960360D01*
X7236220Y3647920D02*
X7266220Y3617920D01*
X7266220Y3647920D02*
X7236220Y3617920D01*
X7257750Y5713960D02*
X7287750Y5683960D01*
X7287750Y5713960D02*
X7257750Y5683960D01*
X7257930Y4391560D02*
X7287930Y4361560D01*
X7287930Y4391560D02*
X7257930Y4361560D01*
X7264520Y3828130D02*
X7294520Y3798130D01*
X7294520Y3828130D02*
X7264520Y3798130D01*
X7278940Y5863820D02*
X7308940Y5833820D01*
X7308940Y5863820D02*
X7278940Y5833820D01*
X7297530Y750330D02*
X7327530Y720330D01*
X7327530Y750330D02*
X7297530Y720330D01*
X7304870Y4060120D02*
X7334870Y4030120D01*
X7334870Y4060120D02*
X7304870Y4030120D01*
X7306420Y5372480D02*
X7336420Y5342480D01*
X7336420Y5372480D02*
X7306420Y5342480D01*
X7306760Y3981100D02*
X7336760Y3951100D01*
X7336760Y3981100D02*
X7306760Y3951100D01*
X7306980Y6606220D02*
X7336980Y6576220D01*
X7336980Y6606220D02*
X7306980Y6576220D01*
X7308070Y5285860D02*
X7338070Y5255860D01*
X7338070Y5285860D02*
X7308070Y5255860D01*
X7325140Y4490830D02*
X7355140Y4460830D01*
X7355140Y4490830D02*
X7325140Y4460830D01*
X7352340Y5456250D02*
X7382340Y5426250D01*
X7382340Y5456250D02*
X7352340Y5426250D01*
X7352440Y4150290D02*
X7382440Y4120290D01*
X7382440Y4150290D02*
X7352440Y4120290D01*
X7356640Y2889470D02*
X7386640Y2859470D01*
X7386640Y2889470D02*
X7356640Y2859470D01*
X7370040Y1657830D02*
X7400040Y1627830D01*
X7400040Y1657830D02*
X7370040Y1627830D01*
X7374940Y3332080D02*
X7404940Y3302080D01*
X7404940Y3332080D02*
X7374940Y3302080D01*
X7401840Y4870940D02*
X7431840Y4840940D01*
X7431840Y4870940D02*
X7401840Y4840940D01*
X7401940Y3753770D02*
X7431940Y3723770D01*
X7431940Y3753770D02*
X7401940Y3723770D01*
X7406880Y1961910D02*
X7436880Y1931910D01*
X7436880Y1961910D02*
X7406880Y1931910D01*
X7417560Y657190D02*
X7447560Y627190D01*
X7447560Y657190D02*
X7417560Y627190D01*
X7419180Y6396780D02*
X7449180Y6366780D01*
X7449180Y6396780D02*
X7419180Y6366780D01*
X7419730Y3462500D02*
X7449730Y3432500D01*
X7449730Y3462500D02*
X7419730Y3432500D01*
X7421990Y6103870D02*
X7451990Y6073870D01*
X7451990Y6103870D02*
X7421990Y6073870D01*
X7429020Y1547470D02*
X7459020Y1517470D01*
X7459020Y1547470D02*
X7429020Y1517470D01*
X7429750Y5087180D02*
X7459750Y5057180D01*
X7459750Y5087180D02*
X7429750Y5057180D01*
X7440690Y4666020D02*
X7470690Y4636020D01*
X7470690Y4666020D02*
X7440690Y4636020D01*
X7473650Y7011250D02*
X7503650Y6981250D01*
X7503650Y7011250D02*
X7473650Y6981250D01*
X7483400Y6059110D02*
X7513400Y6029110D01*
X7513400Y6059110D02*
X7483400Y6029110D01*
X7496390Y3579520D02*
X7526390Y3549520D01*
X7526390Y3579520D02*
X7496390Y3549520D01*
X7510000Y657010D02*
X7540000Y627010D01*
X7540000Y657010D02*
X7510000Y627010D01*
X7512510Y6804600D02*
X7542510Y6774600D01*
X7542510Y6804600D02*
X7512510Y6774600D01*
X7527860Y1062200D02*
X7557860Y1032200D01*
X7557860Y1062200D02*
X7527860Y1032200D01*
X7528080Y2443510D02*
X7558080Y2413510D01*
X7558080Y2443510D02*
X7528080Y2413510D01*
X7532880Y8178500D02*
X7562880Y8148500D01*
X7562880Y8178500D02*
X7532880Y8148500D01*
X7553720Y3856060D02*
X7583720Y3826060D01*
X7583720Y3856060D02*
X7553720Y3826060D01*
X7556100Y5149940D02*
X7586100Y5119940D01*
X7586100Y5149940D02*
X7556100Y5119940D01*
X7566840Y6563290D02*
X7596840Y6533290D01*
X7596840Y6563290D02*
X7566840Y6533290D01*
X7577060Y6997210D02*
X7607060Y6967210D01*
X7607060Y6997210D02*
X7577060Y6967210D01*
X7579830Y8120710D02*
X7609830Y8090710D01*
X7609830Y8120710D02*
X7579830Y8090710D01*
X7586530Y4245460D02*
X7616530Y4215460D01*
X7616530Y4245460D02*
X7586530Y4215460D01*
X7606430Y6381000D02*
X7636430Y6351000D01*
X7636430Y6381000D02*
X7606430Y6351000D01*
X7617030Y4367970D02*
X7647030Y4337970D01*
X7647030Y4367970D02*
X7617030Y4337970D01*
X7621820Y7611420D02*
X7651820Y7581420D01*
X7651820Y7611420D02*
X7621820Y7581420D01*
X7623770Y1087490D02*
X7653770Y1057490D01*
X7653770Y1087490D02*
X7623770Y1057490D01*
X7632300Y7805960D02*
X7662300Y7775960D01*
X7662300Y7805960D02*
X7632300Y7775960D01*
X7633870Y7733190D02*
X7663870Y7703190D01*
X7663870Y7733190D02*
X7633870Y7703190D01*
X7634680Y3737060D02*
X7664680Y3707060D01*
X7664680Y3737060D02*
X7634680Y3707060D01*
X7638820Y6781290D02*
X7668820Y6751290D01*
X7668820Y6781290D02*
X7638820Y6751290D01*
X7645700Y8786880D02*
X7675700Y8756880D01*
X7675700Y8786880D02*
X7645700Y8756880D01*
X7651580Y1625360D02*
X7681580Y1595360D01*
X7681580Y1625360D02*
X7651580Y1595360D01*
X7657840Y5761620D02*
X7687840Y5731620D01*
X7687840Y5761620D02*
X7657840Y5731620D01*
X7688820Y937610D02*
X7718820Y907610D01*
X7718820Y937610D02*
X7688820Y907610D01*
X7691460Y1900000D02*
X7721460Y1870000D01*
X7721460Y1900000D02*
X7691460Y1870000D01*
X7693880Y6219800D02*
X7723880Y6189800D01*
X7723880Y6219800D02*
X7693880Y6189800D01*
X7703648Y7124932D02*
X7733648Y7094932D01*
X7733648Y7124932D02*
X7703648Y7094932D01*
X7706260Y5005990D02*
X7736260Y4975990D01*
X7736260Y5005990D02*
X7706260Y4975990D01*
X7709430Y2483590D02*
X7739430Y2453590D01*
X7739430Y2483590D02*
X7709430Y2453590D01*
X7710470Y4500950D02*
X7740470Y4470950D01*
X7740470Y4500950D02*
X7710470Y4470950D01*
X7710820Y3426320D02*
X7740820Y3396320D01*
X7740820Y3426320D02*
X7710820Y3396320D01*
X7714850Y658170D02*
X7744850Y628170D01*
X7744850Y658170D02*
X7714850Y628170D01*
X7716710Y8499920D02*
X7746710Y8469920D01*
X7746710Y8499920D02*
X7716710Y8469920D01*
X7741700Y6347450D02*
X7771700Y6317450D01*
X7771700Y6347450D02*
X7741700Y6317450D01*
X7758640Y8277020D02*
X7788640Y8247020D01*
X7788640Y8277020D02*
X7758640Y8247020D01*
X7767070Y4131190D02*
X7797070Y4101190D01*
X7797070Y4131190D02*
X7767070Y4101190D01*
X7769270Y935710D02*
X7799270Y905710D01*
X7799270Y935710D02*
X7769270Y905710D01*
X7776390Y6165830D02*
X7806390Y6135830D01*
X7806390Y6165830D02*
X7776390Y6135830D01*
X7777320Y8045730D02*
X7807320Y8015730D01*
X7807320Y8045730D02*
X7777320Y8015730D01*
X7779110Y6424490D02*
X7809110Y6394490D01*
X7809110Y6424490D02*
X7779110Y6394490D01*
X7782090Y6740030D02*
X7812090Y6710030D01*
X7812090Y6740030D02*
X7782090Y6710030D01*
X7783780Y5415270D02*
X7813780Y5385270D01*
X7813780Y5415270D02*
X7783780Y5385270D01*
X7785490Y7040870D02*
X7815490Y7010870D01*
X7815490Y7040870D02*
X7785490Y7010870D01*
X7796450Y4436810D02*
X7826450Y4406810D01*
X7826450Y4436810D02*
X7796450Y4406810D01*
X7800870Y6856560D02*
X7830870Y6826560D01*
X7830870Y6856560D02*
X7800870Y6826560D01*
X7818040Y5055070D02*
X7848040Y5025070D01*
X7848040Y5055070D02*
X7818040Y5025070D01*
X7818060Y8501700D02*
X7848060Y8471700D01*
X7848060Y8501700D02*
X7818060Y8471700D01*
X7827690Y1950000D02*
X7857690Y1920000D01*
X7857690Y1950000D02*
X7827690Y1920000D01*
X7830750Y4835090D02*
X7860750Y4805090D01*
X7860750Y4835090D02*
X7830750Y4805090D01*
X7834310Y5938930D02*
X7864310Y5908930D01*
X7864310Y5938930D02*
X7834310Y5908930D01*
X7839370Y1857010D02*
X7869370Y1827010D01*
X7869370Y1857010D02*
X7839370Y1827010D01*
X7843630Y1713060D02*
X7873630Y1683060D01*
X7873630Y1713060D02*
X7843630Y1683060D01*
X7860010Y658110D02*
X7890010Y628110D01*
X7890010Y658110D02*
X7860010Y628110D01*
X7860760Y8043910D02*
X7890760Y8013910D01*
X7890760Y8043910D02*
X7860760Y8013910D01*
X7902970Y2045210D02*
X7932970Y2015210D01*
X7932970Y2045210D02*
X7902970Y2015210D01*
X7907320Y8501790D02*
X7937320Y8471790D01*
X7937320Y8501790D02*
X7907320Y8471790D01*
X7910320Y4709600D02*
X7940320Y4679600D01*
X7940320Y4709600D02*
X7910320Y4679600D01*
X7927000Y7582740D02*
X7957000Y7552740D01*
X7957000Y7582740D02*
X7927000Y7552740D01*
X7928060Y2421104D02*
X7958060Y2391104D01*
X7958060Y2421104D02*
X7928060Y2391104D01*
X7933050Y1062200D02*
X7963050Y1032200D01*
X7963050Y1062200D02*
X7933050Y1032200D01*
X7949400Y4568370D02*
X7979400Y4538370D01*
X7979400Y4568370D02*
X7949400Y4538370D01*
X7958110Y7459262D02*
X7988110Y7429262D01*
X7988110Y7459262D02*
X7958110Y7429262D01*
X7960000Y656280D02*
X7990000Y626280D01*
X7990000Y656280D02*
X7960000Y626280D01*
X7969810Y4225480D02*
X7999810Y4195480D01*
X7999810Y4225480D02*
X7969810Y4195480D01*
X7977110Y2299730D02*
X8007110Y2269730D01*
X8007110Y2299730D02*
X7977110Y2269730D01*
X7978740Y6780910D02*
X8008740Y6750910D01*
X8008740Y6780910D02*
X7978740Y6750910D01*
X7978790Y5473980D02*
X8008790Y5443980D01*
X8008790Y5473980D02*
X7978790Y5443980D01*
X7978840Y4106620D02*
X8008840Y4076620D01*
X8008840Y4106620D02*
X7978840Y4076620D01*
X7992430Y5956410D02*
X8022430Y5926410D01*
X8022430Y5956410D02*
X7992430Y5926410D01*
X7992440Y5311810D02*
X8022440Y5281810D01*
X8022440Y5311810D02*
X7992440Y5281810D01*
X7992900Y3853920D02*
X8022900Y3823920D01*
X8022900Y3853920D02*
X7992900Y3823920D01*
X7993000Y3931120D02*
X8023000Y3901120D01*
X8023000Y3931120D02*
X7993000Y3901120D01*
X7993530Y5228860D02*
X8023530Y5198860D01*
X8023530Y5228860D02*
X7993530Y5198860D01*
X7993670Y6547320D02*
X8023670Y6517320D01*
X8023670Y6547320D02*
X7993670Y6517320D01*
X7994540Y5156120D02*
X8024540Y5126120D01*
X8024540Y5156120D02*
X7994540Y5126120D01*
X7995060Y6642020D02*
X8025060Y6612020D01*
X8025060Y6642020D02*
X7995060Y6612020D01*
X8013300Y1631020D02*
X8043300Y1601020D01*
X8043300Y1631020D02*
X8013300Y1601020D01*
X8025900Y4894720D02*
X8055900Y4864720D01*
X8055900Y4894720D02*
X8025900Y4864720D01*
X8031900Y7777360D02*
X8061900Y7747360D01*
X8061900Y7777360D02*
X8031900Y7747360D01*
X8046270Y933770D02*
X8076270Y903770D01*
X8076270Y933770D02*
X8046270Y903770D01*
X8054200Y1876820D02*
X8084200Y1846820D01*
X8084200Y1876820D02*
X8054200Y1846820D01*
X8060600Y8336910D02*
X8090600Y8306910D01*
X8090600Y8336910D02*
X8060600Y8306910D01*
X8067360Y1581930D02*
X8097360Y1551930D01*
X8097360Y1581930D02*
X8067360Y1551930D01*
X8071568Y3627080D02*
X8101568Y3597080D01*
X8101568Y3627080D02*
X8071568Y3597080D01*
X8079080Y5978900D02*
X8109080Y5948900D01*
X8109080Y5978900D02*
X8079080Y5948900D01*
X8085660Y8501010D02*
X8115660Y8471010D01*
X8115660Y8501010D02*
X8085660Y8471010D01*
X8110000Y656130D02*
X8140000Y626130D01*
X8140000Y656130D02*
X8110000Y626130D01*
X8112780Y2162570D02*
X8142780Y2132570D01*
X8142780Y2162570D02*
X8112780Y2132570D01*
X8126820Y1428760D02*
X8156820Y1398760D01*
X8156820Y1428760D02*
X8126820Y1398760D01*
X8130200Y1537960D02*
X8160200Y1507960D01*
X8160200Y1537960D02*
X8130200Y1507960D01*
X8160000Y934340D02*
X8190000Y904340D01*
X8190000Y934340D02*
X8160000Y904340D01*
X8173300Y509920D02*
X8203300Y479920D01*
X8203300Y509920D02*
X8173300Y479920D01*
X8183140Y6296930D02*
X8213140Y6266930D01*
X8213140Y6296930D02*
X8183140Y6266930D01*
X8206980Y4368560D02*
X8236980Y4338560D01*
X8236980Y4368560D02*
X8206980Y4338560D01*
X8207990Y6780070D02*
X8237990Y6750070D01*
X8237990Y6780070D02*
X8207990Y6750070D01*
X8210570Y1002660D02*
X8240570Y972660D01*
X8240570Y1002660D02*
X8210570Y972660D01*
X8220320Y3035740D02*
X8250320Y3005740D01*
X8250320Y3035740D02*
X8220320Y3005740D01*
X8232320Y7780970D02*
X8262320Y7750970D01*
X8262320Y7780970D02*
X8232320Y7750970D01*
X8260000Y656790D02*
X8290000Y626790D01*
X8290000Y656790D02*
X8260000Y626790D01*
X8271680Y953580D02*
X8301680Y923580D01*
X8301680Y953580D02*
X8271680Y923580D01*
X8282030Y8502230D02*
X8312030Y8472230D01*
X8312030Y8502230D02*
X8282030Y8472230D01*
X8296610Y7651380D02*
X8326610Y7621380D01*
X8326610Y7651380D02*
X8296610Y7621380D01*
X8301600Y3058810D02*
X8331600Y3028810D01*
X8331600Y3058810D02*
X8301600Y3028810D01*
X8313300Y7782220D02*
X8343300Y7752220D01*
X8343300Y7782220D02*
X8313300Y7752220D01*
X8313300Y3154680D02*
X8343300Y3124680D01*
X8343300Y3154680D02*
X8313300Y3124680D01*
X8330990Y3555460D02*
X8360990Y3525460D01*
X8360990Y3555460D02*
X8330990Y3525460D01*
X8339060Y4435870D02*
X8369060Y4405870D01*
X8369060Y4435870D02*
X8339060Y4405870D01*
X8345110Y949560D02*
X8375110Y919560D01*
X8375110Y949560D02*
X8345110Y919560D01*
X8364780Y4556520D02*
X8394780Y4526520D01*
X8394780Y4556520D02*
X8364780Y4526520D01*
X8398110Y7433861D02*
X8428110Y7403861D01*
X8428110Y7433861D02*
X8398110Y7403861D01*
X8400730Y8501700D02*
X8430730Y8471700D01*
X8430730Y8501700D02*
X8400730Y8471700D01*
X8404690Y2160380D02*
X8434690Y2130380D01*
X8434690Y2160380D02*
X8404690Y2130380D01*
X8409810Y4912530D02*
X8439810Y4882530D01*
X8439810Y4912530D02*
X8409810Y4882530D01*
X8433220Y5001280D02*
X8463220Y4971280D01*
X8463220Y5001280D02*
X8433220Y4971280D01*
X8435000Y1393820D02*
X8465000Y1363820D01*
X8465000Y1393820D02*
X8435000Y1363820D01*
X8449780Y2460410D02*
X8479780Y2430410D01*
X8479780Y2460410D02*
X8449780Y2430410D01*
X8485500Y7799610D02*
X8515500Y7769610D01*
X8515500Y7799610D02*
X8485500Y7769610D01*
X8497100Y7873120D02*
X8527100Y7843120D01*
X8527100Y7873120D02*
X8497100Y7843120D01*
X8510170Y2400020D02*
X8540170Y2370020D01*
X8540170Y2400020D02*
X8510170Y2370020D01*
X8515510Y1494550D02*
X8545510Y1464550D01*
X8545510Y1494550D02*
X8515510Y1464550D01*
X8518270Y5670830D02*
X8548270Y5640830D01*
X8548270Y5670830D02*
X8518270Y5640830D01*
X8520670Y2219720D02*
X8550670Y2189720D01*
X8550670Y2219720D02*
X8520670Y2189720D01*
X8558620Y5046280D02*
X8588620Y5016280D01*
X8588620Y5046280D02*
X8558620Y5016280D01*
X8564140Y4068580D02*
X8594140Y4038580D01*
X8594140Y4068580D02*
X8564140Y4038580D01*
X8570850Y7910440D02*
X8600850Y7880440D01*
X8600850Y7910440D02*
X8570850Y7880440D01*
X8600520Y4257540D02*
X8630520Y4227540D01*
X8630520Y4257540D02*
X8600520Y4227540D01*
X8614030Y3847560D02*
X8644030Y3817560D01*
X8644030Y3847560D02*
X8614030Y3817560D01*
X8628620Y2278140D02*
X8658620Y2248140D01*
X8658620Y2278140D02*
X8628620Y2248140D01*
X8644690Y6816870D02*
X8674690Y6786870D01*
X8674690Y6816870D02*
X8644690Y6786870D01*
X8683350Y4630270D02*
X8713350Y4600270D01*
X8713350Y4630270D02*
X8683350Y4600270D01*
X8684310Y4413120D02*
X8714310Y4383120D01*
X8714310Y4413120D02*
X8684310Y4383120D01*
X8685960Y1592790D02*
X8715960Y1562790D01*
X8715960Y1592790D02*
X8685960Y1562790D01*
X8697200Y2904250D02*
X8727200Y2874250D01*
X8727200Y2904250D02*
X8697200Y2874250D01*
X8712440Y2214640D02*
X8742440Y2184640D01*
X8742440Y2214640D02*
X8712440Y2184640D01*
X8715360Y1924560D02*
X8745360Y1894560D01*
X8745360Y1924560D02*
X8715360Y1894560D01*
X8715950Y1850000D02*
X8745950Y1820000D01*
X8745950Y1850000D02*
X8715950Y1820000D01*
X8719990Y1705400D02*
X8749990Y1675400D01*
X8749990Y1705400D02*
X8719990Y1675400D01*
X8721690Y5253630D02*
X8751690Y5223630D01*
X8751690Y5253630D02*
X8721690Y5223630D01*
X8736100Y8556070D02*
X8766100Y8526070D01*
X8766100Y8556070D02*
X8736100Y8526070D01*
X8741050Y5626360D02*
X8771050Y5596360D01*
X8771050Y5626360D02*
X8741050Y5596360D01*
X8748000Y3313190D02*
X8778000Y3283190D01*
X8778000Y3313190D02*
X8748000Y3283190D01*
X8776661Y2973651D02*
X8806661Y2943651D01*
X8806661Y2973651D02*
X8776661Y2943651D01*
X8785130Y6622640D02*
X8815130Y6592640D01*
X8815130Y6622640D02*
X8785130Y6592640D01*
X8788640Y2890280D02*
X8818640Y2860280D01*
X8818640Y2890280D02*
X8788640Y2860280D01*
X8795780Y3731630D02*
X8825780Y3701630D01*
X8825780Y3731630D02*
X8795780Y3701630D01*
X8799470Y7124932D02*
X8829470Y7094932D01*
X8829470Y7124932D02*
X8799470Y7094932D01*
X8805422Y6017558D02*
X8835422Y5987558D01*
X8835422Y6017558D02*
X8805422Y5987558D01*
X8809420Y4514590D02*
X8839420Y4484590D01*
X8839420Y4514590D02*
X8809420Y4484590D01*
X8813060Y2391840D02*
X8843060Y2361840D01*
X8843060Y2391840D02*
X8813060Y2361840D01*
X8834360Y2142250D02*
X8864360Y2112250D01*
X8864360Y2142250D02*
X8834360Y2112250D01*
X8835890Y1662400D02*
X8865890Y1632400D01*
X8865890Y1662400D02*
X8835890Y1632400D01*
X8835890Y1328400D02*
X8865890Y1298400D01*
X8865890Y1328400D02*
X8835890Y1298400D01*
X8836230Y8999240D02*
X8866230Y8969240D01*
X8866230Y8999240D02*
X8836230Y8969240D01*
X8857220Y7035560D02*
X8887220Y7005560D01*
X8887220Y7035560D02*
X8857220Y7005560D01*
X8858969Y5787750D02*
X8888969Y5757750D01*
X8888969Y5787750D02*
X8858969Y5757750D01*
X8865520Y6705720D02*
X8895520Y6675720D01*
X8895520Y6705720D02*
X8865520Y6675720D01*
X8873440Y2331460D02*
X8903440Y2301460D01*
X8903440Y2331460D02*
X8873440Y2301460D01*
X8878950Y1754490D02*
X8908950Y1724490D01*
X8908950Y1754490D02*
X8878950Y1724490D01*
X8917110Y159570D02*
X8947110Y129570D01*
X8947110Y159570D02*
X8917110Y129570D01*
X8931880Y7451649D02*
X8961880Y7421649D01*
X8961880Y7451649D02*
X8931880Y7421649D01*
X8944210Y2954920D02*
X8974210Y2924920D01*
X8974210Y2954920D02*
X8944210Y2924920D01*
X8949930Y3305570D02*
X8979930Y3275570D01*
X8979930Y3305570D02*
X8949930Y3275570D01*
X8951860Y825500D02*
X8981860Y795500D01*
X8981860Y825500D02*
X8951860Y795500D01*
X8953290Y3731630D02*
X8983290Y3701630D01*
X8983290Y3731630D02*
X8953290Y3701630D01*
X8959299Y5362070D02*
X8989299Y5332070D01*
X8989299Y5362070D02*
X8959299Y5332070D01*
X8961360Y5778260D02*
X8991360Y5748260D01*
X8991360Y5778260D02*
X8961360Y5748260D01*
X8986260Y4906320D02*
X9016260Y4876320D01*
X9016260Y4906320D02*
X8986260Y4876320D01*
X8995490Y4714420D02*
X9025490Y4684420D01*
X9025490Y4714420D02*
X8995490Y4684420D01*
X8995690Y1385590D02*
X9025690Y1355590D01*
X9025690Y1385590D02*
X8995690Y1355590D01*
X8996160Y2251751D02*
X9026160Y2221751D01*
X9026160Y2251751D02*
X8996160Y2221751D01*
X9003501Y6900629D02*
X9033501Y6870629D01*
X9033501Y6900629D02*
X9003501Y6870629D01*
X9026450Y1598310D02*
X9056450Y1568310D01*
X9056450Y1598310D02*
X9026450Y1568310D01*
X9027550Y8422710D02*
X9057550Y8392710D01*
X9057550Y8422710D02*
X9027550Y8392710D01*
X9038398Y6836851D02*
X9068398Y6806851D01*
X9068398Y6836851D02*
X9038398Y6806851D01*
X9043020Y7969800D02*
X9073020Y7939800D01*
X9073020Y7969800D02*
X9043020Y7939800D01*
X9072240Y6670980D02*
X9102240Y6640980D01*
X9102240Y6670980D02*
X9072240Y6640980D01*
X9075433Y2236213D02*
X9105433Y2206213D01*
X9105433Y2236213D02*
X9075433Y2206213D01*
X9090800Y2976910D02*
X9120800Y2946910D01*
X9120800Y2976910D02*
X9090800Y2946910D01*
X9120370Y1327570D02*
X9150370Y1297570D01*
X9150370Y1327570D02*
X9120370Y1297570D01*
X9133420Y1855350D02*
X9163420Y1825350D01*
X9163420Y1855350D02*
X9133420Y1825350D01*
X9145510Y5514100D02*
X9175510Y5484100D01*
X9175510Y5514100D02*
X9145510Y5484100D01*
X9145834Y2201734D02*
X9175834Y2171734D01*
X9175834Y2201734D02*
X9145834Y2171734D01*
X9147480Y5909680D02*
X9177480Y5879680D01*
X9177480Y5909680D02*
X9147480Y5879680D01*
X9148300Y8304080D02*
X9178300Y8274080D01*
X9178300Y8304080D02*
X9148300Y8274080D01*
X9149690Y7824120D02*
X9179690Y7794120D01*
X9179690Y7824120D02*
X9149690Y7794120D01*
X9168250Y4821430D02*
X9198250Y4791430D01*
X9198250Y4821430D02*
X9168250Y4791430D01*
X9169220Y9007380D02*
X9199220Y8977380D01*
X9199220Y9007380D02*
X9169220Y8977380D01*
X9171270Y1984040D02*
X9201270Y1954040D01*
X9201270Y1984040D02*
X9171270Y1954040D01*
X9172220Y4630100D02*
X9202220Y4600100D01*
X9202220Y4630100D02*
X9172220Y4600100D01*
X9172220Y4399440D02*
X9202220Y4369440D01*
X9202220Y4399440D02*
X9172220Y4369440D01*
X9173390Y4324400D02*
X9203390Y4294400D01*
X9203390Y4324400D02*
X9173390Y4294400D01*
X9183620Y1657750D02*
X9213620Y1627750D01*
X9213620Y1657750D02*
X9183620Y1627750D01*
X9183780Y7023700D02*
X9213780Y6993700D01*
X9213780Y7023700D02*
X9183780Y6993700D01*
X9224786Y7085036D02*
X9254786Y7055036D01*
X9254786Y7085036D02*
X9224786Y7055036D01*
X9225520Y7535940D02*
X9255520Y7505940D01*
X9255520Y7535940D02*
X9225520Y7505940D01*
X9241310Y452590D02*
X9271310Y422590D01*
X9271310Y452590D02*
X9241310Y422590D01*
X9242880Y668810D02*
X9272880Y638810D01*
X9272880Y668810D02*
X9242880Y638810D01*
X9251990Y1385590D02*
X9281990Y1355590D01*
X9281990Y1385590D02*
X9251990Y1355590D01*
X9273990Y7759060D02*
X9303990Y7729060D01*
X9303990Y7759060D02*
X9273990Y7729060D01*
X9276550Y5145250D02*
X9306550Y5115250D01*
X9306550Y5145250D02*
X9276550Y5115250D01*
X9286420Y3756990D02*
X9316420Y3726990D01*
X9316420Y3756990D02*
X9286420Y3726990D01*
X9301910Y4553980D02*
X9331910Y4523980D01*
X9331910Y4553980D02*
X9301910Y4523980D01*
X9301970Y4651110D02*
X9331970Y4621110D01*
X9331970Y4651110D02*
X9301970Y4621110D01*
X9307080Y6228370D02*
X9337080Y6198370D01*
X9337080Y6228370D02*
X9307080Y6198370D01*
X9314600Y2828790D02*
X9344600Y2798790D01*
X9344600Y2828790D02*
X9314600Y2798790D01*
X9321310Y5448760D02*
X9351310Y5418760D01*
X9351310Y5448760D02*
X9321310Y5418760D01*
X9341560Y6076570D02*
X9371560Y6046570D01*
X9371560Y6076570D02*
X9341560Y6046570D01*
X9350300Y1846500D02*
X9380300Y1816500D01*
X9380300Y1846500D02*
X9350300Y1816500D01*
X9356330Y8112520D02*
X9386330Y8082520D01*
X9386330Y8112520D02*
X9356330Y8082520D01*
X9359720Y8632540D02*
X9389720Y8602540D01*
X9389720Y8632540D02*
X9359720Y8602540D01*
X9363800Y6858030D02*
X9393800Y6828030D01*
X9393800Y6858030D02*
X9363800Y6828030D01*
X9371480Y8265100D02*
X9401480Y8235100D01*
X9401480Y8265100D02*
X9371480Y8235100D01*
X9376900Y8545950D02*
X9406900Y8515950D01*
X9406900Y8545950D02*
X9376900Y8515950D01*
X9379470Y2231820D02*
X9409470Y2201820D01*
X9409470Y2231820D02*
X9379470Y2201820D01*
X9401040Y1664070D02*
X9431040Y1634070D01*
X9431040Y1664070D02*
X9401040Y1634070D01*
X9401040Y1326070D02*
X9431040Y1296070D01*
X9431040Y1326070D02*
X9401040Y1296070D01*
X9409720Y5546540D02*
X9439720Y5516540D01*
X9439720Y5546540D02*
X9409720Y5516540D01*
X9433940Y4850680D02*
X9463940Y4820680D01*
X9463940Y4850680D02*
X9433940Y4820680D01*
X9436640Y4068580D02*
X9466640Y4038580D01*
X9466640Y4068580D02*
X9436640Y4038580D01*
X9456100Y6172770D02*
X9486100Y6142770D01*
X9486100Y6172770D02*
X9456100Y6142770D01*
X9461970Y6830980D02*
X9491970Y6800980D01*
X9491970Y6830980D02*
X9461970Y6800980D01*
X9462160Y2227330D02*
X9492160Y2197330D01*
X9492160Y2227330D02*
X9462160Y2197330D01*
X9515200Y2895990D02*
X9545200Y2865990D01*
X9545200Y2895990D02*
X9515200Y2865990D01*
X9515770Y5548380D02*
X9545770Y5518380D01*
X9545770Y5548380D02*
X9515770Y5518380D01*
X9525820Y7795890D02*
X9555820Y7765890D01*
X9555820Y7795890D02*
X9525820Y7765890D01*
X9536340Y4237760D02*
X9566340Y4207760D01*
X9566340Y4237760D02*
X9536340Y4207760D01*
X9549640Y6127480D02*
X9579640Y6097480D01*
X9579640Y6127480D02*
X9549640Y6097480D01*
X9570100Y1326340D02*
X9600100Y1296340D01*
X9600100Y1326340D02*
X9570100Y1296340D01*
X9577520Y7153830D02*
X9607520Y7123830D01*
X9607520Y7153830D02*
X9577520Y7123830D01*
X9610960Y7519950D02*
X9640960Y7489950D01*
X9640960Y7519950D02*
X9610960Y7489950D01*
X9620390Y2041660D02*
X9650390Y2011660D01*
X9650390Y2041660D02*
X9620390Y2011660D01*
X9624200Y7759400D02*
X9654200Y7729400D01*
X9654200Y7759400D02*
X9624200Y7729400D01*
X9637240Y4829430D02*
X9667240Y4799430D01*
X9667240Y4829430D02*
X9637240Y4799430D01*
X9638460Y5859190D02*
X9668460Y5829190D01*
X9668460Y5859190D02*
X9638460Y5829190D01*
X9651800Y4554750D02*
X9681800Y4524750D01*
X9681800Y4554750D02*
X9651800Y4524750D01*
X9664880Y7139670D02*
X9694880Y7109670D01*
X9694880Y7139670D02*
X9664880Y7109670D01*
X9669914Y6524520D02*
X9699914Y6494520D01*
X9699914Y6524520D02*
X9669914Y6494520D01*
X9691130Y8798680D02*
X9721130Y8768680D01*
X9721130Y8798680D02*
X9691130Y8768680D01*
X9708340Y5145600D02*
X9738340Y5115600D01*
X9738340Y5145600D02*
X9708340Y5115600D01*
X9713200Y1376650D02*
X9743200Y1346650D01*
X9743200Y1376650D02*
X9713200Y1346650D01*
X9730810Y5626410D02*
X9760810Y5596410D01*
X9760810Y5626410D02*
X9730810Y5596410D01*
X9745960Y4237760D02*
X9775960Y4207760D01*
X9775960Y4237760D02*
X9745960Y4207760D01*
X9746100Y3188140D02*
X9776100Y3158140D01*
X9776100Y3188140D02*
X9746100Y3158140D01*
X9747010Y4627000D02*
X9777010Y4597000D01*
X9777010Y4627000D02*
X9747010Y4597000D01*
X9766260Y6119440D02*
X9796260Y6089440D01*
X9796260Y6119440D02*
X9766260Y6089440D01*
X9775150Y4523080D02*
X9805150Y4493080D01*
X9805150Y4523080D02*
X9775150Y4493080D01*
X9775520Y5103060D02*
X9805520Y5073060D01*
X9805520Y5103060D02*
X9775520Y5073060D01*
X9798290Y5496320D02*
X9828290Y5466320D01*
X9828290Y5496320D02*
X9798290Y5466320D01*
X9803380Y7525750D02*
X9833380Y7495750D01*
X9833380Y7525750D02*
X9803380Y7495750D01*
X9813110Y5244230D02*
X9843110Y5214230D01*
X9843110Y5244230D02*
X9813110Y5214230D01*
X9823780Y7774210D02*
X9853780Y7744210D01*
X9853780Y7774210D02*
X9823780Y7744210D01*
X9839380Y7140310D02*
X9869380Y7110310D01*
X9869380Y7140310D02*
X9839380Y7110310D01*
X9844218Y6534083D02*
X9874218Y6504083D01*
X9874218Y6534083D02*
X9844218Y6504083D01*
X9851723Y6610957D02*
X9881723Y6580957D01*
X9881723Y6610957D02*
X9851723Y6580957D01*
X9852870Y7863230D02*
X9882870Y7833230D01*
X9882870Y7863230D02*
X9852870Y7833230D01*
X9864430Y6121510D02*
X9894430Y6091510D01*
X9894430Y6121510D02*
X9864430Y6091510D01*
X9866180Y8257560D02*
X9896180Y8227560D01*
X9896180Y8257560D02*
X9866180Y8227560D01*
X9871600Y4395440D02*
X9901600Y4365440D01*
X9901600Y4395440D02*
X9871600Y4365440D01*
X9873730Y4291730D02*
X9903730Y4261730D01*
X9903730Y4291730D02*
X9873730Y4261730D01*
X9890000Y8762560D02*
X9920000Y8732560D01*
X9920000Y8762560D02*
X9890000Y8732560D01*
X9903370Y2112340D02*
X9933370Y2082340D01*
X9933370Y2112340D02*
X9903370Y2082340D01*
X9920520Y5425900D02*
X9950520Y5395900D01*
X9950520Y5425900D02*
X9920520Y5395900D01*
X9933500Y7759020D02*
X9963500Y7729020D01*
X9963500Y7759020D02*
X9933500Y7729020D01*
X9937170Y6101280D02*
X9967170Y6071280D01*
X9967170Y6101280D02*
X9937170Y6071280D01*
X9942319Y6526871D02*
X9972319Y6496871D01*
X9972319Y6526871D02*
X9942319Y6496871D01*
X9947358Y7367240D02*
X9977358Y7337240D01*
X9977358Y7367240D02*
X9947358Y7337240D01*
X9951670Y6782230D02*
X9981670Y6752230D01*
X9981670Y6782230D02*
X9951670Y6752230D01*
X9970070Y9021070D02*
X10000070Y8991070D01*
X10000070Y9021070D02*
X9970070Y8991070D01*
X9973380Y8673680D02*
X10003380Y8643680D01*
X10003380Y8673680D02*
X9973380Y8643680D01*
X9981940Y7834610D02*
X10011940Y7804610D01*
X10011940Y7834610D02*
X9981940Y7804610D01*
X10000100Y8238900D02*
X10030100Y8208900D01*
X10030100Y8238900D02*
X10000100Y8208900D01*
X10029400Y7757670D02*
X10059400Y7727670D01*
X10059400Y7757670D02*
X10029400Y7727670D01*
X10037600Y4855820D02*
X10067600Y4825820D01*
X10067600Y4855820D02*
X10037600Y4825820D01*
X10038400Y7526370D02*
X10068400Y7496370D01*
X10068400Y7526370D02*
X10038400Y7496370D01*
X10038708Y6187657D02*
X10068708Y6157657D01*
X10068708Y6187657D02*
X10038708Y6157657D01*
X10044700Y4063040D02*
X10074700Y4033040D01*
X10074700Y4063040D02*
X10044700Y4033040D01*
X10065200Y5703630D02*
X10095200Y5673630D01*
X10095200Y5703630D02*
X10065200Y5673630D01*
X10069600Y5219200D02*
X10099600Y5189200D01*
X10099600Y5219200D02*
X10069600Y5189200D01*
X10071202Y6090380D02*
X10101202Y6060380D01*
X10101202Y6090380D02*
X10071202Y6060380D01*
X10071340Y7153670D02*
X10101340Y7123670D01*
X10101340Y7153670D02*
X10071340Y7123670D01*
X10071340Y6328170D02*
X10101340Y6298170D01*
X10101340Y6328170D02*
X10071340Y6298170D01*
X10072610Y6251970D02*
X10102610Y6221970D01*
X10102610Y6251970D02*
X10072610Y6221970D01*
X10080000Y6694340D02*
X10110000Y6664340D01*
X10110000Y6694340D02*
X10080000Y6664340D01*
X10084040Y5905260D02*
X10114040Y5875260D01*
X10114040Y5905260D02*
X10084040Y5875260D01*
X10086300Y4127210D02*
X10116300Y4097210D01*
X10116300Y4127210D02*
X10086300Y4097210D01*
X10090390Y5514100D02*
X10120390Y5484100D01*
X10120390Y5514100D02*
X10090390Y5484100D01*
X10105100Y5120140D02*
X10135100Y5090140D01*
X10135100Y5120140D02*
X10105100Y5090140D01*
X10108200Y4563610D02*
X10138200Y4533610D01*
X10138200Y4563610D02*
X10108200Y4533610D01*
X10111300Y8673680D02*
X10141300Y8643680D01*
X10141300Y8673680D02*
X10111300Y8643680D01*
X10160200Y8976120D02*
X10190200Y8946120D01*
X10190200Y8976120D02*
X10160200Y8946120D01*
X10165670Y1326340D02*
X10195670Y1296340D01*
X10195670Y1326340D02*
X10165670Y1296340D01*
X10169509Y6239679D02*
X10199509Y6209679D01*
X10199509Y6239679D02*
X10169509Y6209679D01*
X10192018Y9194288D02*
X10222018Y9164288D01*
X10222018Y9194288D02*
X10192018Y9164288D01*
X10196500Y3757280D02*
X10226500Y3727280D01*
X10226500Y3757280D02*
X10196500Y3727280D01*
X10197300Y5502790D02*
X10227300Y5472790D01*
X10227300Y5502790D02*
X10197300Y5472790D01*
X10206200Y6582580D02*
X10236200Y6552580D01*
X10236200Y6582580D02*
X10206200Y6552580D01*
X10227550Y4813060D02*
X10257550Y4783060D01*
X10257550Y4813060D02*
X10227550Y4783060D01*
X10253500Y7522370D02*
X10283500Y7492370D01*
X10283500Y7522370D02*
X10253500Y7492370D01*
X10255600Y7393030D02*
X10285600Y7363030D01*
X10285600Y7393030D02*
X10255600Y7363030D01*
X10270200Y3190680D02*
X10300200Y3160680D01*
X10300200Y3190680D02*
X10270200Y3160680D01*
X10306900Y8238900D02*
X10336900Y8208900D01*
X10336900Y8238900D02*
X10306900Y8208900D01*
X10312640Y5850650D02*
X10342640Y5820650D01*
X10342640Y5850650D02*
X10312640Y5820650D01*
X10313910Y5272800D02*
X10343910Y5242800D01*
X10343910Y5272800D02*
X10313910Y5242800D01*
X10327146Y4943415D02*
X10357146Y4913415D01*
X10357146Y4943415D02*
X10327146Y4913415D01*
X10327915Y5960760D02*
X10357915Y5930760D01*
X10357915Y5960760D02*
X10327915Y5930760D01*
X10339310Y6104650D02*
X10369310Y6074650D01*
X10369310Y6104650D02*
X10339310Y6074650D01*
X10341700Y6875050D02*
X10371700Y6845050D01*
X10371700Y6875050D02*
X10341700Y6845050D01*
X10346500Y6648930D02*
X10376500Y6618930D01*
X10376500Y6648930D02*
X10346500Y6618930D01*
X10368900Y1644720D02*
X10398900Y1614720D01*
X10398900Y1644720D02*
X10368900Y1614720D01*
X10400600Y4404660D02*
X10430600Y4374660D01*
X10430600Y4404660D02*
X10400600Y4374660D01*
X10406620Y5930660D02*
X10436620Y5900660D01*
X10436620Y5930660D02*
X10406620Y5900660D01*
X10420100Y4626760D02*
X10450100Y4596760D01*
X10450100Y4626760D02*
X10420100Y4596760D01*
X10450300Y6189840D02*
X10480300Y6159840D01*
X10480300Y6189840D02*
X10450300Y6159840D01*
X10460000Y657820D02*
X10490000Y627820D01*
X10490000Y657820D02*
X10460000Y627820D01*
X10460200Y6105080D02*
X10490200Y6075080D01*
X10490200Y6105080D02*
X10460200Y6075080D01*
X10471390Y7490220D02*
X10501390Y7460220D01*
X10501390Y7490220D02*
X10471390Y7460220D01*
X10484200Y7140320D02*
X10514200Y7110320D01*
X10514200Y7140320D02*
X10484200Y7110320D01*
X10490440Y5211840D02*
X10520440Y5181840D01*
X10520440Y5211840D02*
X10490440Y5181840D01*
X10492400Y6251010D02*
X10522400Y6221010D01*
X10522400Y6251010D02*
X10492400Y6221010D01*
X10495500Y8220940D02*
X10525500Y8190940D01*
X10525500Y8220940D02*
X10495500Y8190940D01*
X10510000Y934820D02*
X10540000Y904820D01*
X10540000Y934820D02*
X10510000Y904820D01*
X10517900Y6579140D02*
X10547900Y6549140D01*
X10547900Y6579140D02*
X10517900Y6549140D01*
X10522190Y6892050D02*
X10552190Y6862050D01*
X10552190Y6892050D02*
X10522190Y6862050D01*
X10547200Y2533680D02*
X10577200Y2503680D01*
X10577200Y2533680D02*
X10547200Y2503680D01*
X10553600Y1846500D02*
X10583600Y1816500D01*
X10583600Y1846500D02*
X10553600Y1816500D01*
X10559020Y597930D02*
X10589020Y567930D01*
X10589020Y597930D02*
X10559020Y567930D01*
X10561400Y2253470D02*
X10591400Y2223470D01*
X10591400Y2253470D02*
X10561400Y2223470D01*
X10564331Y4568253D02*
X10594331Y4538253D01*
X10594331Y4568253D02*
X10564331Y4538253D01*
X10600400Y5519971D02*
X10630400Y5489971D01*
X10630400Y5519971D02*
X10600400Y5489971D01*
X10603400Y1265390D02*
X10633400Y1235390D01*
X10633400Y1265390D02*
X10603400Y1235390D01*
X10609600Y4316160D02*
X10639600Y4286160D01*
X10639600Y4316160D02*
X10609600Y4286160D01*
X10615700Y979780D02*
X10645700Y949780D01*
X10645700Y979780D02*
X10615700Y949780D01*
X10615800Y5842050D02*
X10645800Y5812050D01*
X10645800Y5842050D02*
X10615800Y5812050D01*
X10630655Y4741983D02*
X10660655Y4711983D01*
X10660655Y4741983D02*
X10630655Y4711983D01*
X10635700Y1740820D02*
X10665700Y1710820D01*
X10665700Y1740820D02*
X10635700Y1710820D01*
X10648900Y6177540D02*
X10678900Y6147540D01*
X10678900Y6177540D02*
X10648900Y6147540D01*
X10650800Y1881420D02*
X10680800Y1851420D01*
X10680800Y1881420D02*
X10650800Y1851420D01*
X10681200Y2379450D02*
X10711200Y2349450D01*
X10711200Y2379450D02*
X10681200Y2349450D01*
X10693200Y4538070D02*
X10723200Y4508070D01*
X10723200Y4538070D02*
X10693200Y4508070D01*
X10699800Y5381470D02*
X10729800Y5351470D01*
X10729800Y5381470D02*
X10699800Y5351470D01*
X10705500Y1930990D02*
X10735500Y1900990D01*
X10735500Y1930990D02*
X10705500Y1900990D01*
X10708900Y2711210D02*
X10738900Y2681210D01*
X10738900Y2711210D02*
X10708900Y2681210D01*
X10710000Y655550D02*
X10740000Y625550D01*
X10740000Y655550D02*
X10710000Y625550D01*
X10727000Y5551090D02*
X10757000Y5521090D01*
X10757000Y5551090D02*
X10727000Y5521090D01*
X10730900Y3758350D02*
X10760900Y3728350D01*
X10760900Y3758350D02*
X10730900Y3728350D01*
X10733010Y6169420D02*
X10763010Y6139420D01*
X10763010Y6169420D02*
X10733010Y6139420D01*
X10736891Y5040178D02*
X10766891Y5010178D01*
X10766891Y5040178D02*
X10736891Y5010178D01*
X10750000Y6080590D02*
X10780000Y6050590D01*
X10780000Y6080590D02*
X10750000Y6050590D01*
X10754800Y2015500D02*
X10784800Y1985500D01*
X10784800Y2015500D02*
X10754800Y1985500D01*
X10760000Y934720D02*
X10790000Y904720D01*
X10790000Y934720D02*
X10760000Y904720D01*
X10765600Y7298060D02*
X10795600Y7268060D01*
X10795600Y7298060D02*
X10765600Y7268060D01*
X10787600Y3954540D02*
X10817600Y3924540D01*
X10817600Y3954540D02*
X10787600Y3924540D01*
X10791500Y7757860D02*
X10821500Y7727860D01*
X10821500Y7757860D02*
X10791500Y7727860D01*
X10799050Y6241810D02*
X10829050Y6211810D01*
X10829050Y6241810D02*
X10799050Y6211810D01*
X10807700Y2788970D02*
X10837700Y2758970D01*
X10837700Y2788970D02*
X10807700Y2758970D01*
X10810000Y657220D02*
X10840000Y627220D01*
X10840000Y657220D02*
X10810000Y627220D01*
X10818000Y1135670D02*
X10848000Y1105670D01*
X10848000Y1135670D02*
X10818000Y1105670D01*
X10831000Y7191880D02*
X10861000Y7161880D01*
X10861000Y7191880D02*
X10831000Y7161880D01*
X10836554Y4853362D02*
X10866554Y4823362D01*
X10866554Y4853362D02*
X10836554Y4823362D01*
X10841900Y935040D02*
X10871900Y905040D01*
X10871900Y935040D02*
X10841900Y905040D01*
X10843700Y1713060D02*
X10873700Y1683060D01*
X10873700Y1713060D02*
X10843700Y1683060D01*
X10890800Y3799470D02*
X10920800Y3769470D01*
X10920800Y3799470D02*
X10890800Y3769470D01*
X10897600Y5388630D02*
X10927600Y5358630D01*
X10927600Y5388630D02*
X10897600Y5358630D01*
X10911300Y3976630D02*
X10941300Y3946630D01*
X10941300Y3976630D02*
X10911300Y3946630D01*
X10914000Y4681270D02*
X10944000Y4651270D01*
X10944000Y4681270D02*
X10914000Y4651270D01*
X10928600Y5490820D02*
X10958600Y5460820D01*
X10958600Y5490820D02*
X10928600Y5460820D01*
X10928600Y4982950D02*
X10958600Y4952950D01*
X10958600Y4982950D02*
X10928600Y4952950D01*
X10930500Y1044380D02*
X10960500Y1014380D01*
X10960500Y1044380D02*
X10930500Y1014380D01*
X10931700Y4436200D02*
X10961700Y4406200D01*
X10961700Y4436200D02*
X10931700Y4406200D01*
X10932300Y4129780D02*
X10962300Y4099780D01*
X10962300Y4129780D02*
X10932300Y4099780D01*
X10938750Y8871980D02*
X10968750Y8841980D01*
X10968750Y8871980D02*
X10938750Y8841980D01*
X10946800Y4808630D02*
X10976800Y4778630D01*
X10976800Y4808630D02*
X10946800Y4778630D01*
X10947600Y7185420D02*
X10977600Y7155420D01*
X10977600Y7185420D02*
X10947600Y7155420D01*
X10958600Y7488840D02*
X10988600Y7458840D01*
X10988600Y7488840D02*
X10958600Y7458840D01*
X10960000Y654720D02*
X10990000Y624720D01*
X10990000Y654720D02*
X10960000Y624720D01*
X10960200Y934530D02*
X10990200Y904530D01*
X10990200Y934530D02*
X10960200Y904530D01*
X10976200Y3799470D02*
X11006200Y3769470D01*
X11006200Y3799470D02*
X10976200Y3769470D01*
X10986900Y1876820D02*
X11016900Y1846820D01*
X11016900Y1876820D02*
X10986900Y1846820D01*
X11024300Y4025680D02*
X11054300Y3995680D01*
X11054300Y4025680D02*
X11024300Y3995680D01*
X11051500Y1950000D02*
X11081500Y1920000D01*
X11081500Y1950000D02*
X11051500Y1920000D01*
X11053500Y3144330D02*
X11083500Y3114330D01*
X11083500Y3144330D02*
X11053500Y3114330D01*
X11054000Y1644810D02*
X11084000Y1614810D01*
X11084000Y1644810D02*
X11054000Y1614810D01*
X11054600Y1750000D02*
X11084600Y1720000D01*
X11084600Y1750000D02*
X11054600Y1720000D01*
X11058600Y2153830D02*
X11088600Y2123830D01*
X11088600Y2153830D02*
X11058600Y2123830D01*
X11060000Y934590D02*
X11090000Y904590D01*
X11090000Y934590D02*
X11060000Y904590D01*
X11060200Y7526070D02*
X11090200Y7496070D01*
X11090200Y7526070D02*
X11060200Y7496070D01*
X11060670Y8873250D02*
X11090670Y8843250D01*
X11090670Y8873250D02*
X11060670Y8843250D01*
X11075000Y5149550D02*
X11105000Y5119550D01*
X11105000Y5149550D02*
X11075000Y5119550D01*
X11084500Y7422380D02*
X11114500Y7392380D01*
X11114500Y7422380D02*
X11084500Y7392380D01*
X11086700Y8632560D02*
X11116700Y8602560D01*
X11116700Y8632560D02*
X11086700Y8602560D01*
X11097800Y5732220D02*
X11127800Y5702220D01*
X11127800Y5732220D02*
X11097800Y5702220D01*
X11110000Y656130D02*
X11140000Y626130D01*
X11140000Y656130D02*
X11110000Y626130D01*
X11112200Y6293240D02*
X11142200Y6263240D01*
X11142200Y6293240D02*
X11112200Y6263240D01*
X11124600Y1495800D02*
X11154600Y1465800D01*
X11154600Y1495800D02*
X11124600Y1465800D01*
X11125900Y1582200D02*
X11155900Y1552200D01*
X11155900Y1582200D02*
X11125900Y1552200D01*
X11132900Y7526550D02*
X11162900Y7496550D01*
X11162900Y7526550D02*
X11132900Y7496550D01*
X11133500Y3757390D02*
X11163500Y3727390D01*
X11163500Y3757390D02*
X11133500Y3727390D01*
X11152700Y5172360D02*
X11182700Y5142360D01*
X11182700Y5172360D02*
X11152700Y5142360D01*
X11155000Y5291020D02*
X11185000Y5261020D01*
X11185000Y5291020D02*
X11155000Y5261020D01*
X11160000Y934660D02*
X11190000Y904660D01*
X11190000Y934660D02*
X11160000Y904660D01*
X11169000Y7916550D02*
X11199000Y7886550D01*
X11199000Y7916550D02*
X11169000Y7886550D01*
X11183800Y7474490D02*
X11213800Y7444490D01*
X11213800Y7474490D02*
X11183800Y7444490D01*
X11205600Y4682130D02*
X11235600Y4652130D01*
X11235600Y4682130D02*
X11205600Y4652130D01*
X11232800Y6908110D02*
X11262800Y6878110D01*
X11262800Y6908110D02*
X11232800Y6878110D01*
X11233500Y3756900D02*
X11263500Y3726900D01*
X11263500Y3756900D02*
X11233500Y3726900D01*
X11235900Y2346720D02*
X11265900Y2316720D01*
X11265900Y2346720D02*
X11235900Y2316720D01*
X11236700Y8372910D02*
X11266700Y8342910D01*
X11266700Y8372910D02*
X11236700Y8342910D01*
X11241300Y2494330D02*
X11271300Y2464330D01*
X11271300Y2494330D02*
X11241300Y2464330D01*
X11258100Y7491760D02*
X11288100Y7461760D01*
X11288100Y7491760D02*
X11258100Y7461760D01*
X11258400Y6103890D02*
X11288400Y6073890D01*
X11288400Y6103890D02*
X11258400Y6073890D01*
X11260000Y655660D02*
X11290000Y625660D01*
X11290000Y655660D02*
X11260000Y625660D01*
X11261600Y4454430D02*
X11291600Y4424430D01*
X11291600Y4454430D02*
X11261600Y4424430D01*
X11275600Y8069470D02*
X11305600Y8039470D01*
X11305600Y8069470D02*
X11275600Y8039470D01*
X11304500Y9350950D02*
X11334500Y9320950D01*
X11334500Y9350950D02*
X11304500Y9320950D01*
X11305200Y9145508D02*
X11335200Y9115508D01*
X11335200Y9145508D02*
X11305200Y9115508D01*
X11341300Y8275460D02*
X11371300Y8245460D01*
X11371300Y8275460D02*
X11341300Y8245460D01*
X11341900Y6476480D02*
X11371900Y6446480D01*
X11371900Y6476480D02*
X11341900Y6446480D01*
X11346500Y3757600D02*
X11376500Y3727600D01*
X11376500Y3757600D02*
X11346500Y3727600D01*
X11355300Y4219820D02*
X11385300Y4189820D01*
X11385300Y4219820D02*
X11355300Y4189820D01*
X11356300Y7139910D02*
X11386300Y7109910D01*
X11386300Y7139910D02*
X11356300Y7109910D01*
X11399300Y9044620D02*
X11429300Y9014620D01*
X11429300Y9044620D02*
X11399300Y9014620D01*
X11401400Y3993270D02*
X11431400Y3963270D01*
X11431400Y3993270D02*
X11401400Y3963270D01*
X11404700Y2155330D02*
X11434700Y2125330D01*
X11434700Y2155330D02*
X11404700Y2125330D01*
X11405600Y2414030D02*
X11435600Y2384030D01*
X11435600Y2414030D02*
X11405600Y2384030D01*
X11418500Y6803260D02*
X11448500Y6773260D01*
X11448500Y6803260D02*
X11418500Y6773260D01*
X11420500Y6907060D02*
X11450500Y6877060D01*
X11450500Y6907060D02*
X11420500Y6877060D01*
X11440500Y5879840D02*
X11470500Y5849840D01*
X11470500Y5879840D02*
X11440500Y5849840D01*
X11443400Y3788920D02*
X11473400Y3758920D01*
X11473400Y3788920D02*
X11443400Y3758920D01*
X11447800Y7301400D02*
X11477800Y7271400D01*
X11477800Y7301400D02*
X11447800Y7271400D01*
X11462500Y6124010D02*
X11492500Y6094010D01*
X11492500Y6124010D02*
X11462500Y6094010D01*
X11463300Y8967230D02*
X11493300Y8937230D01*
X11493300Y8967230D02*
X11463300Y8937230D01*
X11468300Y5162650D02*
X11498300Y5132650D01*
X11498300Y5162650D02*
X11468300Y5132650D01*
X11472000Y4844970D02*
X11502000Y4814970D01*
X11502000Y4844970D02*
X11472000Y4814970D01*
X11474100Y5080260D02*
X11504100Y5050260D01*
X11504100Y5080260D02*
X11474100Y5050260D01*
X11474500Y5772030D02*
X11504500Y5742030D01*
X11504500Y5772030D02*
X11474500Y5742030D01*
X11488800Y4013410D02*
X11518800Y3983410D01*
X11518800Y4013410D02*
X11488800Y3983410D01*
X11514500Y4418590D02*
X11544500Y4388590D01*
X11544500Y4418590D02*
X11514500Y4388590D01*
X11515000Y2526770D02*
X11545000Y2496770D01*
X11545000Y2526770D02*
X11515000Y2496770D01*
X11533500Y7758430D02*
X11563500Y7728430D01*
X11563500Y7758430D02*
X11533500Y7728430D01*
X11535000Y1492710D02*
X11565000Y1462710D01*
X11565000Y1492710D02*
X11535000Y1462710D01*
X11552900Y3758840D02*
X11582900Y3728840D01*
X11582900Y3758840D02*
X11552900Y3728840D01*
X11557296Y3832604D02*
X11587296Y3802604D01*
X11587296Y3832604D02*
X11557296Y3802604D01*
X11565800Y5506120D02*
X11595800Y5476120D01*
X11595800Y5506120D02*
X11565800Y5476120D01*
X11575400Y6728160D02*
X11605400Y6698160D01*
X11605400Y6728160D02*
X11575400Y6698160D01*
X11598600Y4516080D02*
X11628600Y4486080D01*
X11628600Y4516080D02*
X11598600Y4486080D01*
X11610600Y457860D02*
X11640600Y427860D01*
X11640600Y457860D02*
X11610600Y427860D01*
X11625000Y6665840D02*
X11655000Y6635840D01*
X11655000Y6665840D02*
X11625000Y6635840D01*
X11628800Y1593690D02*
X11658800Y1563690D01*
X11658800Y1593690D02*
X11628800Y1563690D01*
X11635200Y6367930D02*
X11665200Y6337930D01*
X11665200Y6367930D02*
X11635200Y6337930D01*
X11639790Y6199900D02*
X11669790Y6169900D01*
X11669790Y6199900D02*
X11639790Y6169900D01*
X11649302Y4000392D02*
X11679302Y3970392D01*
X11679302Y4000392D02*
X11649302Y3970392D01*
X11659700Y6907060D02*
X11689700Y6877060D01*
X11689700Y6907060D02*
X11659700Y6877060D01*
X11662600Y7798830D02*
X11692600Y7768830D01*
X11692600Y7798830D02*
X11662600Y7768830D01*
X11669300Y2424480D02*
X11699300Y2394480D01*
X11699300Y2424480D02*
X11669300Y2394480D01*
X11685100Y5779520D02*
X11715100Y5749520D01*
X11715100Y5779520D02*
X11685100Y5749520D01*
X11692000Y8008480D02*
X11722000Y7978480D01*
X11722000Y8008480D02*
X11692000Y7978480D01*
X11697600Y3758340D02*
X11727600Y3728340D01*
X11727600Y3758340D02*
X11697600Y3728340D01*
X11699300Y3831750D02*
X11729300Y3801750D01*
X11729300Y3831750D02*
X11699300Y3801750D01*
X11716800Y1705400D02*
X11746800Y1675400D01*
X11746800Y1705400D02*
X11716800Y1675400D01*
X11729700Y2484860D02*
X11759700Y2454860D01*
X11759700Y2484860D02*
X11729700Y2454860D01*
X11730300Y1996330D02*
X11760300Y1966330D01*
X11760300Y1996330D02*
X11730300Y1966330D01*
X11735900Y4266010D02*
X11765900Y4236010D01*
X11765900Y4266010D02*
X11735900Y4236010D01*
X11740100Y5199140D02*
X11770100Y5169140D01*
X11770100Y5199140D02*
X11740100Y5169140D01*
X11741900Y1585530D02*
X11771900Y1555530D01*
X11771900Y1585530D02*
X11741900Y1555530D01*
X11743600Y1446790D02*
X11773600Y1416790D01*
X11773600Y1446790D02*
X11743600Y1416790D01*
X11762500Y876700D02*
X11792500Y846700D01*
X11792500Y876700D02*
X11762500Y846700D01*
X11765900Y1900000D02*
X11795900Y1870000D01*
X11795900Y1900000D02*
X11765900Y1870000D01*
X11794900Y2166110D02*
X11824900Y2136110D01*
X11824900Y2166110D02*
X11794900Y2136110D01*
X11809400Y3842320D02*
X11839400Y3812320D01*
X11839400Y3842320D02*
X11809400Y3812320D01*
X11814400Y3316010D02*
X11844400Y3286010D01*
X11844400Y3316010D02*
X11814400Y3286010D01*
X11817700Y1848590D02*
X11847700Y1818590D01*
X11847700Y1848590D02*
X11817700Y1818590D01*
X11819000Y925780D02*
X11849000Y895780D01*
X11849000Y925780D02*
X11819000Y895780D01*
X11833700Y3760200D02*
X11863700Y3730200D01*
X11863700Y3760200D02*
X11833700Y3730200D01*
X11865400Y8594770D02*
X11895400Y8564770D01*
X11895400Y8594770D02*
X11865400Y8564770D01*
X11915000Y3141860D02*
X11945000Y3111860D01*
X11945000Y3141860D02*
X11915000Y3111860D01*
X11933500Y3757670D02*
X11963500Y3727670D01*
X11963500Y3757670D02*
X11933500Y3727670D01*
X11948600Y7758080D02*
X11978600Y7728080D01*
X11978600Y7758080D02*
X11948600Y7728080D01*
X11974000Y7526030D02*
X12004000Y7496030D01*
X12004000Y7526030D02*
X11974000Y7496030D01*
X11986300Y1608760D02*
X12016300Y1578760D01*
X12016300Y1608760D02*
X11986300Y1578760D01*
X11992300Y8157800D02*
X12022300Y8127800D01*
X12022300Y8157800D02*
X11992300Y8127800D01*
X12003688Y8456499D02*
X12033688Y8426499D01*
X12033688Y8456499D02*
X12003688Y8426499D01*
X12029700Y130880D02*
X12059700Y100880D01*
X12059700Y130880D02*
X12029700Y100880D01*
X12029800Y1548520D02*
X12059800Y1518520D01*
X12059800Y1548520D02*
X12029800Y1518520D01*
X12035000Y7412240D02*
X12065000Y7382240D01*
X12065000Y7412240D02*
X12035000Y7382240D01*
X12036600Y7313820D02*
X12066600Y7283820D01*
X12066600Y7313820D02*
X12036600Y7283820D01*
X12037600Y6907060D02*
X12067600Y6877060D01*
X12067600Y6907060D02*
X12037600Y6877060D01*
X12038400Y6803520D02*
X12068400Y6773520D01*
X12068400Y6803520D02*
X12038400Y6773520D01*
X12040800Y8702010D02*
X12070800Y8672010D01*
X12070800Y8702010D02*
X12040800Y8672010D01*
X12063000Y5222280D02*
X12093000Y5192280D01*
X12093000Y5222280D02*
X12063000Y5192280D01*
X12064600Y6367930D02*
X12094600Y6337930D01*
X12094600Y6367930D02*
X12064600Y6337930D01*
X12070800Y8389340D02*
X12100800Y8359340D01*
X12100800Y8389340D02*
X12070800Y8359340D01*
X12113700Y4321210D02*
X12143700Y4291210D01*
X12143700Y4321210D02*
X12113700Y4291210D01*
X12120400Y1324130D02*
X12150400Y1294130D01*
X12150400Y1324130D02*
X12120400Y1294130D01*
X12135600Y7967840D02*
X12165600Y7937840D01*
X12165600Y7967840D02*
X12135600Y7937840D01*
X12136500Y7424830D02*
X12166500Y7394830D01*
X12166500Y7424830D02*
X12136500Y7394830D01*
X12145000Y8597850D02*
X12175000Y8567850D01*
X12175000Y8597850D02*
X12145000Y8567850D01*
X12173500Y3140320D02*
X12203500Y3110320D01*
X12203500Y3140320D02*
X12173500Y3110320D01*
X12212200Y8530680D02*
X12242200Y8500680D01*
X12242200Y8530680D02*
X12212200Y8500680D01*
X12220700Y1705460D02*
X12250700Y1675460D01*
X12250700Y1705460D02*
X12220700Y1675460D01*
X12228300Y7525070D02*
X12258300Y7495070D01*
X12258300Y7525070D02*
X12228300Y7495070D01*
X12235189Y7773681D02*
X12265189Y7743681D01*
X12265189Y7773681D02*
X12235189Y7743681D01*
X12248200Y8211910D02*
X12278200Y8181910D01*
X12278200Y8211910D02*
X12248200Y8181910D01*
X12287500Y7193040D02*
X12317500Y7163040D01*
X12317500Y7193040D02*
X12287500Y7163040D01*
X12321780Y455690D02*
X12351780Y425690D01*
X12351780Y455690D02*
X12321780Y425690D01*
X12325400Y2063320D02*
X12355400Y2033320D01*
X12355400Y2063320D02*
X12325400Y2033320D01*
X12330500Y1487550D02*
X12360500Y1457550D01*
X12360500Y1487550D02*
X12330500Y1457550D01*
X12367500Y4744480D02*
X12397500Y4714480D01*
X12397500Y4744480D02*
X12367500Y4714480D01*
X12375400Y6262960D02*
X12405400Y6232960D01*
X12405400Y6262960D02*
X12375400Y6232960D01*
X12382740Y4954030D02*
X12412740Y4924030D01*
X12412740Y4954030D02*
X12382740Y4924030D01*
X12401000Y1661570D02*
X12431000Y1631570D01*
X12431000Y1661570D02*
X12401000Y1631570D01*
X12413500Y3759700D02*
X12443500Y3729700D01*
X12443500Y3759700D02*
X12413500Y3729700D01*
X12440190Y4666592D02*
X12470190Y4636592D01*
X12470190Y4666592D02*
X12440190Y4636592D01*
X12467830Y464580D02*
X12497830Y434580D01*
X12497830Y464580D02*
X12467830Y434580D01*
X12472200Y6926690D02*
X12502200Y6896690D01*
X12502200Y6926690D02*
X12472200Y6896690D01*
X12522600Y5708740D02*
X12552600Y5678740D01*
X12552600Y5708740D02*
X12522600Y5678740D01*
X12528200Y8214930D02*
X12558200Y8184930D01*
X12558200Y8214930D02*
X12528200Y8184930D01*
X12560000Y3253900D02*
X12590000Y3223900D01*
X12590000Y3253900D02*
X12560000Y3223900D01*
X12584700Y6098220D02*
X12614700Y6068220D01*
X12614700Y6098220D02*
X12584700Y6068220D01*
X12613800Y5430270D02*
X12643800Y5400270D01*
X12643800Y5430270D02*
X12613800Y5400270D01*
X12626800Y8116420D02*
X12656800Y8086420D01*
X12656800Y8116420D02*
X12626800Y8086420D01*
X12648700Y5336420D02*
X12678700Y5306420D01*
X12678700Y5336420D02*
X12648700Y5306420D01*
X12654400Y4591400D02*
X12684400Y4561400D01*
X12684400Y4591400D02*
X12654400Y4561400D01*
X12663000Y4824380D02*
X12693000Y4794380D01*
X12693000Y4824380D02*
X12663000Y4794380D01*
X12690100Y6026740D02*
X12720100Y5996740D01*
X12720100Y6026740D02*
X12690100Y5996740D01*
X12706800Y6476480D02*
X12736800Y6446480D01*
X12736800Y6476480D02*
X12706800Y6446480D01*
X12713400Y6317370D02*
X12743400Y6287370D01*
X12743400Y6317370D02*
X12713400Y6287370D01*
X12719900Y8678380D02*
X12749900Y8648380D01*
X12749900Y8678380D02*
X12719900Y8648380D01*
X12803400Y230310D02*
X12833400Y200310D01*
X12833400Y230310D02*
X12803400Y200310D01*
X12829100Y4412250D02*
X12859100Y4382250D01*
X12859100Y4412250D02*
X12829100Y4382250D01*
X12881300Y6493900D02*
X12911300Y6463900D01*
X12911300Y6493900D02*
X12881300Y6463900D01*
X12891500Y2845750D02*
X12921500Y2815750D01*
X12921500Y2845750D02*
X12891500Y2815750D01*
X12922300Y2063320D02*
X12952300Y2033320D01*
X12952300Y2063320D02*
X12922300Y2033320D01*
X12922800Y9469580D02*
X12952800Y9439580D01*
X12952800Y9469580D02*
X12922800Y9439580D01*
X12931200Y5457770D02*
X12961200Y5427770D01*
X12961200Y5457770D02*
X12931200Y5427770D01*
X12943200Y1644720D02*
X12973200Y1614720D01*
X12973200Y1644720D02*
X12943200Y1614720D01*
X12956400Y5156460D02*
X12986400Y5126460D01*
X12986400Y5156460D02*
X12956400Y5126460D01*
X12957600Y4987750D02*
X12987600Y4957750D01*
X12987600Y4987750D02*
X12957600Y4957750D01*
X12988100Y4775210D02*
X13018100Y4745210D01*
X13018100Y4775210D02*
X12988100Y4745210D01*
X12990000Y5619370D02*
X13020000Y5589370D01*
X13020000Y5619370D02*
X12990000Y5589370D01*
X12992300Y1090820D02*
X13022300Y1060820D01*
X13022300Y1090820D02*
X12992300Y1060820D01*
X12994900Y4645870D02*
X13024900Y4615870D01*
X13024900Y4645870D02*
X12994900Y4615870D01*
X13018500Y6271960D02*
X13048500Y6241960D01*
X13048500Y6271960D02*
X13018500Y6241960D01*
X13040200Y5744630D02*
X13070200Y5714630D01*
X13070200Y5744630D02*
X13040200Y5714630D01*
X13056200Y3832240D02*
X13086200Y3802240D01*
X13086200Y3832240D02*
X13056200Y3802240D01*
X13065400Y6491360D02*
X13095400Y6461360D01*
X13095400Y6491360D02*
X13065400Y6461360D01*
X13080600Y4987060D02*
X13110600Y4957060D01*
X13110600Y4987060D02*
X13080600Y4957060D01*
X13081400Y5353570D02*
X13111400Y5323570D01*
X13111400Y5353570D02*
X13081400Y5323570D01*
X13125400Y5694120D02*
X13155400Y5664120D01*
X13155400Y5694120D02*
X13125400Y5664120D01*
X13158900Y6159340D02*
X13188900Y6129340D01*
X13188900Y6159340D02*
X13158900Y6129340D01*
X13159700Y6084710D02*
X13189700Y6054710D01*
X13189700Y6084710D02*
X13159700Y6054710D01*
X13170800Y5833230D02*
X13200800Y5803230D01*
X13200800Y5833230D02*
X13170800Y5803230D01*
X13198100Y5009910D02*
X13228100Y4979910D01*
X13228100Y5009910D02*
X13198100Y4979910D01*
X13210300Y1376650D02*
X13240300Y1346650D01*
X13240300Y1376650D02*
X13210300Y1346650D01*
X13249600Y9398800D02*
X13279600Y9368800D01*
X13279600Y9398800D02*
X13249600Y9368800D01*
X13286400Y4069260D02*
X13316400Y4039260D01*
X13316400Y4069260D02*
X13286400Y4039260D01*
X13305100Y5665830D02*
X13335100Y5635830D01*
X13335100Y5665830D02*
X13305100Y5635830D01*
X13317500Y4988320D02*
X13347500Y4958320D01*
X13347500Y4988320D02*
X13317500Y4958320D01*
X13332600Y1763560D02*
X13362600Y1733560D01*
X13362600Y1763560D02*
X13332600Y1733560D01*
X13333000Y4305310D02*
X13363000Y4275310D01*
X13363000Y4305310D02*
X13333000Y4275310D01*
X13341590Y2995051D02*
X13371590Y2965051D01*
X13371590Y2995051D02*
X13341590Y2965051D01*
X13359500Y675570D02*
X13389500Y645570D01*
X13389500Y675570D02*
X13359500Y645570D01*
X13360640Y4419360D02*
X13390640Y4389360D01*
X13390640Y4419360D02*
X13360640Y4389360D01*
X13369600Y1644720D02*
X13399600Y1614720D01*
X13399600Y1644720D02*
X13369600Y1614720D01*
X13411800Y4353720D02*
X13441800Y4323720D01*
X13441800Y4353720D02*
X13411800Y4323720D01*
X13424140Y2967750D02*
X13454140Y2937750D01*
X13454140Y2967750D02*
X13424140Y2937750D01*
X13428600Y1547470D02*
X13458600Y1517470D01*
X13458600Y1547470D02*
X13428600Y1517470D01*
X13452200Y5878810D02*
X13482200Y5848810D01*
X13482200Y5878810D02*
X13452200Y5848810D01*
X13473800Y934280D02*
X13503800Y904280D01*
X13503800Y934280D02*
X13473800Y904280D01*
X13474900Y8700640D02*
X13504900Y8670640D01*
X13504900Y8700640D02*
X13474900Y8670640D01*
X13478200Y8627900D02*
X13508200Y8597900D01*
X13508200Y8627900D02*
X13478200Y8597900D01*
X13480100Y5713210D02*
X13510100Y5683210D01*
X13510100Y5713210D02*
X13480100Y5683210D01*
X13510500Y507760D02*
X13540500Y477760D01*
X13540500Y507760D02*
X13510500Y477760D01*
X13516100Y4174320D02*
X13546100Y4144320D01*
X13546100Y4174320D02*
X13516100Y4144320D01*
X13521200Y6409060D02*
X13551200Y6379060D01*
X13551200Y6409060D02*
X13521200Y6379060D01*
X13554950Y5012450D02*
X13584950Y4982450D01*
X13584950Y5012450D02*
X13554950Y4982450D01*
X13555500Y5209420D02*
X13585500Y5179420D01*
X13585500Y5209420D02*
X13555500Y5179420D01*
X13563700Y6112400D02*
X13593700Y6082400D01*
X13593700Y6112400D02*
X13563700Y6082400D01*
X13570400Y5315910D02*
X13600400Y5285910D01*
X13600400Y5315910D02*
X13570400Y5285910D01*
X13570400Y4612460D02*
X13600400Y4582460D01*
X13600400Y4612460D02*
X13570400Y4582460D01*
X13580200Y4232320D02*
X13610200Y4202320D01*
X13610200Y4232320D02*
X13580200Y4202320D01*
X13580700Y3768730D02*
X13610700Y3738730D01*
X13610700Y3768730D02*
X13580700Y3738730D01*
X13584100Y1900000D02*
X13614100Y1870000D01*
X13614100Y1900000D02*
X13584100Y1870000D01*
X13588700Y9092260D02*
X13618700Y9062260D01*
X13618700Y9092260D02*
X13588700Y9062260D01*
X13589500Y2191490D02*
X13619500Y2161490D01*
X13619500Y2191490D02*
X13589500Y2161490D01*
X13597800Y1794750D02*
X13627800Y1764750D01*
X13627800Y1794750D02*
X13597800Y1764750D01*
X13610000Y1049710D02*
X13640000Y1019710D01*
X13640000Y1049710D02*
X13610000Y1019710D01*
X13618500Y4296910D02*
X13648500Y4266910D01*
X13648500Y4296910D02*
X13618500Y4266910D01*
X13619600Y3914960D02*
X13649600Y3884960D01*
X13649600Y3914960D02*
X13619600Y3884960D01*
X13623530Y266460D02*
X13653530Y236460D01*
X13653530Y266460D02*
X13623530Y236460D01*
X13627800Y2013220D02*
X13657800Y1983220D01*
X13657800Y2013220D02*
X13627800Y1983220D01*
X13635677Y566971D02*
X13665677Y536971D01*
X13665677Y566971D02*
X13635677Y536971D01*
X13649900Y2131110D02*
X13679900Y2101110D01*
X13679900Y2131110D02*
X13649900Y2101110D01*
X13663000Y4518330D02*
X13693000Y4488330D01*
X13693000Y4518330D02*
X13663000Y4488330D01*
X13668200Y6028820D02*
X13698200Y5998820D01*
X13698200Y6028820D02*
X13668200Y5998820D01*
X13697000Y5675920D02*
X13727000Y5645920D01*
X13727000Y5675920D02*
X13697000Y5645920D01*
X13710000Y655490D02*
X13740000Y625490D01*
X13740000Y655490D02*
X13710000Y625490D01*
X13725300Y8808840D02*
X13755300Y8778840D01*
X13755300Y8808840D02*
X13725300Y8778840D01*
X13739100Y3716360D02*
X13769100Y3686360D01*
X13769100Y3716360D02*
X13739100Y3686360D01*
X13758900Y935930D02*
X13788900Y905930D01*
X13788900Y935930D02*
X13758900Y905930D01*
X13775930Y4545090D02*
X13805930Y4515090D01*
X13805930Y4545090D02*
X13775930Y4515090D01*
X13798500Y5620240D02*
X13828500Y5590240D01*
X13828500Y5620240D02*
X13798500Y5590240D01*
X13800200Y5430070D02*
X13830200Y5400070D01*
X13830200Y5430070D02*
X13800200Y5400070D01*
X13810000Y657670D02*
X13840000Y627670D01*
X13840000Y657670D02*
X13810000Y627670D01*
X13823600Y3695920D02*
X13853600Y3665920D01*
X13853600Y3695920D02*
X13823600Y3665920D01*
X13829400Y1967560D02*
X13859400Y1937560D01*
X13859400Y1967560D02*
X13829400Y1937560D01*
X13837600Y9337300D02*
X13867600Y9307300D01*
X13867600Y9337300D02*
X13837600Y9307300D01*
X13842000Y2534680D02*
X13872000Y2504680D01*
X13872000Y2534680D02*
X13842000Y2504680D01*
X13843700Y1713060D02*
X13873700Y1683060D01*
X13873700Y1713060D02*
X13843700Y1683060D01*
X13850700Y6039150D02*
X13880700Y6009150D01*
X13880700Y6039150D02*
X13850700Y6009150D01*
X13860000Y933960D02*
X13890000Y903960D01*
X13890000Y933960D02*
X13860000Y903960D01*
X13890300Y5015480D02*
X13920300Y4985480D01*
X13920300Y5015480D02*
X13890300Y4985480D01*
X13898500Y6852640D02*
X13928500Y6822640D01*
X13928500Y6852640D02*
X13898500Y6822640D01*
X13901000Y5708380D02*
X13931000Y5678380D01*
X13931000Y5708380D02*
X13901000Y5678380D01*
X13901700Y2577860D02*
X13931700Y2547860D01*
X13931700Y2577860D02*
X13901700Y2547860D01*
X13912400Y3803310D02*
X13942400Y3773310D01*
X13942400Y3803310D02*
X13912400Y3773310D01*
X13937600Y4238700D02*
X13967600Y4208700D01*
X13967600Y4238700D02*
X13937600Y4208700D01*
X13941030Y7825500D02*
X13971030Y7795500D01*
X13971030Y7825500D02*
X13941030Y7795500D01*
X13945200Y1060800D02*
X13975200Y1030800D01*
X13975200Y1060800D02*
X13945200Y1030800D01*
X13960000Y654660D02*
X13990000Y624660D01*
X13990000Y654660D02*
X13960000Y624660D01*
X13982200Y4767640D02*
X14012200Y4737640D01*
X14012200Y4767640D02*
X13982200Y4737640D01*
X14000720Y4388880D02*
X14030720Y4358880D01*
X14030720Y4388880D02*
X14000720Y4358880D01*
X14019820Y4643671D02*
X14049820Y4613671D01*
X14049820Y4643671D02*
X14019820Y4613671D01*
X14020200Y5399720D02*
X14050200Y5369720D01*
X14050200Y5399720D02*
X14020200Y5369720D01*
X14023700Y5290530D02*
X14053700Y5260530D01*
X14053700Y5290530D02*
X14023700Y5260530D01*
X14040090Y4139960D02*
X14070090Y4109960D01*
X14070090Y4139960D02*
X14040090Y4109960D01*
X14052800Y1950000D02*
X14082800Y1920000D01*
X14082800Y1950000D02*
X14052800Y1920000D01*
X14053700Y1670520D02*
X14083700Y1640520D01*
X14083700Y1670520D02*
X14053700Y1640520D01*
X14054500Y1750000D02*
X14084500Y1720000D01*
X14084500Y1750000D02*
X14054500Y1720000D01*
X14054600Y1856890D02*
X14084600Y1826890D01*
X14084600Y1856890D02*
X14054600Y1826890D01*
X14060000Y933860D02*
X14090000Y903860D01*
X14090000Y933860D02*
X14060000Y903860D01*
X14060410Y7553720D02*
X14090410Y7523720D01*
X14090410Y7553720D02*
X14060410Y7523720D01*
X14071300Y5028730D02*
X14101300Y4998730D01*
X14101300Y5028730D02*
X14071300Y4998730D01*
X14072000Y1575460D02*
X14102000Y1545460D01*
X14102000Y1575460D02*
X14072000Y1545460D01*
X14102701Y648831D02*
X14132701Y618831D01*
X14132701Y648831D02*
X14102701Y618831D01*
X14128200Y5130540D02*
X14158200Y5100540D01*
X14158200Y5130540D02*
X14128200Y5100540D01*
X14132800Y6665840D02*
X14162800Y6635840D01*
X14162800Y6665840D02*
X14132800Y6635840D01*
X14144000Y4350400D02*
X14174000Y4320400D01*
X14174000Y4350400D02*
X14144000Y4320400D01*
X14144900Y1566480D02*
X14174900Y1536480D01*
X14174900Y1566480D02*
X14144900Y1536480D01*
X14160000Y934950D02*
X14190000Y904950D01*
X14190000Y934950D02*
X14160000Y904950D01*
X14183600Y4981420D02*
X14213600Y4951420D01*
X14213600Y4981420D02*
X14183600Y4951420D01*
X14185500Y6500140D02*
X14215500Y6470140D01*
X14215500Y6500140D02*
X14185500Y6470140D01*
X14197700Y4415680D02*
X14227700Y4385680D01*
X14227700Y4415680D02*
X14197700Y4385680D01*
X14231900Y2232420D02*
X14261900Y2202420D01*
X14261900Y2232420D02*
X14231900Y2202420D01*
X14236100Y6207900D02*
X14266100Y6177900D01*
X14266100Y6207900D02*
X14236100Y6177900D01*
X14236400Y6311330D02*
X14266400Y6281330D01*
X14266400Y6311330D02*
X14236400Y6281330D01*
X14246800Y7036540D02*
X14276800Y7006540D01*
X14276800Y7036540D02*
X14246800Y7006540D01*
X14248700Y6816480D02*
X14278700Y6786480D01*
X14278700Y6816480D02*
X14248700Y6786480D01*
X14248800Y7113190D02*
X14278800Y7083190D01*
X14278800Y7113190D02*
X14248800Y7083190D01*
X14257260Y632220D02*
X14287260Y602220D01*
X14287260Y632220D02*
X14257260Y602220D01*
X14271400Y2964170D02*
X14301400Y2934170D01*
X14301400Y2964170D02*
X14271400Y2934170D01*
X14280100Y5275100D02*
X14310100Y5245100D01*
X14310100Y5275100D02*
X14280100Y5245100D01*
X14293800Y2456920D02*
X14323800Y2426920D01*
X14323800Y2456920D02*
X14293800Y2426920D01*
X14326400Y4748380D02*
X14356400Y4718380D01*
X14356400Y4748380D02*
X14326400Y4718380D01*
X14327400Y4660680D02*
X14357400Y4630680D01*
X14357400Y4660680D02*
X14327400Y4630680D01*
X14337200Y1393760D02*
X14367200Y1363760D01*
X14367200Y1393760D02*
X14337200Y1363760D01*
X14358700Y2244230D02*
X14388700Y2214230D01*
X14388700Y2244230D02*
X14358700Y2214230D01*
X14359500Y5578560D02*
X14389500Y5548560D01*
X14389500Y5578560D02*
X14359500Y5548560D01*
X14365500Y4366790D02*
X14395500Y4336790D01*
X14395500Y4366790D02*
X14365500Y4336790D01*
X14367800Y910080D02*
X14397800Y880080D01*
X14397800Y910080D02*
X14367800Y880080D01*
X14376100Y3809270D02*
X14406100Y3779270D01*
X14406100Y3809270D02*
X14376100Y3779270D01*
X14415400Y2158590D02*
X14445400Y2128590D01*
X14445400Y2158590D02*
X14415400Y2128590D01*
X14432400Y3203680D02*
X14462400Y3173680D01*
X14462400Y3203680D02*
X14432400Y3173680D01*
X14449100Y4991470D02*
X14479100Y4961470D01*
X14479100Y4991470D02*
X14449100Y4961470D01*
X14449100Y4658430D02*
X14479100Y4628430D01*
X14479100Y4658430D02*
X14449100Y4628430D01*
X14450300Y5352310D02*
X14480300Y5322310D01*
X14480300Y5352310D02*
X14450300Y5322310D01*
X14452840Y5232160D02*
X14482840Y5202160D01*
X14482840Y5232160D02*
X14452840Y5202160D01*
X14461700Y2257820D02*
X14491700Y2227820D01*
X14491700Y2257820D02*
X14461700Y2227820D01*
X14467700Y9265680D02*
X14497700Y9235680D01*
X14497700Y9265680D02*
X14467700Y9235680D01*
X14469500Y6150210D02*
X14499500Y6120210D01*
X14499500Y6150210D02*
X14469500Y6120210D01*
X14487200Y6959080D02*
X14517200Y6929080D01*
X14517200Y6959080D02*
X14487200Y6929080D01*
X14496700Y6678590D02*
X14526700Y6648590D01*
X14526700Y6678590D02*
X14496700Y6648590D01*
X14497400Y3772020D02*
X14527400Y3742020D01*
X14527400Y3772020D02*
X14497400Y3742020D01*
X14510000Y1492830D02*
X14540000Y1462830D01*
X14540000Y1492830D02*
X14510000Y1462830D01*
X14527600Y6451060D02*
X14557600Y6421060D01*
X14557600Y6451060D02*
X14527600Y6421060D01*
X14553700Y6314770D02*
X14583700Y6284770D01*
X14583700Y6314770D02*
X14553700Y6284770D01*
X14562400Y3243470D02*
X14592400Y3213470D01*
X14592400Y3243470D02*
X14562400Y3213470D01*
X14564300Y2628370D02*
X14594300Y2598370D01*
X14594300Y2628370D02*
X14564300Y2598370D01*
X14567100Y3367800D02*
X14597100Y3337800D01*
X14597100Y3367800D02*
X14567100Y3337800D01*
X14582400Y6632970D02*
X14612400Y6602970D01*
X14612400Y6632970D02*
X14582400Y6602970D01*
X14583600Y7029460D02*
X14613600Y6999460D01*
X14613600Y7029460D02*
X14583600Y6999460D01*
X14628800Y1593360D02*
X14658800Y1563360D01*
X14658800Y1593360D02*
X14628800Y1563360D01*
X14652400Y4969560D02*
X14682400Y4939560D01*
X14682400Y4969560D02*
X14652400Y4939560D01*
X14653600Y5667400D02*
X14683600Y5637400D01*
X14683600Y5667400D02*
X14653600Y5637400D01*
X14702900Y6728160D02*
X14732900Y6698160D01*
X14732900Y6728160D02*
X14702900Y6698160D01*
X14708200Y4439170D02*
X14738200Y4409170D01*
X14738200Y4439170D02*
X14708200Y4409170D01*
X14715400Y1950000D02*
X14745400Y1920000D01*
X14745400Y1950000D02*
X14715400Y1920000D01*
X14718800Y1705400D02*
X14748800Y1675400D01*
X14748800Y1705400D02*
X14718800Y1675400D01*
X14721500Y3460680D02*
X14751500Y3430680D01*
X14751500Y3460680D02*
X14721500Y3430680D01*
X14727600Y5135170D02*
X14757600Y5105170D01*
X14757600Y5135170D02*
X14727600Y5105170D01*
X14784100Y6144580D02*
X14814100Y6114580D01*
X14814100Y6144580D02*
X14784100Y6114580D01*
X14798000Y9367630D02*
X14828000Y9337630D01*
X14828000Y9367630D02*
X14798000Y9337630D01*
X14810500Y1986020D02*
X14840500Y1956020D01*
X14840500Y1986020D02*
X14810500Y1956020D01*
X14812800Y2988680D02*
X14842800Y2958680D01*
X14842800Y2988680D02*
X14812800Y2958680D01*
X14814800Y6985960D02*
X14844800Y6955960D01*
X14844800Y6985960D02*
X14814800Y6955960D01*
X14815500Y4676260D02*
X14845500Y4646260D01*
X14845500Y4676260D02*
X14815500Y4646260D01*
X14822200Y3585440D02*
X14852200Y3555440D01*
X14852200Y3585440D02*
X14822200Y3555440D01*
X14833200Y3094030D02*
X14863200Y3064030D01*
X14863200Y3094030D02*
X14833200Y3064030D01*
X14835900Y1325860D02*
X14865900Y1295860D01*
X14865900Y1325860D02*
X14835900Y1295860D01*
X14847900Y5014330D02*
X14877900Y4984330D01*
X14877900Y5014330D02*
X14847900Y4984330D01*
X14850700Y8387150D02*
X14880700Y8357150D01*
X14880700Y8387150D02*
X14850700Y8357150D01*
X14882000Y1668030D02*
X14912000Y1638030D01*
X14912000Y1668030D02*
X14882000Y1638030D01*
X14884800Y1745220D02*
X14914800Y1715220D01*
X14914800Y1745220D02*
X14884800Y1715220D01*
X14919500Y5695800D02*
X14949500Y5665800D01*
X14949500Y5695800D02*
X14919500Y5665800D01*
X14964900Y2533700D02*
X14994900Y2503700D01*
X14994900Y2533700D02*
X14964900Y2503700D01*
X14965400Y2162340D02*
X14995400Y2132340D01*
X14995400Y2162340D02*
X14965400Y2132340D01*
X14967200Y3439540D02*
X14997200Y3409540D01*
X14997200Y3439540D02*
X14967200Y3409540D01*
X14974810Y5321060D02*
X15004810Y5291060D01*
X15004810Y5321060D02*
X14974810Y5291060D01*
X15043300Y6308870D02*
X15073300Y6278870D01*
X15073300Y6308870D02*
X15043300Y6278870D01*
X15049700Y2360690D02*
X15079700Y2330690D01*
X15079700Y2360690D02*
X15049700Y2330690D01*
X15058200Y7003340D02*
X15088200Y6973340D01*
X15088200Y7003340D02*
X15058200Y6973340D01*
X15120400Y1327010D02*
X15150400Y1297010D01*
X15150400Y1327010D02*
X15120400Y1297010D01*
X15171900Y6796830D02*
X15201900Y6766830D01*
X15201900Y6796830D02*
X15171900Y6766830D01*
X15217700Y1700450D02*
X15247700Y1670450D01*
X15247700Y1700450D02*
X15217700Y1670450D01*
X15228810Y1204990D02*
X15258810Y1174990D01*
X15258810Y1204990D02*
X15228810Y1174990D01*
X15328200Y6116670D02*
X15358200Y6086670D01*
X15358200Y6116670D02*
X15328200Y6086670D01*
X15366470Y989010D02*
X15396470Y959010D01*
X15396470Y989010D02*
X15366470Y959010D01*
X15401000Y1326890D02*
X15431000Y1296890D01*
X15431000Y1326890D02*
X15401000Y1296890D01*
X15547580Y2297190D02*
X15577580Y2267190D01*
X15577580Y2297190D02*
X15547580Y2267190D01*
X1438549Y6043095D02*
G75*
G03*
X1438549Y6043095I-19050J0D01*
G01*
X14996100Y8627820D02*
X14996100Y8557820D01*
X14961100Y8592820D02*
X15031100Y8592820D01*
X14996100Y8259520D02*
X14996100Y8189520D01*
X14961100Y8224520D02*
X15031100Y8224520D01*
X15266900Y8627820D02*
X15266900Y8557820D01*
X15231900Y8592820D02*
X15301900Y8592820D01*
X15266900Y8259520D02*
X15266900Y8189520D01*
X15231900Y8224520D02*
X15301900Y8224520D01*
X15519400Y2559760D02*
X15519400Y2489760D01*
X15484400Y2524760D02*
X15554400Y2524760D01*
X15539100Y8627820D02*
X15539100Y8557820D01*
X15504100Y8592820D02*
X15574100Y8592820D01*
X15539100Y8259520D02*
X15539100Y8189520D01*
X15504100Y8224520D02*
X15574100Y8224520D01*
X1130285Y492415D02*
X1130285Y548985D01*
X1073716Y548985D01*
X1073716Y492415D01*
X1130285Y492415D01*
X1130285Y292416D02*
X1130285Y348985D01*
X1073716Y348985D01*
X1073716Y292416D01*
X1130285Y292416D01*
X1330285Y492415D02*
X1330285Y548985D01*
X1273716Y548985D01*
X1273716Y492415D01*
X1330285Y492415D01*
X1330285Y292416D02*
X1330285Y348985D01*
X1273716Y348985D01*
X1273716Y292416D01*
X1330285Y292416D01*
X1530284Y492415D02*
X1530284Y548985D01*
X1473715Y548985D01*
X1473715Y492415D01*
X1530284Y492415D01*
X1530284Y292416D02*
X1530284Y348985D01*
X1473715Y348985D01*
X1473715Y292416D01*
X1530284Y292416D01*
X1730284Y492415D02*
X1730284Y548985D01*
X1673715Y548985D01*
X1673715Y492415D01*
X1730284Y492415D01*
X1730284Y292416D02*
X1730284Y348985D01*
X1673715Y348985D01*
X1673715Y292416D01*
X1730284Y292416D01*
X1885324Y9239656D02*
X1885324Y9296225D01*
X1828755Y9296225D01*
X1828755Y9239656D01*
X1885324Y9239656D01*
X1885324Y9039656D02*
X1885324Y9096225D01*
X1828755Y9096225D01*
X1828755Y9039656D01*
X1885324Y9039656D01*
X1930284Y492415D02*
X1930284Y548985D01*
X1873715Y548985D01*
X1873715Y492415D01*
X1930284Y492415D01*
X1930284Y292416D02*
X1930284Y348985D01*
X1873715Y348985D01*
X1873715Y292416D01*
X1930284Y292416D01*
X2085324Y9239656D02*
X2085324Y9296225D01*
X2028755Y9296225D01*
X2028755Y9239656D01*
X2085324Y9239656D01*
X2085324Y9039656D02*
X2085324Y9096225D01*
X2028755Y9096225D01*
X2028755Y9039656D01*
X2085324Y9039656D01*
X2130285Y492415D02*
X2130285Y548985D01*
X2073715Y548985D01*
X2073715Y492415D01*
X2130285Y492415D01*
X2130285Y292416D02*
X2130285Y348985D01*
X2073715Y348985D01*
X2073715Y292416D01*
X2130285Y292416D01*
X2285325Y9239656D02*
X2285325Y9296225D01*
X2228756Y9296225D01*
X2228756Y9239656D01*
X2285325Y9239656D01*
X2285325Y9039656D02*
X2285325Y9096225D01*
X2228756Y9096225D01*
X2228756Y9039656D01*
X2285325Y9039656D01*
X2330285Y492415D02*
X2330285Y548985D01*
X2273716Y548985D01*
X2273716Y492415D01*
X2330285Y492415D01*
X2330285Y292416D02*
X2330285Y348985D01*
X2273716Y348985D01*
X2273716Y292416D01*
X2330285Y292416D01*
X2485325Y9239656D02*
X2485325Y9296225D01*
X2428756Y9296225D01*
X2428756Y9239656D01*
X2485325Y9239656D01*
X2485325Y9039656D02*
X2485325Y9096225D01*
X2428756Y9096225D01*
X2428756Y9039656D01*
X2485325Y9039656D01*
X2530285Y492415D02*
X2530285Y548985D01*
X2473716Y548985D01*
X2473716Y492415D01*
X2530285Y492415D01*
X2530285Y292416D02*
X2530285Y348985D01*
X2473716Y348985D01*
X2473716Y292416D01*
X2530285Y292416D01*
X2685325Y9239656D02*
X2685325Y9296225D01*
X2628756Y9296225D01*
X2628756Y9239656D01*
X2685325Y9239656D01*
X2685325Y9039656D02*
X2685325Y9096225D01*
X2628756Y9096225D01*
X2628756Y9039656D01*
X2685325Y9039656D01*
X2730285Y492415D02*
X2730285Y548985D01*
X2673716Y548985D01*
X2673716Y492415D01*
X2730285Y492415D01*
X2730285Y292416D02*
X2730285Y348985D01*
X2673716Y348985D01*
X2673716Y292416D01*
X2730285Y292416D01*
X2885324Y9239656D02*
X2885324Y9296225D01*
X2828755Y9296225D01*
X2828755Y9239656D01*
X2885324Y9239656D01*
X2885324Y9039656D02*
X2885324Y9096225D01*
X2828755Y9096225D01*
X2828755Y9039656D01*
X2885324Y9039656D01*
X2930284Y492415D02*
X2930284Y548985D01*
X2873715Y548985D01*
X2873715Y492415D01*
X2930284Y492415D01*
X2930284Y292416D02*
X2930284Y348985D01*
X2873715Y348985D01*
X2873715Y292416D01*
X2930284Y292416D01*
X3130284Y492415D02*
X3130284Y548985D01*
X3073715Y548985D01*
X3073715Y492415D01*
X3130284Y492415D01*
X3130284Y292416D02*
X3130284Y348985D01*
X3073715Y348985D01*
X3073715Y292416D01*
X3130284Y292416D01*
X3330284Y492415D02*
X3330284Y548985D01*
X3273715Y548985D01*
X3273715Y492415D01*
X3330284Y492415D01*
X3330284Y292416D02*
X3330284Y348985D01*
X3273715Y348985D01*
X3273715Y292416D01*
X3330284Y292416D01*
X7736004Y9280156D02*
X7736004Y9336725D01*
X7679435Y9336725D01*
X7679435Y9280156D01*
X7736004Y9280156D01*
X7736004Y9080156D02*
X7736004Y9136725D01*
X7679435Y9136725D01*
X7679435Y9080156D01*
X7736004Y9080156D01*
X7936004Y9280156D02*
X7936004Y9336725D01*
X7879435Y9336725D01*
X7879435Y9280156D01*
X7936004Y9280156D01*
X7936004Y9080156D02*
X7936004Y9136725D01*
X7879435Y9136725D01*
X7879435Y9080156D01*
X7936004Y9080156D01*
X8136004Y9280156D02*
X8136004Y9336725D01*
X8079435Y9336725D01*
X8079435Y9280156D01*
X8136004Y9280156D01*
X8136004Y9080156D02*
X8136004Y9136725D01*
X8079435Y9136725D01*
X8079435Y9080156D01*
X8136004Y9080156D01*
X8336004Y9280156D02*
X8336004Y9336725D01*
X8279435Y9336725D01*
X8279435Y9280156D01*
X8336004Y9280156D01*
X8336004Y9080156D02*
X8336004Y9136725D01*
X8279435Y9136725D01*
X8279435Y9080156D01*
X8336004Y9080156D01*
X8536005Y9280156D02*
X8536005Y9336725D01*
X8479436Y9336725D01*
X8479436Y9280156D01*
X8536005Y9280156D01*
X8536005Y9080156D02*
X8536005Y9136725D01*
X8479436Y9136725D01*
X8479436Y9080156D01*
X8536005Y9080156D01*
X8736005Y9280156D02*
X8736005Y9336725D01*
X8679436Y9336725D01*
X8679436Y9280156D01*
X8736005Y9280156D01*
X8736005Y9080156D02*
X8736005Y9136725D01*
X8679436Y9136725D01*
X8679436Y9080156D01*
X8736005Y9080156D01*
X8936005Y9280156D02*
X8936005Y9336725D01*
X8879436Y9336725D01*
X8879436Y9280156D01*
X8936005Y9280156D01*
X8936005Y9080156D02*
X8936005Y9136725D01*
X8879436Y9136725D01*
X8879436Y9080156D01*
X8936005Y9080156D01*
X9136005Y9280156D02*
X9136005Y9336725D01*
X9079436Y9336725D01*
X9079436Y9280156D01*
X9136005Y9280156D01*
X9136005Y9080156D02*
X9136005Y9136725D01*
X9079436Y9136725D01*
X9079436Y9080156D01*
X9136005Y9080156D01*
X9336005Y9280156D02*
X9336005Y9336725D01*
X9279436Y9336725D01*
X9279436Y9280156D01*
X9336005Y9280156D01*
X9336005Y9080156D02*
X9336005Y9136725D01*
X9279436Y9136725D01*
X9279436Y9080156D01*
X9336005Y9080156D01*
X9536005Y9280156D02*
X9536005Y9336725D01*
X9479436Y9336725D01*
X9479436Y9280156D01*
X9536005Y9280156D01*
X9536005Y9080156D02*
X9536005Y9136725D01*
X9479436Y9136725D01*
X9479436Y9080156D01*
X9536005Y9080156D01*
X9736005Y9280156D02*
X9736005Y9336725D01*
X9679436Y9336725D01*
X9679436Y9280156D01*
X9736005Y9280156D01*
X9736005Y9080156D02*
X9736005Y9136725D01*
X9679436Y9136725D01*
X9679436Y9080156D01*
X9736005Y9080156D01*
X9936005Y9280156D02*
X9936005Y9336725D01*
X9879436Y9336725D01*
X9879436Y9280156D01*
X9936005Y9280156D01*
X9936005Y9080156D02*
X9936005Y9136725D01*
X9879436Y9136725D01*
X9879436Y9080156D01*
X9936005Y9080156D01*
X11828284Y9239656D02*
X11828284Y9296225D01*
X11771715Y9296225D01*
X11771715Y9239656D01*
X11828284Y9239656D01*
X11828284Y9039656D02*
X11828284Y9096225D01*
X11771715Y9096225D01*
X11771715Y9039656D01*
X11828284Y9039656D01*
X12028284Y9239656D02*
X12028284Y9296225D01*
X11971715Y9296225D01*
X11971715Y9239656D01*
X12028284Y9239656D01*
X12028284Y9039656D02*
X12028284Y9096225D01*
X11971715Y9096225D01*
X11971715Y9039656D01*
X12028284Y9039656D01*
X12228284Y9239656D02*
X12228284Y9296225D01*
X12171715Y9296225D01*
X12171715Y9239656D01*
X12228284Y9239656D01*
X12228284Y9039656D02*
X12228284Y9096225D01*
X12171715Y9096225D01*
X12171715Y9039656D01*
X12228284Y9039656D01*
X12428284Y9239656D02*
X12428284Y9296225D01*
X12371715Y9296225D01*
X12371715Y9239656D01*
X12428284Y9239656D01*
X12428284Y9039656D02*
X12428284Y9096225D01*
X12371715Y9096225D01*
X12371715Y9039656D01*
X12428284Y9039656D01*
X12628284Y9239656D02*
X12628284Y9296225D01*
X12571715Y9296225D01*
X12571715Y9239656D01*
X12628284Y9239656D01*
X12628284Y9039656D02*
X12628284Y9096225D01*
X12571715Y9096225D01*
X12571715Y9039656D01*
X12628284Y9039656D01*
X12828284Y9239656D02*
X12828284Y9296225D01*
X12771715Y9296225D01*
X12771715Y9239656D01*
X12828284Y9239656D01*
X12828284Y9039656D02*
X12828284Y9096225D01*
X12771715Y9096225D01*
X12771715Y9039656D01*
X12828284Y9039656D01*
X13028284Y9239656D02*
X13028284Y9296225D01*
X12971715Y9296225D01*
X12971715Y9239656D01*
X13028284Y9239656D01*
X13028284Y9039656D02*
X13028284Y9096225D01*
X12971715Y9096225D01*
X12971715Y9039656D01*
X13028284Y9039656D01*
X270580Y4605820D02*
X320580Y4655820D01*
X270580Y4705820D01*
X220580Y4655820D01*
X270580Y4605820D01*
X310580Y4555820D02*
X310580Y4755820D01*
X230580Y4555820D02*
X230580Y4755820D01*
X310580Y4755820D02*
G75*
G03*
X230580Y4755820I-40000J0D01*
G01*
X230580Y4555820D02*
G75*
G03*
X310580Y4555820I40000J0D01*
G01*
X570580Y4135820D02*
X620580Y4185820D01*
X570580Y4235820D01*
X520580Y4185820D01*
X570580Y4135820D01*
X670580Y4225820D02*
X470580Y4225820D01*
X670580Y4145820D02*
X470580Y4145820D01*
X470580Y4225820D02*
G75*
G03*
X470580Y4145820I0J-40000D01*
G01*
X670580Y4145820D02*
G75*
G03*
X670580Y4225820I0J40000D01*
G01*
X870580Y4605820D02*
X920580Y4655820D01*
X870580Y4705820D01*
X820580Y4655820D01*
X870580Y4605820D01*
X910580Y4530820D02*
X910580Y4780820D01*
X830580Y4530820D02*
X830580Y4780820D01*
X910580Y4780820D02*
G75*
G03*
X830580Y4780820I-40000J0D01*
G01*
X830580Y4530820D02*
G75*
G03*
X910580Y4530820I40000J0D01*
G01*
X205980Y8482720D02*
X315980Y8372720D01*
X315980Y8482720D02*
X205980Y8372720D01*
X315980Y8427720D02*
G75*
G03*
X315980Y8427720I-55000J0D01*
G01*
X205980Y8228720D02*
X315980Y8118720D01*
X315980Y8228720D02*
X205980Y8118720D01*
X315980Y8173720D02*
G75*
G03*
X315980Y8173720I-55000J0D01*
G01*
X205980Y7974720D02*
X315980Y7864720D01*
X315980Y7974720D02*
X205980Y7864720D01*
X315980Y7919720D02*
G75*
G03*
X315980Y7919720I-55000J0D01*
G01*
X205980Y7720720D02*
X315980Y7610720D01*
X315980Y7720720D02*
X205980Y7610720D01*
X315980Y7665720D02*
G75*
G03*
X315980Y7665720I-55000J0D01*
G01*
X205980Y7466720D02*
X315980Y7356720D01*
X315980Y7466720D02*
X205980Y7356720D01*
X315980Y7411720D02*
G75*
G03*
X315980Y7411720I-55000J0D01*
G01*
X205980Y7212720D02*
X315980Y7102720D01*
X315980Y7212720D02*
X205980Y7102720D01*
X315980Y7157720D02*
G75*
G03*
X315980Y7157720I-55000J0D01*
G01*
X205980Y6958720D02*
X315980Y6848720D01*
X315980Y6958720D02*
X205980Y6848720D01*
X315980Y6903720D02*
G75*
G03*
X315980Y6903720I-55000J0D01*
G01*
X205980Y6704720D02*
X315980Y6594720D01*
X315980Y6704720D02*
X205980Y6594720D01*
X315980Y6649720D02*
G75*
G03*
X315980Y6649720I-55000J0D01*
G01*
X205980Y6450720D02*
X315980Y6340720D01*
X315980Y6450720D02*
X205980Y6340720D01*
X315980Y6395720D02*
G75*
G03*
X315980Y6395720I-55000J0D01*
G01*
X205980Y6196720D02*
X315980Y6086720D01*
X315980Y6196720D02*
X205980Y6086720D01*
X315980Y6141720D02*
G75*
G03*
X315980Y6141720I-55000J0D01*
G01*
X205980Y5942720D02*
X315980Y5832720D01*
X315980Y5942720D02*
X205980Y5832720D01*
X315980Y5887720D02*
G75*
G03*
X315980Y5887720I-55000J0D01*
G01*
X205980Y5688720D02*
X315980Y5578720D01*
X315980Y5688720D02*
X205980Y5578720D01*
X315980Y5633720D02*
G75*
G03*
X315980Y5633720I-55000J0D01*
G01*
X565780Y2865120D02*
X692780Y2738120D01*
X692780Y2865120D02*
X565780Y2738120D01*
X629280Y2865120D02*
X629280Y2738120D01*
X565780Y2801620D02*
X692780Y2801620D01*
X565780Y1493520D02*
X692780Y1366520D01*
X692780Y1493520D02*
X565780Y1366520D01*
X629280Y1493520D02*
X629280Y1366520D01*
X565780Y1430020D02*
X692780Y1430020D01*
X4000000Y261000D02*
X4130000Y131000D01*
X4130000Y261000D02*
X4000000Y131000D01*
X4110962Y150038D02*
X4110962Y241962D01*
X4019038Y241962D01*
X4019038Y150038D01*
X4110962Y150038D01*
X4060000Y751000D02*
X4190000Y621000D01*
X4190000Y751000D02*
X4060000Y621000D01*
X4170962Y640038D02*
X4170962Y731962D01*
X4079038Y731962D01*
X4079038Y640038D01*
X4170962Y640038D01*
X5510000Y751000D02*
X5640000Y621000D01*
X5640000Y751000D02*
X5510000Y621000D01*
X5620962Y640038D02*
X5620962Y731962D01*
X5529038Y731962D01*
X5529038Y640038D01*
X5620962Y640038D01*
X5570000Y261000D02*
X5700000Y131000D01*
X5700000Y261000D02*
X5570000Y131000D01*
X5680962Y150038D02*
X5680962Y241962D01*
X5589038Y241962D01*
X5589038Y150038D01*
X5680962Y150038D01*
X7000000Y261000D02*
X7130000Y131000D01*
X7130000Y261000D02*
X7000000Y131000D01*
X7110962Y150038D02*
X7110962Y241962D01*
X7019038Y241962D01*
X7019038Y150038D01*
X7110962Y150038D01*
X7060000Y751000D02*
X7190000Y621000D01*
X7190000Y751000D02*
X7060000Y621000D01*
X7170962Y640038D02*
X7170962Y731962D01*
X7079038Y731962D01*
X7079038Y640038D01*
X7170962Y640038D01*
X8510000Y751000D02*
X8640000Y621000D01*
X8640000Y751000D02*
X8510000Y621000D01*
X8620962Y640038D02*
X8620962Y731962D01*
X8529038Y731962D01*
X8529038Y640038D01*
X8620962Y640038D01*
X8570000Y261000D02*
X8700000Y131000D01*
X8700000Y261000D02*
X8570000Y131000D01*
X8680962Y150038D02*
X8680962Y241962D01*
X8589038Y241962D01*
X8589038Y150038D01*
X8680962Y150038D01*
X10000000Y261000D02*
X10130000Y131000D01*
X10130000Y261000D02*
X10000000Y131000D01*
X10110962Y150038D02*
X10110962Y241962D01*
X10019038Y241962D01*
X10019038Y150038D01*
X10110962Y150038D01*
X10060000Y751000D02*
X10190000Y621000D01*
X10190000Y751000D02*
X10060000Y621000D01*
X10170962Y640038D02*
X10170962Y731962D01*
X10079038Y731962D01*
X10079038Y640038D01*
X10170962Y640038D01*
X11510000Y751000D02*
X11640000Y621000D01*
X11640000Y751000D02*
X11510000Y621000D01*
X11620962Y640038D02*
X11620962Y731962D01*
X11529038Y731962D01*
X11529038Y640038D01*
X11620962Y640038D01*
X11570000Y261000D02*
X11700000Y131000D01*
X11700000Y261000D02*
X11570000Y131000D01*
X11680962Y150038D02*
X11680962Y241962D01*
X11589038Y241962D01*
X11589038Y150038D01*
X11680962Y150038D01*
X13000000Y261000D02*
X13130000Y131000D01*
X13130000Y261000D02*
X13000000Y131000D01*
X13110962Y150038D02*
X13110962Y241962D01*
X13019038Y241962D01*
X13019038Y150038D01*
X13110962Y150038D01*
X13060000Y751000D02*
X13190000Y621000D01*
X13190000Y751000D02*
X13060000Y621000D01*
X13170962Y640038D02*
X13170962Y731962D01*
X13079038Y731962D01*
X13079038Y640038D01*
X13170962Y640038D01*
X14510000Y751000D02*
X14640000Y621000D01*
X14640000Y751000D02*
X14510000Y621000D01*
X14620962Y640038D02*
X14620962Y731962D01*
X14529038Y731962D01*
X14529038Y640038D01*
X14620962Y640038D01*
X14570000Y261000D02*
X14700000Y131000D01*
X14700000Y261000D02*
X14570000Y131000D01*
X14680962Y150038D02*
X14680962Y241962D01*
X14589038Y241962D01*
X14589038Y150038D01*
X14680962Y150038D01*
X285390Y3145510D02*
X463190Y2967710D01*
X463190Y3145510D02*
X285390Y2967710D01*
X374290Y2967710D02*
X463190Y3056610D01*
X374290Y3145510D01*
X285390Y3056610D01*
X374290Y2967710D01*
X285390Y2635530D02*
X463190Y2457730D01*
X463190Y2635530D02*
X285390Y2457730D01*
X374290Y2457730D02*
X463190Y2546630D01*
X374290Y2635530D01*
X285390Y2546630D01*
X374290Y2457730D01*
X285390Y1773910D02*
X463190Y1596110D01*
X463190Y1773910D02*
X285390Y1596110D01*
X374290Y1596110D02*
X463190Y1685010D01*
X374290Y1773910D01*
X285390Y1685010D01*
X374290Y1596110D01*
X285390Y1263930D02*
X463190Y1086130D01*
X463190Y1263930D02*
X285390Y1086130D01*
X374290Y1086130D02*
X463190Y1175030D01*
X374290Y1263930D01*
X285390Y1175030D01*
X374290Y1086130D01*
X795370Y3145510D02*
X973170Y2967710D01*
X973170Y3145510D02*
X795370Y2967710D01*
X884270Y2967710D02*
X973170Y3056610D01*
X884270Y3145510D01*
X795370Y3056610D01*
X884270Y2967710D01*
X795370Y2635530D02*
X973170Y2457730D01*
X973170Y2635530D02*
X795370Y2457730D01*
X884270Y2457730D02*
X973170Y2546630D01*
X884270Y2635530D01*
X795370Y2546630D01*
X884270Y2457730D01*
X795370Y1773910D02*
X973170Y1596110D01*
X973170Y1773910D02*
X795370Y1596110D01*
X884270Y1596110D02*
X973170Y1685010D01*
X884270Y1773910D01*
X795370Y1685010D01*
X884270Y1596110D01*
X795370Y1263930D02*
X973170Y1086130D01*
X973170Y1263930D02*
X795370Y1086130D01*
X884270Y1086130D02*
X973170Y1175030D01*
X884270Y1263930D01*
X795370Y1175030D01*
X884270Y1086130D01*
X400000Y9280000D02*
X400000Y8960000D01*
X240000Y9120000D02*
X560000Y9120000D01*
X560000Y9120000D02*
G75*
G03*
X560000Y9120000I-160000J0D01*
G01*
X400000Y560000D02*
X400000Y240000D01*
X240000Y400000D02*
X560000Y400000D01*
X560000Y400000D02*
G75*
G03*
X560000Y400000I-160000J0D01*
G01*
X15368000Y9280000D02*
X15368000Y8960000D01*
X15208000Y9120000D02*
X15528000Y9120000D01*
X15528000Y9120000D02*
G75*
G03*
X15528000Y9120000I-160000J0D01*
G01*
X15368000Y560000D02*
X15368000Y240000D01*
X15208000Y400000D02*
X15528000Y400000D01*
X15528000Y400000D02*
G75*
G03*
X15528000Y400000I-160000J0D01*
G01*
D12*
X36429Y-715714D02*
X36429Y-415714D01*
X107857Y-415714D01*
X150714Y-430000D01*
X179286Y-458571D01*
X193571Y-487143D01*
X207857Y-544286D01*
X207857Y-587143D01*
X193571Y-644286D01*
X179286Y-672857D01*
X150714Y-701428D01*
X107857Y-715714D01*
X36429Y-715714D01*
X336429Y-715714D02*
X336429Y-515714D01*
X336429Y-572857D02*
X350714Y-544286D01*
X365000Y-530000D01*
X393571Y-515714D01*
X422143Y-515714D01*
X522143Y-715714D02*
X522143Y-515714D01*
X522143Y-415714D02*
X507857Y-430000D01*
X522143Y-444286D01*
X536429Y-430000D01*
X522143Y-415714D01*
X522143Y-444286D01*
X707857Y-715714D02*
X679286Y-701428D01*
X665000Y-672857D01*
X665000Y-415714D01*
X865000Y-715714D02*
X836428Y-701428D01*
X822143Y-672857D01*
X822143Y-415714D01*
X1207857Y-715714D02*
X1207857Y-415714D01*
X1307857Y-630000D01*
X1407857Y-415714D01*
X1407857Y-715714D01*
X1679286Y-715714D02*
X1679286Y-558571D01*
X1665000Y-530000D01*
X1636428Y-515714D01*
X1579286Y-515714D01*
X1550714Y-530000D01*
X1679286Y-701428D02*
X1650714Y-715714D01*
X1579286Y-715714D01*
X1550714Y-701428D01*
X1536428Y-672857D01*
X1536428Y-644286D01*
X1550714Y-615714D01*
X1579286Y-601429D01*
X1650714Y-601429D01*
X1679286Y-587143D01*
X1822143Y-515714D02*
X1822143Y-815714D01*
X1822143Y-530000D02*
X1850714Y-515714D01*
X1907857Y-515714D01*
X1936428Y-530000D01*
X1950714Y-544286D01*
X1965000Y-572857D01*
X1965000Y-658571D01*
X1950714Y-687143D01*
X1936428Y-701428D01*
X1907857Y-715714D01*
X1850714Y-715714D01*
X1822143Y-701428D01*
X2093571Y-687143D02*
X2107857Y-701428D01*
X2093571Y-715714D01*
X2079286Y-701428D01*
X2093571Y-687143D01*
X2093571Y-715714D01*
X2093571Y-530000D02*
X2107857Y-544286D01*
X2093571Y-558571D01*
X2079286Y-544286D01*
X2093571Y-530000D01*
X2093571Y-558571D01*
X-280000Y-1195000D02*
X-250000Y-1225000D01*
X-250000Y-1195000D02*
X-280000Y-1225000D01*
X93571Y-1045714D02*
X122143Y-1045714D01*
X150714Y-1060000D01*
X165000Y-1074286D01*
X179286Y-1102857D01*
X193571Y-1160000D01*
X193571Y-1231429D01*
X179286Y-1288571D01*
X165000Y-1317143D01*
X150714Y-1331429D01*
X122143Y-1345714D01*
X93571Y-1345714D01*
X65000Y-1331429D01*
X50714Y-1317143D01*
X36429Y-1288571D01*
X22143Y-1231429D01*
X22143Y-1160000D01*
X36429Y-1102857D01*
X50714Y-1074286D01*
X65000Y-1060000D01*
X93571Y-1045714D01*
X322143Y-1317143D02*
X336429Y-1331429D01*
X322143Y-1345714D01*
X307857Y-1331429D01*
X322143Y-1317143D01*
X322143Y-1345714D01*
X436428Y-1045714D02*
X622143Y-1045714D01*
X522143Y-1160000D01*
X565000Y-1160000D01*
X593571Y-1174286D01*
X607857Y-1188571D01*
X622143Y-1217143D01*
X622143Y-1288571D01*
X607857Y-1317143D01*
X593571Y-1331429D01*
X565000Y-1345714D01*
X479286Y-1345714D01*
X450714Y-1331429D01*
X436428Y-1317143D01*
X807857Y-1045714D02*
X836428Y-1045714D01*
X865000Y-1060000D01*
X879286Y-1074286D01*
X893571Y-1102857D01*
X907857Y-1160000D01*
X907857Y-1231429D01*
X893571Y-1288571D01*
X879286Y-1317143D01*
X865000Y-1331429D01*
X836428Y-1345714D01*
X807857Y-1345714D01*
X779286Y-1331429D01*
X765000Y-1317143D01*
X750714Y-1288571D01*
X736428Y-1231429D01*
X736428Y-1160000D01*
X750714Y-1102857D01*
X765000Y-1074286D01*
X779286Y-1060000D01*
X807857Y-1045714D01*
X1036428Y-1345714D02*
X1036428Y-1145714D01*
X1036428Y-1174286D02*
X1050714Y-1160000D01*
X1079286Y-1145714D01*
X1122143Y-1145714D01*
X1150714Y-1160000D01*
X1165000Y-1188571D01*
X1165000Y-1345714D01*
X1165000Y-1188571D02*
X1179286Y-1160000D01*
X1207857Y-1145714D01*
X1250714Y-1145714D01*
X1279286Y-1160000D01*
X1293571Y-1188571D01*
X1293571Y-1345714D01*
X1436428Y-1345714D02*
X1436428Y-1145714D01*
X1436428Y-1174286D02*
X1450714Y-1160000D01*
X1479286Y-1145714D01*
X1522143Y-1145714D01*
X1550714Y-1160000D01*
X1565000Y-1188571D01*
X1565000Y-1345714D01*
X1565000Y-1188571D02*
X1579286Y-1160000D01*
X1607857Y-1145714D01*
X1650714Y-1145714D01*
X1679286Y-1160000D01*
X1693571Y-1188571D01*
X1693571Y-1345714D01*
X2279286Y-1031428D02*
X2022143Y-1417143D01*
X2665000Y-1045714D02*
X2693571Y-1045714D01*
X2722143Y-1060000D01*
X2736429Y-1074286D01*
X2750714Y-1102857D01*
X2765000Y-1160000D01*
X2765000Y-1231429D01*
X2750714Y-1288571D01*
X2736429Y-1317143D01*
X2722143Y-1331429D01*
X2693571Y-1345714D01*
X2665000Y-1345714D01*
X2636429Y-1331429D01*
X2622143Y-1317143D01*
X2607857Y-1288571D01*
X2593571Y-1231429D01*
X2593571Y-1160000D01*
X2607857Y-1102857D01*
X2622143Y-1074286D01*
X2636429Y-1060000D01*
X2665000Y-1045714D01*
X2893571Y-1317143D02*
X2907857Y-1331429D01*
X2893571Y-1345714D01*
X2879286Y-1331429D01*
X2893571Y-1317143D01*
X2893571Y-1345714D01*
X3093571Y-1045714D02*
X3122143Y-1045714D01*
X3150714Y-1060000D01*
X3165000Y-1074286D01*
X3179286Y-1102857D01*
X3193571Y-1160000D01*
X3193571Y-1231429D01*
X3179286Y-1288571D01*
X3165000Y-1317143D01*
X3150714Y-1331429D01*
X3122143Y-1345714D01*
X3093571Y-1345714D01*
X3065000Y-1331429D01*
X3050714Y-1317143D01*
X3036428Y-1288571D01*
X3022143Y-1231429D01*
X3022143Y-1160000D01*
X3036428Y-1102857D01*
X3050714Y-1074286D01*
X3065000Y-1060000D01*
X3093571Y-1045714D01*
X3479286Y-1345714D02*
X3307857Y-1345714D01*
X3393571Y-1345714D02*
X3393571Y-1045714D01*
X3365000Y-1088571D01*
X3336428Y-1117143D01*
X3307857Y-1131429D01*
X3593571Y-1074286D02*
X3607857Y-1060000D01*
X3636428Y-1045714D01*
X3707857Y-1045714D01*
X3736428Y-1060000D01*
X3750714Y-1074286D01*
X3765000Y-1102857D01*
X3765000Y-1131429D01*
X3750714Y-1174286D01*
X3579286Y-1345714D01*
X3765000Y-1345714D01*
X3879286Y-1045714D02*
X3879286Y-1102857D01*
X3993571Y-1045714D02*
X3993571Y-1102857D01*
X4436429Y-1460000D02*
X4422143Y-1445714D01*
X4393571Y-1402857D01*
X4379286Y-1374286D01*
X4365000Y-1331429D01*
X4350714Y-1260000D01*
X4350714Y-1202857D01*
X4365000Y-1131429D01*
X4379286Y-1088571D01*
X4393571Y-1060000D01*
X4422143Y-1017143D01*
X4436429Y-1002857D01*
X4707857Y-1345714D02*
X4536429Y-1345714D01*
X4622143Y-1345714D02*
X4622143Y-1045714D01*
X4593571Y-1088571D01*
X4565000Y-1117143D01*
X4536429Y-1131429D01*
X4807857Y-1045714D02*
X4993571Y-1045714D01*
X4893571Y-1160000D01*
X4936429Y-1160000D01*
X4965000Y-1174286D01*
X4979286Y-1188571D01*
X4993571Y-1217143D01*
X4993571Y-1288571D01*
X4979286Y-1317143D01*
X4965000Y-1331429D01*
X4936429Y-1345714D01*
X4850714Y-1345714D01*
X4822143Y-1331429D01*
X4807857Y-1317143D01*
X5093571Y-1045714D02*
X5293571Y-1045714D01*
X5165000Y-1345714D01*
X5379286Y-1045714D02*
X5579286Y-1045714D01*
X5450714Y-1345714D01*
X5922143Y-1345714D02*
X5922143Y-1045714D01*
X6050714Y-1345714D02*
X6050714Y-1188571D01*
X6036428Y-1160000D01*
X6007857Y-1145714D01*
X5965000Y-1145714D01*
X5936428Y-1160000D01*
X5922143Y-1174286D01*
X6236428Y-1345714D02*
X6207857Y-1331429D01*
X6193571Y-1317143D01*
X6179286Y-1288571D01*
X6179286Y-1202857D01*
X6193571Y-1174286D01*
X6207857Y-1160000D01*
X6236428Y-1145714D01*
X6279286Y-1145714D01*
X6307857Y-1160000D01*
X6322143Y-1174286D01*
X6336428Y-1202857D01*
X6336428Y-1288571D01*
X6322143Y-1317143D01*
X6307857Y-1331429D01*
X6279286Y-1345714D01*
X6236428Y-1345714D01*
X6507857Y-1345714D02*
X6479286Y-1331429D01*
X6465000Y-1302857D01*
X6465000Y-1045714D01*
X6736428Y-1331429D02*
X6707857Y-1345714D01*
X6650714Y-1345714D01*
X6622143Y-1331429D01*
X6607857Y-1302857D01*
X6607857Y-1188571D01*
X6622143Y-1160000D01*
X6650714Y-1145714D01*
X6707857Y-1145714D01*
X6736428Y-1160000D01*
X6750714Y-1188571D01*
X6750714Y-1217143D01*
X6607857Y-1245714D01*
X6865000Y-1331429D02*
X6893571Y-1345714D01*
X6950714Y-1345714D01*
X6979286Y-1331429D01*
X6993571Y-1302857D01*
X6993571Y-1288571D01*
X6979286Y-1260000D01*
X6950714Y-1245714D01*
X6907857Y-1245714D01*
X6879286Y-1231429D01*
X6865000Y-1202857D01*
X6865000Y-1188571D01*
X6879286Y-1160000D01*
X6907857Y-1145714D01*
X6950714Y-1145714D01*
X6979286Y-1160000D01*
X7093571Y-1460000D02*
X7107857Y-1445714D01*
X7136428Y-1402857D01*
X7150714Y-1374286D01*
X7165000Y-1331429D01*
X7179286Y-1260000D01*
X7179286Y-1202857D01*
X7165000Y-1131429D01*
X7150714Y-1088571D01*
X7136428Y-1060000D01*
X7107857Y-1017143D01*
X7093571Y-1002857D01*
X-250000Y-1606000D02*
G75*
G03*
X-250000Y-1606000I-19050J0D01*
G01*
X93571Y-1441714D02*
X122143Y-1441714D01*
X150714Y-1456000D01*
X165000Y-1470286D01*
X179286Y-1498857D01*
X193571Y-1556000D01*
X193571Y-1627428D01*
X179286Y-1684571D01*
X165000Y-1713143D01*
X150714Y-1727428D01*
X122143Y-1741714D01*
X93571Y-1741714D01*
X65000Y-1727428D01*
X50714Y-1713143D01*
X36429Y-1684571D01*
X22143Y-1627428D01*
X22143Y-1556000D01*
X36429Y-1498857D01*
X50714Y-1470286D01*
X65000Y-1456000D01*
X93571Y-1441714D01*
X322143Y-1713143D02*
X336429Y-1727428D01*
X322143Y-1741714D01*
X307857Y-1727428D01*
X322143Y-1713143D01*
X322143Y-1741714D01*
X436428Y-1441714D02*
X622143Y-1441714D01*
X522143Y-1556000D01*
X565000Y-1556000D01*
X593571Y-1570286D01*
X607857Y-1584571D01*
X622143Y-1613143D01*
X622143Y-1684571D01*
X607857Y-1713143D01*
X593571Y-1727428D01*
X565000Y-1741714D01*
X479286Y-1741714D01*
X450714Y-1727428D01*
X436428Y-1713143D01*
X793571Y-1570286D02*
X765000Y-1556000D01*
X750714Y-1541714D01*
X736428Y-1513143D01*
X736428Y-1498857D01*
X750714Y-1470286D01*
X765000Y-1456000D01*
X793571Y-1441714D01*
X850714Y-1441714D01*
X879286Y-1456000D01*
X893571Y-1470286D01*
X907857Y-1498857D01*
X907857Y-1513143D01*
X893571Y-1541714D01*
X879286Y-1556000D01*
X850714Y-1570286D01*
X793571Y-1570286D01*
X765000Y-1584571D01*
X750714Y-1598857D01*
X736428Y-1627428D01*
X736428Y-1684571D01*
X750714Y-1713143D01*
X765000Y-1727428D01*
X793571Y-1741714D01*
X850714Y-1741714D01*
X879286Y-1727428D01*
X893571Y-1713143D01*
X907857Y-1684571D01*
X907857Y-1627428D01*
X893571Y-1598857D01*
X879286Y-1584571D01*
X850714Y-1570286D01*
X1036428Y-1741714D02*
X1036428Y-1541714D01*
X1036428Y-1570286D02*
X1050714Y-1556000D01*
X1079286Y-1541714D01*
X1122143Y-1541714D01*
X1150714Y-1556000D01*
X1165000Y-1584571D01*
X1165000Y-1741714D01*
X1165000Y-1584571D02*
X1179286Y-1556000D01*
X1207857Y-1541714D01*
X1250714Y-1541714D01*
X1279286Y-1556000D01*
X1293571Y-1584571D01*
X1293571Y-1741714D01*
X1436428Y-1741714D02*
X1436428Y-1541714D01*
X1436428Y-1570286D02*
X1450714Y-1556000D01*
X1479286Y-1541714D01*
X1522143Y-1541714D01*
X1550714Y-1556000D01*
X1565000Y-1584571D01*
X1565000Y-1741714D01*
X1565000Y-1584571D02*
X1579286Y-1556000D01*
X1607857Y-1541714D01*
X1650714Y-1541714D01*
X1679286Y-1556000D01*
X1693571Y-1584571D01*
X1693571Y-1741714D01*
X2279286Y-1427428D02*
X2022143Y-1813143D01*
X2665000Y-1441714D02*
X2693571Y-1441714D01*
X2722143Y-1456000D01*
X2736429Y-1470286D01*
X2750714Y-1498857D01*
X2765000Y-1556000D01*
X2765000Y-1627428D01*
X2750714Y-1684571D01*
X2736429Y-1713143D01*
X2722143Y-1727428D01*
X2693571Y-1741714D01*
X2665000Y-1741714D01*
X2636429Y-1727428D01*
X2622143Y-1713143D01*
X2607857Y-1684571D01*
X2593571Y-1627428D01*
X2593571Y-1556000D01*
X2607857Y-1498857D01*
X2622143Y-1470286D01*
X2636429Y-1456000D01*
X2665000Y-1441714D01*
X2893571Y-1713143D02*
X2907857Y-1727428D01*
X2893571Y-1741714D01*
X2879286Y-1727428D01*
X2893571Y-1713143D01*
X2893571Y-1741714D01*
X3093571Y-1441714D02*
X3122143Y-1441714D01*
X3150714Y-1456000D01*
X3165000Y-1470286D01*
X3179286Y-1498857D01*
X3193571Y-1556000D01*
X3193571Y-1627428D01*
X3179286Y-1684571D01*
X3165000Y-1713143D01*
X3150714Y-1727428D01*
X3122143Y-1741714D01*
X3093571Y-1741714D01*
X3065000Y-1727428D01*
X3050714Y-1713143D01*
X3036428Y-1684571D01*
X3022143Y-1627428D01*
X3022143Y-1556000D01*
X3036428Y-1498857D01*
X3050714Y-1470286D01*
X3065000Y-1456000D01*
X3093571Y-1441714D01*
X3479286Y-1741714D02*
X3307857Y-1741714D01*
X3393571Y-1741714D02*
X3393571Y-1441714D01*
X3365000Y-1484571D01*
X3336428Y-1513143D01*
X3307857Y-1527428D01*
X3750714Y-1441714D02*
X3607857Y-1441714D01*
X3593571Y-1584571D01*
X3607857Y-1570286D01*
X3636428Y-1556000D01*
X3707857Y-1556000D01*
X3736428Y-1570286D01*
X3750714Y-1584571D01*
X3765000Y-1613143D01*
X3765000Y-1684571D01*
X3750714Y-1713143D01*
X3736428Y-1727428D01*
X3707857Y-1741714D01*
X3636428Y-1741714D01*
X3607857Y-1727428D01*
X3593571Y-1713143D01*
X3879286Y-1441714D02*
X3879286Y-1498857D01*
X3993571Y-1441714D02*
X3993571Y-1498857D01*
X4436429Y-1856000D02*
X4422143Y-1841714D01*
X4393571Y-1798857D01*
X4379286Y-1770286D01*
X4365000Y-1727428D01*
X4350714Y-1656000D01*
X4350714Y-1598857D01*
X4365000Y-1527428D01*
X4379286Y-1484571D01*
X4393571Y-1456000D01*
X4422143Y-1413143D01*
X4436429Y-1398857D01*
X4707857Y-1741714D02*
X4536429Y-1741714D01*
X4622143Y-1741714D02*
X4622143Y-1441714D01*
X4593571Y-1484571D01*
X4565000Y-1513143D01*
X4536429Y-1527428D01*
X5065000Y-1741714D02*
X5065000Y-1441714D01*
X5193571Y-1741714D02*
X5193571Y-1584571D01*
X5179286Y-1556000D01*
X5150714Y-1541714D01*
X5107857Y-1541714D01*
X5079286Y-1556000D01*
X5065000Y-1570286D01*
X5379286Y-1741714D02*
X5350714Y-1727428D01*
X5336429Y-1713143D01*
X5322143Y-1684571D01*
X5322143Y-1598857D01*
X5336429Y-1570286D01*
X5350714Y-1556000D01*
X5379286Y-1541714D01*
X5422143Y-1541714D01*
X5450714Y-1556000D01*
X5465000Y-1570286D01*
X5479286Y-1598857D01*
X5479286Y-1684571D01*
X5465000Y-1713143D01*
X5450714Y-1727428D01*
X5422143Y-1741714D01*
X5379286Y-1741714D01*
X5650714Y-1741714D02*
X5622143Y-1727428D01*
X5607857Y-1698857D01*
X5607857Y-1441714D01*
X5879286Y-1727428D02*
X5850714Y-1741714D01*
X5793571Y-1741714D01*
X5765000Y-1727428D01*
X5750714Y-1698857D01*
X5750714Y-1584571D01*
X5765000Y-1556000D01*
X5793571Y-1541714D01*
X5850714Y-1541714D01*
X5879286Y-1556000D01*
X5893571Y-1584571D01*
X5893571Y-1613143D01*
X5750714Y-1641714D01*
X5993571Y-1856000D02*
X6007857Y-1841714D01*
X6036428Y-1798857D01*
X6050714Y-1770286D01*
X6065000Y-1727428D01*
X6079286Y-1656000D01*
X6079286Y-1598857D01*
X6065000Y-1527428D01*
X6050714Y-1484571D01*
X6036428Y-1456000D01*
X6007857Y-1413143D01*
X5993571Y-1398857D01*
X-285000Y-1967000D02*
X-285000Y-2037000D01*
X-320000Y-2002000D02*
X-250000Y-2002000D01*
X93571Y-1837714D02*
X122143Y-1837714D01*
X150714Y-1852000D01*
X165000Y-1866286D01*
X179286Y-1894857D01*
X193571Y-1952000D01*
X193571Y-2023428D01*
X179286Y-2080571D01*
X165000Y-2109143D01*
X150714Y-2123429D01*
X122143Y-2137714D01*
X93571Y-2137714D01*
X65000Y-2123429D01*
X50714Y-2109143D01*
X36429Y-2080571D01*
X22143Y-2023428D01*
X22143Y-1952000D01*
X36429Y-1894857D01*
X50714Y-1866286D01*
X65000Y-1852000D01*
X93571Y-1837714D01*
X322143Y-2109143D02*
X336429Y-2123429D01*
X322143Y-2137714D01*
X307857Y-2123429D01*
X322143Y-2109143D01*
X322143Y-2137714D01*
X436428Y-1837714D02*
X636429Y-1837714D01*
X507857Y-2137714D01*
X807857Y-1837714D02*
X836428Y-1837714D01*
X865000Y-1852000D01*
X879286Y-1866286D01*
X893571Y-1894857D01*
X907857Y-1952000D01*
X907857Y-2023428D01*
X893571Y-2080571D01*
X879286Y-2109143D01*
X865000Y-2123429D01*
X836428Y-2137714D01*
X807857Y-2137714D01*
X779286Y-2123429D01*
X765000Y-2109143D01*
X750714Y-2080571D01*
X736428Y-2023428D01*
X736428Y-1952000D01*
X750714Y-1894857D01*
X765000Y-1866286D01*
X779286Y-1852000D01*
X807857Y-1837714D01*
X1036428Y-2137714D02*
X1036428Y-1937714D01*
X1036428Y-1966286D02*
X1050714Y-1952000D01*
X1079286Y-1937714D01*
X1122143Y-1937714D01*
X1150714Y-1952000D01*
X1165000Y-1980571D01*
X1165000Y-2137714D01*
X1165000Y-1980571D02*
X1179286Y-1952000D01*
X1207857Y-1937714D01*
X1250714Y-1937714D01*
X1279286Y-1952000D01*
X1293571Y-1980571D01*
X1293571Y-2137714D01*
X1436428Y-2137714D02*
X1436428Y-1937714D01*
X1436428Y-1966286D02*
X1450714Y-1952000D01*
X1479286Y-1937714D01*
X1522143Y-1937714D01*
X1550714Y-1952000D01*
X1565000Y-1980571D01*
X1565000Y-2137714D01*
X1565000Y-1980571D02*
X1579286Y-1952000D01*
X1607857Y-1937714D01*
X1650714Y-1937714D01*
X1679286Y-1952000D01*
X1693571Y-1980571D01*
X1693571Y-2137714D01*
X2279286Y-1823428D02*
X2022143Y-2209143D01*
X2665000Y-1837714D02*
X2693571Y-1837714D01*
X2722143Y-1852000D01*
X2736429Y-1866286D01*
X2750714Y-1894857D01*
X2765000Y-1952000D01*
X2765000Y-2023428D01*
X2750714Y-2080571D01*
X2736429Y-2109143D01*
X2722143Y-2123429D01*
X2693571Y-2137714D01*
X2665000Y-2137714D01*
X2636429Y-2123429D01*
X2622143Y-2109143D01*
X2607857Y-2080571D01*
X2593571Y-2023428D01*
X2593571Y-1952000D01*
X2607857Y-1894857D01*
X2622143Y-1866286D01*
X2636429Y-1852000D01*
X2665000Y-1837714D01*
X2893571Y-2109143D02*
X2907857Y-2123429D01*
X2893571Y-2137714D01*
X2879286Y-2123429D01*
X2893571Y-2109143D01*
X2893571Y-2137714D01*
X3093571Y-1837714D02*
X3122143Y-1837714D01*
X3150714Y-1852000D01*
X3165000Y-1866286D01*
X3179286Y-1894857D01*
X3193571Y-1952000D01*
X3193571Y-2023428D01*
X3179286Y-2080571D01*
X3165000Y-2109143D01*
X3150714Y-2123429D01*
X3122143Y-2137714D01*
X3093571Y-2137714D01*
X3065000Y-2123429D01*
X3050714Y-2109143D01*
X3036428Y-2080571D01*
X3022143Y-2023428D01*
X3022143Y-1952000D01*
X3036428Y-1894857D01*
X3050714Y-1866286D01*
X3065000Y-1852000D01*
X3093571Y-1837714D01*
X3307857Y-1866286D02*
X3322143Y-1852000D01*
X3350714Y-1837714D01*
X3422143Y-1837714D01*
X3450714Y-1852000D01*
X3465000Y-1866286D01*
X3479286Y-1894857D01*
X3479286Y-1923428D01*
X3465000Y-1966286D01*
X3293571Y-2137714D01*
X3479286Y-2137714D01*
X3650714Y-1966286D02*
X3622143Y-1952000D01*
X3607857Y-1937714D01*
X3593571Y-1909143D01*
X3593571Y-1894857D01*
X3607857Y-1866286D01*
X3622143Y-1852000D01*
X3650714Y-1837714D01*
X3707857Y-1837714D01*
X3736428Y-1852000D01*
X3750714Y-1866286D01*
X3765000Y-1894857D01*
X3765000Y-1909143D01*
X3750714Y-1937714D01*
X3736428Y-1952000D01*
X3707857Y-1966286D01*
X3650714Y-1966286D01*
X3622143Y-1980571D01*
X3607857Y-1994857D01*
X3593571Y-2023428D01*
X3593571Y-2080571D01*
X3607857Y-2109143D01*
X3622143Y-2123429D01*
X3650714Y-2137714D01*
X3707857Y-2137714D01*
X3736428Y-2123429D01*
X3750714Y-2109143D01*
X3765000Y-2080571D01*
X3765000Y-2023428D01*
X3750714Y-1994857D01*
X3736428Y-1980571D01*
X3707857Y-1966286D01*
X3879286Y-1837714D02*
X3879286Y-1894857D01*
X3993571Y-1837714D02*
X3993571Y-1894857D01*
X4436429Y-2252000D02*
X4422143Y-2237714D01*
X4393571Y-2194857D01*
X4379286Y-2166286D01*
X4365000Y-2123429D01*
X4350714Y-2052000D01*
X4350714Y-1994857D01*
X4365000Y-1923428D01*
X4379286Y-1880571D01*
X4393571Y-1852000D01*
X4422143Y-1809143D01*
X4436429Y-1794857D01*
X4522143Y-1837714D02*
X4722143Y-1837714D01*
X4593571Y-2137714D01*
X5065000Y-2137714D02*
X5065000Y-1837714D01*
X5193571Y-2137714D02*
X5193571Y-1980571D01*
X5179286Y-1952000D01*
X5150714Y-1937714D01*
X5107857Y-1937714D01*
X5079286Y-1952000D01*
X5065000Y-1966286D01*
X5379286Y-2137714D02*
X5350714Y-2123429D01*
X5336429Y-2109143D01*
X5322143Y-2080571D01*
X5322143Y-1994857D01*
X5336429Y-1966286D01*
X5350714Y-1952000D01*
X5379286Y-1937714D01*
X5422143Y-1937714D01*
X5450714Y-1952000D01*
X5465000Y-1966286D01*
X5479286Y-1994857D01*
X5479286Y-2080571D01*
X5465000Y-2109143D01*
X5450714Y-2123429D01*
X5422143Y-2137714D01*
X5379286Y-2137714D01*
X5650714Y-2137714D02*
X5622143Y-2123429D01*
X5607857Y-2094857D01*
X5607857Y-1837714D01*
X5879286Y-2123429D02*
X5850714Y-2137714D01*
X5793571Y-2137714D01*
X5765000Y-2123429D01*
X5750714Y-2094857D01*
X5750714Y-1980571D01*
X5765000Y-1952000D01*
X5793571Y-1937714D01*
X5850714Y-1937714D01*
X5879286Y-1952000D01*
X5893571Y-1980571D01*
X5893571Y-2009143D01*
X5750714Y-2037714D01*
X6007857Y-2123429D02*
X6036428Y-2137714D01*
X6093571Y-2137714D01*
X6122143Y-2123429D01*
X6136428Y-2094857D01*
X6136428Y-2080571D01*
X6122143Y-2052000D01*
X6093571Y-2037714D01*
X6050714Y-2037714D01*
X6022143Y-2023428D01*
X6007857Y-1994857D01*
X6007857Y-1980571D01*
X6022143Y-1952000D01*
X6050714Y-1937714D01*
X6093571Y-1937714D01*
X6122143Y-1952000D01*
X6236428Y-2252000D02*
X6250714Y-2237714D01*
X6279286Y-2194857D01*
X6293571Y-2166286D01*
X6307857Y-2123429D01*
X6322143Y-2052000D01*
X6322143Y-1994857D01*
X6307857Y-1923428D01*
X6293571Y-1880571D01*
X6279286Y-1852000D01*
X6250714Y-1809143D01*
X6236428Y-1794857D01*
X-261715Y-2426285D02*
X-261715Y-2369716D01*
X-318285Y-2369716D01*
X-318285Y-2426285D01*
X-261715Y-2426285D01*
X93571Y-2233714D02*
X122143Y-2233714D01*
X150714Y-2248000D01*
X165000Y-2262286D01*
X179286Y-2290857D01*
X193571Y-2348000D01*
X193571Y-2419429D01*
X179286Y-2476571D01*
X165000Y-2505143D01*
X150714Y-2519429D01*
X122143Y-2533714D01*
X93571Y-2533714D01*
X65000Y-2519429D01*
X50714Y-2505143D01*
X36429Y-2476571D01*
X22143Y-2419429D01*
X22143Y-2348000D01*
X36429Y-2290857D01*
X50714Y-2262286D01*
X65000Y-2248000D01*
X93571Y-2233714D01*
X322143Y-2505143D02*
X336429Y-2519429D01*
X322143Y-2533714D01*
X307857Y-2519429D01*
X322143Y-2505143D01*
X322143Y-2533714D01*
X507857Y-2362286D02*
X479286Y-2348000D01*
X465000Y-2333714D01*
X450714Y-2305143D01*
X450714Y-2290857D01*
X465000Y-2262286D01*
X479286Y-2248000D01*
X507857Y-2233714D01*
X565000Y-2233714D01*
X593571Y-2248000D01*
X607857Y-2262286D01*
X622143Y-2290857D01*
X622143Y-2305143D01*
X607857Y-2333714D01*
X593571Y-2348000D01*
X565000Y-2362286D01*
X507857Y-2362286D01*
X479286Y-2376571D01*
X465000Y-2390857D01*
X450714Y-2419429D01*
X450714Y-2476571D01*
X465000Y-2505143D01*
X479286Y-2519429D01*
X507857Y-2533714D01*
X565000Y-2533714D01*
X593571Y-2519429D01*
X607857Y-2505143D01*
X622143Y-2476571D01*
X622143Y-2419429D01*
X607857Y-2390857D01*
X593571Y-2376571D01*
X565000Y-2362286D01*
X807857Y-2233714D02*
X836428Y-2233714D01*
X865000Y-2248000D01*
X879286Y-2262286D01*
X893571Y-2290857D01*
X907857Y-2348000D01*
X907857Y-2419429D01*
X893571Y-2476571D01*
X879286Y-2505143D01*
X865000Y-2519429D01*
X836428Y-2533714D01*
X807857Y-2533714D01*
X779286Y-2519429D01*
X765000Y-2505143D01*
X750714Y-2476571D01*
X736428Y-2419429D01*
X736428Y-2348000D01*
X750714Y-2290857D01*
X765000Y-2262286D01*
X779286Y-2248000D01*
X807857Y-2233714D01*
X1036428Y-2533714D02*
X1036428Y-2333714D01*
X1036428Y-2362286D02*
X1050714Y-2348000D01*
X1079286Y-2333714D01*
X1122143Y-2333714D01*
X1150714Y-2348000D01*
X1165000Y-2376571D01*
X1165000Y-2533714D01*
X1165000Y-2376571D02*
X1179286Y-2348000D01*
X1207857Y-2333714D01*
X1250714Y-2333714D01*
X1279286Y-2348000D01*
X1293571Y-2376571D01*
X1293571Y-2533714D01*
X1436428Y-2533714D02*
X1436428Y-2333714D01*
X1436428Y-2362286D02*
X1450714Y-2348000D01*
X1479286Y-2333714D01*
X1522143Y-2333714D01*
X1550714Y-2348000D01*
X1565000Y-2376571D01*
X1565000Y-2533714D01*
X1565000Y-2376571D02*
X1579286Y-2348000D01*
X1607857Y-2333714D01*
X1650714Y-2333714D01*
X1679286Y-2348000D01*
X1693571Y-2376571D01*
X1693571Y-2533714D01*
X2279286Y-2219429D02*
X2022143Y-2605143D01*
X2665000Y-2233714D02*
X2693571Y-2233714D01*
X2722143Y-2248000D01*
X2736429Y-2262286D01*
X2750714Y-2290857D01*
X2765000Y-2348000D01*
X2765000Y-2419429D01*
X2750714Y-2476571D01*
X2736429Y-2505143D01*
X2722143Y-2519429D01*
X2693571Y-2533714D01*
X2665000Y-2533714D01*
X2636429Y-2519429D01*
X2622143Y-2505143D01*
X2607857Y-2476571D01*
X2593571Y-2419429D01*
X2593571Y-2348000D01*
X2607857Y-2290857D01*
X2622143Y-2262286D01*
X2636429Y-2248000D01*
X2665000Y-2233714D01*
X2893571Y-2505143D02*
X2907857Y-2519429D01*
X2893571Y-2533714D01*
X2879286Y-2519429D01*
X2893571Y-2505143D01*
X2893571Y-2533714D01*
X3093571Y-2233714D02*
X3122143Y-2233714D01*
X3150714Y-2248000D01*
X3165000Y-2262286D01*
X3179286Y-2290857D01*
X3193571Y-2348000D01*
X3193571Y-2419429D01*
X3179286Y-2476571D01*
X3165000Y-2505143D01*
X3150714Y-2519429D01*
X3122143Y-2533714D01*
X3093571Y-2533714D01*
X3065000Y-2519429D01*
X3050714Y-2505143D01*
X3036428Y-2476571D01*
X3022143Y-2419429D01*
X3022143Y-2348000D01*
X3036428Y-2290857D01*
X3050714Y-2262286D01*
X3065000Y-2248000D01*
X3093571Y-2233714D01*
X3293571Y-2233714D02*
X3479286Y-2233714D01*
X3379286Y-2348000D01*
X3422143Y-2348000D01*
X3450714Y-2362286D01*
X3465000Y-2376571D01*
X3479286Y-2405143D01*
X3479286Y-2476571D01*
X3465000Y-2505143D01*
X3450714Y-2519429D01*
X3422143Y-2533714D01*
X3336428Y-2533714D01*
X3307857Y-2519429D01*
X3293571Y-2505143D01*
X3765000Y-2533714D02*
X3593571Y-2533714D01*
X3679286Y-2533714D02*
X3679286Y-2233714D01*
X3650714Y-2276571D01*
X3622143Y-2305143D01*
X3593571Y-2319429D01*
X3879286Y-2233714D02*
X3879286Y-2290857D01*
X3993571Y-2233714D02*
X3993571Y-2290857D01*
X4436429Y-2648000D02*
X4422143Y-2633714D01*
X4393571Y-2590857D01*
X4379286Y-2562286D01*
X4365000Y-2519429D01*
X4350714Y-2448000D01*
X4350714Y-2390857D01*
X4365000Y-2319429D01*
X4379286Y-2276571D01*
X4393571Y-2248000D01*
X4422143Y-2205143D01*
X4436429Y-2190857D01*
X4522143Y-2233714D02*
X4722143Y-2233714D01*
X4593571Y-2533714D01*
X4965000Y-2333714D02*
X4965000Y-2533714D01*
X4893571Y-2219429D02*
X4822143Y-2433714D01*
X5007857Y-2433714D01*
X5350714Y-2533714D02*
X5350714Y-2233714D01*
X5479286Y-2533714D02*
X5479286Y-2376571D01*
X5465000Y-2348000D01*
X5436429Y-2333714D01*
X5393571Y-2333714D01*
X5365000Y-2348000D01*
X5350714Y-2362286D01*
X5665000Y-2533714D02*
X5636428Y-2519429D01*
X5622143Y-2505143D01*
X5607857Y-2476571D01*
X5607857Y-2390857D01*
X5622143Y-2362286D01*
X5636428Y-2348000D01*
X5665000Y-2333714D01*
X5707857Y-2333714D01*
X5736428Y-2348000D01*
X5750714Y-2362286D01*
X5765000Y-2390857D01*
X5765000Y-2476571D01*
X5750714Y-2505143D01*
X5736428Y-2519429D01*
X5707857Y-2533714D01*
X5665000Y-2533714D01*
X5936428Y-2533714D02*
X5907857Y-2519429D01*
X5893571Y-2490857D01*
X5893571Y-2233714D01*
X6165000Y-2519429D02*
X6136428Y-2533714D01*
X6079286Y-2533714D01*
X6050714Y-2519429D01*
X6036428Y-2490857D01*
X6036428Y-2376571D01*
X6050714Y-2348000D01*
X6079286Y-2333714D01*
X6136428Y-2333714D01*
X6165000Y-2348000D01*
X6179286Y-2376571D01*
X6179286Y-2405143D01*
X6036428Y-2433714D01*
X6293571Y-2519429D02*
X6322143Y-2533714D01*
X6379286Y-2533714D01*
X6407857Y-2519429D01*
X6422143Y-2490857D01*
X6422143Y-2476571D01*
X6407857Y-2448000D01*
X6379286Y-2433714D01*
X6336428Y-2433714D01*
X6307857Y-2419429D01*
X6293571Y-2390857D01*
X6293571Y-2376571D01*
X6307857Y-2348000D01*
X6336428Y-2333714D01*
X6379286Y-2333714D01*
X6407857Y-2348000D01*
X6522143Y-2648000D02*
X6536428Y-2633714D01*
X6565000Y-2590857D01*
X6579286Y-2562286D01*
X6593571Y-2519429D01*
X6607857Y-2448000D01*
X6607857Y-2390857D01*
X6593571Y-2319429D01*
X6579286Y-2276571D01*
X6565000Y-2248000D01*
X6536428Y-2205143D01*
X6522143Y-2190857D01*
X-300000Y-2844000D02*
X-250000Y-2794000D01*
X-300000Y-2744000D01*
X-350000Y-2794000D01*
X-300000Y-2844000D01*
X193571Y-2929714D02*
X22143Y-2929714D01*
X107857Y-2929714D02*
X107857Y-2629714D01*
X79286Y-2672571D01*
X50714Y-2701143D01*
X22143Y-2715429D01*
X322143Y-2901143D02*
X336429Y-2915428D01*
X322143Y-2929714D01*
X307857Y-2915428D01*
X322143Y-2901143D01*
X322143Y-2929714D01*
X522143Y-2629714D02*
X550714Y-2629714D01*
X579286Y-2644000D01*
X593571Y-2658286D01*
X607857Y-2686857D01*
X622143Y-2744000D01*
X622143Y-2815428D01*
X607857Y-2872571D01*
X593571Y-2901143D01*
X579286Y-2915428D01*
X550714Y-2929714D01*
X522143Y-2929714D01*
X493571Y-2915428D01*
X479286Y-2901143D01*
X465000Y-2872571D01*
X450714Y-2815428D01*
X450714Y-2744000D01*
X465000Y-2686857D01*
X479286Y-2658286D01*
X493571Y-2644000D01*
X522143Y-2629714D01*
X807857Y-2629714D02*
X836428Y-2629714D01*
X865000Y-2644000D01*
X879286Y-2658286D01*
X893571Y-2686857D01*
X907857Y-2744000D01*
X907857Y-2815428D01*
X893571Y-2872571D01*
X879286Y-2901143D01*
X865000Y-2915428D01*
X836428Y-2929714D01*
X807857Y-2929714D01*
X779286Y-2915428D01*
X765000Y-2901143D01*
X750714Y-2872571D01*
X736428Y-2815428D01*
X736428Y-2744000D01*
X750714Y-2686857D01*
X765000Y-2658286D01*
X779286Y-2644000D01*
X807857Y-2629714D01*
X1036428Y-2929714D02*
X1036428Y-2729714D01*
X1036428Y-2758286D02*
X1050714Y-2744000D01*
X1079286Y-2729714D01*
X1122143Y-2729714D01*
X1150714Y-2744000D01*
X1165000Y-2772571D01*
X1165000Y-2929714D01*
X1165000Y-2772571D02*
X1179286Y-2744000D01*
X1207857Y-2729714D01*
X1250714Y-2729714D01*
X1279286Y-2744000D01*
X1293571Y-2772571D01*
X1293571Y-2929714D01*
X1436428Y-2929714D02*
X1436428Y-2729714D01*
X1436428Y-2758286D02*
X1450714Y-2744000D01*
X1479286Y-2729714D01*
X1522143Y-2729714D01*
X1550714Y-2744000D01*
X1565000Y-2772571D01*
X1565000Y-2929714D01*
X1565000Y-2772571D02*
X1579286Y-2744000D01*
X1607857Y-2729714D01*
X1650714Y-2729714D01*
X1679286Y-2744000D01*
X1693571Y-2772571D01*
X1693571Y-2929714D01*
X2279286Y-2615429D02*
X2022143Y-3001143D01*
X2665000Y-2629714D02*
X2693571Y-2629714D01*
X2722143Y-2644000D01*
X2736429Y-2658286D01*
X2750714Y-2686857D01*
X2765000Y-2744000D01*
X2765000Y-2815428D01*
X2750714Y-2872571D01*
X2736429Y-2901143D01*
X2722143Y-2915428D01*
X2693571Y-2929714D01*
X2665000Y-2929714D01*
X2636429Y-2915428D01*
X2622143Y-2901143D01*
X2607857Y-2872571D01*
X2593571Y-2815428D01*
X2593571Y-2744000D01*
X2607857Y-2686857D01*
X2622143Y-2658286D01*
X2636429Y-2644000D01*
X2665000Y-2629714D01*
X2893571Y-2901143D02*
X2907857Y-2915428D01*
X2893571Y-2929714D01*
X2879286Y-2915428D01*
X2893571Y-2901143D01*
X2893571Y-2929714D01*
X3093571Y-2629714D02*
X3122143Y-2629714D01*
X3150714Y-2644000D01*
X3165000Y-2658286D01*
X3179286Y-2686857D01*
X3193571Y-2744000D01*
X3193571Y-2815428D01*
X3179286Y-2872571D01*
X3165000Y-2901143D01*
X3150714Y-2915428D01*
X3122143Y-2929714D01*
X3093571Y-2929714D01*
X3065000Y-2915428D01*
X3050714Y-2901143D01*
X3036428Y-2872571D01*
X3022143Y-2815428D01*
X3022143Y-2744000D01*
X3036428Y-2686857D01*
X3050714Y-2658286D01*
X3065000Y-2644000D01*
X3093571Y-2629714D01*
X3293571Y-2629714D02*
X3479286Y-2629714D01*
X3379286Y-2744000D01*
X3422143Y-2744000D01*
X3450714Y-2758286D01*
X3465000Y-2772571D01*
X3479286Y-2801143D01*
X3479286Y-2872571D01*
X3465000Y-2901143D01*
X3450714Y-2915428D01*
X3422143Y-2929714D01*
X3336428Y-2929714D01*
X3307857Y-2915428D01*
X3293571Y-2901143D01*
X3622143Y-2929714D02*
X3679286Y-2929714D01*
X3707857Y-2915428D01*
X3722143Y-2901143D01*
X3750714Y-2858286D01*
X3765000Y-2801143D01*
X3765000Y-2686857D01*
X3750714Y-2658286D01*
X3736428Y-2644000D01*
X3707857Y-2629714D01*
X3650714Y-2629714D01*
X3622143Y-2644000D01*
X3607857Y-2658286D01*
X3593571Y-2686857D01*
X3593571Y-2758286D01*
X3607857Y-2786857D01*
X3622143Y-2801143D01*
X3650714Y-2815428D01*
X3707857Y-2815428D01*
X3736428Y-2801143D01*
X3750714Y-2786857D01*
X3765000Y-2758286D01*
X3879286Y-2629714D02*
X3879286Y-2686857D01*
X3993571Y-2629714D02*
X3993571Y-2686857D01*
X4436429Y-3044000D02*
X4422143Y-3029714D01*
X4393571Y-2986857D01*
X4379286Y-2958286D01*
X4365000Y-2915428D01*
X4350714Y-2844000D01*
X4350714Y-2786857D01*
X4365000Y-2715429D01*
X4379286Y-2672571D01*
X4393571Y-2644000D01*
X4422143Y-2601143D01*
X4436429Y-2586857D01*
X4607857Y-2629714D02*
X4636429Y-2629714D01*
X4665000Y-2644000D01*
X4679286Y-2658286D01*
X4693571Y-2686857D01*
X4707857Y-2744000D01*
X4707857Y-2815428D01*
X4693571Y-2872571D01*
X4679286Y-2901143D01*
X4665000Y-2915428D01*
X4636429Y-2929714D01*
X4607857Y-2929714D01*
X4579286Y-2915428D01*
X4565000Y-2901143D01*
X4550714Y-2872571D01*
X4536429Y-2815428D01*
X4536429Y-2744000D01*
X4550714Y-2686857D01*
X4565000Y-2658286D01*
X4579286Y-2644000D01*
X4607857Y-2629714D01*
X5065000Y-2929714D02*
X5065000Y-2629714D01*
X5193571Y-2929714D02*
X5193571Y-2772571D01*
X5179286Y-2744000D01*
X5150714Y-2729714D01*
X5107857Y-2729714D01*
X5079286Y-2744000D01*
X5065000Y-2758286D01*
X5379286Y-2929714D02*
X5350714Y-2915428D01*
X5336429Y-2901143D01*
X5322143Y-2872571D01*
X5322143Y-2786857D01*
X5336429Y-2758286D01*
X5350714Y-2744000D01*
X5379286Y-2729714D01*
X5422143Y-2729714D01*
X5450714Y-2744000D01*
X5465000Y-2758286D01*
X5479286Y-2786857D01*
X5479286Y-2872571D01*
X5465000Y-2901143D01*
X5450714Y-2915428D01*
X5422143Y-2929714D01*
X5379286Y-2929714D01*
X5650714Y-2929714D02*
X5622143Y-2915428D01*
X5607857Y-2886857D01*
X5607857Y-2629714D01*
X5879286Y-2915428D02*
X5850714Y-2929714D01*
X5793571Y-2929714D01*
X5765000Y-2915428D01*
X5750714Y-2886857D01*
X5750714Y-2772571D01*
X5765000Y-2744000D01*
X5793571Y-2729714D01*
X5850714Y-2729714D01*
X5879286Y-2744000D01*
X5893571Y-2772571D01*
X5893571Y-2801143D01*
X5750714Y-2829714D01*
X6007857Y-2915428D02*
X6036428Y-2929714D01*
X6093571Y-2929714D01*
X6122143Y-2915428D01*
X6136428Y-2886857D01*
X6136428Y-2872571D01*
X6122143Y-2844000D01*
X6093571Y-2829714D01*
X6050714Y-2829714D01*
X6022143Y-2815428D01*
X6007857Y-2786857D01*
X6007857Y-2772571D01*
X6022143Y-2744000D01*
X6050714Y-2729714D01*
X6093571Y-2729714D01*
X6122143Y-2744000D01*
X6493571Y-2815428D02*
X6722143Y-2815428D01*
X6607857Y-2929714D02*
X6607857Y-2701143D01*
X7065000Y-2629714D02*
X7250714Y-2629714D01*
X7150714Y-2744000D01*
X7193571Y-2744000D01*
X7222143Y-2758286D01*
X7236428Y-2772571D01*
X7250714Y-2801143D01*
X7250714Y-2872571D01*
X7236428Y-2901143D01*
X7222143Y-2915428D01*
X7193571Y-2929714D01*
X7107857Y-2929714D01*
X7079286Y-2915428D01*
X7065000Y-2901143D01*
X7593571Y-2915428D02*
X7622143Y-2929714D01*
X7679286Y-2929714D01*
X7707857Y-2915428D01*
X7722143Y-2886857D01*
X7722143Y-2872571D01*
X7707857Y-2844000D01*
X7679286Y-2829714D01*
X7636428Y-2829714D01*
X7607857Y-2815428D01*
X7593571Y-2786857D01*
X7593571Y-2772571D01*
X7607857Y-2744000D01*
X7636428Y-2729714D01*
X7679286Y-2729714D01*
X7707857Y-2744000D01*
X7893571Y-2929714D02*
X7865000Y-2915428D01*
X7850714Y-2886857D01*
X7850714Y-2629714D01*
X8050714Y-2929714D02*
X8022143Y-2915428D01*
X8007857Y-2901143D01*
X7993571Y-2872571D01*
X7993571Y-2786857D01*
X8007857Y-2758286D01*
X8022143Y-2744000D01*
X8050714Y-2729714D01*
X8093571Y-2729714D01*
X8122143Y-2744000D01*
X8136428Y-2758286D01*
X8150714Y-2786857D01*
X8150714Y-2872571D01*
X8136428Y-2901143D01*
X8122143Y-2915428D01*
X8093571Y-2929714D01*
X8050714Y-2929714D01*
X8236428Y-2729714D02*
X8350714Y-2729714D01*
X8279286Y-2629714D02*
X8279286Y-2886857D01*
X8293571Y-2915428D01*
X8322143Y-2929714D01*
X8350714Y-2929714D01*
X8436429Y-2915428D02*
X8465000Y-2929714D01*
X8522143Y-2929714D01*
X8550714Y-2915428D01*
X8565000Y-2886857D01*
X8565000Y-2872571D01*
X8550714Y-2844000D01*
X8522143Y-2829714D01*
X8479286Y-2829714D01*
X8450714Y-2815428D01*
X8436429Y-2786857D01*
X8436429Y-2772571D01*
X8450714Y-2744000D01*
X8479286Y-2729714D01*
X8522143Y-2729714D01*
X8550714Y-2744000D01*
X8665000Y-3044000D02*
X8679286Y-3029714D01*
X8707857Y-2986857D01*
X8722143Y-2958286D01*
X8736429Y-2915428D01*
X8750714Y-2844000D01*
X8750714Y-2786857D01*
X8736429Y-2715429D01*
X8722143Y-2672571D01*
X8707857Y-2644000D01*
X8679286Y-2601143D01*
X8665000Y-2586857D01*
X-360000Y-3135000D02*
X-250000Y-3245000D01*
X-250000Y-3135000D02*
X-360000Y-3245000D01*
X-250000Y-3190000D02*
G75*
G03*
X-250000Y-3190000I-55000J0D01*
G01*
X193571Y-3325714D02*
X22143Y-3325714D01*
X107857Y-3325714D02*
X107857Y-3025714D01*
X79286Y-3068571D01*
X50714Y-3097143D01*
X22143Y-3111428D01*
X322143Y-3297143D02*
X336429Y-3311428D01*
X322143Y-3325714D01*
X307857Y-3311428D01*
X322143Y-3297143D01*
X322143Y-3325714D01*
X622143Y-3325714D02*
X450714Y-3325714D01*
X536429Y-3325714D02*
X536429Y-3025714D01*
X507857Y-3068571D01*
X479286Y-3097143D01*
X450714Y-3111428D01*
X807857Y-3025714D02*
X836428Y-3025714D01*
X865000Y-3040000D01*
X879286Y-3054286D01*
X893571Y-3082857D01*
X907857Y-3140000D01*
X907857Y-3211428D01*
X893571Y-3268571D01*
X879286Y-3297143D01*
X865000Y-3311428D01*
X836428Y-3325714D01*
X807857Y-3325714D01*
X779286Y-3311428D01*
X765000Y-3297143D01*
X750714Y-3268571D01*
X736428Y-3211428D01*
X736428Y-3140000D01*
X750714Y-3082857D01*
X765000Y-3054286D01*
X779286Y-3040000D01*
X807857Y-3025714D01*
X1036428Y-3325714D02*
X1036428Y-3125714D01*
X1036428Y-3154286D02*
X1050714Y-3140000D01*
X1079286Y-3125714D01*
X1122143Y-3125714D01*
X1150714Y-3140000D01*
X1165000Y-3168571D01*
X1165000Y-3325714D01*
X1165000Y-3168571D02*
X1179286Y-3140000D01*
X1207857Y-3125714D01*
X1250714Y-3125714D01*
X1279286Y-3140000D01*
X1293571Y-3168571D01*
X1293571Y-3325714D01*
X1436428Y-3325714D02*
X1436428Y-3125714D01*
X1436428Y-3154286D02*
X1450714Y-3140000D01*
X1479286Y-3125714D01*
X1522143Y-3125714D01*
X1550714Y-3140000D01*
X1565000Y-3168571D01*
X1565000Y-3325714D01*
X1565000Y-3168571D02*
X1579286Y-3140000D01*
X1607857Y-3125714D01*
X1650714Y-3125714D01*
X1679286Y-3140000D01*
X1693571Y-3168571D01*
X1693571Y-3325714D01*
X2279286Y-3011428D02*
X2022143Y-3397143D01*
X2665000Y-3025714D02*
X2693571Y-3025714D01*
X2722143Y-3040000D01*
X2736429Y-3054286D01*
X2750714Y-3082857D01*
X2765000Y-3140000D01*
X2765000Y-3211428D01*
X2750714Y-3268571D01*
X2736429Y-3297143D01*
X2722143Y-3311428D01*
X2693571Y-3325714D01*
X2665000Y-3325714D01*
X2636429Y-3311428D01*
X2622143Y-3297143D01*
X2607857Y-3268571D01*
X2593571Y-3211428D01*
X2593571Y-3140000D01*
X2607857Y-3082857D01*
X2622143Y-3054286D01*
X2636429Y-3040000D01*
X2665000Y-3025714D01*
X2893571Y-3297143D02*
X2907857Y-3311428D01*
X2893571Y-3325714D01*
X2879286Y-3311428D01*
X2893571Y-3297143D01*
X2893571Y-3325714D01*
X3093571Y-3025714D02*
X3122143Y-3025714D01*
X3150714Y-3040000D01*
X3165000Y-3054286D01*
X3179286Y-3082857D01*
X3193571Y-3140000D01*
X3193571Y-3211428D01*
X3179286Y-3268571D01*
X3165000Y-3297143D01*
X3150714Y-3311428D01*
X3122143Y-3325714D01*
X3093571Y-3325714D01*
X3065000Y-3311428D01*
X3050714Y-3297143D01*
X3036428Y-3268571D01*
X3022143Y-3211428D01*
X3022143Y-3140000D01*
X3036428Y-3082857D01*
X3050714Y-3054286D01*
X3065000Y-3040000D01*
X3093571Y-3025714D01*
X3450714Y-3125714D02*
X3450714Y-3325714D01*
X3379286Y-3011428D02*
X3307857Y-3225714D01*
X3493571Y-3225714D01*
X3579286Y-3025714D02*
X3765000Y-3025714D01*
X3665000Y-3140000D01*
X3707857Y-3140000D01*
X3736428Y-3154286D01*
X3750714Y-3168571D01*
X3765000Y-3197143D01*
X3765000Y-3268571D01*
X3750714Y-3297143D01*
X3736428Y-3311428D01*
X3707857Y-3325714D01*
X3622143Y-3325714D01*
X3593571Y-3311428D01*
X3579286Y-3297143D01*
X3879286Y-3025714D02*
X3879286Y-3082857D01*
X3993571Y-3025714D02*
X3993571Y-3082857D01*
X4436429Y-3440000D02*
X4422143Y-3425714D01*
X4393571Y-3382857D01*
X4379286Y-3354286D01*
X4365000Y-3311428D01*
X4350714Y-3240000D01*
X4350714Y-3182857D01*
X4365000Y-3111428D01*
X4379286Y-3068571D01*
X4393571Y-3040000D01*
X4422143Y-2997143D01*
X4436429Y-2982857D01*
X4707857Y-3325714D02*
X4536429Y-3325714D01*
X4622143Y-3325714D02*
X4622143Y-3025714D01*
X4593571Y-3068571D01*
X4565000Y-3097143D01*
X4536429Y-3111428D01*
X4822143Y-3054286D02*
X4836429Y-3040000D01*
X4865000Y-3025714D01*
X4936429Y-3025714D01*
X4965000Y-3040000D01*
X4979286Y-3054286D01*
X4993571Y-3082857D01*
X4993571Y-3111428D01*
X4979286Y-3154286D01*
X4807857Y-3325714D01*
X4993571Y-3325714D01*
X5350714Y-3325714D02*
X5350714Y-3025714D01*
X5479286Y-3325714D02*
X5479286Y-3168571D01*
X5465000Y-3140000D01*
X5436429Y-3125714D01*
X5393571Y-3125714D01*
X5365000Y-3140000D01*
X5350714Y-3154286D01*
X5665000Y-3325714D02*
X5636428Y-3311428D01*
X5622143Y-3297143D01*
X5607857Y-3268571D01*
X5607857Y-3182857D01*
X5622143Y-3154286D01*
X5636428Y-3140000D01*
X5665000Y-3125714D01*
X5707857Y-3125714D01*
X5736428Y-3140000D01*
X5750714Y-3154286D01*
X5765000Y-3182857D01*
X5765000Y-3268571D01*
X5750714Y-3297143D01*
X5736428Y-3311428D01*
X5707857Y-3325714D01*
X5665000Y-3325714D01*
X5936428Y-3325714D02*
X5907857Y-3311428D01*
X5893571Y-3282857D01*
X5893571Y-3025714D01*
X6165000Y-3311428D02*
X6136428Y-3325714D01*
X6079286Y-3325714D01*
X6050714Y-3311428D01*
X6036428Y-3282857D01*
X6036428Y-3168571D01*
X6050714Y-3140000D01*
X6079286Y-3125714D01*
X6136428Y-3125714D01*
X6165000Y-3140000D01*
X6179286Y-3168571D01*
X6179286Y-3197143D01*
X6036428Y-3225714D01*
X6293571Y-3311428D02*
X6322143Y-3325714D01*
X6379286Y-3325714D01*
X6407857Y-3311428D01*
X6422143Y-3282857D01*
X6422143Y-3268571D01*
X6407857Y-3240000D01*
X6379286Y-3225714D01*
X6336428Y-3225714D01*
X6307857Y-3211428D01*
X6293571Y-3182857D01*
X6293571Y-3168571D01*
X6307857Y-3140000D01*
X6336428Y-3125714D01*
X6379286Y-3125714D01*
X6407857Y-3140000D01*
X6522143Y-3440000D02*
X6536428Y-3425714D01*
X6565000Y-3382857D01*
X6579286Y-3354286D01*
X6593571Y-3311428D01*
X6607857Y-3240000D01*
X6607857Y-3182857D01*
X6593571Y-3111428D01*
X6579286Y-3068571D01*
X6565000Y-3040000D01*
X6536428Y-2997143D01*
X6522143Y-2982857D01*
X-377000Y-3522500D02*
X-250000Y-3649500D01*
X-250000Y-3522500D02*
X-377000Y-3649500D01*
X-313500Y-3522500D02*
X-313500Y-3649500D01*
X-377000Y-3586000D02*
X-250000Y-3586000D01*
X193571Y-3721714D02*
X22143Y-3721714D01*
X107857Y-3721714D02*
X107857Y-3421714D01*
X79286Y-3464571D01*
X50714Y-3493143D01*
X22143Y-3507428D01*
X322143Y-3693143D02*
X336429Y-3707428D01*
X322143Y-3721714D01*
X307857Y-3707428D01*
X322143Y-3693143D01*
X322143Y-3721714D01*
X450714Y-3450286D02*
X465000Y-3436000D01*
X493571Y-3421714D01*
X565000Y-3421714D01*
X593571Y-3436000D01*
X607857Y-3450286D01*
X622143Y-3478857D01*
X622143Y-3507428D01*
X607857Y-3550286D01*
X436428Y-3721714D01*
X622143Y-3721714D01*
X722143Y-3421714D02*
X922143Y-3421714D01*
X793571Y-3721714D01*
X1036428Y-3721714D02*
X1036428Y-3521714D01*
X1036428Y-3550286D02*
X1050714Y-3536000D01*
X1079286Y-3521714D01*
X1122143Y-3521714D01*
X1150714Y-3536000D01*
X1165000Y-3564571D01*
X1165000Y-3721714D01*
X1165000Y-3564571D02*
X1179286Y-3536000D01*
X1207857Y-3521714D01*
X1250714Y-3521714D01*
X1279286Y-3536000D01*
X1293571Y-3564571D01*
X1293571Y-3721714D01*
X1436428Y-3721714D02*
X1436428Y-3521714D01*
X1436428Y-3550286D02*
X1450714Y-3536000D01*
X1479286Y-3521714D01*
X1522143Y-3521714D01*
X1550714Y-3536000D01*
X1565000Y-3564571D01*
X1565000Y-3721714D01*
X1565000Y-3564571D02*
X1579286Y-3536000D01*
X1607857Y-3521714D01*
X1650714Y-3521714D01*
X1679286Y-3536000D01*
X1693571Y-3564571D01*
X1693571Y-3721714D01*
X2279286Y-3407428D02*
X2022143Y-3793143D01*
X2665000Y-3421714D02*
X2693571Y-3421714D01*
X2722143Y-3436000D01*
X2736429Y-3450286D01*
X2750714Y-3478857D01*
X2765000Y-3536000D01*
X2765000Y-3607428D01*
X2750714Y-3664571D01*
X2736429Y-3693143D01*
X2722143Y-3707428D01*
X2693571Y-3721714D01*
X2665000Y-3721714D01*
X2636429Y-3707428D01*
X2622143Y-3693143D01*
X2607857Y-3664571D01*
X2593571Y-3607428D01*
X2593571Y-3536000D01*
X2607857Y-3478857D01*
X2622143Y-3450286D01*
X2636429Y-3436000D01*
X2665000Y-3421714D01*
X2893571Y-3693143D02*
X2907857Y-3707428D01*
X2893571Y-3721714D01*
X2879286Y-3707428D01*
X2893571Y-3693143D01*
X2893571Y-3721714D01*
X3093571Y-3421714D02*
X3122143Y-3421714D01*
X3150714Y-3436000D01*
X3165000Y-3450286D01*
X3179286Y-3478857D01*
X3193571Y-3536000D01*
X3193571Y-3607428D01*
X3179286Y-3664571D01*
X3165000Y-3693143D01*
X3150714Y-3707428D01*
X3122143Y-3721714D01*
X3093571Y-3721714D01*
X3065000Y-3707428D01*
X3050714Y-3693143D01*
X3036428Y-3664571D01*
X3022143Y-3607428D01*
X3022143Y-3536000D01*
X3036428Y-3478857D01*
X3050714Y-3450286D01*
X3065000Y-3436000D01*
X3093571Y-3421714D01*
X3465000Y-3421714D02*
X3322143Y-3421714D01*
X3307857Y-3564571D01*
X3322143Y-3550286D01*
X3350714Y-3536000D01*
X3422143Y-3536000D01*
X3450714Y-3550286D01*
X3465000Y-3564571D01*
X3479286Y-3593143D01*
X3479286Y-3664571D01*
X3465000Y-3693143D01*
X3450714Y-3707428D01*
X3422143Y-3721714D01*
X3350714Y-3721714D01*
X3322143Y-3707428D01*
X3307857Y-3693143D01*
X3665000Y-3421714D02*
X3693571Y-3421714D01*
X3722143Y-3436000D01*
X3736428Y-3450286D01*
X3750714Y-3478857D01*
X3765000Y-3536000D01*
X3765000Y-3607428D01*
X3750714Y-3664571D01*
X3736428Y-3693143D01*
X3722143Y-3707428D01*
X3693571Y-3721714D01*
X3665000Y-3721714D01*
X3636428Y-3707428D01*
X3622143Y-3693143D01*
X3607857Y-3664571D01*
X3593571Y-3607428D01*
X3593571Y-3536000D01*
X3607857Y-3478857D01*
X3622143Y-3450286D01*
X3636428Y-3436000D01*
X3665000Y-3421714D01*
X3879286Y-3421714D02*
X3879286Y-3478857D01*
X3993571Y-3421714D02*
X3993571Y-3478857D01*
X4436429Y-3836000D02*
X4422143Y-3821714D01*
X4393571Y-3778857D01*
X4379286Y-3750286D01*
X4365000Y-3707428D01*
X4350714Y-3636000D01*
X4350714Y-3578857D01*
X4365000Y-3507428D01*
X4379286Y-3464571D01*
X4393571Y-3436000D01*
X4422143Y-3393143D01*
X4436429Y-3378857D01*
X4536429Y-3450286D02*
X4550714Y-3436000D01*
X4579286Y-3421714D01*
X4650714Y-3421714D01*
X4679286Y-3436000D01*
X4693571Y-3450286D01*
X4707857Y-3478857D01*
X4707857Y-3507428D01*
X4693571Y-3550286D01*
X4522143Y-3721714D01*
X4707857Y-3721714D01*
X5065000Y-3721714D02*
X5065000Y-3421714D01*
X5193571Y-3721714D02*
X5193571Y-3564571D01*
X5179286Y-3536000D01*
X5150714Y-3521714D01*
X5107857Y-3521714D01*
X5079286Y-3536000D01*
X5065000Y-3550286D01*
X5379286Y-3721714D02*
X5350714Y-3707428D01*
X5336429Y-3693143D01*
X5322143Y-3664571D01*
X5322143Y-3578857D01*
X5336429Y-3550286D01*
X5350714Y-3536000D01*
X5379286Y-3521714D01*
X5422143Y-3521714D01*
X5450714Y-3536000D01*
X5465000Y-3550286D01*
X5479286Y-3578857D01*
X5479286Y-3664571D01*
X5465000Y-3693143D01*
X5450714Y-3707428D01*
X5422143Y-3721714D01*
X5379286Y-3721714D01*
X5650714Y-3721714D02*
X5622143Y-3707428D01*
X5607857Y-3678857D01*
X5607857Y-3421714D01*
X5879286Y-3707428D02*
X5850714Y-3721714D01*
X5793571Y-3721714D01*
X5765000Y-3707428D01*
X5750714Y-3678857D01*
X5750714Y-3564571D01*
X5765000Y-3536000D01*
X5793571Y-3521714D01*
X5850714Y-3521714D01*
X5879286Y-3536000D01*
X5893571Y-3564571D01*
X5893571Y-3593143D01*
X5750714Y-3621714D01*
X6007857Y-3707428D02*
X6036428Y-3721714D01*
X6093571Y-3721714D01*
X6122143Y-3707428D01*
X6136428Y-3678857D01*
X6136428Y-3664571D01*
X6122143Y-3636000D01*
X6093571Y-3621714D01*
X6050714Y-3621714D01*
X6022143Y-3607428D01*
X6007857Y-3578857D01*
X6007857Y-3564571D01*
X6022143Y-3536000D01*
X6050714Y-3521714D01*
X6093571Y-3521714D01*
X6122143Y-3536000D01*
X6236428Y-3836000D02*
X6250714Y-3821714D01*
X6279286Y-3778857D01*
X6293571Y-3750286D01*
X6307857Y-3707428D01*
X6322143Y-3636000D01*
X6322143Y-3578857D01*
X6307857Y-3507428D01*
X6293571Y-3464571D01*
X6279286Y-3436000D01*
X6250714Y-3393143D01*
X6236428Y-3378857D01*
X-380000Y-3917000D02*
X-250000Y-4047000D01*
X-250000Y-3917000D02*
X-380000Y-4047000D01*
X-269038Y-4027962D02*
X-269038Y-3936038D01*
X-360962Y-3936038D01*
X-360962Y-4027962D01*
X-269038Y-4027962D01*
X193571Y-4117714D02*
X22143Y-4117714D01*
X107857Y-4117714D02*
X107857Y-3817714D01*
X79286Y-3860571D01*
X50714Y-3889143D01*
X22143Y-3903428D01*
X322143Y-4089143D02*
X336429Y-4103428D01*
X322143Y-4117714D01*
X307857Y-4103428D01*
X322143Y-4089143D01*
X322143Y-4117714D01*
X436428Y-3817714D02*
X622143Y-3817714D01*
X522143Y-3932000D01*
X565000Y-3932000D01*
X593571Y-3946286D01*
X607857Y-3960571D01*
X622143Y-3989143D01*
X622143Y-4060571D01*
X607857Y-4089143D01*
X593571Y-4103428D01*
X565000Y-4117714D01*
X479286Y-4117714D01*
X450714Y-4103428D01*
X436428Y-4089143D01*
X807857Y-3817714D02*
X836428Y-3817714D01*
X865000Y-3832000D01*
X879286Y-3846286D01*
X893571Y-3874857D01*
X907857Y-3932000D01*
X907857Y-4003428D01*
X893571Y-4060571D01*
X879286Y-4089143D01*
X865000Y-4103428D01*
X836428Y-4117714D01*
X807857Y-4117714D01*
X779286Y-4103428D01*
X765000Y-4089143D01*
X750714Y-4060571D01*
X736428Y-4003428D01*
X736428Y-3932000D01*
X750714Y-3874857D01*
X765000Y-3846286D01*
X779286Y-3832000D01*
X807857Y-3817714D01*
X1036428Y-4117714D02*
X1036428Y-3917714D01*
X1036428Y-3946286D02*
X1050714Y-3932000D01*
X1079286Y-3917714D01*
X1122143Y-3917714D01*
X1150714Y-3932000D01*
X1165000Y-3960571D01*
X1165000Y-4117714D01*
X1165000Y-3960571D02*
X1179286Y-3932000D01*
X1207857Y-3917714D01*
X1250714Y-3917714D01*
X1279286Y-3932000D01*
X1293571Y-3960571D01*
X1293571Y-4117714D01*
X1436428Y-4117714D02*
X1436428Y-3917714D01*
X1436428Y-3946286D02*
X1450714Y-3932000D01*
X1479286Y-3917714D01*
X1522143Y-3917714D01*
X1550714Y-3932000D01*
X1565000Y-3960571D01*
X1565000Y-4117714D01*
X1565000Y-3960571D02*
X1579286Y-3932000D01*
X1607857Y-3917714D01*
X1650714Y-3917714D01*
X1679286Y-3932000D01*
X1693571Y-3960571D01*
X1693571Y-4117714D01*
X2279286Y-3803428D02*
X2022143Y-4189143D01*
X2665000Y-3817714D02*
X2693571Y-3817714D01*
X2722143Y-3832000D01*
X2736429Y-3846286D01*
X2750714Y-3874857D01*
X2765000Y-3932000D01*
X2765000Y-4003428D01*
X2750714Y-4060571D01*
X2736429Y-4089143D01*
X2722143Y-4103428D01*
X2693571Y-4117714D01*
X2665000Y-4117714D01*
X2636429Y-4103428D01*
X2622143Y-4089143D01*
X2607857Y-4060571D01*
X2593571Y-4003428D01*
X2593571Y-3932000D01*
X2607857Y-3874857D01*
X2622143Y-3846286D01*
X2636429Y-3832000D01*
X2665000Y-3817714D01*
X2893571Y-4089143D02*
X2907857Y-4103428D01*
X2893571Y-4117714D01*
X2879286Y-4103428D01*
X2893571Y-4089143D01*
X2893571Y-4117714D01*
X3093571Y-3817714D02*
X3122143Y-3817714D01*
X3150714Y-3832000D01*
X3165000Y-3846286D01*
X3179286Y-3874857D01*
X3193571Y-3932000D01*
X3193571Y-4003428D01*
X3179286Y-4060571D01*
X3165000Y-4089143D01*
X3150714Y-4103428D01*
X3122143Y-4117714D01*
X3093571Y-4117714D01*
X3065000Y-4103428D01*
X3050714Y-4089143D01*
X3036428Y-4060571D01*
X3022143Y-4003428D01*
X3022143Y-3932000D01*
X3036428Y-3874857D01*
X3050714Y-3846286D01*
X3065000Y-3832000D01*
X3093571Y-3817714D01*
X3465000Y-3817714D02*
X3322143Y-3817714D01*
X3307857Y-3960571D01*
X3322143Y-3946286D01*
X3350714Y-3932000D01*
X3422143Y-3932000D01*
X3450714Y-3946286D01*
X3465000Y-3960571D01*
X3479286Y-3989143D01*
X3479286Y-4060571D01*
X3465000Y-4089143D01*
X3450714Y-4103428D01*
X3422143Y-4117714D01*
X3350714Y-4117714D01*
X3322143Y-4103428D01*
X3307857Y-4089143D01*
X3765000Y-4117714D02*
X3593571Y-4117714D01*
X3679286Y-4117714D02*
X3679286Y-3817714D01*
X3650714Y-3860571D01*
X3622143Y-3889143D01*
X3593571Y-3903428D01*
X3879286Y-3817714D02*
X3879286Y-3874857D01*
X3993571Y-3817714D02*
X3993571Y-3874857D01*
X4436429Y-4232000D02*
X4422143Y-4217714D01*
X4393571Y-4174857D01*
X4379286Y-4146286D01*
X4365000Y-4103428D01*
X4350714Y-4032000D01*
X4350714Y-3974857D01*
X4365000Y-3903428D01*
X4379286Y-3860571D01*
X4393571Y-3832000D01*
X4422143Y-3789143D01*
X4436429Y-3774857D01*
X4707857Y-4117714D02*
X4536429Y-4117714D01*
X4622143Y-4117714D02*
X4622143Y-3817714D01*
X4593571Y-3860571D01*
X4565000Y-3889143D01*
X4536429Y-3903428D01*
X4965000Y-3817714D02*
X4907857Y-3817714D01*
X4879286Y-3832000D01*
X4865000Y-3846286D01*
X4836429Y-3889143D01*
X4822143Y-3946286D01*
X4822143Y-4060571D01*
X4836429Y-4089143D01*
X4850714Y-4103428D01*
X4879286Y-4117714D01*
X4936429Y-4117714D01*
X4965000Y-4103428D01*
X4979286Y-4089143D01*
X4993571Y-4060571D01*
X4993571Y-3989143D01*
X4979286Y-3960571D01*
X4965000Y-3946286D01*
X4936429Y-3932000D01*
X4879286Y-3932000D01*
X4850714Y-3946286D01*
X4836429Y-3960571D01*
X4822143Y-3989143D01*
X5350714Y-4117714D02*
X5350714Y-3817714D01*
X5479286Y-4117714D02*
X5479286Y-3960571D01*
X5465000Y-3932000D01*
X5436429Y-3917714D01*
X5393571Y-3917714D01*
X5365000Y-3932000D01*
X5350714Y-3946286D01*
X5665000Y-4117714D02*
X5636428Y-4103428D01*
X5622143Y-4089143D01*
X5607857Y-4060571D01*
X5607857Y-3974857D01*
X5622143Y-3946286D01*
X5636428Y-3932000D01*
X5665000Y-3917714D01*
X5707857Y-3917714D01*
X5736428Y-3932000D01*
X5750714Y-3946286D01*
X5765000Y-3974857D01*
X5765000Y-4060571D01*
X5750714Y-4089143D01*
X5736428Y-4103428D01*
X5707857Y-4117714D01*
X5665000Y-4117714D01*
X5936428Y-4117714D02*
X5907857Y-4103428D01*
X5893571Y-4074857D01*
X5893571Y-3817714D01*
X6165000Y-4103428D02*
X6136428Y-4117714D01*
X6079286Y-4117714D01*
X6050714Y-4103428D01*
X6036428Y-4074857D01*
X6036428Y-3960571D01*
X6050714Y-3932000D01*
X6079286Y-3917714D01*
X6136428Y-3917714D01*
X6165000Y-3932000D01*
X6179286Y-3960571D01*
X6179286Y-3989143D01*
X6036428Y-4017714D01*
X6293571Y-4103428D02*
X6322143Y-4117714D01*
X6379286Y-4117714D01*
X6407857Y-4103428D01*
X6422143Y-4074857D01*
X6422143Y-4060571D01*
X6407857Y-4032000D01*
X6379286Y-4017714D01*
X6336428Y-4017714D01*
X6307857Y-4003428D01*
X6293571Y-3974857D01*
X6293571Y-3960571D01*
X6307857Y-3932000D01*
X6336428Y-3917714D01*
X6379286Y-3917714D01*
X6407857Y-3932000D01*
X6522143Y-4232000D02*
X6536428Y-4217714D01*
X6565000Y-4174857D01*
X6579286Y-4146286D01*
X6593571Y-4103428D01*
X6607857Y-4032000D01*
X6607857Y-3974857D01*
X6593571Y-3903428D01*
X6579286Y-3860571D01*
X6565000Y-3832000D01*
X6536428Y-3789143D01*
X6522143Y-3774857D01*
X-427800Y-4289100D02*
X-250000Y-4466900D01*
X-250000Y-4289100D02*
X-427800Y-4466900D01*
X-338900Y-4466900D02*
X-250000Y-4378000D01*
X-338900Y-4289100D01*
X-427800Y-4378000D01*
X-338900Y-4466900D01*
X193571Y-4513714D02*
X22143Y-4513714D01*
X107857Y-4513714D02*
X107857Y-4213714D01*
X79286Y-4256571D01*
X50714Y-4285143D01*
X22143Y-4299429D01*
X322143Y-4485143D02*
X336429Y-4499429D01*
X322143Y-4513714D01*
X307857Y-4499429D01*
X322143Y-4485143D01*
X322143Y-4513714D01*
X436428Y-4213714D02*
X636429Y-4213714D01*
X507857Y-4513714D01*
X793571Y-4342286D02*
X765000Y-4328000D01*
X750714Y-4313714D01*
X736428Y-4285143D01*
X736428Y-4270857D01*
X750714Y-4242286D01*
X765000Y-4228000D01*
X793571Y-4213714D01*
X850714Y-4213714D01*
X879286Y-4228000D01*
X893571Y-4242286D01*
X907857Y-4270857D01*
X907857Y-4285143D01*
X893571Y-4313714D01*
X879286Y-4328000D01*
X850714Y-4342286D01*
X793571Y-4342286D01*
X765000Y-4356571D01*
X750714Y-4370857D01*
X736428Y-4399429D01*
X736428Y-4456571D01*
X750714Y-4485143D01*
X765000Y-4499429D01*
X793571Y-4513714D01*
X850714Y-4513714D01*
X879286Y-4499429D01*
X893571Y-4485143D01*
X907857Y-4456571D01*
X907857Y-4399429D01*
X893571Y-4370857D01*
X879286Y-4356571D01*
X850714Y-4342286D01*
X1036428Y-4513714D02*
X1036428Y-4313714D01*
X1036428Y-4342286D02*
X1050714Y-4328000D01*
X1079286Y-4313714D01*
X1122143Y-4313714D01*
X1150714Y-4328000D01*
X1165000Y-4356571D01*
X1165000Y-4513714D01*
X1165000Y-4356571D02*
X1179286Y-4328000D01*
X1207857Y-4313714D01*
X1250714Y-4313714D01*
X1279286Y-4328000D01*
X1293571Y-4356571D01*
X1293571Y-4513714D01*
X1436428Y-4513714D02*
X1436428Y-4313714D01*
X1436428Y-4342286D02*
X1450714Y-4328000D01*
X1479286Y-4313714D01*
X1522143Y-4313714D01*
X1550714Y-4328000D01*
X1565000Y-4356571D01*
X1565000Y-4513714D01*
X1565000Y-4356571D02*
X1579286Y-4328000D01*
X1607857Y-4313714D01*
X1650714Y-4313714D01*
X1679286Y-4328000D01*
X1693571Y-4356571D01*
X1693571Y-4513714D01*
X2279286Y-4199429D02*
X2022143Y-4585143D01*
X2665000Y-4213714D02*
X2693571Y-4213714D01*
X2722143Y-4228000D01*
X2736429Y-4242286D01*
X2750714Y-4270857D01*
X2765000Y-4328000D01*
X2765000Y-4399429D01*
X2750714Y-4456571D01*
X2736429Y-4485143D01*
X2722143Y-4499429D01*
X2693571Y-4513714D01*
X2665000Y-4513714D01*
X2636429Y-4499429D01*
X2622143Y-4485143D01*
X2607857Y-4456571D01*
X2593571Y-4399429D01*
X2593571Y-4328000D01*
X2607857Y-4270857D01*
X2622143Y-4242286D01*
X2636429Y-4228000D01*
X2665000Y-4213714D01*
X2893571Y-4485143D02*
X2907857Y-4499429D01*
X2893571Y-4513714D01*
X2879286Y-4499429D01*
X2893571Y-4485143D01*
X2893571Y-4513714D01*
X3093571Y-4213714D02*
X3122143Y-4213714D01*
X3150714Y-4228000D01*
X3165000Y-4242286D01*
X3179286Y-4270857D01*
X3193571Y-4328000D01*
X3193571Y-4399429D01*
X3179286Y-4456571D01*
X3165000Y-4485143D01*
X3150714Y-4499429D01*
X3122143Y-4513714D01*
X3093571Y-4513714D01*
X3065000Y-4499429D01*
X3050714Y-4485143D01*
X3036428Y-4456571D01*
X3022143Y-4399429D01*
X3022143Y-4328000D01*
X3036428Y-4270857D01*
X3050714Y-4242286D01*
X3065000Y-4228000D01*
X3093571Y-4213714D01*
X3293571Y-4213714D02*
X3493571Y-4213714D01*
X3365000Y-4513714D01*
X3665000Y-4213714D02*
X3693571Y-4213714D01*
X3722143Y-4228000D01*
X3736428Y-4242286D01*
X3750714Y-4270857D01*
X3765000Y-4328000D01*
X3765000Y-4399429D01*
X3750714Y-4456571D01*
X3736428Y-4485143D01*
X3722143Y-4499429D01*
X3693571Y-4513714D01*
X3665000Y-4513714D01*
X3636428Y-4499429D01*
X3622143Y-4485143D01*
X3607857Y-4456571D01*
X3593571Y-4399429D01*
X3593571Y-4328000D01*
X3607857Y-4270857D01*
X3622143Y-4242286D01*
X3636428Y-4228000D01*
X3665000Y-4213714D01*
X3879286Y-4213714D02*
X3879286Y-4270857D01*
X3993571Y-4213714D02*
X3993571Y-4270857D01*
X4436429Y-4628000D02*
X4422143Y-4613714D01*
X4393571Y-4570857D01*
X4379286Y-4542286D01*
X4365000Y-4499429D01*
X4350714Y-4428000D01*
X4350714Y-4370857D01*
X4365000Y-4299429D01*
X4379286Y-4256571D01*
X4393571Y-4228000D01*
X4422143Y-4185143D01*
X4436429Y-4170857D01*
X4593571Y-4342286D02*
X4565000Y-4328000D01*
X4550714Y-4313714D01*
X4536429Y-4285143D01*
X4536429Y-4270857D01*
X4550714Y-4242286D01*
X4565000Y-4228000D01*
X4593571Y-4213714D01*
X4650714Y-4213714D01*
X4679286Y-4228000D01*
X4693571Y-4242286D01*
X4707857Y-4270857D01*
X4707857Y-4285143D01*
X4693571Y-4313714D01*
X4679286Y-4328000D01*
X4650714Y-4342286D01*
X4593571Y-4342286D01*
X4565000Y-4356571D01*
X4550714Y-4370857D01*
X4536429Y-4399429D01*
X4536429Y-4456571D01*
X4550714Y-4485143D01*
X4565000Y-4499429D01*
X4593571Y-4513714D01*
X4650714Y-4513714D01*
X4679286Y-4499429D01*
X4693571Y-4485143D01*
X4707857Y-4456571D01*
X4707857Y-4399429D01*
X4693571Y-4370857D01*
X4679286Y-4356571D01*
X4650714Y-4342286D01*
X5065000Y-4513714D02*
X5065000Y-4213714D01*
X5193571Y-4513714D02*
X5193571Y-4356571D01*
X5179286Y-4328000D01*
X5150714Y-4313714D01*
X5107857Y-4313714D01*
X5079286Y-4328000D01*
X5065000Y-4342286D01*
X5379286Y-4513714D02*
X5350714Y-4499429D01*
X5336429Y-4485143D01*
X5322143Y-4456571D01*
X5322143Y-4370857D01*
X5336429Y-4342286D01*
X5350714Y-4328000D01*
X5379286Y-4313714D01*
X5422143Y-4313714D01*
X5450714Y-4328000D01*
X5465000Y-4342286D01*
X5479286Y-4370857D01*
X5479286Y-4456571D01*
X5465000Y-4485143D01*
X5450714Y-4499429D01*
X5422143Y-4513714D01*
X5379286Y-4513714D01*
X5650714Y-4513714D02*
X5622143Y-4499429D01*
X5607857Y-4470857D01*
X5607857Y-4213714D01*
X5879286Y-4499429D02*
X5850714Y-4513714D01*
X5793571Y-4513714D01*
X5765000Y-4499429D01*
X5750714Y-4470857D01*
X5750714Y-4356571D01*
X5765000Y-4328000D01*
X5793571Y-4313714D01*
X5850714Y-4313714D01*
X5879286Y-4328000D01*
X5893571Y-4356571D01*
X5893571Y-4385143D01*
X5750714Y-4413714D01*
X6007857Y-4499429D02*
X6036428Y-4513714D01*
X6093571Y-4513714D01*
X6122143Y-4499429D01*
X6136428Y-4470857D01*
X6136428Y-4456571D01*
X6122143Y-4428000D01*
X6093571Y-4413714D01*
X6050714Y-4413714D01*
X6022143Y-4399429D01*
X6007857Y-4370857D01*
X6007857Y-4356571D01*
X6022143Y-4328000D01*
X6050714Y-4313714D01*
X6093571Y-4313714D01*
X6122143Y-4328000D01*
X6236428Y-4628000D02*
X6250714Y-4613714D01*
X6279286Y-4570857D01*
X6293571Y-4542286D01*
X6307857Y-4499429D01*
X6322143Y-4428000D01*
X6322143Y-4370857D01*
X6307857Y-4299429D01*
X6293571Y-4256571D01*
X6279286Y-4228000D01*
X6250714Y-4185143D01*
X6236428Y-4170857D01*
X-410000Y-4614000D02*
X-410000Y-4934000D01*
X-570000Y-4774000D02*
X-250000Y-4774000D01*
X-250000Y-4774000D02*
G75*
G03*
X-250000Y-4774000I-160000J0D01*
G01*
X7857Y-4609714D02*
X193571Y-4609714D01*
X93571Y-4724000D01*
X136429Y-4724000D01*
X165000Y-4738286D01*
X179286Y-4752571D01*
X193571Y-4781143D01*
X193571Y-4852571D01*
X179286Y-4881143D01*
X165000Y-4895429D01*
X136429Y-4909714D01*
X50714Y-4909714D01*
X22143Y-4895429D01*
X7857Y-4881143D01*
X322143Y-4881143D02*
X336429Y-4895429D01*
X322143Y-4909714D01*
X307857Y-4895429D01*
X322143Y-4881143D01*
X322143Y-4909714D01*
X450714Y-4638286D02*
X465000Y-4624000D01*
X493571Y-4609714D01*
X565000Y-4609714D01*
X593571Y-4624000D01*
X607857Y-4638286D01*
X622143Y-4666857D01*
X622143Y-4695429D01*
X607857Y-4738286D01*
X436428Y-4909714D01*
X622143Y-4909714D01*
X807857Y-4609714D02*
X836428Y-4609714D01*
X865000Y-4624000D01*
X879286Y-4638286D01*
X893571Y-4666857D01*
X907857Y-4724000D01*
X907857Y-4795429D01*
X893571Y-4852571D01*
X879286Y-4881143D01*
X865000Y-4895429D01*
X836428Y-4909714D01*
X807857Y-4909714D01*
X779286Y-4895429D01*
X765000Y-4881143D01*
X750714Y-4852571D01*
X736428Y-4795429D01*
X736428Y-4724000D01*
X750714Y-4666857D01*
X765000Y-4638286D01*
X779286Y-4624000D01*
X807857Y-4609714D01*
X1036428Y-4909714D02*
X1036428Y-4709714D01*
X1036428Y-4738286D02*
X1050714Y-4724000D01*
X1079286Y-4709714D01*
X1122143Y-4709714D01*
X1150714Y-4724000D01*
X1165000Y-4752571D01*
X1165000Y-4909714D01*
X1165000Y-4752571D02*
X1179286Y-4724000D01*
X1207857Y-4709714D01*
X1250714Y-4709714D01*
X1279286Y-4724000D01*
X1293571Y-4752571D01*
X1293571Y-4909714D01*
X1436428Y-4909714D02*
X1436428Y-4709714D01*
X1436428Y-4738286D02*
X1450714Y-4724000D01*
X1479286Y-4709714D01*
X1522143Y-4709714D01*
X1550714Y-4724000D01*
X1565000Y-4752571D01*
X1565000Y-4909714D01*
X1565000Y-4752571D02*
X1579286Y-4724000D01*
X1607857Y-4709714D01*
X1650714Y-4709714D01*
X1679286Y-4724000D01*
X1693571Y-4752571D01*
X1693571Y-4909714D01*
X2279286Y-4595429D02*
X2022143Y-4981143D01*
X2665000Y-4609714D02*
X2693571Y-4609714D01*
X2722143Y-4624000D01*
X2736429Y-4638286D01*
X2750714Y-4666857D01*
X2765000Y-4724000D01*
X2765000Y-4795429D01*
X2750714Y-4852571D01*
X2736429Y-4881143D01*
X2722143Y-4895429D01*
X2693571Y-4909714D01*
X2665000Y-4909714D01*
X2636429Y-4895429D01*
X2622143Y-4881143D01*
X2607857Y-4852571D01*
X2593571Y-4795429D01*
X2593571Y-4724000D01*
X2607857Y-4666857D01*
X2622143Y-4638286D01*
X2636429Y-4624000D01*
X2665000Y-4609714D01*
X2893571Y-4881143D02*
X2907857Y-4895429D01*
X2893571Y-4909714D01*
X2879286Y-4895429D01*
X2893571Y-4881143D01*
X2893571Y-4909714D01*
X3193571Y-4909714D02*
X3022143Y-4909714D01*
X3107857Y-4909714D02*
X3107857Y-4609714D01*
X3079286Y-4652571D01*
X3050714Y-4681143D01*
X3022143Y-4695429D01*
X3307857Y-4638286D02*
X3322143Y-4624000D01*
X3350714Y-4609714D01*
X3422143Y-4609714D01*
X3450714Y-4624000D01*
X3465000Y-4638286D01*
X3479286Y-4666857D01*
X3479286Y-4695429D01*
X3465000Y-4738286D01*
X3293571Y-4909714D01*
X3479286Y-4909714D01*
X3736428Y-4609714D02*
X3679286Y-4609714D01*
X3650714Y-4624000D01*
X3636428Y-4638286D01*
X3607857Y-4681143D01*
X3593571Y-4738286D01*
X3593571Y-4852571D01*
X3607857Y-4881143D01*
X3622143Y-4895429D01*
X3650714Y-4909714D01*
X3707857Y-4909714D01*
X3736428Y-4895429D01*
X3750714Y-4881143D01*
X3765000Y-4852571D01*
X3765000Y-4781143D01*
X3750714Y-4752571D01*
X3736428Y-4738286D01*
X3707857Y-4724000D01*
X3650714Y-4724000D01*
X3622143Y-4738286D01*
X3607857Y-4752571D01*
X3593571Y-4781143D01*
X3879286Y-4609714D02*
X3879286Y-4666857D01*
X3993571Y-4609714D02*
X3993571Y-4666857D01*
X4436429Y-5024000D02*
X4422143Y-5009714D01*
X4393571Y-4966857D01*
X4379286Y-4938286D01*
X4365000Y-4895429D01*
X4350714Y-4824000D01*
X4350714Y-4766857D01*
X4365000Y-4695429D01*
X4379286Y-4652571D01*
X4393571Y-4624000D01*
X4422143Y-4581143D01*
X4436429Y-4566857D01*
X4679286Y-4709714D02*
X4679286Y-4909714D01*
X4607857Y-4595429D02*
X4536429Y-4809714D01*
X4722143Y-4809714D01*
X5065000Y-4909714D02*
X5065000Y-4609714D01*
X5193571Y-4909714D02*
X5193571Y-4752571D01*
X5179286Y-4724000D01*
X5150714Y-4709714D01*
X5107857Y-4709714D01*
X5079286Y-4724000D01*
X5065000Y-4738286D01*
X5379286Y-4909714D02*
X5350714Y-4895429D01*
X5336429Y-4881143D01*
X5322143Y-4852571D01*
X5322143Y-4766857D01*
X5336429Y-4738286D01*
X5350714Y-4724000D01*
X5379286Y-4709714D01*
X5422143Y-4709714D01*
X5450714Y-4724000D01*
X5465000Y-4738286D01*
X5479286Y-4766857D01*
X5479286Y-4852571D01*
X5465000Y-4881143D01*
X5450714Y-4895429D01*
X5422143Y-4909714D01*
X5379286Y-4909714D01*
X5650714Y-4909714D02*
X5622143Y-4895429D01*
X5607857Y-4866857D01*
X5607857Y-4609714D01*
X5879286Y-4895429D02*
X5850714Y-4909714D01*
X5793571Y-4909714D01*
X5765000Y-4895429D01*
X5750714Y-4866857D01*
X5750714Y-4752571D01*
X5765000Y-4724000D01*
X5793571Y-4709714D01*
X5850714Y-4709714D01*
X5879286Y-4724000D01*
X5893571Y-4752571D01*
X5893571Y-4781143D01*
X5750714Y-4809714D01*
X6007857Y-4895429D02*
X6036428Y-4909714D01*
X6093571Y-4909714D01*
X6122143Y-4895429D01*
X6136428Y-4866857D01*
X6136428Y-4852571D01*
X6122143Y-4824000D01*
X6093571Y-4809714D01*
X6050714Y-4809714D01*
X6022143Y-4795429D01*
X6007857Y-4766857D01*
X6007857Y-4752571D01*
X6022143Y-4724000D01*
X6050714Y-4709714D01*
X6093571Y-4709714D01*
X6122143Y-4724000D01*
X6236428Y-5024000D02*
X6250714Y-5009714D01*
X6279286Y-4966857D01*
X6293571Y-4938286D01*
X6307857Y-4895429D01*
X6322143Y-4824000D01*
X6322143Y-4766857D01*
X6307857Y-4695429D01*
X6293571Y-4652571D01*
X6279286Y-4624000D01*
X6250714Y-4581143D01*
X6236428Y-4566857D01*
M02*
