M48
; DRILL file {KiCad (5.1.9-0-10_14)} date Thursday, July 01, 2021 at 07:25:30 AM
; FORMAT={-:-/ absolute / inch / decimal}
; #@! TF.CreationDate,2021-07-01T07:25:30-05:00
; #@! TF.GenerationSoftware,Kicad,Pcbnew,(5.1.9-0-10_14)
; #@! TF.FileFunction,Plated,1,6,PTH
FMAT,2
INCH
T1C0.0118
T2C0.0276
T3C0.0315
T4C0.0394
T5C0.0433
T6C0.0500
T7C0.0512
T8C0.0700
T9C0.1260
%
G90
G05
T1
X0.148Y2.1134
X0.1999Y2.1134
X0.2734Y2.1134
X0.297Y2.377
X0.302Y2.862
X0.321Y2.803
X0.3265Y2.44
X0.3535Y2.076
X0.3777Y0.1824
X0.4044Y2.1134
X0.409Y3.1049
X0.4135Y1.3905
X0.414Y1.5925
X0.4235Y2.076
X0.4365Y2.252
X0.439Y1.3645
X0.4485Y1.627
X0.4545Y2.618
X0.4565Y2.481
X0.4565Y2.4335
X0.457Y2.5185
X0.4637Y2.7543
X0.47Y1.3345
X0.4793Y1.6577
X0.4903Y3.3977
X0.4938Y3.3017
X0.4995Y2.37
X0.505Y1.5435
X0.5228Y1.2369
X0.5395Y0.6459
X0.5402Y1.1205
X0.5462Y1.9737
X0.5524Y1.4635
X0.563Y2.441
X0.5631Y1.5437
X0.5672Y2.378
X0.603Y3.3393
X0.603Y3.1819
X0.612Y2.6035
X0.6188Y1.1949
X0.6434Y1.6969
X0.6442Y1.3855
X0.6442Y1.3033
X0.6459Y1.8298
X0.6544Y0.8764
X0.658Y2.4429
X0.6637Y1.5471
X0.6642Y1.0454
X0.675Y1.904
X0.6915Y2.086
X0.6925Y0.646
X0.695Y3.078
X0.695Y3.0367
X0.6965Y2.2005
X0.7066Y1.1327
X0.707Y1.0408
X0.7105Y0.049
X0.7146Y0.9083
X0.7151Y2.4395
X0.7171Y0.7166
X0.7171Y0.4499
X0.735Y0.9562
X0.7397Y2.0563
X0.7511Y2.37
X0.7516Y2.4476
X0.757Y2.8818
X0.7662Y2.1338
X0.7702Y2.614
X0.7705Y2.584
X0.7806Y1.93
X0.782Y1.4119
X0.7959Y1.0913
X0.7981Y0.5376
X0.802Y2.151
X0.8215Y2.105
X0.8329Y2.9251
X0.8335Y1.9327
X0.8419Y2.4203
X0.8531Y1.0308
X0.8604Y2.1512
X0.8728Y2.4003
X0.8762Y2.7653
X0.8797Y1.7657
X0.8875Y0.529
X0.8942Y2.3548
X0.8945Y2.0253
X0.9004Y1.0454
X0.902Y1.4754
X0.9025Y1.3789
X0.9031Y1.6153
X0.9032Y1.7875
X0.9074Y2.4844
X0.9074Y2.6616
X0.9278Y3.2336
X0.9466Y0.642
X0.9466Y0.4172
X0.9646Y3.4233
X0.9676Y1.2688
X0.989Y2.8625
X0.989Y2.8225
X0.9962Y3.1374
X0.9975Y1.4376
X0.9979Y2.2802
X0.9983Y1.3361
X0.9995Y1.5681
X1.0063Y2.4468
X1.023Y1.114
X1.0238Y1.6717
X1.0244Y3.1026
X1.0285Y2.5425
X1.0291Y2.6152
X1.0328Y1.0751
X1.033Y1.37
X1.0345Y1.2487
X1.064Y1.7662
X1.0646Y2.6446
X1.0898Y1.2059
X1.091Y2.1345
X1.091Y2.07
X1.091Y1.997
X1.0961Y2.5196
X1.1048Y0.4077
X1.1077Y1.3379
X1.11Y2.2745
X1.1165Y0.6453
X1.1461Y1.4687
X1.1517Y2.5067
X1.1721Y2.8782
X1.1838Y0.8988
X1.1924Y0.735
X1.1924Y0.5102
X1.1996Y0.7723
X1.2087Y1.2291
X1.2162Y2.4881
X1.2226Y2.9704
X1.223Y1.3244
X1.2244Y0.417
X1.2276Y0.9199
X1.2342Y2.657
X1.2441Y2.8749
X1.2467Y3.2432
X1.25Y0.7641
X1.2515Y0.5284
X1.2614Y0.4168
X1.2622Y1.7712
X1.2635Y1.2088
X1.2742Y2.3286
X1.277Y3.5288
X1.2824Y2.229
X1.2848Y2.7897
X1.2926Y3.5796
X1.298Y2.7515
X1.3125Y0.5284
X1.3135Y1.9689
X1.3136Y2.0985
X1.3205Y3.051
X1.3253Y2.6218
X1.3314Y0.8983
X1.3322Y1.5577
X1.3322Y0.8696
X1.3335Y1.8502
X1.3352Y3.3781
X1.3397Y1.7888
X1.3421Y1.6959
X1.3422Y1.9651
X1.3444Y1.4395
X1.3479Y3.5996
X1.3568Y2.3768
X1.3572Y3.4515
X1.3583Y2.7057
X1.3584Y1.2303
X1.3601Y2.2647
X1.3612Y2.4707
X1.3627Y2.1035
X1.3656Y1.1078
X1.3774Y1.8227
X1.3942Y2.7234
X1.3942Y2.4926
X1.3952Y1.5821
X1.3954Y1.3244
X1.3971Y1.438
X1.3972Y0.5097
X1.3983Y1.9684
X1.3993Y1.7061
X1.418Y3.0608
X1.4195Y3.5932
X1.4197Y3.0908
X1.4222Y0.6637
X1.4223Y1.8607
X1.4225Y2.4596
X1.4247Y0.7115
X1.4254Y1.4187
X1.4273Y2.5037
X1.4312Y2.1249
X1.432Y3.0176
X1.4345Y2.674
X1.435Y2.8818
X1.4359Y2.0531
X1.4382Y2.8532
X1.4391Y1.3197
X1.4407Y1.8386
X1.4491Y2.9651
X1.4515Y3.2448
X1.4576Y1.6875
X1.4759Y2.1655
X1.4773Y3.3553
X1.4796Y3.1017
X1.48Y2.2543
X1.4842Y3.1827
X1.5052Y1.1835
X1.506Y0.7115
X1.5312Y1.597
X1.5363Y2.419
X1.5398Y3.1002
X1.5446Y3.5905
X1.547Y2.582
X1.5523Y3.3111
X1.554Y3.3728
X1.5548Y2.5178
X1.5575Y1.5108
X1.558Y1.4805
X1.5581Y2.9422
X1.5613Y3.2777
X1.5627Y3.5116
X1.565Y2.7243
X1.5663Y2.5608
X1.5666Y2.4001
X1.5678Y1.6811
X1.5702Y1.5984
X1.5706Y1.3279
X1.5747Y3.5409
X1.5771Y1.0773
X1.5845Y1.981
X1.5872Y2.2567
X1.5915Y2.039
X1.6016Y1.8892
X1.6053Y2.1609
X1.607Y3.089
X1.6096Y3.0241
X1.6148Y2.602
X1.6182Y2.4473
X1.6222Y2.6527
X1.6251Y3.3475
X1.6317Y2.8695
X1.6347Y0.7263
X1.6398Y1.5031
X1.6468Y1.294
X1.6517Y1.876
X1.6519Y2.8898
X1.6623Y2.6873
X1.6628Y3.0168
X1.6652Y1.726
X1.6656Y2.3422
X1.6664Y2.1624
X1.6722Y2.9528
X1.6815Y3.1251
X1.6818Y3.4435
X1.686Y3.2511
X1.6942Y3.5075
X1.6945Y3.6092
X1.6978Y2.321
X1.6988Y3.3019
X1.6993Y1.2646
X1.7061Y3.0817
X1.7062Y2.7419
X1.7143Y1.1835
X1.7208Y2.4027
X1.7225Y2.3739
X1.7247Y1.3291
X1.7248Y0.6365
X1.7362Y1.3705
X1.7364Y2.6527
X1.7378Y3.3164
X1.7388Y3.5446
X1.7421Y0.3621
X1.7451Y1.9014
X1.7479Y1.3033
X1.748Y0.2524
X1.7554Y2.0258
X1.7605Y0.3891
X1.7615Y2.9812
X1.7684Y0.7372
X1.7714Y2.0654
X1.7722Y3.5616
X1.7765Y2.9011
X1.7815Y0.2526
X1.7924Y1.3029
X1.8115Y3.1995
X1.8123Y3.6595
X1.8161Y0.7008
X1.8192Y1.5513
X1.8258Y2.5897
X1.8299Y1.9317
X1.8312Y3.0744
X1.8312Y3.0458
X1.8328Y2.4895
X1.8331Y3.1631
X1.8341Y3.4207
X1.8364Y1.46
X1.8365Y3.5916
X1.8367Y3.3188
X1.8368Y1.9746
X1.8448Y3.4756
X1.8499Y3.5524
X1.8549Y2.4669
X1.8573Y3.6595
X1.8582Y2.7907
X1.8583Y0.4327
X1.8585Y1.4351
X1.8602Y0.2524
X1.8617Y2.2765
X1.8652Y1.3316
X1.8663Y1.8321
X1.869Y0.7975
X1.8714Y2.9432
X1.8773Y1.9536
X1.8799Y0.3619
X1.8851Y0.9603
X1.8925Y2.6315
X1.893Y3.2513
X1.8936Y2.5993
X1.8944Y3.3436
X1.8949Y3.6466
X1.8996Y0.253
X1.903Y2.5696
X1.9033Y2.2663
X1.9039Y0.4521
X1.9045Y2.5059
X1.9048Y1.3309
X1.9051Y2.7937
X1.9071Y1.5515
X1.9073Y2.0604
X1.9082Y0.7618
X1.9105Y1.7549
X1.9128Y0.6685
X1.9144Y1.4587
X1.9193Y0.3633
X1.9195Y1.6043
X1.9207Y2.1193
X1.9322Y0.2529
X1.9334Y1.8421
X1.9453Y1.906
X1.9474Y2.3979
X1.9483Y0.3619
X1.9507Y1.3692
X1.9545Y1.0048
X1.9621Y3.0535
X1.9629Y2.9676
X1.9679Y3.4865
X1.9701Y1.6559
X1.9721Y3.5339
X1.9748Y2.4984
X1.9761Y1.9176
X1.9767Y2.6514
X1.9776Y3.163
X1.9801Y3.3228
X1.9809Y1.3413
X1.9834Y2.1224
X1.9886Y0.6831
X1.9901Y1.1756
X1.9903Y1.137
X1.994Y0.898
X1.9949Y0.733
X1.9971Y0.3656
X2.0004Y3.5903
X2.0011Y1.8375
X2.0025Y0.6263
X2.0039Y1.5064
X2.0057Y2.0196
X2.0057Y1.5395
X2.0065Y2.5659
X2.009Y3.2972
X2.0149Y2.1553
X2.0174Y3.5019
X2.0199Y2.1245
X2.0208Y2.3575
X2.0208Y1.9861
X2.0218Y1.0579
X2.0223Y3.6122
X2.0264Y1.6735
X2.0264Y0.3628
X2.0269Y2.6917
X2.0279Y2.748
X2.03Y0.6113
X2.032Y2.6491
X2.0368Y0.2531
X2.0412Y2.9809
X2.0457Y1.7159
X2.0463Y2.2563
X2.0616Y2.6443
X2.064Y3.5275
X2.0654Y1.4168
X2.0677Y1.6086
X2.0694Y0.5427
X2.0732Y1.1563
X2.0734Y2.29
X2.0756Y1.0484
X2.0768Y0.2527
X2.0792Y3.2337
X2.0798Y1.944
X2.0836Y1.4435
X2.0855Y1.4721
X2.0898Y2.5205
X2.0927Y1.3187
X2.093Y0.918
X2.0969Y1.6129
X2.0994Y1.0246
X2.1054Y2.764
X2.1055Y3.1693
X2.1065Y0.871
X2.107Y1.7764
X2.1108Y2.493
X2.1153Y1.9667
X2.1161Y0.5429
X2.1305Y2.3639
X2.1358Y0.8437
X2.1397Y0.911
X2.1405Y0.5198
X2.1432Y1.2975
X2.1477Y2.8596
X2.1658Y2.647
X2.1726Y2.1465
X2.1728Y0.5825
X2.1739Y2.5702
X2.1742Y2.6075
X2.1777Y1.4959
X2.1777Y1.5302
X2.1781Y2.103
X2.1782Y2.0166
X2.1782Y1.5851
X2.1785Y2.0452
X2.1797Y3.5791
X2.1839Y1.9205
X2.1856Y1.4192
X2.1895Y0.8855
X2.1914Y2.3754
X2.2021Y3.4225
X2.2023Y3.4568
X2.2024Y2.1869
X2.2033Y3.1899
X2.2111Y2.7286
X2.2323Y0.6212
X2.2326Y0.3911
X2.2351Y3.1085
X2.2456Y1.3637
X2.2509Y3.3006
X2.2536Y2.7824
X2.2545Y3.5637
X2.2577Y0.6634
X2.2666Y1.0104
X2.2728Y2.8776
X2.2836Y1.783
X2.285Y3.0766
X2.2876Y3.5233
X2.2876Y0.113
X2.2942Y1.4354
X2.298Y0.3263
X2.3018Y2.094
X2.3035Y0.5163
X2.3055Y1.9604
X2.3063Y2.355
X2.3066Y2.8985
X2.3066Y2.8696
X2.308Y2.2587
X2.3091Y2.622
X2.3129Y3.1446
X2.3188Y0.6831
X2.3202Y2.1735
X2.3269Y1.6607
X2.3327Y3.4662
X2.335Y0.9575
X2.341Y3.4285
X2.3415Y2.2753
X2.3423Y2.3041
X2.3491Y1.4408
X2.35Y2.4766
X2.3542Y2.0879
X2.3586Y2.8461
X2.369Y3.3038
X2.3697Y3.5597
X2.373Y1.9613
X2.373Y1.4617
X2.3738Y0.7904
X2.378Y2.5986
X2.3795Y0.5943
X2.3948Y2.467
X2.3953Y3.6598
X2.4046Y1.9512
X2.405Y3.2285
X2.4089Y2.6475
X2.4107Y1.492
X2.4112Y1.8574
X2.4116Y1.5229
X2.4116Y2.0675
X2.4151Y1.3458
X2.4152Y2.3733
X2.4155Y0.5157
X2.4174Y2.9603
X2.4216Y0.0837
X2.4264Y1.6208
X2.4312Y3.6723
X2.4322Y0.1816
X2.4392Y3.0846
X2.4397Y2.147
X2.4428Y2.2826
X2.443Y3.5642
X2.443Y3.0559
X2.4455Y0.6525
X2.4484Y3.4544
X2.4512Y0.8948
X2.4657Y2.8417
X2.4774Y1.3197
X2.4799Y0.9771
X2.4914Y0.4108
X2.4941Y3.5647
X2.4941Y2.9603
X2.4961Y2.4293
X2.5151Y1.6278
X2.5188Y1.309
X2.5209Y3.2123
X2.5221Y3.5037
X2.5246Y3.056
X2.5247Y1.5501
X2.526Y0.6481
X2.526Y0.5172
X2.5305Y1.1315
X2.5306Y3.6728
X2.5322Y2.5268
X2.5334Y2.0951
X2.5335Y2.5559
X2.5343Y2.0302
X2.535Y3.322
X2.5438Y2.7292
X2.5443Y1.6795
X2.5452Y0.1864
X2.5453Y2.9596
X2.5458Y1.8597
X2.5463Y1.5709
X2.5489Y2.1481
X2.55Y0.3718
X2.5503Y0.4888
X2.5523Y2.6593
X2.5534Y2.0075
X2.5579Y2.5908
X2.5596Y2.3747
X2.5774Y2.0981
X2.58Y2.1661
X2.5836Y1.3805
X2.5837Y1.8218
X2.5851Y2.9603
X2.5925Y0.265
X2.6019Y1.463
X2.6105Y2.1506
X2.6119Y2.0589
X2.6129Y1.4946
X2.613Y0.9382
X2.6218Y3.5643
X2.622Y1.8827
X2.625Y2.5342
X2.6343Y3.3412
X2.635Y3.2074
X2.635Y3.0762
X2.641Y2.1654
X2.6413Y3.4423
X2.6511Y1.3805
X2.6656Y2.9591
X2.667Y3.5025
X2.6682Y3.2665
X2.6683Y2.7535
X2.6689Y1.7205
X2.6705Y0.5854
X2.671Y1.893
X2.689Y2.4105
X2.6919Y0.644
X2.6988Y2.8517
X2.7037Y0.5527
X2.7086Y2.6545
X2.7124Y0.664
X2.716Y0.5951
X2.719Y0.6247
X2.7225Y2.3459
X2.7238Y3.6097
X2.7245Y2.9872
X2.7247Y1.6156
X2.7296Y1.5176
X2.73Y1.9152
X2.7303Y1.4519
X2.7343Y2.431
X2.7343Y2.0196
X2.7348Y1.384
X2.739Y0.9041
X2.739Y0.4376
X2.7393Y2.5938
X2.7398Y1.9592
X2.7399Y2.4763
X2.7409Y1.4825
X2.7518Y2.8053
X2.7579Y3.5782
X2.7583Y0.582
X2.7681Y0.6809
X2.776Y1.6447
X2.7843Y0.5409
X2.7896Y1.7442
X2.8054Y3.2318
X2.8056Y3.3228
X2.8058Y3.1693
X2.8059Y3.2716
X2.8061Y3.374
X2.8062Y3.1099
X2.8103Y2.0621
X2.8227Y1.9431
X2.8242Y1.4309
X2.829Y1.6465
X2.831Y2.4666
X2.841Y2.3863
X2.8415Y1.348
X2.8419Y2.1481
X2.8435Y0.6165
X2.8443Y2.6989
X2.8457Y1.8712
X2.8472Y1.1315
X2.8476Y1.8411
X2.8508Y0.7872
X2.8521Y0.7055
X2.8548Y1.9588
X2.8548Y1.4303
X2.8633Y2.2437
X2.8634Y1.7231
X2.866Y1.5012
X2.8716Y2.3027
X2.8789Y0.2895
X2.8818Y1.5926
X2.8824Y2.1092
X2.8826Y1.5615
X2.8827Y2.595
X2.8831Y2.0751
X2.8898Y1.7621
X2.9005Y2.1422
X2.9006Y1.6281
X2.9022Y1.1317
X2.9075Y0.6468
X2.9094Y1.3059
X2.92Y1.9118
X2.9201Y1.472
X2.922Y0.7665
X2.9262Y0.2528
X2.9268Y2.5125
X2.9271Y1.3573
X2.9279Y2.3972
X2.9307Y0.6033
X2.931Y1.9969
X2.9353Y1.8311
X2.9483Y2.7544
X2.9521Y2.3796
X2.9572Y1.4034
X2.9626Y0.2528
X2.9636Y2.6731
X2.9696Y0.4123
X2.9697Y0.9561
X2.9716Y3.214
X2.9798Y1.5122
X2.9807Y2.0216
X2.985Y2.5781
X2.989Y2.7489
X2.9901Y3.1912
X2.9927Y1.6655
X3.0006Y2.5063
X3.0047Y1.7138
X3.0066Y2.9907
X3.0074Y0.4222
X3.0107Y3.0673
X3.0114Y3.0387
X3.0117Y1.4654
X3.0133Y2.6639
X3.016Y3.4535
X3.0183Y0.634
X3.0208Y2.2624
X3.033Y0.3632
X3.034Y0.7421
X3.035Y2.4428
X3.0388Y2.7992
X3.0399Y1.965
X3.0411Y0.9719
X3.0415Y1.7661
X3.0417Y1.343
X3.0432Y0.2532
X3.044Y3.3405
X3.0538Y2.4931
X3.0605Y3.2528
X3.0638Y1.6205
X3.0647Y0.3625
X3.0675Y2.4216
X3.0678Y3.1617
X3.0685Y2.5234
X3.0697Y2.6476
X3.0704Y2.1261
X3.0711Y2.7661
X3.0754Y1.7409
X3.0771Y2.6935
X3.0839Y1.9843
X3.0839Y3.3412
X3.0877Y0.7618
X3.0889Y1.8977
X3.0903Y2.3323
X3.0923Y0.7252
X3.0939Y0.6685
X3.1004Y0.2532
X3.1007Y3.161
X3.1173Y0.7993
X3.119Y3.3413
X3.1202Y1.8483
X3.1268Y2.9794
X3.1272Y0.9473
X3.1292Y0.4123
X3.1356Y1.7927
X3.139Y2.9308
X3.1398Y0.2525
X3.1436Y1.6577
X3.1465Y0.8995
X3.1471Y2.6637
X3.1472Y2.1492
X3.1472Y1.6109
X3.1525Y2.3391
X3.1525Y2.0854
X3.1527Y1.5114
X3.1528Y1.5418
X3.153Y2.0527
X3.153Y2.5718
X3.1534Y2.0241
X3.1536Y2.6091
X3.1607Y0.6362
X3.1657Y1.9211
X3.1681Y3.056
X3.1737Y0.3617
X3.1769Y0.733
X3.1794Y3.2763
X3.182Y0.6169
X3.1866Y2.348
X3.1892Y3.3409
X3.1902Y1.4221
X3.1988Y0.2524
X3.1999Y0.8455
X3.2054Y0.5566
X3.2068Y0.5996
X3.2185Y0.3619
X3.2237Y0.1949
X3.2276Y2.4732
X3.2374Y2.6634
X3.2384Y0.3888
X3.2423Y1.1893
X3.247Y3.0575
X3.2485Y1.6379
X3.2579Y0.2527
X3.2625Y0.3695
X3.2665Y3.3414
X3.2723Y3.0064
X3.2743Y1.1984
X3.2789Y3.058
X3.2789Y1.2361
X3.2858Y1.3939
X3.2914Y0.3679
X3.2991Y1.788
X3.3122Y2.9208
X3.3133Y3.3412
X3.3148Y0.8446
X3.3169Y1.9282
X3.3261Y1.9631
X3.3268Y0.5428
X3.3326Y0.9628
X3.3467Y3.0648
X3.3512Y3.0937
X3.3564Y0.939
X3.3585Y0.5825
X3.3596Y2.2267
X3.3605Y0.868
X3.3754Y1.9808
X3.3776Y1.5959
X3.3803Y3.1084
X3.3919Y1.6703
X3.3973Y1.5089
X3.403Y0.891
X3.4093Y2.6779
X3.4245Y1.817
X3.4249Y1.7315
X3.4256Y0.6212
X3.43Y1.1375
X3.436Y0.866
X3.4371Y0.7518
X3.4374Y0.7224
X3.439Y0.6655
X3.4396Y2.0625
X3.4453Y3.3626
X3.4473Y2.2092
X3.45Y1.2985
X3.4613Y1.1648
X3.4646Y2.6014
X3.466Y1.132
X3.4688Y1.4632
X3.4703Y2.7992
X3.4742Y1.7715
X3.4756Y0.9358
X3.4824Y2.3534
X3.484Y0.8375
X3.4846Y0.6486
X3.4846Y0.5171
X3.4847Y3.5371
X3.4963Y2.6341
X3.4994Y0.912
X3.5016Y0.6848
X3.5134Y2.2744
X3.5166Y0.0569
X3.5224Y2.9278
X3.5272Y1.1574
X3.5295Y1.2955
X3.5303Y0.3191
X3.5308Y1.4632
X3.5438Y1.9257
X3.5454Y2.7503
X3.5474Y1.8502
X3.5475Y0.5396
X3.5477Y0.8806
X3.5506Y2.7116
X3.5554Y2.1051
X3.5562Y2.2889
X3.5596Y0.6234
X3.5601Y3.3101
X3.564Y2.6864
X3.5661Y3.1318
X3.5777Y2.6205
X3.5789Y0.8745
X3.585Y1.1661
X3.5966Y0.5168
X3.6017Y0.7245
X3.6066Y0.8609
X3.6073Y2.3207
X3.6076Y3.2634
X3.6081Y3.0745
X3.6155Y1.8923
X3.6158Y3.5403
X3.6166Y0.7752
X3.617Y1.817
X3.617Y1.7262
X3.6175Y1.6966
X3.6215Y0.6468
X3.6216Y2.7593
X3.6318Y2.1607
X3.6377Y2.7835
X3.638Y2.961
X3.6442Y0.1723
X3.6448Y0.2574
X3.6484Y0.5396
X3.6571Y3.0488
X3.6581Y2.0198
X3.662Y1.4732
X3.6681Y1.787
X3.6681Y1.8252
X3.6701Y2.4462
X3.6731Y1.1078
X3.6757Y2.1393
X3.6837Y2.3864
X3.6871Y0.7211
X3.6895Y3.188
X3.6908Y3.3927
X3.6924Y2.6941
X3.6955Y3.2481
X3.6976Y3.3586
X3.6986Y0.8728
X3.7071Y0.6492
X3.7071Y0.5162
X3.7105Y2.1778
X3.7201Y1.9038
X3.7211Y1.5959
X3.7288Y2.4243
X3.7311Y2.6835
X3.7312Y0.871
X3.752Y1.1342
X3.7523Y2.1785
X3.7562Y3.0633
X3.7604Y1.6625
X3.7656Y2.4065
X3.7737Y0.5163
X3.7766Y2.8106
X3.7897Y2.9547
X3.7935Y0.7979
X3.795Y3.049
X3.8001Y1.8954
X3.8006Y2.3009
X3.8058Y1.7873
X3.811Y2.805
X3.8164Y2.5628
X3.8213Y3.4581
X3.8281Y2.0199
X3.83Y0.5361
X3.8369Y2.2092
X3.8429Y1.6625
X3.843Y1.2493
X3.8433Y1.8157
X3.8509Y2.4033
X3.8544Y1.7748
X3.8545Y2.0032
X3.8655Y2.957
X3.8693Y2.0588
X3.8735Y3.0548
X3.8797Y2.8052
X3.885Y3.0899
X3.8851Y2.5649
X3.8866Y2.5948
X3.8895Y2.4041
X3.8902Y3.2451
X3.8924Y1.7246
X3.8932Y1.6838
X3.8996Y3.4439
X3.9049Y0.8257
X3.9116Y2.1303
X3.9167Y3.0488
X3.9182Y2.3962
X3.9222Y2.8946
X3.9238Y2.5601
X3.9239Y2.6643
X3.9311Y3.5457
X3.9324Y3.4089
X3.9358Y3.0786
X3.943Y3.2378
X3.9545Y3.0483
X3.9577Y1.9058
X3.958Y2.9572
X3.9605Y1.5937
X3.9638Y2.4296
X3.9686Y2.2396
X3.9703Y2.0489
X3.971Y2.8105
X3.9712Y2.3129
X3.9744Y2.6297
X3.9769Y1.619
X3.9824Y2.4668
X3.9843Y2.0099
X3.9855Y1.7908
X3.9867Y3.4089
X4.006Y3.528
X4.0081Y0.5163
X4.0095Y2.4505
X4.0185Y3.6139
X4.0203Y1.4733
X4.0206Y2.1605
X4.0241Y2.5857
X4.0427Y2.9557
X4.0435Y2.9047
X4.0493Y1.2503
X4.0562Y2.2927
X4.0565Y2.3702
X4.0565Y1.9082
X4.0637Y3.2378
X4.0774Y2.7008
X4.0793Y2.6118
X4.0814Y1.9308
X4.0881Y0.6416
X4.1006Y1.7282
X4.1083Y1.8157
X4.1202Y2.431
X4.124Y0.2531
X4.1241Y2.3977
X4.1285Y2.943
X4.1335Y2.8052
X4.1368Y2.4551
X4.138Y3.2307
X4.1435Y1.9106
X4.1436Y2.0987
X4.1437Y0.3621
X4.1468Y2.5843
X4.1485Y2.7075
X4.1583Y0.9916
X4.1609Y0.7211
X4.163Y0.2295
X4.1639Y0.8813
X4.1793Y2.1618
X4.1805Y0.4923
X4.1816Y1.8445
X4.182Y1.8869
X4.1829Y1.6934
X4.1853Y0.3798
X4.1854Y2.2941
X4.1932Y0.6795
X4.1984Y2.4262
X4.1991Y0.7348
X4.2111Y0.9309
X4.2124Y1.9583
X4.2158Y1.7807
X4.2184Y2.1128
X4.2207Y0.7543
X4.222Y1.0615
X4.2224Y0.2522
X4.2291Y2.1796
X4.2307Y1.4738
X4.2382Y2.388
X4.2401Y0.7876
X4.2407Y2.4251
X4.2421Y0.3621
X4.2443Y2.8673
X4.253Y1.551
X4.2545Y3.0484
X4.2609Y1.0921
X4.2618Y0.2528
X4.265Y0.4412
X4.2701Y2.8255
X4.2722Y1.9049
X4.2744Y0.3622
X4.2751Y0.6685
X4.2936Y1.4899
X4.2963Y2.1156
X4.3017Y1.5597
X4.3028Y1.8371
X4.3085Y2.1558
X4.3085Y1.9559
X4.3093Y0.4053
X4.3097Y1.7406
X4.31Y1.62
X4.3125Y3.487
X4.3157Y1.8873
X4.316Y2.823
X4.3203Y2.9425
X4.3209Y0.2519
X4.3209Y0.362
X4.3272Y1.4899
X4.3315Y0.733
X4.3462Y1.579
X4.3569Y0.7618
X4.3577Y1.232
X4.3579Y0.6417
X4.3581Y0.6831
X4.3597Y0.8421
X4.3602Y0.362
X4.3603Y2.9571
X4.3605Y3.4875
X4.3661Y2.0215
X4.3699Y2.9163
X4.3707Y3.3927
X4.3751Y2.2509
X4.3799Y0.2524
X4.3808Y2.4717
X4.3857Y0.583
X4.3862Y0.617
X4.3889Y2.9573
X4.3892Y1.4734
X4.3967Y2.0305
X4.3976Y2.0772
X4.3996Y0.3621
X4.4031Y3.1108
X4.409Y2.9368
X4.4176Y1.8375
X4.4283Y2.7138
X4.4285Y1.4732
X4.4295Y0.918
X4.4298Y3.2905
X4.4316Y0.9761
X4.4382Y2.9436
X4.4383Y2.3972
X4.439Y0.2522
X4.4396Y1.7478
X4.4451Y3.1711
X4.4565Y3.6756
X4.4568Y3.5947
X4.471Y3.2521
X4.4712Y2.5439
X4.473Y1.4735
X4.4765Y1.6554
X4.4769Y2.8051
X4.4938Y3.555
X4.4946Y1.5662
X4.4959Y0.8426
X4.4963Y0.9445
X4.5014Y2.6725
X4.5022Y2.7134
X4.51Y2.309
X4.5112Y1.4858
X4.5129Y2.8687
X4.5187Y2.4051
X4.519Y3.5245
X4.521Y2.0266
X4.5224Y1.9016
X4.5233Y1.9942
X4.5234Y2.2665
X4.5291Y1.5742
X4.5392Y1.7337
X4.5394Y0.9889
X4.5467Y3.0486
X4.5472Y0.5818
X4.5543Y1.474
X4.556Y1.503
X4.5594Y2.1619
X4.5631Y2.643
X4.5723Y1.7721
X4.577Y0.1744
X4.5827Y2.6184
X4.5842Y0.6215
X4.5867Y2.5012
X4.5963Y2.7134
X4.5963Y2.4085
X4.5975Y3.0645
X4.6001Y0.9486
X4.6063Y2.2695
X4.6091Y3.147
X4.6113Y1.4738
X4.6119Y1.5027
X4.6188Y0.6655
X4.6239Y0.9724
X4.6241Y0.7801
X4.6263Y1.6736
X4.628Y2.041
X4.6287Y0.6183
X4.6294Y0.5637
X4.6368Y0.3393
X4.6381Y0.7421
X4.6496Y0.8469
X4.6553Y1.5068
X4.6572Y1.2996
X4.6585Y0.7219
X4.6591Y0.3586
X4.6648Y1.4745
X4.6773Y3.3779
X4.6969Y1.231
X4.7041Y1.4735
X4.7101Y3.0485
X4.7201Y2.9571
X4.7249Y0.6275
X4.7273Y3.2058
X4.7318Y3.3234
X4.742Y0.0456
X4.742Y0.6037
X4.7441Y2.9123
X4.7447Y2.8736
X4.7451Y2.7134
X4.7454Y2.6726
X4.7464Y3.4201
X4.7551Y2.0501
X4.7557Y2.5012
X4.7582Y3.297
X4.7751Y1.6954
X4.7777Y0.5154
X4.7837Y3.131
X4.7841Y2.9173
X4.7874Y3.3791
X4.7986Y1.2304
X4.8139Y3.3526
X4.8172Y0.6655
X4.8202Y2.9567
X4.8229Y3.0546
X4.828Y3.2271
X4.8435Y2.826
X4.857Y0.1735
X4.8604Y0.5797
X4.8712Y1.8382
X4.8781Y2.4598
X4.8882Y0.6483
X4.8931Y1.4743
X4.9001Y1.8331
X4.9145Y0.177
X4.9162Y2.7211
X4.9357Y1.9676
X4.9361Y2.2416
X4.9383Y3.2283
X4.9508Y1.2752
X4.9605Y2.395
X4.972Y2.132
X4.9771Y3.1895
X4.9857Y2.095
X4.988Y1.8017
X4.9913Y1.8935
X5.002Y2.3668
X5.0086Y2.5439
X5.0112Y2.4812
X5.0137Y3.4108
X5.0466Y0.0848
X5.0567Y1.7312
X5.0773Y2.5507
X5.0813Y1.1145
X5.0936Y3.7223
X5.0969Y2.1428
X5.1017Y0.6416
X5.1069Y2.0242
X5.1073Y1.9578
X5.1193Y1.8741
X5.1201Y2.2064
X5.121Y0.4236
X5.122Y1.8232
X5.1313Y2.4634
X5.1398Y2.2558
X5.1461Y1.5029
X5.1498Y2.5497
X5.1557Y1.9575
X5.1561Y2.1018
X5.1734Y2.2359
X5.1866Y2.419
X5.1869Y2.3896
X5.1913Y2.2906
X5.202Y1.9665
X5.2068Y0.5361
X5.2223Y3.6944
X5.2368Y1.5962
X5.2441Y2.2247
X5.249Y1.958
X5.255Y0.6884
X5.2551Y1.6891
X5.2585Y1.1732
X5.2656Y0.2601
X5.2695Y0.6416
X5.2766Y1.741
X5.2861Y1.7082
X5.291Y1.1625
X5.2928Y0.6033
X5.302Y2.3086
X5.3106Y0.3619
X5.311Y3.4195
X5.3123Y3.3909
X5.313Y2.2434
X5.325Y0.194
X5.3272Y1.6375
X5.3292Y2.5173
X5.3427Y2.045
X5.3459Y2.4006
X5.3486Y2.087
X5.3486Y1.81
X5.3497Y1.9442
X5.3524Y1.6604
X5.3526Y1.4778
X5.354Y0.7421
X5.3558Y3.5737
X5.3561Y0.8569
X5.3594Y0.7007
X5.3642Y0.4074
X5.3675Y1.6858
X5.368Y1.5354
X5.3695Y0.099
X5.3712Y0.7867
X5.3743Y0.2173
X5.3799Y0.8331
X5.385Y1.773
X5.3871Y2.3676
X5.3984Y2.2287
X5.4035Y0.2522
X5.4096Y3.4621
X5.415Y1.4572
X5.4228Y0.3626
X5.4384Y2.2068
X5.4391Y2.1319
X5.4429Y0.253
X5.4448Y1.7633
X5.4483Y1.4492
X5.4506Y0.7687
X5.4538Y3.6702
X5.4555Y0.992
X5.4562Y0.6685
X5.4589Y2.3717
X5.4626Y0.3618
X5.4745Y1.9687
X5.4778Y2.692
X5.4787Y2.2415
X5.479Y1.009
X5.4832Y1.4915
X5.4931Y1.6629
X5.4945Y3.075
X5.4961Y0.4117
X5.502Y0.2518
X5.5107Y1.8711
X5.5257Y2.12
X5.5257Y1.8042
X5.527Y2.077
X5.5385Y0.7618
X5.5389Y0.6518
X5.5392Y0.6831
X5.5392Y0.7252
X5.5413Y0.3618
X5.5415Y2.968
X5.5458Y1.9739
X5.5461Y0.6144
X5.5581Y0.2495
X5.5682Y2.014
X5.57Y2.6184
X5.5744Y1.7069
X5.5748Y0.6108
X5.5807Y0.3622
X5.59Y1.9553
X5.5907Y2.5532
X5.5956Y1.7326
X5.609Y0.873
X5.6107Y2.4381
X5.6108Y2.4789
X5.6149Y2.7644
X5.6156Y2.6777
X5.6157Y2.7946
X5.619Y0.243
X5.6246Y1.1611
X5.628Y2.0709
X5.6334Y0.9614
X5.6462Y1.8635
X5.6466Y1.829
X5.6505Y0.5428
X5.6589Y0.8776
X5.6593Y2.1904
X5.6616Y1.7133
X5.6625Y0.3524
X5.6658Y1.4938
X5.6813Y0.8439
X5.688Y1.2554
X5.6945Y1.9592
X5.6945Y1.8281
X5.695Y2.1013
X5.6995Y0.883
X5.7019Y3.642
X5.7026Y2.4154
X5.7095Y2.7339
X5.7133Y2.6235
X5.7135Y1.4791
X5.7185Y0.5818
X5.7254Y2.5339
X5.7357Y2.4802
X5.7391Y1.2711
X5.7399Y1.0289
X5.741Y1.32
X5.747Y2.6055
X5.7475Y2.7616
X5.7653Y0.6214
X5.7746Y1.9506
X5.775Y2.2254
X5.7944Y2.643
X5.7965Y1.7418
X5.7994Y0.7618
X5.8007Y0.6655
X5.8018Y1.3566
X5.8042Y2.0158
X5.8264Y2.4132
X5.8319Y3.6821
X5.8368Y0.776
X5.8377Y1.1707
X5.8385Y2.7445
X5.8388Y1.8351
X5.8414Y1.4057
X5.8457Y1.2122
X5.8468Y0.5161
X5.8515Y1.9682
X5.8526Y3.2961
X5.865Y0.6508
X5.8661Y0.6812
X5.8797Y2.2365
X5.8876Y2.0844
X5.8976Y0.9916
X5.8978Y0.8454
X5.8985Y1.3482
X5.9285Y2.4779
X5.931Y0.9235
X5.9343Y2.7513
X5.9588Y0.5165
X5.9791Y2.67
X5.9971Y0.6636
X6.0015Y0.4685
X6.0406Y2.4022
X6.0557Y0.3835
X6.0693Y0.5165
X6.127Y0.8985
T2
X5.904Y3.383
X5.904Y3.238
X6.0106Y3.383
X6.0106Y3.238
X6.11Y0.994
X6.1178Y3.383
X6.1178Y3.238
T3
X0.4339Y0.205
X0.4339Y0.1263
X0.5126Y0.205
X0.5126Y0.1263
X0.5913Y0.205
X0.5913Y0.1263
X0.6701Y0.205
X0.6701Y0.1263
X0.7311Y3.6488
X0.7311Y3.5701
X0.7488Y0.205
X0.7488Y0.1263
X0.8099Y3.6488
X0.8099Y3.5701
X0.8276Y0.205
X0.8276Y0.1263
X0.8886Y3.6488
X0.8886Y3.5701
X0.9063Y0.205
X0.9063Y0.1263
X0.9673Y3.6488
X0.9673Y3.5701
X0.985Y0.205
X0.985Y0.1263
X1.0461Y3.6488
X1.0461Y3.5701
X1.0638Y0.205
X1.0638Y0.1263
X1.1248Y3.6488
X1.1248Y3.5701
X1.1425Y0.205
X1.1425Y0.1263
X1.2213Y0.205
X1.2213Y0.1263
X1.3Y0.205
X1.3Y0.1263
X3.0345Y3.6647
X3.0345Y3.586
X3.1133Y3.6647
X3.1133Y3.586
X3.192Y3.6647
X3.192Y3.586
X3.2708Y3.6647
X3.2708Y3.586
X3.3495Y3.6647
X3.3495Y3.586
X3.4282Y3.6647
X3.4282Y3.586
X3.507Y3.6647
X3.507Y3.586
X3.5857Y3.6647
X3.5857Y3.586
X3.6645Y3.6647
X3.6645Y3.586
X3.7432Y3.6647
X3.7432Y3.586
X3.8219Y3.6647
X3.8219Y3.586
X3.9007Y3.6647
X3.9007Y3.586
X4.6457Y3.6488
X4.6457Y3.5701
X4.7244Y3.6488
X4.7244Y3.5701
X4.8031Y3.6488
X4.8031Y3.5701
X4.8819Y3.6488
X4.8819Y3.5701
X4.9606Y3.6488
X4.9606Y3.5701
X5.0394Y3.6488
X5.0394Y3.5701
X5.1181Y3.6488
X5.1181Y3.5701
T5
X0.1027Y3.318
X0.1027Y3.218
X0.1027Y3.118
X0.1027Y3.018
X0.1027Y2.918
X0.1027Y2.818
X0.1027Y2.718
X0.1027Y2.618
X0.1027Y2.518
X0.1027Y2.418
X0.1027Y2.318
X0.1027Y2.218
T6
X0.2477Y1.103
X0.2477Y0.563
T7
X1.6004Y0.0772
X1.624Y0.2701
X2.1949Y0.2701
X2.2185Y0.0772
X2.7815Y0.0772
X2.8051Y0.2701
X3.376Y0.2701
X3.3996Y0.0772
X3.9626Y0.0772
X3.9862Y0.2701
X4.5571Y0.2701
X4.5807Y0.0772
X5.1437Y0.0772
X5.1673Y0.2701
X5.7382Y0.2701
X5.7618Y0.0772
T8
X0.1474Y1.2034
X0.1474Y1.0026
X0.1474Y0.6634
X0.1474Y0.4626
X0.3481Y1.2034
X0.3481Y1.0026
X0.3481Y0.6634
X0.3481Y0.4626
T9
X0.1575Y3.5906
X0.1575Y0.1575
X6.0504Y3.5906
X6.0504Y0.1575
T4
G00X0.1065Y1.7936
M15
G01X0.1065Y1.8724
M16
G05
G00X0.264Y1.648
M15
G01X0.1853Y1.648
M16
G05
G00X0.3427Y1.7838
M15
G01X0.3427Y1.8822
M16
G05
T0
M30
