M48
INCH,TZ
T1C0.0118
T2C0.0276
T3C0.0315
T4C0.0394
T5C0.0433
T6C0.0500
T7C0.0512
T8C0.0700
T9C0.1260
%
G90
G05
T1
X1480Y21134
X1999Y21134
X2734Y21134
X2970Y23770
X3020Y28620
X3210Y28030
X3265Y24400
X3535Y20760
X3777Y1824
X4044Y21134
X4090Y31049
X4135Y13905
X4140Y15925
X4235Y20760
X4365Y22520
X4390Y13645
X4485Y16270
X4545Y26180
X4565Y24810
X4565Y24335
X4570Y25185
X4637Y27543
X4700Y13345
X4793Y16577
X4903Y33977
X4938Y33017
X4995Y23700
X5050Y15435
X5228Y12369
X5395Y6459
X5402Y11205
X5462Y19737
X5524Y14635
X5630Y24410
X5631Y15437
X5672Y23780
X6030Y33393
X6030Y31819
X6120Y26035
X6188Y11949
X6434Y16969
X6442Y13855
X6442Y13033
X6459Y18298
X6544Y8764
X6580Y24429
X6637Y15471
X6642Y10454
X6750Y19040
X6915Y20860
X6925Y6460
X6950Y30780
X6950Y30367
X6965Y22005
X7066Y11327
X7070Y10408
X7105Y490
X7146Y9083
X7151Y24395
X7171Y7166
X7171Y4499
X7350Y9562
X7397Y20563
X7511Y23700
X7516Y24476
X7570Y28818
X7662Y21338
X7702Y26140
X7705Y25840
X7806Y19300
X7820Y14119
X7959Y10913
X7981Y5376
X8020Y21510
X8215Y21050
X8329Y29251
X8335Y19327
X8419Y24203
X8531Y10308
X8604Y21512
X8728Y24003
X8762Y27653
X8797Y17657
X8875Y5290
X8942Y23548
X8945Y20253
X9004Y10454
X9020Y14754
X9025Y13789
X9031Y16153
X9032Y17875
X9074Y24844
X9074Y26616
X9278Y32336
X9466Y6420
X9466Y4172
X9646Y34233
X9676Y12688
X9890Y28625
X9890Y28225
X9962Y31374
X9975Y14376
X9979Y22802
X9983Y13361
X9995Y15681
X10063Y24468
X10230Y11140
X10238Y16717
X10244Y31026
X10285Y25425
X10291Y26152
X10328Y10751
X10330Y13700
X10345Y12487
X10640Y17662
X10646Y26446
X10898Y12059
X10910Y21345
X10910Y20700
X10910Y19970
X10961Y25196
X11048Y4077
X11077Y13379
X11100Y22745
X11165Y6453
X11461Y14687
X11517Y25067
X11721Y28782
X11838Y8988
X11924Y7350
X11924Y5102
X11996Y7723
X12087Y12291
X12162Y24881
X12226Y29704
X12230Y13244
X12244Y4170
X12276Y9199
X12342Y26570
X12441Y28749
X12467Y32432
X12500Y7641
X12515Y5284
X12614Y4168
X12622Y17712
X12635Y12088
X12742Y23286
X12770Y35288
X12824Y22290
X12848Y27897
X12926Y35796
X12980Y27515
X13125Y5284
X13135Y19689
X13136Y20985
X13205Y30510
X13253Y26218
X13314Y8983
X13322Y15577
X13322Y8696
X13335Y18502
X13352Y33781
X13397Y17888
X13421Y16959
X13422Y19651
X13444Y14395
X13479Y35996
X13568Y23768
X13572Y34515
X13583Y27057
X13584Y12303
X13601Y22647
X13612Y24707
X13627Y21035
X13656Y11078
X13774Y18227
X13942Y27234
X13942Y24926
X13952Y15821
X13954Y13244
X13971Y14380
X13972Y5097
X13983Y19684
X13993Y17061
X14180Y30608
X14195Y35932
X14197Y30908
X14222Y6637
X14223Y18607
X14225Y24596
X14247Y7115
X14254Y14187
X14273Y25037
X14312Y21249
X14320Y30176
X14345Y26740
X14350Y28818
X14359Y20531
X14382Y28532
X14391Y13197
X14407Y18386
X14491Y29651
X14515Y32448
X14576Y16875
X14759Y21655
X14773Y33553
X14796Y31017
X14800Y22543
X14842Y31827
X15052Y11835
X15060Y7115
X15312Y15970
X15363Y24190
X15398Y31002
X15446Y35905
X15470Y25820
X15523Y33111
X15540Y33728
X15548Y25178
X15575Y15108
X15580Y14805
X15581Y29422
X15613Y32777
X15627Y35116
X15650Y27243
X15663Y25608
X15666Y24001
X15678Y16811
X15702Y15984
X15706Y13279
X15747Y35409
X15771Y10773
X15845Y19810
X15872Y22567
X15915Y20390
X16016Y18892
X16053Y21609
X16070Y30890
X16096Y30241
X16148Y26020
X16182Y24473
X16222Y26527
X16251Y33475
X16317Y28695
X16347Y7263
X16398Y15031
X16468Y12940
X16517Y18760
X16519Y28898
X16623Y26873
X16628Y30168
X16652Y17260
X16656Y23422
X16664Y21624
X16722Y29528
X16815Y31251
X16818Y34435
X16860Y32511
X16942Y35075
X16945Y36092
X16978Y23210
X16988Y33019
X16993Y12646
X17061Y30817
X17062Y27419
X17143Y11835
X17208Y24027
X17225Y23739
X17247Y13291
X17248Y6365
X17362Y13705
X17364Y26527
X17378Y33164
X17388Y35446
X17421Y3621
X17451Y19014
X17479Y13033
X17480Y2524
X17554Y20258
X17605Y3891
X17615Y29812
X17684Y7372
X17714Y20654
X17722Y35616
X17765Y29011
X17815Y2526
X17924Y13029
X18115Y31995
X18123Y36595
X18161Y7008
X18192Y15513
X18258Y25897
X18299Y19317
X18312Y30744
X18312Y30458
X18328Y24895
X18331Y31631
X18341Y34207
X18364Y14600
X18365Y35916
X18367Y33188
X18368Y19746
X18448Y34756
X18499Y35524
X18549Y24669
X18573Y36595
X18582Y27907
X18583Y4327
X18585Y14351
X18602Y2524
X18617Y22765
X18652Y13316
X18663Y18321
X18690Y7975
X18714Y29432
X18773Y19536
X18799Y3619
X18851Y9603
X18925Y26315
X18930Y32513
X18936Y25993
X18944Y33436
X18949Y36466
X18996Y2530
X19030Y25696
X19033Y22663
X19039Y4521
X19045Y25059
X19048Y13309
X19051Y27937
X19071Y15515
X19073Y20604
X19082Y7618
X19105Y17549
X19128Y6685
X19144Y14587
X19193Y3633
X19195Y16043
X19207Y21193
X19322Y2529
X19334Y18421
X19453Y19060
X19474Y23979
X19483Y3619
X19507Y13692
X19545Y10048
X19621Y30535
X19629Y29676
X19679Y34865
X19701Y16559
X19721Y35339
X19748Y24984
X19761Y19176
X19767Y26514
X19776Y31630
X19801Y33228
X19809Y13413
X19834Y21224
X19886Y6831
X19901Y11756
X19903Y11370
X19940Y8980
X19949Y7330
X19971Y3656
X20004Y35903
X20011Y18375
X20025Y6263
X20039Y15064
X20057Y20196
X20057Y15395
X20065Y25659
X20090Y32972
X20149Y21553
X20174Y35019
X20199Y21245
X20208Y23575
X20208Y19861
X20218Y10579
X20223Y36122
X20264Y16735
X20264Y3628
X20269Y26917
X20279Y27480
X20300Y6113
X20320Y26491
X20368Y2531
X20412Y29809
X20457Y17159
X20463Y22563
X20616Y26443
X20640Y35275
X20654Y14168
X20677Y16086
X20694Y5427
X20732Y11563
X20734Y22900
X20756Y10484
X20768Y2527
X20792Y32337
X20798Y19440
X20836Y14435
X20855Y14721
X20898Y25205
X20927Y13187
X20930Y9180
X20969Y16129
X20994Y10246
X21054Y27640
X21055Y31693
X21065Y8710
X21070Y17764
X21108Y24930
X21153Y19667
X21161Y5429
X21305Y23639
X21358Y8437
X21397Y9110
X21405Y5198
X21432Y12975
X21477Y28596
X21658Y26470
X21726Y21465
X21728Y5825
X21739Y25702
X21742Y26075
X21777Y14959
X21777Y15302
X21781Y21030
X21782Y20166
X21782Y15851
X21785Y20452
X21797Y35791
X21839Y19205
X21856Y14192
X21895Y8855
X21914Y23754
X22021Y34225
X22023Y34568
X22024Y21869
X22033Y31899
X22111Y27286
X22323Y6212
X22326Y3911
X22351Y31085
X22456Y13637
X22509Y33006
X22536Y27824
X22545Y35637
X22577Y6634
X22666Y10104
X22728Y28776
X22836Y17830
X22850Y30766
X22876Y35233
X22876Y1130
X22942Y14354
X22980Y3263
X23018Y20940
X23035Y5163
X23055Y19604
X23063Y23550
X23066Y28985
X23066Y28696
X23080Y22587
X23091Y26220
X23129Y31446
X23188Y6831
X23202Y21735
X23269Y16607
X23327Y34662
X23350Y9575
X23410Y34285
X23415Y22753
X23423Y23041
X23491Y14408
X23500Y24766
X23542Y20879
X23586Y28461
X23690Y33038
X23697Y35597
X23730Y19613
X23730Y14617
X23738Y7904
X23780Y25986
X23795Y5943
X23948Y24670
X23953Y36598
X24046Y19512
X24050Y32285
X24089Y26475
X24107Y14920
X24112Y18574
X24116Y15229
X24116Y20675
X24151Y13458
X24152Y23733
X24155Y5157
X24174Y29603
X24216Y837
X24264Y16208
X24312Y36723
X24322Y1816
X24392Y30846
X24397Y21470
X24428Y22826
X24430Y35642
X24430Y30559
X24455Y6525
X24484Y34544
X24512Y8948
X24657Y28577
X24774Y13197
X24799Y9771
X24914Y4108
X24941Y35647
X24941Y29603
X24961Y24293
X25151Y16278
X25188Y13090
X25209Y32123
X25221Y35037
X25246Y30560
X25247Y15501
X25260Y6481
X25260Y5172
X25305Y11315
X25306Y36728
X25322Y25268
X25334Y20951
X25335Y25559
X25343Y20302
X25350Y33220
X25438Y27292
X25443Y16795
X25452Y1864
X25453Y29596
X25458Y18597
X25463Y15709
X25489Y21481
X25500Y3718
X25503Y4888
X25523Y26593
X25534Y20075
X25579Y25908
X25596Y23747
X25774Y20981
X25800Y21661
X25836Y13805
X25837Y18218
X25851Y29603
X25925Y2650
X26019Y14630
X26105Y21506
X26119Y20589
X26129Y14946
X26130Y9382
X26218Y35643
X26220Y18827
X26250Y25342
X26343Y33412
X26350Y32074
X26350Y30762
X26410Y21654
X26413Y34423
X26511Y13805
X26656Y29591
X26670Y35025
X26682Y32665
X26683Y27535
X26689Y17205
X26705Y5854
X26710Y18930
X26890Y24105
X26919Y6440
X27007Y28721
X27037Y5527
X27086Y26545
X27124Y6640
X27160Y5951
X27190Y6247
X27225Y23459
X27238Y36097
X27245Y29872
X27247Y16156
X27296Y15176
X27300Y19152
X27303Y14519
X27343Y24310
X27343Y20196
X27348Y13840
X27390Y9041
X27390Y4376
X27393Y25938
X27398Y19592
X27399Y24763
X27409Y14825
X27420Y28151
X27579Y35782
X27583Y5820
X27681Y6809
X27760Y16447
X27843Y5409
X27896Y17442
X28054Y32318
X28056Y33228
X28058Y31693
X28059Y32716
X28061Y33740
X28062Y31099
X28103Y20621
X28227Y19431
X28242Y14309
X28290Y16465
X28310Y24666
X28410Y23863
X28415Y13480
X28419Y21481
X28435Y6165
X28443Y26989
X28457Y18712
X28472Y11315
X28476Y18411
X28508Y7872
X28521Y7055
X28548Y19588
X28548Y14303
X28633Y22437
X28634Y17231
X28660Y15012
X28716Y23027
X28789Y2895
X28818Y15926
X28824Y21092
X28826Y15615
X28827Y25950
X28831Y20751
X28898Y17621
X29005Y21422
X29006Y16281
X29022Y11317
X29075Y6468
X29094Y13059
X29200Y19118
X29201Y14720
X29220Y7665
X29262Y2528
X29268Y25125
X29271Y13573
X29279Y23972
X29307Y6033
X29310Y19969
X29353Y18311
X29483Y27544
X29521Y23796
X29572Y14034
X29626Y2528
X29636Y26731
X29696Y4123
X29697Y9561
X29716Y32140
X29798Y15122
X29807Y20216
X29850Y25781
X29890Y27489
X29901Y31912
X29927Y16655
X30006Y25063
X30047Y17138
X30066Y29907
X30074Y4222
X30107Y30673
X30114Y30387
X30117Y14654
X30133Y26639
X30160Y34535
X30183Y6340
X30208Y22624
X30330Y3632
X30340Y7421
X30350Y24428
X30387Y28020
X30399Y19650
X30411Y9719
X30415Y17661
X30417Y13430
X30432Y2532
X30440Y33405
X30538Y24931
X30605Y32528
X30638Y16205
X30647Y3625
X30675Y24216
X30678Y31617
X30685Y25234
X30697Y26476
X30704Y21261
X30711Y27661
X30754Y17409
X30771Y26935
X30839Y19843
X30839Y33412
X30877Y7618
X30889Y18977
X30903Y23323
X30923Y7252
X30939Y6685
X31004Y2532
X31007Y31610
X31173Y7993
X31190Y33413
X31202Y18483
X31268Y29794
X31272Y9473
X31292Y4123
X31356Y17927
X31390Y29308
X31398Y2525
X31436Y16577
X31465Y8995
X31471Y26637
X31472Y21492
X31472Y16109
X31525Y23391
X31525Y20854
X31527Y15114
X31528Y15418
X31530Y20527
X31530Y25718
X31534Y20241
X31536Y26091
X31607Y6362
X31657Y19211
X31681Y30560
X31737Y3617
X31769Y7330
X31794Y32763
X31820Y6169
X31866Y23480
X31892Y33409
X31902Y14221
X31988Y2524
X31999Y8455
X32054Y5566
X32068Y5996
X32185Y3619
X32237Y1949
X32276Y24732
X32374Y26634
X32384Y3888
X32423Y11893
X32470Y30575
X32485Y16379
X32579Y2527
X32625Y3695
X32665Y33414
X32723Y30064
X32743Y11984
X32789Y30580
X32789Y12361
X32858Y13939
X32914Y3679
X32991Y17880
X33122Y29208
X33133Y33412
X33148Y8446
X33169Y19282
X33261Y19631
X33268Y5428
X33326Y9628
X33467Y30648
X33512Y30937
X33564Y9390
X33585Y5825
X33596Y22267
X33605Y8680
X33754Y19808
X33776Y15959
X33803Y31084
X33919Y16703
X33973Y15089
X34030Y8910
X34093Y26779
X34184Y11504
X34245Y18170
X34249Y17315
X34256Y6212
X34360Y8660
X34371Y7518
X34374Y7224
X34379Y12768
X34390Y6655
X34396Y20625
X34453Y33626
X34473Y22092
X34479Y11626
X34646Y26014
X34676Y11393
X34688Y14632
X34703Y28109
X34742Y17715
X34756Y9358
X34824Y23534
X34840Y8375
X34846Y6486
X34846Y5171
X34847Y35371
X34963Y26341
X34994Y9120
X35016Y6848
X35134Y22744
X35166Y569
X35185Y12768
X35224Y29208
X35272Y11574
X35303Y3191
X35308Y14632
X35438Y19257
X35474Y18502
X35475Y5396
X35506Y27177
X35519Y8835
X35554Y21051
X35562Y22889
X35596Y6234
X35601Y33101
X35608Y27571
X35637Y26867
X35661Y31318
X35777Y26205
X35850Y11661
X35906Y8862
X35966Y5168
X36017Y7245
X36073Y23207
X36076Y32634
X36081Y30745
X36155Y18923
X36158Y35403
X36166Y7752
X36170Y18170
X36170Y17262
X36175Y16966
X36185Y8728
X36215Y6468
X36216Y27593
X36318Y21607
X36378Y27836
X36442Y1723
X36448Y2574
X36484Y5396
X36518Y29573
X36571Y30488
X36581Y20198
X36620Y14732
X36681Y17870
X36681Y18252
X36701Y24462
X36731Y11078
X36757Y21393
X36837Y23864
X36871Y7211
X36895Y31880
X36908Y33927
X36924Y26941
X36955Y32481
X36976Y33586
X36986Y8728
X37071Y6492
X37071Y5162
X37105Y21778
X37201Y19038
X37211Y15959
X37288Y24243
X37311Y26835
X37312Y8710
X37520Y11342
X37523Y21785
X37562Y30633
X37604Y16625
X37656Y24065
X37737Y5163
X37766Y28106
X37897Y29547
X37935Y7979
X37950Y30490
X38001Y18954
X38006Y23009
X38058Y17873
X38110Y28050
X38164Y25628
X38213Y34581
X38281Y20199
X38300Y5361
X38369Y22092
X38429Y16625
X38430Y12493
X38433Y18157
X38509Y24033
X38544Y17748
X38545Y20032
X38655Y29570
X38693Y20588
X38735Y30548
X38797Y28052
X38850Y30899
X38851Y25649
X38866Y25948
X38895Y24041
X38902Y32451
X38924Y17246
X38932Y16838
X38996Y34439
X39049Y8257
X39116Y21303
X39167Y30488
X39182Y23962
X39222Y28946
X39238Y25601
X39239Y26643
X39311Y35457
X39324Y34089
X39358Y30786
X39430Y32378
X39545Y30483
X39577Y19058
X39580Y29572
X39605Y15937
X39638Y24296
X39686Y22396
X39703Y20489
X39710Y28105
X39712Y23129
X39744Y26297
X39769Y16190
X39824Y24668
X39843Y20099
X39855Y17908
X39867Y34089
X40060Y35280
X40081Y5163
X40095Y24505
X40203Y14733
X40206Y21605
X40241Y25857
X40347Y36301
X40427Y29557
X40435Y29047
X40493Y12503
X40562Y22927
X40565Y23702
X40565Y19082
X40637Y32378
X40774Y27008
X40793Y26118
X40814Y19308
X40881Y6416
X41006Y17282
X41083Y18157
X41202Y24310
X41240Y2531
X41241Y23977
X41285Y29430
X41335Y28052
X41368Y24551
X41380Y32307
X41435Y19106
X41436Y20987
X41437Y3621
X41468Y25843
X41485Y27075
X41583Y9916
X41609Y7211
X41630Y2295
X41639Y8813
X41793Y21618
X41805Y4923
X41816Y18445
X41820Y18869
X41829Y16934
X41853Y3798
X41854Y22941
X41932Y6795
X41984Y24262
X41991Y7348
X42111Y9309
X42124Y19583
X42158Y17807
X42184Y21128
X42207Y7543
X42220Y10615
X42224Y2522
X42291Y21796
X42307Y14738
X42382Y23880
X42401Y7876
X42407Y24251
X42421Y3621
X42443Y28673
X42530Y15510
X42545Y30484
X42609Y10921
X42618Y2528
X42650Y4412
X42701Y28255
X42722Y19049
X42744Y3622
X42751Y6685
X42936Y14899
X42963Y21156
X43017Y15597
X43028Y18371
X43085Y21558
X43085Y19559
X43093Y4053
X43097Y17406
X43100Y16200
X43125Y34870
X43157Y18873
X43160Y28230
X43203Y29425
X43209Y2519
X43209Y3620
X43272Y14899
X43315Y7330
X43462Y15790
X43569Y7618
X43577Y12320
X43579Y6417
X43581Y6831
X43597Y8421
X43602Y3620
X43603Y29571
X43605Y34875
X43661Y20215
X43699Y29163
X43707Y33927
X43751Y22509
X43799Y2524
X43808Y24717
X43857Y5830
X43862Y6170
X43889Y29573
X43892Y14734
X43967Y20305
X43976Y20772
X43996Y3621
X44031Y31108
X44090Y29368
X44176Y18375
X44283Y27138
X44285Y14732
X44295Y9180
X44298Y32905
X44316Y9761
X44382Y29436
X44383Y23972
X44390Y2522
X44396Y17478
X44451Y31711
X44565Y36756
X44568Y35947
X44710Y32521
X44712Y25439
X44730Y14735
X44765Y16554
X44769Y28051
X44938Y35550
X44946Y15662
X44959Y8426
X44963Y9445
X45014Y26725
X45022Y27134
X45100Y23090
X45112Y14858
X45129Y28687
X45187Y24051
X45190Y35245
X45210Y20266
X45224Y19016
X45233Y19942
X45234Y22665
X45291Y15742
X45392Y17337
X45394Y9889
X45467Y30486
X45472Y5818
X45543Y14740
X45560Y15030
X45594Y21619
X45631Y26430
X45723Y17721
X45770Y1744
X45827Y26184
X45842Y6215
X45867Y25012
X45963Y27134
X45963Y24085
X45975Y30645
X46001Y9486
X46063Y22695
X46091Y31470
X46113Y14738
X46119Y15027
X46188Y6655
X46239Y9724
X46241Y7801
X46263Y16736
X46280Y20410
X46287Y6183
X46294Y5637
X46368Y3393
X46381Y7421
X46496Y8469
X46553Y15068
X46572Y12996
X46585Y7219
X46591Y3586
X46648Y14745
X46773Y33779
X46969Y12310
X47041Y14735
X47101Y30485
X47201Y29571
X47249Y6275
X47273Y32058
X47318Y33234
X47420Y456
X47420Y6037
X47441Y29123
X47447Y28736
X47451Y27134
X47454Y26726
X47464Y34201
X47551Y20501
X47557Y25012
X47582Y32970
X47751Y16954
X47777Y5154
X47837Y31310
X47841Y29173
X47874Y33791
X47986Y12304
X48139Y33526
X48172Y6655
X48202Y29567
X48229Y30546
X48280Y32271
X48435Y28260
X48570Y1735
X48604Y5797
X48712Y18382
X48781Y24598
X48882Y6483
X48931Y14743
X49001Y18331
X49145Y1770
X49162Y27211
X49357Y19676
X49361Y22416
X49383Y32283
X49508Y12752
X49605Y23950
X49720Y21320
X49771Y31895
X49857Y20950
X49880Y18017
X49913Y18935
X50020Y23668
X50086Y25439
X50112Y24812
X50137Y34108
X50466Y848
X50567Y17312
X50773Y25507
X50813Y11145
X50936Y37223
X50969Y21428
X51017Y6416
X51069Y20242
X51073Y19578
X51193Y18741
X51201Y22064
X51210Y4236
X51220Y18232
X51313Y24634
X51398Y22558
X51461Y15029
X51498Y25497
X51557Y19575
X51561Y21018
X51734Y22359
X51866Y24190
X51869Y23896
X51913Y22906
X52020Y19665
X52068Y5361
X52223Y36944
X52368Y15962
X52441Y22247
X52490Y19580
X52550Y6884
X52551Y16891
X52585Y11732
X52656Y2601
X52695Y6416
X52766Y17410
X52861Y17082
X52910Y11625
X52928Y6033
X53020Y23086
X53106Y3619
X53110Y34195
X53123Y33909
X53130Y22434
X53272Y16375
X53292Y25173
X53427Y20450
X53459Y24006
X53486Y20870
X53486Y18100
X53497Y19442
X53524Y16604
X53526Y14778
X53540Y7421
X53558Y35737
X53561Y8569
X53594Y1904
X53594Y7007
X53642Y4074
X53675Y16858
X53680Y15354
X53695Y990
X53712Y7867
X53740Y2150
X53799Y8331
X53850Y17730
X53871Y23676
X53984Y22287
X54035Y2522
X54096Y34621
X54150Y14572
X54228Y3626
X54384Y22068
X54391Y21319
X54429Y2530
X54448Y17633
X54483Y14492
X54506Y7687
X54538Y36702
X54555Y9920
X54562Y6685
X54589Y23717
X54626Y3618
X54745Y19687
X54778Y26920
X54787Y22415
X54790Y10090
X54832Y14915
X54931Y16629
X54945Y30750
X54961Y4117
X55020Y2518
X55107Y18711
X55257Y21200
X55257Y18042
X55270Y20770
X55385Y7618
X55389Y6518
X55392Y6831
X55392Y7252
X55413Y3618
X55415Y29680
X55458Y19739
X55461Y6144
X55581Y2495
X55682Y20140
X55700Y26184
X55744Y17069
X55748Y6108
X55807Y3622
X55900Y19553
X55907Y25532
X55956Y17326
X56090Y8730
X56107Y24381
X56108Y24789
X56149Y27644
X56156Y26777
X56157Y27946
X56190Y2430
X56246Y11611
X56280Y20709
X56334Y9614
X56462Y18635
X56466Y18290
X56505Y5428
X56589Y8776
X56593Y21904
X56616Y17133
X56625Y3524
X56658Y14938
X56813Y8439
X56880Y12554
X56945Y19592
X56945Y18281
X56950Y21013
X56995Y8830
X57019Y36420
X57026Y24154
X57095Y27339
X57133Y26235
X57135Y14791
X57185Y5818
X57254Y25339
X57357Y24802
X57391Y12711
X57399Y10289
X57410Y13200
X57470Y26055
X57475Y27616
X57653Y6214
X57746Y19506
X57750Y22254
X57944Y26430
X57965Y17418
X57994Y7618
X58007Y6655
X58018Y13566
X58042Y20158
X58264Y24132
X58319Y36821
X58368Y7760
X58377Y11707
X58385Y27445
X58388Y18351
X58414Y14057
X58457Y12122
X58468Y5161
X58515Y19682
X58526Y32961
X58650Y6508
X58661Y6812
X58797Y22365
X58876Y20844
X58976Y9916
X58978Y8454
X58985Y13482
X59285Y24779
X59310Y9235
X59343Y27513
X59588Y5165
X59791Y26700
X59971Y6636
X60406Y24022
X60552Y4455
X60693Y5165
X61270Y8985
T2
X59040Y33830
X59040Y32380
X60106Y33830
X60106Y32380
X61100Y9940
X61178Y33830
X61178Y32380
T3
X4339Y2050
X4339Y1263
X5126Y2050
X5126Y1263
X5913Y2050
X5913Y1263
X6701Y2050
X6701Y1263
X7311Y36488
X7311Y35701
X7488Y2050
X7488Y1263
X8099Y36488
X8099Y35701
X8276Y2050
X8276Y1263
X8886Y36488
X8886Y35701
X9063Y2050
X9063Y1263
X9673Y36488
X9673Y35701
X9850Y2050
X9850Y1263
X10461Y36488
X10461Y35701
X10638Y2050
X10638Y1263
X11248Y36488
X11248Y35701
X11425Y2050
X11425Y1263
X12213Y2050
X12213Y1263
X13000Y2050
X13000Y1263
X30345Y36647
X30345Y35860
X31133Y36647
X31133Y35860
X31920Y36647
X31920Y35860
X32708Y36647
X32708Y35860
X33495Y36647
X33495Y35860
X34282Y36647
X34282Y35860
X35070Y36647
X35070Y35860
X35857Y36647
X35857Y35860
X36645Y36647
X36645Y35860
X37432Y36647
X37432Y35860
X38219Y36647
X38219Y35860
X39007Y36647
X39007Y35860
X46457Y36488
X46457Y35701
X47244Y36488
X47244Y35701
X48031Y36488
X48031Y35701
X48819Y36488
X48819Y35701
X49606Y36488
X49606Y35701
X50394Y36488
X50394Y35701
X51181Y36488
X51181Y35701
T5
X1027Y33180
X1027Y32180
X1027Y31180
X1027Y30180
X1027Y29180
X1027Y28180
X1027Y27180
X1027Y26180
X1027Y25180
X1027Y24180
X1027Y23180
X1027Y22180
T6
X2477Y11030
X2477Y5630
T7
X16004Y772
X16240Y2701
X21949Y2701
X22185Y772
X27815Y772
X28051Y2701
X33760Y2701
X33996Y772
X39626Y772
X39862Y2701
X45571Y2701
X45807Y772
X51437Y772
X51673Y2701
X57382Y2701
X57618Y772
T8
X1474Y12034
X1474Y10026
X1474Y6634
X1474Y4626
X3481Y12034
X3481Y10026
X3481Y6634
X3481Y4626
T9
X1575Y35906
X1575Y1575
X60504Y35906
X60504Y1575
T4
G00X1065Y17936
M15
G01X1065Y18724
M16
G05
G00X2640Y16480
M15
G01X1853Y16480
M16
G05
G00X3427Y17838
M15
G01X3427Y18822
M16
G05
T0
M30
