<?xml version="1.0" encoding="UTF-8" standalone="no"?>
<!-- Created with Inkscape (http://www.inkscape.org/) -->

<svg
   xmlns:dc="http://purl.org/dc/elements/1.1/"
   xmlns:cc="http://creativecommons.org/ns#"
   xmlns:rdf="http://www.w3.org/1999/02/22-rdf-syntax-ns#"
   xmlns:svg="http://www.w3.org/2000/svg"
   xmlns="http://www.w3.org/2000/svg"
   xmlns:xlink="http://www.w3.org/1999/xlink"
   xmlns:sodipodi="http://sodipodi.sourceforge.net/DTD/sodipodi-0.dtd"
   xmlns:inkscape="http://www.inkscape.org/namespaces/inkscape"
   width="210mm"
   height="297mm"
   viewBox="0 0 210 297"
   version="1.1"
   id="svg8"
   inkscape:version="0.92.2 5c3e80d, 2017-08-06"
   sodipodi:docname="block_diagram.svg">
  <defs
     id="defs2" />
  <sodipodi:namedview
     id="base"
     pagecolor="#ffffff"
     bordercolor="#666666"
     borderopacity="1.0"
     inkscape:pageopacity="0.0"
     inkscape:pageshadow="2"
     inkscape:zoom="0.35"
     inkscape:cx="-114.28571"
     inkscape:cy="674.28571"
     inkscape:document-units="mm"
     inkscape:current-layer="layer1"
     showgrid="true"
     inkscape:window-width="1920"
     inkscape:window-height="1035"
     inkscape:window-x="1680"
     inkscape:window-y="1"
     inkscape:window-maximized="1">
    <inkscape:grid
       type="xygrid"
       id="grid815" />
  </sodipodi:namedview>
  <metadata
     id="metadata5">
    <rdf:RDF>
      <cc:Work
         rdf:about="">
        <dc:format>image/svg+xml</dc:format>
        <dc:type
           rdf:resource="http://purl.org/dc/dcmitype/StillImage" />
        <dc:title></dc:title>
      </cc:Work>
    </rdf:RDF>
  </metadata>
  <g
     inkscape:label="Layer 1"
     inkscape:groupmode="layer"
     id="layer1">
    <path
       sodipodi:type="inkscape:offset"
       inkscape:radius="-1.3229166"
       inkscape:original="M 43.65625 80.041016 L 43.65625 99.884766 L 62.177734 99.884766 L 62.177734 80.041016 L 43.65625 80.041016 z "
       xlink:href="#rect844"
       style="opacity:1;fill:none;fill-opacity:1;stroke:none;stroke-width:0.2;stroke-miterlimit:4;stroke-dasharray:none;stroke-opacity:1"
       id="path854"
       inkscape:href="#rect844"
       d="M 44.978516,81.363281 V 98.5625 H 60.855469 V 81.363281 Z" />
    <rect
       style="opacity:1;fill:none;fill-opacity:1;stroke:#000000;stroke-width:0.2;stroke-miterlimit:4;stroke-dasharray:none;stroke-opacity:1"
       id="rect844"
       width="18.520834"
       height="19.84375"
       x="43.65625"
       y="80.041664" />
    <path
       sodipodi:type="inkscape:offset"
       inkscape:radius="0"
       inkscape:original="M 55.527344 84.037109 C 55.138048 84.037109 54.831353 84.157624 54.607422 84.396484 C 54.383491 84.634196 54.271484 84.959635 54.271484 85.373047 C 54.271484 85.78531 54.383491 86.110749 54.607422 86.349609 C 54.831353 86.587321 55.138048 86.707031 55.527344 86.707031 C 55.678928 86.707031 55.823477 86.685872 55.958984 86.644531 C 56.09564 86.60319 56.223976 86.541667 56.345703 86.458984 L 56.345703 86.09375 C 56.22857 86.202845 56.103913 86.285871 55.970703 86.339844 C 55.838641 86.393817 55.698116 86.419922 55.548828 86.419922 C 55.254847 86.419922 55.029225 86.331489 54.873047 86.152344 C 54.716869 85.97205 54.638672 85.711815 54.638672 85.373047 C 54.638672 85.033131 54.716869 84.772895 54.873047 84.59375 C 55.029225 84.413457 55.254847 84.324219 55.548828 84.324219 C 55.698116 84.324219 55.838641 84.350324 55.970703 84.404297 C 56.103913 84.45827 56.22857 84.541296 56.345703 84.650391 L 56.345703 84.283203 C 56.226273 84.201669 56.099546 84.139802 55.962891 84.099609 C 55.827384 84.058268 55.681225 84.037109 55.527344 84.037109 z M 49.957031 84.083984 L 48.974609 86.65625 L 49.341797 86.65625 L 49.576172 85.996094 L 50.736328 85.996094 L 50.970703 86.65625 L 51.332031 86.65625 L 50.351562 84.083984 L 49.957031 84.083984 z M 51.705078 84.083984 L 51.705078 86.65625 L 52.419922 86.65625 C 52.916016 86.65625 53.281359 86.551604 53.515625 86.34375 C 53.749891 86.135896 53.867188 85.810456 53.867188 85.367188 C 53.867187 84.926215 53.750696 84.60319 53.517578 84.396484 C 53.28446 84.18863 52.918312 84.083984 52.419922 84.083984 L 51.705078 84.083984 z M 52.052734 84.371094 L 52.474609 84.371094 C 52.829454 84.371094 53.087737 84.450557 53.251953 84.611328 C 53.417318 84.770951 53.5 85.022678 53.5 85.367188 C 53.5 85.713994 53.417318 85.968135 53.251953 86.128906 C 53.087737 86.289677 52.829454 86.371094 52.474609 86.371094 L 52.052734 86.371094 L 52.052734 84.371094 z M 50.154297 84.427734 L 50.626953 85.707031 L 49.681641 85.707031 L 50.154297 84.427734 z M 57.400391 88.447266 C 57.14086 88.447266 56.933521 88.527877 56.777344 88.6875 C 56.621166 88.847123 56.542969 89.058142 56.542969 89.322266 C 56.542969 89.592131 56.616338 89.80476 56.765625 89.960938 C 56.916061 90.115967 57.121672 90.195312 57.378906 90.195312 C 57.50293 90.195312 57.614592 90.168059 57.716797 90.115234 C 57.819001 90.06241 57.904098 89.987431 57.970703 89.888672 C 57.953478 90.203324 57.883445 90.436768 57.761719 90.591797 C 57.64114 90.745678 57.466001 90.822266 57.236328 90.822266 C 57.150201 90.822266 57.062229 90.812835 56.972656 90.791016 C 56.883084 90.769197 56.794307 90.736654 56.707031 90.695312 L 56.707031 91.011719 C 56.803494 91.04617 56.896756 91.072618 56.986328 91.089844 C 57.075901 91.107069 57.164677 91.115234 57.251953 91.115234 C 57.57694 91.115234 57.835567 90.995063 58.027344 90.753906 C 58.220269 90.511601 58.316406 90.188576 58.316406 89.783203 C 58.316406 89.349121 58.237404 89.018392 58.080078 88.791016 C 57.9239 88.562491 57.697817 88.447266 57.400391 88.447266 z M 59.878906 88.447266 C 59.553919 88.447266 59.294488 88.568242 59.101562 88.810547 C 58.908637 89.051704 58.8125 89.376682 58.8125 89.783203 C 58.8125 90.216137 58.891502 90.546866 59.048828 90.775391 C 59.206154 91.002767 59.433042 91.115234 59.730469 91.115234 C 59.989999 91.115234 60.199291 91.036576 60.355469 90.876953 C 60.511646 90.71733 60.589844 90.504358 60.589844 90.240234 C 60.589844 89.970369 60.513717 89.75774 60.363281 89.601562 C 60.213994 89.444236 60.010335 89.365234 59.751953 89.365234 C 59.629078 89.365234 59.516267 89.393292 59.414062 89.447266 C 59.311858 89.50009 59.22791 89.575873 59.160156 89.675781 C 59.177382 89.362278 59.244656 89.127686 59.365234 88.972656 C 59.486961 88.817627 59.662905 88.740234 59.892578 88.740234 C 59.979854 88.740234 60.067826 88.751619 60.15625 88.773438 C 60.245822 88.795256 60.334599 88.825846 60.421875 88.867188 L 60.421875 88.550781 C 60.325412 88.51633 60.232151 88.489882 60.142578 88.472656 C 60.054154 88.455431 59.966182 88.447266 59.878906 88.447266 z M 61.933594 88.447266 C 61.645354 88.447266 61.42617 88.562491 61.273438 88.791016 C 61.121853 89.018392 61.044922 89.349121 61.044922 89.783203 C 61.044922 90.216137 61.121853 90.546866 61.273438 90.775391 C 61.42617 91.002767 61.645354 91.115234 61.933594 91.115234 C 62.221833 91.115234 62.442166 91.002767 62.59375 90.775391 C 62.746483 90.546866 62.822266 90.216137 62.822266 89.783203 C 62.822266 89.349121 62.746483 89.018392 62.59375 88.791016 C 62.442166 88.562491 62.221833 88.447266 61.933594 88.447266 z M 49.957031 88.494141 L 48.974609 91.066406 L 49.341797 91.066406 L 49.576172 90.40625 L 50.736328 90.40625 L 50.970703 91.066406 L 51.332031 91.066406 L 50.351562 88.494141 L 49.957031 88.494141 z M 51.705078 88.494141 L 51.705078 91.066406 L 52.419922 91.066406 C 52.916016 91.066406 53.281359 90.96176 53.515625 90.753906 C 53.749891 90.546052 53.867188 90.220613 53.867188 89.777344 C 53.867187 89.336372 53.750696 89.013346 53.517578 88.806641 C 53.28446 88.598787 52.918312 88.494141 52.419922 88.494141 L 51.705078 88.494141 z M 54.363281 88.494141 L 54.363281 88.787109 L 55.599609 88.787109 L 54.720703 91.066406 L 55.083984 91.066406 L 56.017578 88.642578 L 56.017578 88.494141 L 54.363281 88.494141 z M 57.400391 88.722656 C 57.556568 88.722656 57.680764 88.776819 57.771484 88.884766 C 57.863354 88.991564 57.908203 89.137379 57.908203 89.322266 C 57.908203 89.508301 57.863354 89.654921 57.771484 89.761719 C 57.680764 89.868517 57.556568 89.921875 57.400391 89.921875 C 57.244213 89.921875 57.121166 89.868517 57.029297 89.761719 C 56.938576 89.654921 56.892578 89.508301 56.892578 89.322266 C 56.892578 89.137379 56.938576 88.991564 57.029297 88.884766 C 57.121166 88.776819 57.244213 88.722656 57.400391 88.722656 z M 61.933594 88.722656 C 62.113887 88.722656 62.250271 88.811433 62.339844 88.988281 C 62.430565 89.163981 62.474609 89.429507 62.474609 89.783203 C 62.474609 90.135751 62.430565 90.399324 62.339844 90.576172 C 62.250271 90.751872 62.113887 90.839844 61.933594 90.839844 C 61.754449 90.839844 61.620018 90.751872 61.529297 90.576172 C 61.439724 90.399324 61.394531 90.135751 61.394531 89.783203 C 61.394531 89.429507 61.439724 89.163981 61.529297 88.988281 C 61.620018 88.811433 61.754449 88.722656 61.933594 88.722656 z M 52.052734 88.779297 L 52.474609 88.779297 C 52.829454 88.779297 53.087737 88.860713 53.251953 89.021484 C 53.417318 89.181107 53.5 89.432834 53.5 89.777344 C 53.5 90.12415 53.417318 90.378291 53.251953 90.539062 C 53.087737 90.699834 52.829454 90.779297 52.474609 90.779297 L 52.052734 90.779297 L 52.052734 88.779297 z M 50.154297 88.837891 L 50.626953 90.117188 L 49.681641 90.117188 L 50.154297 88.837891 z M 59.730469 89.640625 C 59.886646 89.640625 60.010842 89.693983 60.101562 89.800781 C 60.193432 89.907579 60.238281 90.054199 60.238281 90.240234 C 60.238281 90.425121 60.193432 90.571741 60.101562 90.679688 C 60.010842 90.786485 59.886646 90.839844 59.730469 90.839844 C 59.574291 90.839844 59.451244 90.786485 59.359375 90.679688 C 59.268654 90.571741 59.222656 90.425121 59.222656 90.240234 C 59.222656 90.054199 59.268654 89.907579 59.359375 89.800781 C 59.451244 89.693983 59.574291 89.640625 59.730469 89.640625 z "
       xlink:href="#text848"
       style="font-style:normal;font-weight:normal;font-size:3.52777767px;line-height:1.25;font-family:sans-serif;letter-spacing:0px;word-spacing:0px;fill:#000000;fill-opacity:1;stroke:none;stroke-width:0.26458332"
       id="path852"
       d="m 55.527344,84.037109 c -0.389296,0 -0.695991,0.120515 -0.919922,0.359375 -0.223931,0.237712 -0.335938,0.563151 -0.335938,0.976563 0,0.412263 0.112007,0.737702 0.335938,0.976562 0.223931,0.237712 0.530626,0.357422 0.919922,0.357422 0.151584,0 0.296133,-0.02116 0.43164,-0.0625 0.136656,-0.04134 0.264992,-0.102864 0.386719,-0.185547 V 86.09375 c -0.117133,0.109095 -0.24179,0.192121 -0.375,0.246094 -0.132062,0.05397 -0.272587,0.08008 -0.421875,0.08008 -0.293981,0 -0.519603,-0.08843 -0.675781,-0.267578 -0.156178,-0.180294 -0.234375,-0.440529 -0.234375,-0.779297 0,-0.339916 0.0782,-0.600152 0.234375,-0.779297 0.156178,-0.180293 0.3818,-0.269531 0.675781,-0.269531 0.149288,0 0.289813,0.02611 0.421875,0.08008 0.13321,0.05397 0.257867,0.136999 0.375,0.246094 v -0.367188 c -0.11943,-0.08153 -0.246157,-0.143401 -0.382812,-0.183594 -0.135507,-0.04134 -0.281666,-0.0625 -0.435547,-0.0625 z m -5.570313,0.04687 -0.982422,2.572266 h 0.367188 l 0.234375,-0.660156 h 1.160156 l 0.234375,0.660156 h 0.361328 l -0.980469,-2.572266 z m 1.748047,0 v 2.572266 h 0.714844 c 0.496094,0 0.861437,-0.104646 1.095703,-0.3125 0.234266,-0.207854 0.351563,-0.533294 0.351563,-0.976562 -10e-7,-0.440973 -0.116492,-0.763998 -0.34961,-0.970704 -0.233118,-0.207854 -0.599266,-0.3125 -1.097656,-0.3125 z m 0.347656,0.28711 h 0.421875 c 0.354845,0 0.613128,0.07946 0.777344,0.240234 0.165365,0.159623 0.248047,0.41135 0.248047,0.75586 0,0.346806 -0.08268,0.600947 -0.248047,0.761718 -0.164216,0.160771 -0.422499,0.242188 -0.777344,0.242188 h -0.421875 z m -1.898437,0.05664 0.472656,1.279297 h -0.945312 z m 7.246094,4.019532 c -0.259531,0 -0.46687,0.08061 -0.623047,0.240234 -0.156178,0.159623 -0.234375,0.370642 -0.234375,0.634766 0,0.269865 0.07337,0.482494 0.222656,0.638672 0.150436,0.155029 0.356047,0.234374 0.613281,0.234374 0.124024,0 0.235686,-0.02725 0.337891,-0.08008 0.102204,-0.05282 0.187301,-0.127803 0.253906,-0.226562 -0.01723,0.314652 -0.08726,0.548096 -0.208984,0.703125 -0.120579,0.153881 -0.295718,0.230469 -0.525391,0.230469 -0.08613,0 -0.174099,-0.0094 -0.263672,-0.03125 -0.08957,-0.02182 -0.178349,-0.05436 -0.265625,-0.0957 v 0.316407 c 0.09646,0.03445 0.189725,0.0609 0.279297,0.07813 0.08957,0.01722 0.178349,0.02539 0.265625,0.02539 0.324987,0 0.583614,-0.120171 0.775391,-0.361328 0.192925,-0.242305 0.289062,-0.56533 0.289062,-0.970703 0,-0.434082 -0.079,-0.764811 -0.236328,-0.992187 -0.156178,-0.228525 -0.382261,-0.34375 -0.679687,-0.34375 z m 2.478515,0 c -0.324987,0 -0.584418,0.120976 -0.777344,0.363281 -0.192925,0.241157 -0.289062,0.566135 -0.289062,0.972656 0,0.432934 0.079,0.763663 0.236328,0.992188 0.157326,0.227376 0.384214,0.339843 0.681641,0.339843 0.25953,0 0.468822,-0.07866 0.625,-0.238281 0.156177,-0.159623 0.234375,-0.372595 0.234375,-0.636719 0,-0.269865 -0.07613,-0.482494 -0.226563,-0.638672 -0.149287,-0.157326 -0.352946,-0.236328 -0.611328,-0.236328 -0.122875,0 -0.235686,0.02806 -0.337891,0.08203 -0.102204,0.05282 -0.186152,0.128607 -0.253906,0.228515 0.01723,-0.313503 0.0845,-0.548095 0.205078,-0.703125 0.121727,-0.155029 0.297671,-0.232422 0.527344,-0.232422 0.08728,0 0.175248,0.01139 0.263672,0.0332 0.08957,0.02182 0.178349,0.05241 0.265625,0.09375 v -0.316407 c -0.09646,-0.03445 -0.189724,-0.0609 -0.279297,-0.07813 -0.08842,-0.01722 -0.176396,-0.02539 -0.263672,-0.02539 z m 2.054688,0 c -0.28824,0 -0.507424,0.115225 -0.660156,0.34375 -0.151585,0.227376 -0.228516,0.558105 -0.228516,0.992187 0,0.432934 0.07693,0.763663 0.228516,0.992188 0.152732,0.227376 0.371916,0.339843 0.660156,0.339843 0.288239,0 0.508572,-0.112467 0.660156,-0.339843 0.152733,-0.228525 0.228516,-0.559254 0.228516,-0.992188 0,-0.434082 -0.07578,-0.764811 -0.228516,-0.992187 -0.151584,-0.228525 -0.371917,-0.34375 -0.660156,-0.34375 z m -11.976563,0.04687 -0.982422,2.572265 h 0.367188 l 0.234375,-0.660156 h 1.160156 l 0.234375,0.660156 h 0.361328 l -0.980469,-2.572265 z m 1.748047,0 v 2.572265 h 0.714844 c 0.496094,0 0.861437,-0.104646 1.095703,-0.3125 0.234266,-0.207854 0.351563,-0.533293 0.351563,-0.976562 -10e-7,-0.440972 -0.116492,-0.763998 -0.34961,-0.970703 -0.233118,-0.207854 -0.599266,-0.3125 -1.097656,-0.3125 z m 2.658203,0 v 0.292968 h 1.236328 l -0.878906,2.279297 h 0.363281 l 0.933594,-2.423828 v -0.148437 z m 3.03711,0.228515 c 0.156177,0 0.280373,0.05416 0.371093,0.16211 0.09187,0.106798 0.136719,0.252613 0.136719,0.4375 0,0.186035 -0.04485,0.332655 -0.136719,0.439453 -0.09072,0.106798 -0.214916,0.160156 -0.371093,0.160156 -0.156178,0 -0.279225,-0.05336 -0.371094,-0.160156 -0.09072,-0.106798 -0.136719,-0.253418 -0.136719,-0.439453 0,-0.184887 0.046,-0.330702 0.136719,-0.4375 0.09187,-0.107947 0.214916,-0.16211 0.371094,-0.16211 z m 4.533203,0 c 0.180293,0 0.316677,0.08878 0.40625,0.265625 0.09072,0.1757 0.134765,0.441226 0.134765,0.794922 0,0.352548 -0.04404,0.616121 -0.134765,0.792969 -0.08957,0.1757 -0.225957,0.263672 -0.40625,0.263672 -0.179145,0 -0.313576,-0.08797 -0.404297,-0.263672 -0.08957,-0.176848 -0.134766,-0.440421 -0.134766,-0.792969 0,-0.353696 0.04519,-0.619222 0.134766,-0.794922 0.09072,-0.176848 0.225152,-0.265625 0.404297,-0.265625 z m -9.88086,0.05664 h 0.421875 c 0.354845,0 0.613128,0.08142 0.777344,0.242187 0.165365,0.159623 0.248047,0.41135 0.248047,0.75586 0,0.346806 -0.08268,0.600947 -0.248047,0.761718 -0.164216,0.160772 -0.422499,0.240235 -0.777344,0.240235 h -0.421875 z m -1.898437,0.05859 0.472656,1.279297 h -0.945312 z m 9.576172,0.802734 c 0.156177,0 0.280373,0.05336 0.371093,0.160156 0.09187,0.106798 0.136719,0.253418 0.136719,0.439453 0,0.184887 -0.04485,0.331507 -0.136719,0.439454 -0.09072,0.106797 -0.214916,0.160156 -0.371093,0.160156 -0.156178,0 -0.279225,-0.05336 -0.371094,-0.160156 -0.09072,-0.107947 -0.136719,-0.254567 -0.136719,-0.439454 0,-0.186035 0.046,-0.332655 0.136719,-0.439453 0.09187,-0.106798 0.214916,-0.160156 0.371094,-0.160156 z"
       transform="translate(-2.529297,2.228516)"
       inkscape:href="#text848" />
  </g>
</svg>
